<?xml version="1.0" standalone="no"?>
<!DOCTYPE svg PUBLIC "-//W3C//DTD SVG 1.1//EN" "http://www.w3.org/Graphics/SVG/1.1/DTD/svg11.dtd" >
<svg xmlns="http://www.w3.org/2000/svg">
<metadata>
Created by FontForge 20120731 at Mon Jul 18 14:19:41 2016
 By admin
</metadata>
<defs>
<font id="iconfont" horiz-adv-x="1024" >
  <font-face 
    font-family="iconfont"
    font-weight="500"
    font-stretch="normal"
    units-per-em="1024"
    panose-1="2 0 6 3 0 0 0 0 0 0"
    ascent="896"
    descent="-128"
    x-height="792"
    bbox="34 -59 968 844"
    underline-thickness="50"
    underline-position="-100"
    unicode-range="U+0078-E651"
  />
<missing-glyph horiz-adv-x="374" 
d="M34 0v682h272v-682h-272zM68 34h204v614h-204v-614z" />
    <glyph glyph-name=".notdef" horiz-adv-x="374" 
d="M34 0v682h272v-682h-272zM68 34h204v614h-204v-614z" />
    <glyph glyph-name=".null" horiz-adv-x="0" 
 />
    <glyph glyph-name="nonmarkingreturn" horiz-adv-x="341" 
 />
    <glyph glyph-name="x" unicode="x" horiz-adv-x="1001" 
d="M281 543q-27 -1 -53 -1h-83q-18 0 -36.5 -6t-32.5 -18.5t-23 -32t-9 -45.5v-76h912v41q0 16 -0.5 30t-0.5 18q0 13 -5 29t-17 29.5t-31.5 22.5t-49.5 9h-133v-97h-438v97zM955 310v-52q0 -23 0.5 -52t0.5 -58t-10.5 -47.5t-26 -30t-33 -16t-31.5 -4.5q-14 -1 -29.5 -0.5
t-29.5 0.5h-32l-45 128h-439l-44 -128h-29h-34q-20 0 -45 1q-25 0 -41 9.5t-25.5 23t-13.5 29.5t-4 30v167h911zM163 247q-12 0 -21 -8.5t-9 -21.5t9 -21.5t21 -8.5q13 0 22 8.5t9 21.5t-9 21.5t-22 8.5zM316 123q-8 -26 -14 -48q-5 -19 -10.5 -37t-7.5 -25t-3 -15t1 -14.5
t9.5 -10.5t21.5 -4h37h67h81h80h64h36q23 0 34 12t2 38q-5 13 -9.5 30.5t-9.5 34.5q-5 19 -11 39h-368zM336 498v228q0 11 2.5 23t10 21.5t20.5 15.5t34 6h188q31 0 51.5 -14.5t20.5 -52.5v-227h-327z" />
    <glyph glyph-name="uniE600" unicode="&#xe600;" 
d="M310 357l54 55l109 -109l-54 -55zM419 248l54 -54l272 272l-54 54l-218 -217zM789 836h-523q-72 0 -123 -51t-51 -123v-522q0 -72 51 -123t123 -51h523q72 0 123 51t51 123v522q0 72 -51 123t-123 51zM223 444h-44v87h44v-87zM223 357v-87h-44v87h44zM310 749h435v-696
h-435v696zM223 737v-119h-44v44q0 24 12 44t32 31zM179 140v43h44v-119q-20 12 -32 32t-12 44zM876 140q0 -24 -12 -44t-32 -32v119h44v-43zM876 270h-44v87h44v-87zM876 444h-44v87h44v-87zM876 618h-44v119q20 -11 32 -31t12 -44v-44z" />
    <glyph glyph-name="uniE601" unicode="&#xe601;" 
d="M702 575v43h-349v-43l170 -180l-170 -170h4v-42h345v42l-170 170zM789 836h-523q-72 0 -123 -51t-51 -123v-522q0 -72 51 -123t123 -51h523q72 0 123 51t51 123v522q0 72 -51 123t-123 51zM223 444h-44v87h44v-87zM223 357v-87h-44v87h44zM310 749h435v-696h-435v696z
M223 737v-119h-44v44q0 24 12 44t32 31zM179 140v43h44v-119q-20 12 -32 32t-12 44zM876 140q0 -24 -12 -44t-32 -32v119h44v-43zM876 270h-44v87h44v-87zM876 444h-44v87h44v-87zM876 618h-44v119q20 -11 32 -31t12 -44v-44z" />
    <glyph glyph-name="uniE602" unicode="&#xe602;" 
d="M484 662h87v-348h-87v348zM484 270h87v-87h-87v87zM789 836h-523q-72 0 -123 -51t-51 -123v-522q0 -72 51 -123t123 -51h523q72 0 123 51t51 123v522q0 72 -51 123t-123 51zM876 662v-44h-44v119q20 -11 32 -31t12 -44zM832 357h44v-87h-44v87zM832 444v87h44v-87h-44z
M179 183h44v-119q-20 12 -32 32t-12 44v43zM179 357h44v-87h-44v87zM179 531h44v-87h-44v87zM179 662q0 24 12 44t32 31v-119h-44v44zM310 53v696h435v-696h44h-479zM832 64v119h44v-43q0 -24 -12 -44t-32 -32z" />
    <glyph glyph-name="uniE603" unicode="&#xe603;" 
d="M789 836h-523q-72 0 -123 -51t-51 -123v-522q0 -72 51 -123t123 -51h523q72 0 123 51t51 123v522q0 72 -51 123t-123 51zM223 444h-44v87h44v-87zM223 270h-44v87h44v-87zM310 749h435v-696h-435v696zM223 737v-119h-44v44q0 24 12 44t32 31zM179 140v43h44v-119
q-20 12 -32 32t-12 44zM876 140q0 -24 -12 -44t-32 -32v119h44v-43zM876 270h-44v87h44v-87zM876 444h-44v87h44v-87zM876 618h-44v119q20 -11 32 -31t12 -44v-44zM615 401v261h-175v-261h-130l218 -218l217 218h-130z" />
    <glyph glyph-name="uniE604" unicode="&#xe604;" 
d="M527.5 836q-88.5 0 -169 -34.5t-139 -93t-93 -139t-34.5 -169t34.5 -169t93 -138.5t139 -92.5t169 -34.5t169 34.5t139 92.5t93 138.5t34.5 169t-34.5 169t-93 139t-139 93t-169 34.5zM527.5 53q-94.5 0 -174.5 46.5t-127 126.5t-47 174.5t47 175t127 127t174.5 46.5
t174.5 -46.5t127 -127t47 -175t-47 -174.5t-127 -126.5t-174.5 -46.5zM527.5 665q-18.5 0 -31 -13t-12.5 -30v-257h87v257q0 17 -12.5 30t-31 13zM745 450h-261v-85h261q18 0 31 12.5t13 30t-13 30t-31 12.5z" />
    <glyph glyph-name="uniE605" unicode="&#xe605;" 
d="M615 351v173h-175v-173h-173l261 -261l260 261h-173zM789 836h-523q-72 0 -123 -51t-51 -123v-522q0 -72 51 -123t123 -51h523q72 0 123 51t51 123v522q0 72 -51 123t-123 51zM615 749h174q36 0 61.5 -25.5t25.5 -61.5v0h-261v87zM484 749h44v-87h-44v87zM353 749h44v-87
h-44v87zM266 749v-87h-87q0 36 25.5 61.5t61.5 25.5zM789 53h-523q-36 0 -61.5 25.5t-25.5 61.5v435h697v-435q0 -36 -25.5 -61.5t-61.5 -25.5z" />
    <glyph glyph-name="uniE606" unicode="&#xe606;" 
d="M818 342v-73q0 -30 -21.5 -51t-51.5 -21h-435q-30 0 -51.5 21t-21.5 51v73h-72v-73q0 -60 42.5 -102.5t102.5 -42.5h435q60 0 102.5 42.5t42.5 102.5v73h-72zM758 600l-77 77l-230 -231l-77 77l-77 -77l154 -154l77 77z" />
    <glyph glyph-name="uniE607" unicode="&#xe607;" 
d="M600 473v218h-145v-218h-145l218 -217l217 217h-145zM818 328v-72q0 -30 -21.5 -51.5t-51.5 -21.5h-435q-30 0 -51.5 21.5t-21.5 51.5v72h-72v-72q0 -60 42.5 -102.5t102.5 -42.5h435q60 0 102.5 42.5t42.5 102.5v72h-72z" />
    <glyph glyph-name="uniE608" unicode="&#xe608;" 
d="M789 510h-131v-87h131q36 0 61.5 -25.5t25.5 -61.5v-174q0 -36 -25.5 -61.5t-61.5 -25.5h-523q-36 0 -61.5 25.5t-25.5 61.5v174q0 36 25.5 61.5t61.5 25.5h131v87h-131q-72 0 -123 -51t-51 -123v-174q0 -72 51 -123t123 -51h523q72 0 123 51t51 123v174q0 72 -51 123
t-123 51zM528 814l-261 -261h173v-261h175v261h173z" />
    <glyph glyph-name="uniE609" unicode="&#xe609;" 
d="M789 702h-131v-87h131q36 0 61.5 -25.5t25.5 -61.5v-348q0 -36 -25.5 -61.5t-61.5 -25.5h-523q-36 0 -61.5 25.5t-25.5 61.5v348q0 36 25.5 61.5t61.5 25.5h131v87h-131q-72 0 -123 -51t-51 -123v-348q0 -72 51 -123t123 -51h523q72 0 123 51t51 123v348q0 72 -51 123
t-123 51zM615 528v261h-175v-261h-173l261 -261l260 261h-173z" />
    <glyph glyph-name="uniE60A" unicode="&#xe60a;" 
d="M789 836h-523q-72 0 -123 -51t-51 -123v-348q0 -72 51 -123t123 -51h44v-174l218 174h261q72 0 123 51t51 123v348q0 72 -51 123t-123 51zM876 314q0 -36 -25.5 -61.5t-61.5 -25.5h-261l-175 -131l3 131h-90q-36 0 -61.5 25.5t-25.5 61.5v348q0 36 25.5 61.5t61.5 25.5
h523q36 0 61.5 -25.5t25.5 -61.5v-348zM701 687h-347v-82l115 -122l-115 -122v-82h347v82l-115 122l115 122v82z" />
    <glyph glyph-name="uniE60B" unicode="&#xe60b;" 
d="M789 836h-523q-72 0 -123 -51t-51 -123v-348q0 -72 51 -123t123 -51h44v-174l218 174h261q72 0 123 51t51 123v348q0 72 -51 123t-123 51zM876 314q0 -36 -25.5 -61.5t-61.5 -25.5h-261l-175 -131l3 131h-90q-36 0 -61.5 25.5t-25.5 61.5v348q0 36 25.5 61.5t61.5 25.5
h523q36 0 61.5 -25.5t25.5 -61.5v-348zM712 716l-277 -277l-92 92l-92 -92l92 -92l92 -93l369 370z" />
    <glyph glyph-name="uniE60C" unicode="&#xe60c;" 
d="M789 836h-523q-72 0 -123 -51t-51 -123v-348q0 -72 51 -123t123 -51h44v-174l218 174h261q72 0 123 51t51 123v348q0 72 -51 123t-123 51zM876 314q0 -36 -25.5 -61.5t-61.5 -25.5h-261l-175 -131l3 131h-90q-36 0 -61.5 25.5t-25.5 61.5v348q0 36 25.5 61.5t61.5 25.5
h523q36 0 61.5 -25.5t25.5 -61.5v-348zM527.5 618q58.5 0 97.5 -43h-47l124 -123l123 123h-98q-26 58 -80 94t-119.5 36t-119.5 -36t-80 -94h102q39 43 97.5 43zM527.5 357q-58.5 0 -97.5 44h53l-130 130l-129 -130h104q26 -59 80 -95t119.5 -36t119.5 36t80 95h-102
q-39 -44 -97.5 -44z" />
    <glyph glyph-name="uniE60D" unicode="&#xe60d;" 
d="M915 103q-6 0 -11 -1l-72 79q1 4 1 9q0 14 -9.5 23.5t-23 9.5t-23 -9.5t-9.5 -23.5q0 -4 1 -8l-60 -71q-3 1 -6 1q-2 0 -5 -1l-91 208q9 10 9 23t-9.5 23t-23 10t-23 -10t-9.5 -23q0 -11 7 -20l-117 -292h-1h-6l-98 165q7 9 7 20q0 13 -9.5 22.5t-23 9.5t-23 -9.5
t-9.5 -22.5t7 -22l-52 -90h-2q-13 0 -22.5 -9.5t-9.5 -23t9.5 -23t23 -9.5t23 9.5t9.5 23.5q0 9 -5 17l53 92l98 -169q-2 -6 -2 -13q0 -14 9.5 -23.5t23 -9.5t23 9.5t9.5 23.5q0 11 -7 19l116 287l92 -210q-3 -7 -3 -15q0 -13 9.5 -23t23 -10t23 10t9.5 23q0 7 -3 13l56 68
q6 -2 12 -2q5 0 10 1l72 -79q-1 -4 -1 -9q0 -14 9.5 -23.5t23 -9.5t23 9.5t9.5 23t-9.5 23t-22.5 9.5zM370 369v0q59 0 114 -27l29 35q-19 11 -39 19q51 28 82 79t31 111q0 89 -64 153t-153.5 64t-153 -64t-63.5 -153q0 -61 31 -111.5t82 -79.5q-84 -32 -136.5 -106.5
t-52.5 -166.5q0 -33 8 -62l43 16q-5 33 -5 46q0 102 72.5 174.5t174.5 72.5zM199 583q0 71 50 121t121 50t120.5 -50t49.5 -121q0 -64 -41.5 -112t-103.5 -57q-11 1 -23 1t-26 -1q-63 8 -105 56t-42 113z" />
    <glyph glyph-name="uniE60E" unicode="&#xe60e;" 
d="M761 224l-40 127h-49l-57 -304l-73 397h-44l-59 -329l-30 92v8h-109v-21h77l40 -131h46l57 302l74 -400h43l63 335l30 -98l2 1v-1h215v22h-186zM719 123l-17 -76q77 50 117 111h-62q-11 -13 -38 -35zM485 36q-95 0 -175.5 45t-129.5 123.5t-53 172.5h63v46h-63
q10 118 90 209l45 -45l33 33l-45 44q96 84 221 89v-67h46v66q124 -11 215 -97l-44 -43l33 -33l42 42q71 -86 79 -198h-64v-46h65q-4 -65 -29 -124h54q25 66 25 142q1 111 -53.5 205t-149 148.5t-205.5 54.5t-205 -54.5t-148.5 -148.5t-54.5 -205t54.5 -205t148.5 -148.5
t205 -54.5q30 0 43 3l-11 49q-5 0 -16 -1.5t-16 -1.5z" />
    <glyph glyph-name="uniE60F" unicode="&#xe60f;" 
d="M441 144l134 129l-22 21l-166 -157l24 -22l166 -5l-144 -139l22 -22l177 168l-22 25zM512 648q-94 0 -161 -67.5t-67 -161.5q0 -95 68 -163l35 36q-52 51 -52 124.5t52 125t125 51.5t125 -51.5t52 -125t-52 -124.5l35 -36q68 68 68 163q0 94 -67 161.5t-161 67.5z
M512 819q-108 0 -201 -53.5t-147 -146.5t-54 -202q0 -80 31.5 -153.5t87.5 -129.5l41 41q-48 47 -74.5 110t-26.5 132q-1 93 44.5 172.5t125 126t173.5 46.5t173.5 -46.5t125.5 -126t46 -172.5q0 -71 -26.5 -134t-73.5 -108l41 -41q55 55 85.5 128.5t30.5 154.5
q0 109 -54 202t-147 146.5t-201 53.5zM512 419zM455 419.5q0 23.5 16.5 40t40.5 16.5t40.5 -16.5t16.5 -40t-16.5 -40.5t-40.5 -17t-40.5 17t-16.5 40.5z" />
    <glyph glyph-name="uniE610" unicode="&#xe610;" 
d="M319 631h-58v-368h58v368zM559 604h-58v-200h58v200zM790 667h-58v-220h58v220zM942 748q0 3 -3 3q0 2 -3 2q-5 6 -8 6l-154 51h-3q-12 7 -19 3l-225 -103l-225 87h-6h-2h-3h-5l-193 -90q-16 -4 -16 -21v-3v-615v-6v-3q0 -1 1.5 -2.5t1.5 -2.5q0 -3 2 -3q3 -2 6 -2l2 -3
h3h6h5h5l185 87l214 -82l-14 57l-192 73h-3h-5h-6h-2l-160 -75v563l168 82l222 -84q12 -6 19 -3l228 100l135 -43v-569l-78 24q-1 -5 -5.5 -21t-5.5 -25l100 -33q10 -4 19 0q19 5 19 22v618q-1 2 -2.5 6t-2.5 5zM646.5 314q-26.5 0 -46 -19t-19.5 -45.5t19.5 -46t45.5 -19.5
q28 0 46.5 19t18.5 46t-19 46t-45.5 19zM646 214q-14 0 -24.5 10.5t-10.5 24.5t10.5 24.5t24.5 10.5q16 0 25.5 -10t9.5 -25q0 -14 -10.5 -24.5t-24.5 -10.5zM646 404q-61 0 -105 -44t-44 -105q0 -28 14 -60l135 -241l136 241q13 32 13 60q0 61 -44 105t-105 44zM749 195
l-103 -176l-103 176q-16 24 -16 60q0 50 35 84.5t84 34.5t84 -35.5t35 -83.5q0 -32 -16 -60z" />
    <glyph glyph-name="uniE611" unicode="&#xe611;" 
d="M918 154l-179 147q-20 17 -49.5 16t-49.5 -20l-30 -31q-4 -4 -11.5 -4t-11.5 4l-183 183q-4 4 -4 11t4 12l30 30q22 21 22 52q0 30 -19 50l-154 185q-22 27 -57 27q-38 0 -60 -30l-3 -4q-83 -112 -83 -202q0 -78 69.5 -185t167.5 -205t205 -168t185 -70h13q63 5 117 36
q42 23 66 41l14 10q27 22 27 58q0 34 -26 57zM390 546l-30 -30q-23 -23 -23 -56t23 -56l182 -182q22 -22 56.5 -22t55.5 22l29 30q8 7 16 0l179 -147q3 -3 3 -8q0 -6 -4 -10q-1 0 -6 -4l-6 -4q-21 -16 -58 -37q-42 -23 -90 -27h-10q-59 0 -157 65.5t-187 155t-154.5 187.5
t-65.5 157q0 69 70 165l3 3q4 5 10 5q5 0 9 -4l154 -186q4 -4 4 -9t-3 -8zM771 608l97 97q2 2 2 7t-2 7l-11 11q-2 2 -7 2t-7 -2l-97 -97l-97 97q-2 2 -7 2t-7 -2l-11 -11q-2 -2 -2 -7t2 -7l97 -97l-97 -97q-2 -2 -2 -6.5t2 -7.5l11 -10q2 -3 7 -3t7 3l97 97l97 -97
q2 -3 7 -3t7 3l11 10q2 3 2 7.5t-2 6.5z" />
    <glyph glyph-name="uniE612" unicode="&#xe612;" 
d="M387 778h35v-125h-35v125zM387 596h35v-124h-35v124zM387 415h35v-125h-35v125zM387 233h35v-124h-35v124zM79 105l97 714l57 -8l-98 -714zM742 393l-3 -3v-32v-133v-35h36h135h24h11q0 83 -60 143t-143 60zM775 225v130q48 -10 84 -45.5t46 -84.5h-130zM859 152
q0 -69 -49.5 -118.5t-118.5 -49.5t-118.5 49.5t-49.5 118.5t49.5 118.5t118.5 49.5q11 0 16 -3v36q-3 0 -8.5 1t-7.5 1q-84 0 -143.5 -59t-59.5 -144q0 -84 59 -143.5t144 -59.5q83 0 143 59t60 144v11h-35v-11zM683 423l-55 395l-57 -8l55 -395z" />
    <glyph glyph-name="uniE613" unicode="&#xe613;" 
d="M604 9v357h-122v-357h30v327h60v-327h32zM754 9v191h-122v-191h30v158h59v-158h33zM904 9v253h-123v-253h30v221h60v-221h33zM379 597h421l-130 -131q-10 -10 0 -24l13 -14q10 -10 25 0l179 180q5 5 4 13q1 9 -4 14l-179 179q-15 10 -25 0l-13 -13q-10 -15 0 -25
l130 -130h-421q-125 0 -213.5 -87.5t-88.5 -211.5q0 -108 68 -191t171 -106v55q-81 20 -134 87.5t-53 154.5q0 104 73 177t177 73zM439 -18v-32h43h465v32h-508z" />
    <glyph glyph-name="uniE614" unicode="&#xe614;" 
d="M510 537h1v-2h-1v2zM509 540q-4 0 -4 -3.5t4 -3.5t4 3.5t-4 3.5zM509 533q-3 0 -3 3t3 3t3 -3t-3 -3zM507 540h6v-7h-6v7zM509 538q-2 0 -2 -2t2 -2t2 2t-2 2zM509 535q-2 0 -2 1.5t2 1.5t2 -1.5t-2 -1.5zM508 538h3v-4h-3v4zM509 537q-1 0 -1 -1t1 -1t1 1t-1 1zM510 536
q-1 0 -1 0.5t0.5 0.5t0.5 -1zM509 537h2v-2h-2v2zM512 820q-89 0 -169.5 -34.5t-138.5 -92.5t-92.5 -138.5t-34.5 -169t34.5 -169t92.5 -139t138.5 -93t169.5 -34.5t169.5 34.5t138.5 93t92.5 139t34.5 169t-34.5 169t-92.5 138.5t-138.5 92.5t-169.5 34.5zM664 603
q27 0 46.5 -25.5t19.5 -61.5t-19.5 -61.5t-46.5 -25.5t-46 25.5t-19 61.5t19 61.5t46 25.5zM360 603q27 0 46 -25.5t19 -61.5t-19 -61.5t-46 -25.5t-46.5 25.5t-19.5 61.5t19.5 61.5t46.5 25.5zM513 255q-138 0 -247 -76l-15 -11q1 3 2.5 9.5t9 24.5t18.5 34.5t31.5 36.5
t46.5 34.5t66 24.5t88 10q64 0 115 -18.5t77 -42.5t42.5 -52t21 -43t4.5 -18l-12 9q-8 6 -34 21t-54.5 26.5t-72 21t-87.5 9.5z" />
    <glyph glyph-name="uniE615" unicode="&#xe615;" 
d="M510 537h1v-2h-1v2zM509 540q-4 0 -4 -3.5t4 -3.5t4 3.5t-4 3.5zM509 533q-3 0 -3 3t3 3t3 -3t-3 -3zM507 540h6v-7h-6v7zM509 538q-2 0 -2 -2t2 -2t2 2t-2 2zM509 535q-2 0 -2 1.5t2 1.5t2 -1.5t-2 -1.5zM508 538h3v-4h-3v4zM509 537q-1 0 -1 -1t1 -1t1 1t-1 1zM510 536
q-1 0 -1 0.5t0.5 0.5t0.5 -1zM509 537h2v-2h-2v2zM512 819q-89 0 -169.5 -34.5t-138.5 -92.5t-92.5 -138.5t-34.5 -169.5t34.5 -169.5t92.5 -138.5t138.5 -92.5t169.5 -34.5t169.5 34.5t138.5 92.5t92.5 138.5t34.5 169.5t-34.5 169.5t-92.5 138.5t-138.5 92.5t-169.5 34.5z
M360 602q27 0 46 -25.5t19 -62t-19 -61.5t-46 -25t-46.5 25t-19.5 61.5t19.5 62t46.5 25.5zM730 210h-436v87h436v-87zM664 428q-27 0 -46 25t-19 61.5t19 62t46 25.5t46.5 -25.5t19.5 -62t-19.5 -61.5t-46.5 -25z" />
    <glyph glyph-name="uniE616" unicode="&#xe616;" 
d="M510 537h1v-2h-1v2zM509 540q-4 0 -4 -3.5t4 -3.5t4 3.5t-4 3.5zM509 533q-3 0 -3 3t3 3t3 -3t-3 -3zM507 540h6v-7h-6v7zM509 538q-2 0 -2 -2t2 -2t2 2t-2 2zM509 535q-2 0 -2 1.5t2 1.5t2 -1.5t-2 -1.5zM508 538h3v-4h-3v4zM509 537q-1 0 -1 -1t1 -1t1 1t-1 1zM510 536
q-1 0 -1 0.5t0.5 0.5t0.5 -1zM509 537h2v-2h-2v2zM512 819q-89 0 -169.5 -34.5t-138.5 -92.5t-92.5 -138.5t-34.5 -169.5t34.5 -169.5t92.5 -138.5t138.5 -92.5t169.5 -34.5t169.5 34.5t138.5 92.5t92.5 138.5t34.5 169.5t-34.5 169.5t-92.5 138.5t-138.5 92.5t-169.5 34.5z
M664 602q27 0 46.5 -25.5t19.5 -62t-19.5 -61.5t-46.5 -25t-46 25t-19 61.5t19 62t46 25.5zM360 602q27 0 46 -25.5t19 -62t-19 -61.5t-46 -25t-46.5 25t-19.5 61.5t19.5 62t46.5 25.5zM511 79q-159 0 -230 157q-25 55 -30 104q4 -7 12 -18.5t34 -41.5t54.5 -53t72 -42
t88 -19t88 18t73.5 43.5t53.5 51.5t35.5 44l11 17q-1 -5 -2.5 -14.5t-9 -36.5t-18.5 -51.5t-31.5 -55t-46.5 -52t-66 -36.5t-88 -15z" />
    <glyph glyph-name="uniE617" unicode="&#xe617;" 
d="M842 85l42 41q8 9 8 21.5t-8.5 21t-21 8.5t-21.5 -9l-41 -41l-45 45q-9 9 -22 9t-22 -9t-9 -22t9 -22l45 -45l-41 -41q-9 -9 -9 -21.5t8.5 -21t21 -8.5t21.5 8l41 42l45 -45q9 -9 22 -9t22 9t9 22t-9 22zM553 366q43 33 67.5 81t24.5 104q0 95 -66.5 162.5t-161 67.5
t-161.5 -67.5t-67 -162.5q0 -55 24 -102.5t66 -79.5q-88 -40 -143.5 -122t-58.5 -182q0 -16 11 -27t27 -11t27 11t11 27q7 103 80 177.5t174 78.5h20q63 -2 117.5 -32t89.5 -81h86q-52 107 -167 158zM421 399h-9q-61 2 -104 46t-43 106q0 64 44.5 109t107.5 45t107 -45
t44 -109q0 -62 -43 -106.5t-104 -45.5zM662 698q52 -14 92.5 -55t40.5 -92q0 -39 -23 -76.5t-56 -58.5q-15 -6 -24.5 -19.5t-9.5 -29.5v-5q0 -21 14.5 -36t35.5 -17h2q67 -32 119 -101h94q-52 103 -159 154v3q39 33 61.5 82t22.5 104q0 90 -60.5 155.5t-149.5 72.5h-2
q-17 -1 -28 -12.5t-11 -27.5q0 -17 12 -29t29 -12z" />
    <glyph glyph-name="uniE618" unicode="&#xe618;" 
d="M936 7l-56 56l54 54q11 11 11 27t-11.5 27.5t-27 11.5t-26.5 -12l-54 -54l-55 55q-11 12 -26.5 12t-26.5 -11t-11 -27t11 -27l55 -56l-54 -55q-12 -12 -12 -27.5t11 -26.5t27 -11t27 11l54 55l56 -57q11 -11 27 -11t27 11.5t11 27.5t-11 27zM712 242q0 16 -15 29h-1
q-34 24 -72 42q57 38 90 99.5t33 133.5q0 116 -81 198.5t-196.5 82.5t-196.5 -82.5t-81 -198.5q0 -71 32.5 -132.5t89.5 -100.5q-97 -42 -161 -129t-76 -197v-4q0 -16 11.5 -27t28 -11t28 11t11.5 27v1v1q15 118 102 198.5t206 82.5h3l2 -1h3h1q98 -1 176 -56q13 -10 23 -10
q16 0 28.5 11.5t12.5 27.5zM474 346q-1 0 -2.5 0.5t-2 0.5t-2 -0.5t-2.5 -0.5q-81 2 -137.5 60t-56.5 140q0 83 58 142t140.5 59t140.5 -59t58 -142q0 -82 -56.5 -140t-137.5 -60z" />
    <glyph glyph-name="uniE619" unicode="&#xe619;" 
d="M256 251v-27q0 -6 4 -10t9 -4h136q6 0 10 4t4 10v27q0 6 -4 10t-10 4h-136q-5 0 -9 -4t-4 -10zM256 414v-27q0 -6 4 -9.5t9 -3.5h245q6 0 10 3.5t4 9.5v27q0 6 -4 10t-10 4h-245q-5 0 -9 -4t-4 -10zM269 537h408q6 0 10 4t4 9v27q0 6 -4 10t-10 4h-408q-5 0 -9 -4t-4 -10
v-27q0 -5 4 -9t9 -4zM908 235v492q0 45 -31.5 77t-77.5 32h-543q-45 0 -77 -32t-32 -77v-653q0 -45 32 -76.5t77 -31.5h383v0zM657 217h157l-157 -157v157zM854 273h-253v-28v-28v-197h-345q-23 0 -39 16t-16 38v653q0 23 16 38.5t39 15.5h543q23 0 39 -15.5t16 -38.5v-454z
" />
    <glyph glyph-name="uniE61A" unicode="&#xe61a;" 
d="M728 259q0 16 -16 28l-1 1q-33 24 -72 41q57 39 90.5 100.5t33.5 133.5q0 116 -81.5 198.5t-196.5 82.5t-196.5 -82.5t-81.5 -198.5q0 -72 33 -133t89 -100q-97 -43 -161 -130t-75 -196v-4q0 -16 11.5 -27t28 -11t28 11t11.5 27v1q14 119 101.5 199t206.5 82h2h3h2h2
q97 -1 175 -57q13 -9 23 -9q17 0 29 11.5t12 27.5v4zM490 363h-2h-3h-3h-2q-80 2 -137 60t-57 140q0 83 58.5 141.5t140.5 58.5t140 -58.5t58 -141.5q0 -82 -56.5 -140t-136.5 -60zM937 110h-64l-1 62q0 13 -9 22t-22 9t-22 -9t-9 -22l1 -62l-63 1q-13 0 -22 -9t-9 -21.5
t9 -21.5t22 -9l64 -1v-63q0 -13 9 -22t21.5 -9t21.5 9t9 22v63l64 -1q13 0 22 9t9 22t-9.5 22t-21.5 9z" />
    <glyph glyph-name="uniE61B" unicode="&#xe61b;" 
d="M569 383q43 32 67.5 80.5t24.5 103.5q0 96 -67 163.5t-161.5 67.5t-161 -67.5t-66.5 -163.5q0 -54 24 -101.5t65 -80.5q-88 -39 -143.5 -121t-58.5 -182q0 -16 11.5 -27t27 -11t26.5 11t11 27q8 102 80.5 176.5t173.5 79.5h21q63 -3 117 -33t90 -80h86q-53 106 -167 158z
M436 415h-8q-61 2 -104 46.5t-43 106.5q0 63 44 108t107 45t107.5 -45t44.5 -108q0 -62 -43 -106.5t-105 -46.5zM677 715q53 -14 93.5 -55.5t40.5 -91.5q0 -39 -23 -76.5t-56 -58.5q-15 -6 -24.5 -19.5t-9.5 -30.5v-4q0 -21 14.5 -36.5t35.5 -16.5h1q68 -32 119 -101h95
q-52 103 -160 154v3q40 33 62.5 81.5t22.5 103.5q0 91 -61 156.5t-149 72.5h-3q-16 -1 -27.5 -12.5t-11.5 -27.5q0 -17 12 -29t29 -12zM887 125h-48v49q0 10 -7 17t-17 7t-17.5 -7t-7.5 -17v-49h-48q-10 0 -17.5 -7t-7.5 -17t7.5 -17.5t17.5 -7.5h48v-48q0 -10 7.5 -17.5
t17.5 -7.5t17 7.5t7 17.5v48h48q10 0 17.5 7.5t7.5 17.5t-7.5 17t-17.5 7z" />
    <glyph glyph-name="uniE61C" unicode="&#xe61c;" 
d="M510 537h1v-2h-1v2zM509 540q-4 0 -4 -3.5t4 -3.5t4 3.5t-4 3.5zM509 533q-3 0 -3 3t3 3t3 -3t-3 -3zM507 540h6v-7h-6v7zM509 538q-2 0 -2 -2t2 -2t2 2t-2 2zM509 535q-2 0 -2 1.5t2 1.5t2 -1.5t-2 -1.5zM508 538h3v-4h-3v4zM509 537q-1 0 -1 -1t1 -1t1 1t-1 1zM510 536
q-1 0 -1 0.5t0.5 0.5t0.5 -1zM509 537h2v-2h-2v2zM910 748h-1h-1h-1h-1h-249q-16 0 -28 -17t-12 -35q0 -16 12 -27.5t28 -11.5l111 -2l-193 -196l-117 114l-1 2q-12 12 -28.5 12t-28.5 -12l-294 -244q-9 -14 -2 -35.5t21 -35.5q12 -12 28.5 -12t28.5 12l246 206l119 -119
q12 -11 28.5 -11t27.5 11l257 251l1 -129q0 -17 11.5 -28.5t28.5 -11.5t31.5 12t14.5 28v238v1q0 16 -10.5 27.5t-26.5 12.5zM77 164h135v-144h-135v144zM320 248h135v-227h-135v227zM562 213h135v-192h-135v192zM805 310h135v-289h-135v289z" />
    <glyph glyph-name="uniE61D" unicode="&#xe61d;" 
d="M510 537h1v-2h-1v2zM509 540q-4 0 -4 -3.5t4 -3.5t4 3.5t-4 3.5zM509 533q-3 0 -3 3t3 3t3 -3t-3 -3zM507 540h6v-7h-6v7zM509 538q-2 0 -2 -2t2 -2t2 2t-2 2zM509 535q-2 0 -2 1.5t2 1.5t2 -1.5t-2 -1.5zM508 538h3v-4h-3v4zM509 537q-1 0 -1 -1t1 -1t1 1t-1 1zM510 536
q-1 0 -1 0.5t0.5 0.5t0.5 -1zM509 537h2v-2h-2v2zM947 710l-109 109l-326 -326l-326 326l-109 -109l326 -326l-326 -326l109 -109l326 326l326 -326l109 109l-326 326z" />
    <glyph glyph-name="uniE61E" unicode="&#xe61e;" 
d="M510 537h1v-2h-1v2zM509 540q-4 0 -4 -3.5t4 -3.5t4 3.5t-4 3.5zM509 533q-3 0 -3 3t3 3t3 -3t-3 -3zM507 540h6v-7h-6v7zM509 538q-2 0 -2 -2t2 -2t2 2t-2 2zM509 535q-2 0 -2 1.5t2 1.5t2 -1.5t-2 -1.5zM508 538h3v-4h-3v4zM509 537q-1 0 -1 -1t1 -1t1 1t-1 1zM510 536
q-1 0 -1 0.5t0.5 0.5t0.5 -1zM509 537h2v-2h-2v2zM109 190l-32 59l438 329l432 -329l-32 -59l-403 307z" />
    <glyph glyph-name="uniE61F" unicode="&#xe61f;" 
d="M510 537h1v-2h-1v2zM509 540q-4 0 -4 -3.5t4 -3.5t4 3.5t-4 3.5zM509 533q-3 0 -3 3t3 3t3 -3t-3 -3zM507 540h6v-7h-6v7zM509 538q-2 0 -2 -2t2 -2t2 2t-2 2zM509 535q-2 0 -2 1.5t2 1.5t2 -1.5t-2 -1.5zM508 538h3v-4h-3v4zM509 537q-1 0 -1 -1t1 -1t1 1t-1 1zM510 536
q-1 0 -1 0.5t0.5 0.5t0.5 -1zM509 537h2v-2h-2v2zM109 578l-32 -59l438 -329l432 329l-32 59l-403 -307z" />
    <glyph glyph-name="uniE620" unicode="&#xe620;" 
d="M510 537h1v-2h-1v2zM509 540q-4 0 -4 -3.5t4 -3.5t4 3.5t-4 3.5zM509 533q-3 0 -3 3t3 3t3 -3t-3 -3zM507 540h6v-7h-6v7zM509 538q-2 0 -2 -2t2 -2t2 2t-2 2zM509 535q-2 0 -2 1.5t2 1.5t2 -1.5t-2 -1.5zM508 538h3v-4h-3v4zM509 537q-1 0 -1 -1t1 -1t1 1t-1 1zM510 536
q-1 0 -1 0.5t0.5 0.5t0.5 -1zM509 537h2v-2h-2v2zM318 787l59 32l329 -438l-329 -432l-59 32l307 403z" />
    <glyph glyph-name="uniE621" unicode="&#xe621;" 
d="M510 537h1v-2h-1v2zM509 540q-4 0 -4 -3.5t4 -3.5t4 3.5t-4 3.5zM509 533q-3 0 -3 3t3 3t3 -3t-3 -3zM507 540h6v-7h-6v7zM509 538q-2 0 -2 -2t2 -2t2 2t-2 2zM509 535q-2 0 -2 1.5t2 1.5t2 -1.5t-2 -1.5zM508 538h3v-4h-3v4zM509 537q-1 0 -1 -1t1 -1t1 1t-1 1zM510 536
q-1 0 -1 0.5t0.5 0.5t0.5 -1zM509 537h2v-2h-2v2zM706 787l-59 32l-329 -438l329 -432l59 32l-307 403z" />
    <glyph glyph-name="uniE622" unicode="&#xe622;" 
d="M548 139l182 399q0 98 -73.5 163t-172.5 53q-74 -10 -126.5 -62.5t-61.5 -125.5q-2 -14 -2 -28l182 -399h72zM367 538q0 59 43 102t102 43q60 0 102.5 -42.5t42.5 -102.5l-145 -319l-145 319v0zM875 284q-13 20 -25.5 42.5t-18 31t-12 18t-13 12t-15.5 4t-25 1.5h-36v-73
h36q9 0 18 -9t13 -18l5 -9l73 -145q0 -15 -11 -25.5t-26 -10.5h-652q-15 0 -26 10.5t-11 25.5l73 145l5 10q3 6 12.5 16t18.5 10h36v73h-36q-13 0 -22.5 -1.5t-18 -7t-14 -9.5t-13 -16t-11.5 -19t-14 -26t-16 -30l-72 -145q0 -45 32 -77t77 -32h652q45 0 77 32t32 77z
M514 502q14 1 23.5 10.5t10.5 23.5q1 16 -10.5 27.5t-27.5 10.5q-14 -1 -23.5 -10.5t-10.5 -23.5q-1 -16 10.5 -27.5t27.5 -10.5z" />
    <glyph glyph-name="uniE623" unicode="&#xe623;" 
d="M476 576h73q15 0 25.5 11t10 26t-11 25t-25.5 10l-73 1q-15 -1 -25.5 -11.5t-10 -25.5t11 -25.5t25.5 -10.5zM820 653h-54q-15 0 -25.5 -10.5t-10.5 -25.5t10.5 -25.5t25.5 -10.5h54q18 0 32 -10t20 -26h-723q0 36 63 36h46q15 0 25.5 10.5t10.5 25.5t-10.5 25.5
t-25.5 10.5h-46q-60 0 -97.5 -30t-37.5 -78v-435q0 -49 37 -79t98 -30h608q52 0 89.5 37.5t37.5 89.5v399q0 53 -37.5 89.5t-89.5 36.5zM875 128q0 -22 -16.5 -38.5t-38.5 -16.5h-608q-7 0 -14.5 1t-20 4t-20.5 11.5t-8 20.5v362h726v-344zM367 581q15 0 25.5 10.5
t10.5 25.5v73q0 15 -10.5 25.5t-25.5 10.5t-25.5 -10.5t-10.5 -25.5v-73q0 -15 10.5 -25.5t25.5 -10.5zM657 581q15 0 25.5 10.5t10.5 25.5v73q0 15 -10.5 25.5t-25.5 10.5t-25.5 -10.5t-10.5 -25.5v-73q0 -15 10.5 -25.5t25.5 -10.5zM313 146h36q7 0 12.5 5t5.5 13v36
q0 8 -5.5 13t-12.5 5h-36q-8 0 -13.5 -5t-5.5 -13v-36q0 -8 5.5 -13t13.5 -5zM494 146h36q8 0 13 5t5 13v36q0 8 -5 13t-13 5h-36q-8 0 -13 -5t-5 -13v-36q0 -8 5 -13t13 -5zM675 146h36q8 0 13.5 5t5.5 13v36q0 8 -5.5 13t-13.5 5h-36q-7 0 -12.5 -5t-5.5 -13v-36
q0 -8 5.5 -13t12.5 -5zM313 291h36q7 0 12.5 5t5.5 13v36q0 8 -5.5 13t-12.5 5h-36q-8 0 -13.5 -5t-5.5 -13v-36q0 -8 5.5 -13t13.5 -5zM494 291h36q8 0 13 5t5 13v36q0 8 -5 13t-13 5h-36q-8 0 -13 -5t-5 -13v-36q0 -8 5 -13t13 -5zM675 291h36q8 0 13.5 5t5.5 13v36
q0 8 -5.5 13t-13.5 5h-36q-7 0 -12.5 -5t-5.5 -13v-36q0 -8 5.5 -13t12.5 -5z" />
    <glyph glyph-name="uniE624" unicode="&#xe624;" 
d="M510 537h1v-2h-1v2zM509 540q-4 0 -4 -3.5t4 -3.5t4 3.5t-4 3.5zM509 533q-3 0 -3 3t3 3t3 -3t-3 -3zM507 540h6v-7h-6v7zM509 538q-2 0 -2 -2t2 -2t2 2t-2 2zM509 535q-2 0 -2 1.5t2 1.5t2 -1.5t-2 -1.5zM508 538h3v-4h-3v4zM509 537q-1 0 -1 -1t1 -1t1 1t-1 1zM510 536
q-1 0 -1 0.5t0.5 0.5t0.5 -1zM509 537h2v-2h-2v2zM229 689h-130q-9 0 -15.5 -6.5t-6.5 -15.5v-44q0 -9 6.5 -15t15.5 -6h130q9 0 15.5 6t6.5 15v44q0 9 -6.5 15.5t-15.5 6.5zM925 689h-565q-9 0 -15.5 -6.5t-6.5 -15.5v-44q0 -9 6.5 -15t15.5 -6h565q9 0 15.5 6t6.5 15v44
q0 9 -6.5 15.5t-15.5 6.5zM229 428h-130q-9 0 -15.5 -6.5t-6.5 -15.5v-44q0 -9 6.5 -15.5t15.5 -6.5h130q9 0 15.5 6.5t6.5 15.5v44q0 9 -6.5 15.5t-15.5 6.5zM925 428h-565q-9 0 -15.5 -6.5t-6.5 -15.5v-44q0 -9 6.5 -15.5t15.5 -6.5h565q9 0 15.5 6.5t6.5 15.5v44
q0 9 -6.5 15.5t-15.5 6.5zM229 166h-130q-9 0 -15.5 -6t-6.5 -15v-44q0 -9 6.5 -15.5t15.5 -6.5h130q9 0 15.5 6.5t6.5 15.5v44q0 9 -6.5 15t-15.5 6zM925 166h-565q-9 0 -15.5 -6t-6.5 -15v-44q0 -9 6.5 -15.5t15.5 -6.5h565q9 0 15.5 6.5t6.5 15.5v44q0 9 -6.5 15t-15.5 6
z" />
    <glyph glyph-name="uniE625" unicode="&#xe625;" 
d="M510 537h1v-2h-1v2zM509 540q-4 0 -4 -3.5t4 -3.5t4 3.5t-4 3.5zM509 533q-3 0 -3 3t3 3t3 -3t-3 -3zM507 540h6v-7h-6v7zM509 538q-2 0 -2 -2t2 -2t2 2t-2 2zM509 535q-2 0 -2 1.5t2 1.5t2 -1.5t-2 -1.5zM508 538h3v-4h-3v4zM509 537q-1 0 -1 -1t1 -1t1 1t-1 1zM510 536
q-1 0 -1 0.5t0.5 0.5t0.5 -1zM509 537h2v-2h-2v2zM335 46h-170v676h170q10 0 17 7.5t7 17.5v48q0 10 -7 17t-17 7h-194h-48q-10 0 -17 -7t-7 -17v-48v-726v-48q0 -10 7 -17t17 -7h48h194q10 0 17 7t7 17v48q0 10 -7 17.5t-17 7.5zM955 391q0 7 -4 11l-290 290q-5 6 -14.5 4
t-18.5 -10l-39 -40q-8 -8 -10 -17.5t3 -15.5l181 -181h-477q-10 0 -17 -7t-7 -17v-48q0 -10 7 -17t17 -7h488l-186 -186q-6 -6 -4.5 -15t8.5 -16l34 -34q7 -7 16 -8t14 4l245 246q2 1 4 3l40 39q1 2 3 4l3 3q5 6 4 15z" />
    <glyph glyph-name="uniE626" unicode="&#xe626;" 
d="M510 537h1v-2h-1v2zM509 540q-4 0 -4 -3.5t4 -3.5t4 3.5t-4 3.5zM509 533q-3 0 -3 3t3 3t3 -3t-3 -3zM507 540h6v-7h-6v7zM509 538q-2 0 -2 -2t2 -2t2 2t-2 2zM509 535q-2 0 -2 1.5t2 1.5t2 -1.5t-2 -1.5zM508 538h3v-4h-3v4zM509 537q-1 0 -1 -1t1 -1t1 1t-1 1zM510 536
q-1 0 -1 0.5t0.5 0.5t0.5 -1zM509 537h2v-2h-2v2zM689 46h170v676h-170q-10 0 -17 7.5t-7 17.5v48q0 10 7 17t17 7h194h48q10 0 17 -7t7 -17v-48v-726v-48q0 -10 -7 -17t-17 -7h-48h-194q-10 0 -17 7t-7 17v48q0 10 7 17.5t17 7.5zM69 391q0 7 4 11l290 290q5 6 14.5 4
t18.5 -10l39 -40q8 -8 10 -17.5t-3 -15.5l-181 -181h477q10 0 17 -7t7 -17v-48q0 -10 -7 -17t-17 -7h-488l186 -186q6 -6 4.5 -15t-8.5 -16l-34 -34q-7 -7 -16 -8t-14 4l-245 246q-2 1 -4 3l-40 39q-1 2 -3 4l-3 3q-5 6 -4 15z" />
    <glyph glyph-name="uniE627" unicode="&#xe627;" 
d="M705 457h242l-338 241v-145h-532v-96h532h96zM319 311h-242l338 -241v145h532v96h-532h-96z" />
    <glyph glyph-name="uniE628" unicode="&#xe628;" 
d="M904 459q18 0 30.5 12.5t12.5 30.5v131q0 18 -12.5 30.5t-30.5 12.5h-784q-18 0 -30.5 -12.5t-12.5 -30.5v-131q0 -18 12.5 -30.5t30.5 -12.5h66v-131h-66q-18 0 -30.5 -12.5t-12.5 -30.5v-131q0 -18 12.5 -30.5t30.5 -12.5h784q18 0 30.5 12.5t12.5 30.5v131
q0 18 -12.5 30.5t-30.5 12.5h-66v131h66zM817 611q18 0 30.5 -13t12.5 -31t-12.5 -30.5t-30.5 -12.5t-31 12.5t-13 30.5t13 31t31 13zM686 611q18 0 31 -13t13 -31t-13 -30.5t-31 -12.5t-30.5 12.5t-12.5 30.5t12.5 31t30.5 13zM686 176q-18 0 -30.5 12.5t-12.5 30.5
t12.5 31t30.5 13t31 -13t13 -31t-13 -30.5t-31 -12.5zM860 219q0 -18 -12.5 -30.5t-30.5 -12.5t-31 12.5t-13 30.5t13 31t31 13t30.5 -13t12.5 -31zM795 328h-566v131h566v-131z" />
    <glyph glyph-name="uniE629" unicode="&#xe629;" 
d="M512 -52q-89 0 -169.5 34.5t-138.5 92.5t-92.5 138.5t-34.5 169.5q0 30 6 67v6v-2l1 6q27 154 148 256t280 102q89 0 169.5 -34.5t138.5 -92.5t92.5 -138.5t34.5 -169.5t-34.5 -169.5t-92.5 -138.5t-138.5 -92.5t-169.5 -34.5zM739 473q1 9 1 16q0 11 -2 23q68 7 138 5
q-24 66 -69 118q-51 -28 -95 -71q-11 13 -25 22q44 46 93 77q-47 46 -107 73q-116 -13 -223 -75q2 -6 2 -12q60 -28 110 -65q-12 -7 -22 -19q-43 32 -95 57q-14 -22 -39 -22q-16 0 -29 10q-96 -79 -151 -199q16 -14 16 -35q0 -10 -5 -21q26 -14 53 -26q17 16 41 16
q6 0 14 -2q75 68 172 111q6 -20 19 -36q-92 -38 -160 -95q12 -15 13 -33q78 -26 157 -36q3 70 23 135q15 -8 31 -11q-18 -61 -21 -128q56 -5 110 -4q9 24 32 34q-11 59 -35 112q17 10 29 25q34 -63 45 -135q22 -6 34 -26q43 7 90 19q16 54 16 108q0 50 -14 102
q-70 0 -147 -12zM274 300q-32 16 -61 33q-9 -3 -18 -3q-18 -59 -27 -125q14 -29 35 -56q26 60 72 119q-3 10 -3 18q0 7 2 14zM618 59q0 -7 -12 -28q2 -6 4.5 -11.5t3.5 -10.5q52 14 98 42q14 58 16 119q-16 4 -27 16.5t-14 28.5q-55 -3 -108 2q1 -59 16 -129q23 -16 23 -29z
M873 242q-39 -10 -70 -15v-1q0 -19 -11 -34t-29 -21q-3 -47 -16 -96q87 66 126 167zM512 -5q36 0 73 7q-3 11 -7 23q-13 0 -22.5 9t-9.5 22q0 19 16 28q-16 70 -17 136q-84 10 -164 37q-17 -29 -50 -29q-19 0 -34 10q-40 -54 -65 -123q54 -56 126.5 -88t153.5 -32zM143 262
q8 40 21 80q-15 14 -15 33q-12 9 -24 19q-1 -2 -1 -6v-5q0 -61 19 -121zM126 425q16 -11 31 -22q14 20 38 20h1q60 129 165 213q-2 6 -2 11q0 4 1 9q-45 15 -95 27q-57 -48 -93.5 -114.5t-45.5 -143.5zM298 707q37 -10 77 -25q14 12 31 12q15 0 27 -9q87 49 195 68
q-56 18 -116 18q-117 0 -214 -64zM625 409q-34 0 -57.5 24t-23.5 57.5t23.5 57.5t57.5 24t58 -24t24 -57.5t-24 -57.5t-58 -24zM625 543q-22 0 -37.5 -15.5t-15.5 -37t15.5 -37t37.5 -15.5t37.5 15.5t15.5 37t-15.5 37t-37.5 15.5zM625 468q-11 0 -18.5 7.5t-7.5 18.5
t7.5 19t18.5 8t18.5 -8t7.5 -19t-7.5 -18.5t-18.5 -7.5z" />
    <glyph glyph-name="uniE62A" unicode="&#xe62a;" 
d="M510 537h1v-2h-1v2zM509 540q-4 0 -4 -3.5t4 -3.5t4 3.5t-4 3.5zM509 533q-3 0 -3 3t3 3t3 -3t-3 -3zM507 540h6v-7h-6v7zM509 538q-2 0 -2 -2t2 -2t2 2t-2 2zM509 535q-2 0 -2 1.5t2 1.5t2 -1.5t-2 -1.5zM508 538h3v-4h-3v4zM509 537q-1 0 -1 -1t1 -1t1 1t-1 1zM510 536
q-1 0 -1 0.5t0.5 0.5t0.5 -1zM509 537h2v-2h-2v2zM557 573q0 18 -13.5 31t-31.5 13t-31.5 -13t-13.5 -31q0 -16 10.5 -28t25.5 -15l-125 -581h268l-125 581q15 3 25.5 15t10.5 28zM583 541l31 -31q27 26 27 63t-27 63l-31 -32q13 -13 13 -31.5t-13 -31.5zM798 819l-32 -31
q46 -41 71.5 -96.5t25.5 -118.5t-25.5 -118.5t-71.5 -96.5l32 -32q51 47 80.5 111t29.5 136t-29.5 135.5t-80.5 110.5zM703 725l-31 -32q58 -47 58 -120t-58 -121l31 -31q71 60 71 151.5t-71 152.5zM441 541q-13 13 -13 31.5t13 31.5l-31 32q-27 -26 -27 -63t27 -63z
M258 788l-32 31q-51 -47 -80.5 -110.5t-29.5 -135.5t29.5 -136t80.5 -111l32 32q-46 41 -71.5 96.5t-25.5 118.5t25.5 118.5t71.5 96.5zM321 725q-71 -61 -71 -152.5t71 -151.5l31 31q-58 48 -58 121t58 120z" />
    <glyph glyph-name="uniE62B" unicode="&#xe62b;" 
d="M510 537h1v-2h-1v2zM509 540q-4 0 -4 -3.5t4 -3.5t4 3.5t-4 3.5zM509 533q-3 0 -3 3t3 3t3 -3t-3 -3zM507 540h6v-7h-6v7zM509 538q-2 0 -2 -2t2 -2t2 2t-2 2zM509 535q-2 0 -2 1.5t2 1.5t2 -1.5t-2 -1.5zM508 538h3v-4h-3v4zM509 537q-1 0 -1 -1t1 -1t1 1t-1 1zM510 536
q-1 0 -1 0.5t0.5 0.5t0.5 -1zM509 537h2v-2h-2v2zM687 819h-350q-34 0 -58 -24t-24 -58v-704q0 -34 24 -59t58 -25h350q34 0 58.5 25t24.5 59v704q0 34 -24.5 58t-58.5 24zM433 770q0 10 10 10h138q10 0 10 -10v-20q0 -10 -10 -10h-138q-10 0 -10 10v20zM511.5 -12
q-24.5 0 -42 17.5t-17.5 42t17.5 42t42 17.5t42 -17.5t17.5 -42t-17.5 -42t-42 -17.5zM730 127h-436v574h436v-574z" />
    <glyph glyph-name="uniE62C" unicode="&#xe62c;" 
d="M940 23l-187 187q80 104 80 231q0 103 -50.5 190t-137.5 137.5t-189.5 50.5t-190 -50.5t-138 -137.5t-50.5 -190t50.5 -190t138 -137.5t189.5 -50.5q127 0 231 80l187 -187q7 -7 17 -7t16 7l34 33q7 7 7 17t-7 17zM172 441q0 117 83 200.5t200.5 83.5t200.5 -83.5
t83 -200.5t-83 -200.5t-200.5 -83.5t-200.5 83.5t-83 200.5z" />
    <glyph glyph-name="uniE62D" unicode="&#xe62d;" 
d="M762 353v1v8q36 30 56.5 73.5t20.5 92.5q0 85 -56.5 147t-139.5 70q-3 1 -5 1h-1v0q-15 0 -25.5 -10.5t-10.5 -25.5t10.5 -25.5t25.5 -10.5q11 -1 28 -3q46 -5 73 -46.5t27 -95.5q0 -37 -12 -72.5t-36 -48.5q-3 -1 -9 -1h-1h-1h-2q-22 -2 -36.5 -17t-14.5 -36v-4
q0 -20 14 -35t34 -17l1 -1v0q14 -1 28 -9q63 -30 103 -90t42 -132v-5v-4q0 -15 10.5 -25.5t25.5 -10.5t25 11t10 26v8q-2 93 -52 170t-132 117zM730 61v4q-2 96 -55 174.5t-137 116.5q39 31 61.5 76t22.5 96q0 91 -64 155t-154 64t-154 -64t-64 -155q0 -51 22.5 -96
t61.5 -76q-84 -37 -136.5 -114.5t-55.5 -172.5q0 -6 -1 -8v-4q0 -15 10.5 -25.5t25.5 -10.5t26 11t11 26q0 96 62.5 167.5t155.5 84.5l-60 -118h189l-60 118q92 -12 155 -81t66 -163v-5v-4q0 -15 10.5 -25.5t25.5 -10.5t25.5 10.5t10.5 25.5v4zM403.5 384
q-61.5 0 -104.5 43.5t-43 104.5t43 104.5t104.5 43.5t105 -43.5t43.5 -104.5t-43.5 -104.5t-105 -43.5z" />
    <glyph glyph-name="uniE62E" unicode="&#xe62e;" 
d="M510 537h1v-2h-1v2zM509 540q-4 0 -4 -3.5t4 -3.5t4 3.5t-4 3.5zM509 533q-3 0 -3 3t3 3t3 -3t-3 -3zM507 540h6v-7h-6v7zM509 538q-2 0 -2 -2t2 -2t2 2t-2 2zM509 535q-2 0 -2 1.5t2 1.5t2 -1.5t-2 -1.5zM508 538h3v-4h-3v4zM509 537q-1 0 -1 -1t1 -1t1 1t-1 1zM510 536
q-1 0 -1 0.5t0.5 0.5t0.5 -1zM509 537h2v-2h-2v2zM512 819l-425 -425l85 -85l340 340l340 -340l85 85zM512 459l-425 -425l85 -85l340 340l340 -340l85 85l-425 425v0z" />
    <glyph glyph-name="uniE62F" unicode="&#xe62f;" 
d="M510 537h1v-2h-1v2zM509 540q-4 0 -4 -3.5t4 -3.5t4 3.5t-4 3.5zM509 533q-3 0 -3 3t3 3t3 -3t-3 -3zM507 540h6v-7h-6v7zM509 538q-2 0 -2 -2t2 -2t2 2t-2 2zM509 535q-2 0 -2 1.5t2 1.5t2 -1.5t-2 -1.5zM508 538h3v-4h-3v4zM509 537q-1 0 -1 -1t1 -1t1 1t-1 1zM510 536
q-1 0 -1 0.5t0.5 0.5t0.5 -1zM509 537h2v-2h-2v2zM512 -51l425 425l-85 85l-340 -340l-340 340l-85 -85zM512 309l425 425l-85 85l-340 -340l-340 340l-85 -85l425 -425v0z" />
    <glyph glyph-name="uniE630" unicode="&#xe630;" 
d="M510 537h1v-2h-1v2zM509 540q-4 0 -4 -3.5t4 -3.5t4 3.5t-4 3.5zM509 533q-3 0 -3 3t3 3t3 -3t-3 -3zM507 540h6v-7h-6v7zM509 538q-2 0 -2 -2t2 -2t2 2t-2 2zM509 535q-2 0 -2 1.5t2 1.5t2 -1.5t-2 -1.5zM508 538h3v-4h-3v4zM509 537q-1 0 -1 -1t1 -1t1 1t-1 1zM510 536
q-1 0 -1 0.5t0.5 0.5t0.5 -1zM509 537h2v-2h-2v2zM947 384l-425 425l-85 -85l340 -340l-340 -340l85 -85l425 425v0zM587 384l-425 425l-85 -85l340 -340l-340 -340l85 -85z" />
    <glyph glyph-name="uniE631" unicode="&#xe631;" 
d="M510 537h1v-2h-1v2zM509 540q-4 0 -4 -3.5t4 -3.5t4 3.5t-4 3.5zM509 533q-3 0 -3 3t3 3t3 -3t-3 -3zM507 540h6v-7h-6v7zM509 538q-2 0 -2 -2t2 -2t2 2t-2 2zM509 535q-2 0 -2 1.5t2 1.5t2 -1.5t-2 -1.5zM508 538h3v-4h-3v4zM509 537q-1 0 -1 -1t1 -1t1 1t-1 1zM510 536
q-1 0 -1 0.5t0.5 0.5t0.5 -1zM509 537h2v-2h-2v2zM77 384l425 -425l85 85l-340 340l340 340l-85 85zM437 384l425 -425l85 85l-340 340l340 340l-85 85l-425 -425v0z" />
    <glyph glyph-name="uniE632" unicode="&#xe632;" 
d="M769 251q-6 6 -14.5 6t-14.5 -6.5t-6 -15t6 -14.5q98 -100 98 -241q0 -8 6 -14.5t15 -6.5t15 6.5t6 14.5q0 77 -28.5 146.5t-82.5 124.5zM503 829q-104 0 -178 -74.5t-74 -179.5q0 -75 40 -137t105 -93q-95 -28 -160 -94q-53 -55 -81.5 -124.5t-28.5 -146.5q0 -8 6 -14.5
t14.5 -6.5t15 6.5t6.5 14.5q0 141 98 241q97 98 235 99h1h1q104 0 177.5 74.5t73.5 180t-73.5 180t-177.5 74.5zM503 362q0 1 -0.5 1t-0.5 -1h-1q-86 1 -147 63t-61 150q0 87 61.5 149.5t148 62.5t148 -62.5t61.5 -150t-61 -149.5t-148 -63z" />
    <glyph glyph-name="uniE633" unicode="&#xe633;" 
d="M512 532q-60 0 -102.5 -43.5t-42.5 -104.5t42.5 -104.5t102.5 -43.5q12 0 26 3q8 2 13 9t3.5 15.5t-8.5 13.5t-16 4q-10 -2 -18 -2q-43 0 -73 30.5t-30 74.5t30 74.5t73 30.5t73 -30.5t30 -74.5q0 -8 -2 -19q-1 -8 4 -15.5t13.5 -9t15.5 3.5t8 14q3 14 3 26
q0 61 -42.5 104.5t-102.5 43.5zM939 467q-2 14 -15 17q-71 16 -107 79.5t-15 133.5q4 13 -6 22q-63 56 -141 83q-13 5 -22 -5q-49 -54 -121 -54t-121 54q-9 10 -22 5q-78 -28 -141 -83q-10 -9 -6 -22q21 -70 -15 -133.5t-107 -79.5q-13 -3 -15 -17q-8 -42 -8 -83t8 -83
q2 -14 15 -17q71 -16 107 -79.5t15 -133.5q-4 -13 6 -22q63 -55 141 -83q3 -2 7 -2q9 0 15 7q49 54 121 54t121 -54q9 -10 22 -5q78 27 141 83q10 9 6 22q-21 70 15 133.5t107 79.5q13 3 15 17q8 42 8 83t-8 83zM901 322q-79 -24 -119.5 -96t-22.5 -154q-48 -39 -106 -62
q-59 57 -141 57q-81 0 -141 -57q-58 23 -106 62q19 81 -22 154q-41 72 -120 96q-5 32 -5 62t5 62q79 24 119.5 96t22.5 154q48 39 106 62q59 -57 141 -57t141 57q58 -23 106 -62q-18 -82 22.5 -154t119.5 -96q5 -32 5 -62t-5 -62z" />
    <glyph glyph-name="uniE634" unicode="&#xe634;" 
d="M914 614v33h-185l81 81q2 2 2 7t-2 7l-10 11q-5 9 -14 0l-117 -117q-3 -3 -2 -8q-1 -6 2 -8l117 -117q9 -5 14 0l10 11q2 2 2 6.5t-2 6.5l-87 87h191zM921 168l-179 147q-21 17 -50.5 16t-49.5 -20l-30 -30q-4 -5 -11 -5t-11 5l-183 182q-5 5 -5 12q0 6 5 11l30 30
q21 22 21 53q0 30 -19 50l-153 185q-23 27 -58 27q-37 0 -60 -30l-2 -4q-84 -113 -84 -202q0 -78 70 -185.5t168 -205.5t205 -168t185 -70l12 1q64 5 118 35q41 23 66 41l13 10q28 23 28 58q0 34 -26 57zM392 560l-29 -29q-24 -23 -24 -56t23 -56l183 -183q21 -21 55.5 -21
t56.5 21l29 30q8 8 16 1l178 -147q4 -3 4 -8.5t-5 -9.5q-1 -1 -4 -3l-2 -2l-6 -3q-21 -16 -58 -37q-42 -23 -90 -28h-10q-58 0 -156 66t-187.5 155t-155 187.5t-65.5 157.5q0 69 70 164l3 4q4 5 10 5t9 -5l155 -186q3 -4 3 -8q1 -5 -3 -9z" />
    <glyph glyph-name="uniE635" unicode="&#xe635;" 
d="M920 624l-16 -48l-38 192h-40l-25 -126h-22v-14h20l-19 -98l-49 128v77q0 33 -23.5 57t-57.5 24h-297q-33 0 -57 -23.5t-24 -57.5v-540q0 -33 23.5 -57t57.5 -24h121v-162h54v162h41v57h-3h-216q-12 0 -19.5 7t-7.5 20v537q0 12 7.5 19.5t19.5 7.5h300q12 0 19.5 -7.5
t7.5 -19.5v-313h54v154l41 -111h27l29 163h22v14h-20l14 77l38 -192h30l35 89zM77 310h86v-33h-86v33zM185 360h54v-127h-54v127zM485 692h33v-376h-33v376zM734 262zM690 262.5q0 17.5 13 30.5t31 13t30.5 -13t12.5 -30.5t-12.5 -30.5t-30.5 -13t-31 13t-13 30.5z
M733.5 373q-52.5 0 -95 -31t-58.5 -80q16 -48 58.5 -79t95 -31t95 31t59.5 79q-17 49 -59.5 80t-95 31zM731 184q-40 0 -72.5 21.5t-49.5 56.5q17 36 49.5 57.5t72.5 21.5t72.5 -21.5t49.5 -57.5q-17 -35 -49.5 -56.5t-72.5 -21.5z" />
    <glyph glyph-name="uniE636" unicode="&#xe636;" 
d="M918 154l-179 147q-20 17 -49.5 16t-49.5 -20l-30 -31q-4 -4 -11.5 -4t-11.5 4l-183 183q-4 4 -4 11t4 12l30 30q22 21 22 52q0 30 -19 50l-154 185q-22 27 -57 27q-38 0 -60 -30l-3 -4q-83 -112 -83 -202q0 -78 69.5 -185t167.5 -205t205 -168t185 -70h13q63 5 117 36
q42 23 66 41l14 10q27 22 27 58q0 34 -26 57zM390 546l-30 -30q-23 -23 -23 -56t23 -56l182 -182q22 -22 56.5 -22t55.5 22l29 30q8 7 16 0l179 -147q3 -3 3 -8q0 -6 -4 -10q-1 0 -6 -4l-6 -4q-21 -16 -58 -37q-42 -23 -90 -27h-10q-59 0 -157 65.5t-187 155t-154.5 187.5
t-65.5 157q0 69 70 165l3 3q4 5 10 5q5 0 9 -4l154 -186q4 -4 4 -9t-3 -8zM884 607zM857 607q0 11 8 19t19 8t19 -8t8 -19t-8 -19.5t-19 -8.5t-19 8.5t-8 19.5zM608 607zM581 607q0 11 8 19t19 8t19 -8t8 -19t-8 -19.5t-19 -8.5t-19 8.5t-8 19.5zM745 746zM717 746.5
q0 11.5 8 19.5t19.5 8t19.5 -8t8 -19.5t-8 -19.5t-19.5 -8t-19.5 8t-8 19.5zM745 470zM717 470q0 11 8 19t19.5 8t19.5 -8t8 -19t-8 -19t-19.5 -8t-19.5 8t-8 19zM771 608l97 97q2 2 2 7t-2 7l-11 11q-2 2 -7 2t-7 -2l-97 -97l-97 97q-2 2 -7 2t-7 -2l-11 -11q-2 -2 -2 -7
t2 -7l97 -97l-97 -97q-2 -2 -2 -6.5t2 -7.5l11 -10q2 -3 7 -3t7 3l97 97l97 -97q2 -3 7 -3t7 3l11 10q2 3 2 7.5t-2 6.5z" />
    <glyph glyph-name="uniE637" unicode="&#xe637;" 
d="M857 767h-690q-37 0 -63.5 -26.5t-26.5 -62.5v-588q0 -36 26.5 -62.5t63.5 -26.5h690q37 0 63.5 25t26.5 62v590q0 36 -26.5 62.5t-63.5 26.5zM167 724h690q20 0 33.5 -13.5t13.5 -32.5v-52h-784v52q0 20 14 33t33 13zM857 41h-690q-20 0 -33.5 14t-13.5 33v495h784v-495
q0 -20 -14 -33.5t-33 -13.5zM191 675zM172 675q0 8 5.5 13.5t13.5 5.5t13.5 -5.5t5.5 -13.5t-5.5 -13.5t-13.5 -5.5t-13.5 5.5t-5.5 13.5zM265 675zM245 675q0 8 6 13.5t13.5 5.5t13.5 -5.5t6 -13.5t-6 -13.5t-13.5 -5.5t-13.5 5.5t-6 13.5zM341 675zM322 675q0 8 5.5 13.5
t13.5 5.5t13.5 -5.5t5.5 -13.5t-5.5 -13.5t-13.5 -5.5t-13.5 5.5t-5.5 13.5zM458 218v-90h108v272v90h-108v-272zM485 400v63h54v-245v-62h-54v244zM327 145v-17h106v125v17h-106v-125zM354 243h52v-87h-52v87zM591 196v-70h106v182v71h-106v-183zM618 311v43h52v-155v-43
h-52v155z" />
    <glyph glyph-name="uniE638" unicode="&#xe638;" 
d="M201 148l599 504l21 -25l-599 -504zM224 397l25 21l134 -160l-25 -21zM656 207h33v-68h-33v68zM790 183h32v-44h-32v44zM722 273h32v-156h-32v156zM693 552l25 21l70 -83l-25 -21zM264 612l25 21l223 -264l-25 -21zM569 25h-391q-21 0 -36.5 15t-15.5 37v617
q0 21 15 36.5t37 15.5h644q21 0 36.5 -15t15.5 -37v-332l52 -11v343q0 42 -30 71.5t-71 29.5h-647q-43 0 -72 -30t-29 -71v-620q0 -42 30 -71.5t71 -29.5h410zM947 -2l-87 87q38 47 38 100q0 68 -47.5 116t-115 48t-115.5 -48t-48 -115.5t48 -115.5t115 -48q59 0 101 38
l87 -87zM735 58q-53 0 -90.5 37t-37.5 90.5t37.5 90.5t90.5 37t90.5 -37t37.5 -90.5t-37.5 -90.5t-90.5 -37z" />
    <glyph glyph-name="uniE639" unicode="&#xe639;" 
d="M352 240h-115l-43 82q-8 16 -11 16q-3 3 -8 3v-101h-98v272h139q29 0 57 -5q25 -10 35 -27q14 -23 14 -47q0 -26 -11 -41q-17 -21 -27 -27q-3 0 -3 -2q8 -9 11 -14l11 -16zM254 265h59l-27 54q0 1 -8 14q-7 11 -11 11q-4 4 -16 8l-38 13l41 8q16 5 24 9q1 2 7.5 8.5
t8.5 10.5q9 12 9 30q0 20 -9 32q-15 15 -27 19q-22 6 -51 6h-117v-226h54v103h19q16 0 25 -8q10 -11 16 -24zM197 387h-44v73h46q27 0 36 -8q10 -11 10 -27q0 -13 -8 -22q-5 -11 -16 -11q-16 -5 -24 -5zM178 412h21q6 0 19 2l6 3q2 3 2 8q0 3 -1 6.5t-1 4.5q-6 3 -22 3h-24
v-27zM458 237q-68 0 -96 28q-25 25 -29 68v11l84 5q-33 12 -49 24q-25 21 -25 58q0 20 14 43q13 22 38 30q22 11 65 11q53 0 79 -19q27 -19 36 -65l2 -11l-62 -3q16 -5 21 -8q28 -14 36 -33q11 -18 11 -43q0 -29 -17 -49q-15 -23 -40 -36q-29 -11 -68 -11zM357 324
q3 -20 22 -43q22 -22 79 -22q34 0 54 8q21 9 33 28q11 18 11 38q0 17 -9 30t-27 24q-10 6 -68 22q-12 2 -30 11q-8 5 -8 19t11 21q8 9 27 9q22 0 33 -11t13 -22l49 3q-3 21 -21 35q-21 16 -66 16q-36 0 -57 -8q-17 -7 -27 -22q-8 -12 -8 -29q0 -26 16 -39q25 -20 68 -27
q36 -9 44 -16q13 -14 13 -25q0 -13 -13 -27q-18 -13 -36 -13q-28 0 -43 19q-6 5 -11 21h-49zM428 346v-5q0 -14 8 -22q7 -11 24 -11q8 0 19 6q3 1 4.5 3t1.5 3v2q0 5 -6 8l-3 2q-3 1 -11 3.5t-18 5.5q-17 5 -19 5zM449.5 447q-10.5 0 -13.5 -3t-3 -5q6 -6 22 -8
q3 -2 9.5 -3.5t9.5 -2.5q-4 12 -8 16q-6 6 -16.5 6zM708 237q-68 0 -95 28q-26 25 -30 68v11l84 5q-33 12 -49 24q-24 21 -24 58q0 20 13 43q13 22 38 30q22 11 66 11q52 0 78 -19q27 -19 36 -65l2 -11l-62 -3q16 -5 22 -8q28 -14 35 -33q11 -18 11 -43q0 -29 -16 -49
q-15 -23 -41 -36q-29 -11 -68 -11zM607 324q4 -20 22 -43q22 -22 79 -22q34 0 54 8q22 9 33 28q11 14 11 38q0 17 -8 30q-10 13 -28 24q-33 13 -68 19q-12 2 -30 11q-8 5 -8 19t11 22q8 8 27 8q22 0 33 -11t14 -22l49 3q-4 22 -22 35q-21 17 -65 17q-37 0 -58 -8
q-17 -7 -27 -22q-8 -12 -8 -30q0 -26 16 -38q25 -20 68 -27q37 -9 44 -17q11 -11 11 -24.5t-14 -26.5q-11 -11 -32 -11q-29 0 -44 19q-5 5 -11 21h-49zM675 346v-5q0 -14 8 -22q8 -11 25 -11q11 0 16 6q3 1 4 3t1 3l1 2q0 5 -6 8q-1 0 -4 1.5t-10.5 4t-18.5 5.5q-10 5 -16 5
zM700 447q-11 0 -14 -3t-3 -5q6 -6 22 -8q3 -2 9.5 -3.5t9.5 -2.5q-4 12 -8 16q-5 6 -16 6zM947 240h-101v272h101v-272zM871 265h54v225h-54v-225z" />
    <glyph glyph-name="uniE63A" unicode="&#xe63a;" 
d="M947 749l-75 75l-112 -113l-112 113l-75 -75l112 -113l-112 -112l75 -75l112 112l112 -112l75 75l-112 112zM787 214l-75 -75q-15 -15 -37 -15t-38 15l-374 375q-16 15 -16 37t16 38l75 75l-150 149l-111 -111q56 -283 260.5 -488t488.5 -261l111 111z" />
    <glyph glyph-name="uniE63B" unicode="&#xe63b;" 
d="M902 682l-93 92q-39 39 -93 39t-93 -39l-142 -141q-38 -39 -38 -93.5t38 -92.5l62 62q-12 13 -12 31t12 31l142 141q13 13 31 13t31 -13l93 -92q12 -13 12 -31t-12 -31l-142 -142q-13 -13 -31 -13t-31 13l-62 -62q39 -38 93 -38t93 38l142 142q38 38 38 92.5t-38 93.5z
M605 477q13 -13 13 -31t-13 -31l-124 -124q-13 -13 -31 -13t-31 13t-13 31t13 31l124 124q13 13 31 13t31 -13zM546 325l-62 -62q13 -13 13 -31.5t-13 -31.5l-143 -143q-13 -13 -31.5 -13t-31.5 13l-93 93q-13 13 -13 31.5t13 31.5l143 143q13 13 31.5 13t30.5 -13l63 63
q-39 38 -93.5 38t-93.5 -38l-143 -144q-39 -39 -39 -93.5t39 -93.5l93 -94q39 -39 93.5 -39t93.5 39l143 144q39 38 39 93t-39 94z" />
    <glyph glyph-name="uniE63C" unicode="&#xe63c;" 
d="M512 819q-89 0 -169.5 -34.5t-138.5 -92.5t-92.5 -138.5t-34.5 -169.5t34.5 -169.5t92.5 -138.5t138.5 -92.5t169.5 -34.5t169.5 34.5t138.5 92.5t92.5 138.5t34.5 169.5t-34.5 169.5t-92.5 138.5t-138.5 92.5t-169.5 34.5zM512 36q-95 0 -175 46.5t-126.5 126.5
t-46.5 175t46.5 175t126.5 126.5t175 46.5t175 -46.5t126.5 -126.5t46.5 -175t-46.5 -175t-126.5 -126.5t-175 -46.5zM543 391l-128 129l-62 -62l-87 -87l62 -62l87 88l67 -67l-1 -1l62 -62l215 216l-62 61z" />
    <glyph glyph-name="uniE63D" unicode="&#xe63d;" 
d="M77 -20h124v622h-124v-622zM326 -20h124v622h-124v-622zM574 -20h124v622h-124v-622zM823 602v-622h124v622h-124zM77 788h870v-124h-870v124z" />
    <glyph glyph-name="uniE63E" unicode="&#xe63e;" 
d="M963 62q0 65 -19.5 147.5t-56 166.5t-83 155t-107 115.5t-121.5 44.5v145h-48v-152q-69 -20 -133.5 -92.5t-108.5 -165.5t-70.5 -191t-26.5 -173v774h-97v-870h871v96zM528 634v-572h-291q0 65 23 153.5t60.5 174t93 154.5t114.5 90zM576 62v580q53 0 106.5 -42
t94 -108.5t72.5 -144t48.5 -153t16.5 -132.5h-338z" />
    <glyph glyph-name="uniE63F" unicode="&#xe63f;" 
d="M918 154l-179 147q-20 17 -49.5 16t-49.5 -20l-30 -31q-4 -4 -11.5 -4t-11.5 4l-183 183q-4 4 -4 11t4 12l30 30q22 21 22 52q0 30 -19 50l-154 185q-22 27 -57 27q-38 0 -60 -30l-3 -4q-83 -112 -83 -202q0 -78 69.5 -185t167.5 -205t205 -168t185 -70h13q63 5 117 36
q42 23 66 41l14 10q27 22 27 58q0 34 -26 57zM390 546l-30 -30q-23 -23 -23 -56t23 -56l182 -182q22 -22 56.5 -22t55.5 22l29 30q8 7 16 0l179 -147q3 -3 3 -8q0 -6 -4 -10q-1 0 -6 -4l-6 -4q-21 -16 -58 -37q-42 -23 -90 -27h-10q-59 0 -157 65.5t-187 155t-154.5 187.5
t-65.5 157q0 69 70 165l3 3q4 5 10 5q5 0 9 -4l154 -186q4 -4 4 -9t-3 -8zM771 608l97 97q2 2 2 7t-2 7l-11 11q-2 2 -7 2t-7 -2l-97 -97l-97 97q-2 2 -7 2t-7 -2l-11 -11q-2 -2 -2 -7t2 -7l97 -97l-97 -97q-2 -2 -2 -6.5t2 -7.5l11 -10q2 -3 7 -3t7 3l97 97l97 -97
q2 -3 7 -3t7 3l11 10q2 3 2 7.5t-2 6.5z" />
    <glyph glyph-name="uniE640" unicode="&#xe640;" 
d="M513 -21h-198q-37 1 -64 14q-48 25 -56 80q-4 23 0 76q4 47 17 89q15 47 43 77q31 34 82 39q17 2 30 -7q26 -18 41 -26q38 -23 83 -27q76 -8 144 37q2 2 9.5 6.5t11.5 7.5q15 12 36 9q48 -7 78 -38q20 -21 34 -54q15 -33 23 -85q6 -41 5 -86q-1 -67 -55 -97
q-27 -14 -66 -14q-34 -1 -198 -1v0zM513 -21zM513 672q70 2 122 -49.5t52.5 -123t-51.5 -122.5t-122 -51q-71 -1 -123.5 50t-52.5 123t52 123.5t123 49.5v0zM513 672zM714 528q24 -5 24 -6q49 -10 94 8q19 7 49 22q22 11 38 -6q13 -15 20 -42q8 -32 9 -78q1 -27 0 -39
q-3 -35 -39 -51q-21 -10 -46 -10h-29h-29q-5 0 -9 4q-33 38 -79 49q-2 0 -37 6q45 64 34 143v0zM714 528zM312 529q-6 -39 3 -76q8 -36 31 -68q-31 -5 -33 -5q-49 -11 -83 -50q-4 -4 -10 -4h-32h-31q-27 1 -49 15q-30 17 -31 51q-2 58 8 104q6 28 17 44q11 15 25 16
q6 1 12 -1q6 -3 25 -12t29 -13q52 -21 111 -4q3 1 8 3v0zM312 529zM367 674q2 -47 -32 -81.5t-81 -35.5q-48 -1 -83 32.5t-36 80.5t32.5 82t81.5 36t83 -33t35 -81v0zM367 674zM774 557q-48 0 -82 34t-34 82t34 81.5t83 33.5q47 0 81.5 -34t34.5 -82q0 -47 -34 -81t-83 -34
v0zM774 557z" />
    <glyph glyph-name="uniE641" unicode="&#xe641;" 
d="M757 173q-93 0 -177.5 36t-145.5 97t-97 145.5t-36 177.5q0 100 41 190q-119 -55 -192 -166.5t-73 -247.5q0 -93 36 -177.5t97 -145.5t145.5 -97t177.5 -36q136 0 247.5 73t166.5 192q-90 -41 -190 -41zM757 173z" />
    <glyph glyph-name="uniE642" unicode="&#xe642;" 
d="M521 672q110 -1 187 -70q90 -81 91 -203q0 -112 -80 -192q-79 -79 -192 -79q-107 -1 -185 72q-90 85 -86 209q4 104 75 178q80 83 190 85zM223 455v-115q-93 40 -131 56q25 11 69.5 31t61.5 28zM964 405q-22 -10 -65 -29.5t-66 -29.5v115q34 -15 131 -56zM532 -35
q-40 89 -58 130h114q-11 -26 -56 -130zM907 186q-23 3 -70 7.5t-72 7.5q37 63 58 99q51 -68 84 -114zM149 614q25 -2 72 -7t69 -7q-5 -8 -25.5 -43.5t-31.5 -55.5q-17 22 -48 64.5t-36 48.5zM323 635q-4 27 -9.5 77t-7.5 63q6 -5 116 -83q-69 -40 -99 -57zM762 605
q21 3 68.5 8.5t72.5 8.5q-28 -39 -83 -116q-28 48 -58 99zM314 22q9 87 14 141q12 -7 13 -7q11 -7 33 -20t32 -19q9 -5 18 -9q3 -2 0 -5q-14 -10 -55 -41q-8 -6 -25 -19t-26 -19q0 -1 -4 -2zM742 779q-2 -18 -7 -66.5t-7 -74.5q-12 7 -46 26.5t-54 30.5q38 29 114 84z
M293 195q-15 -2 -64 -7.5t-76 -8.5q60 83 83 115q11 -19 33 -55.5t24 -43.5zM634 109q42 24 99 57q10 -88 16 -140q-22 16 -65.5 47t-49.5 36zM582 706h-114q37 86 55 130q32 -72 59 -130z" />
    <glyph glyph-name="uniE643" unicode="&#xe643;" 
d="M734 85zM691 85q0 18 12.5 31t30.5 13t31 -13t13 -31t-13 -30.5t-31 -12.5t-30.5 12.5t-12.5 30.5zM734 203q-54 0 -98 -32.5t-63 -82.5q19 -50 63 -82.5t98 -32.5t98 32.5t63 82.5q-19 50 -63 82.5t-98 32.5zM734.5 6q-40.5 0 -75 22.5t-50.5 59.5q16 37 50.5 59.5
t75 22.5t74.5 -22.5t51 -59.5q-17 -37 -51 -59.5t-74.5 -22.5zM257 257h106v-33h-106v33zM573 1h-373q-6 0 -11.5 5t-5.5 11v731q0 6 5.5 11.5t11.5 5.5h597q6 0 11 -5.5t5 -11.5v-518h55v518q0 30 -21 50.5t-50 20.5h-597q-29 0 -50 -21t-21 -50v-728q0 -30 21 -50.5
t50 -20.5h373v52zM502 241q0 -21 -14 -35t-34.5 -14t-35 14t-14.5 34.5t14.5 35t34.5 14.5t34.5 -15t14.5 -34zM432 241q0 -8 6.5 -15t15 -7t15 7t6.5 15t-6.5 15t-15 7t-15 -7t-6.5 -15zM612 391q0 -21 -14.5 -35t-35 -14t-35 14t-14.5 34.5t14.5 35t34.5 14.5
q21 -2 35.5 -16.5t14.5 -32.5zM543 391q0 -8 7 -15t15 -7t15 7t7 15t-7 15t-15 7t-15 -7t-7 -15zM535 540.5q0 -20.5 -14 -34.5t-34.5 -14t-35 14t-14.5 34.5t14.5 35t35 14.5t34.5 -14.5t14 -35zM464 541q0 -8 7 -15t15 -7t15 7t7 15t-7 15t-15 7t-15 -7t-7 -15zM652 407
h93v-33h-93v33zM257 407h218v-33h-218v33zM579 557h166v-33h-166v33zM254 557h150v-33h-150v33z" />
    <glyph glyph-name="uniE644" unicode="&#xe644;" 
d="M732 88zM689 88q0 18 12.5 30.5t30.5 12.5t31 -12.5t13 -30.5t-13 -31t-31 -13t-30.5 13t-12.5 31zM262 137h255v-33h-255v33zM262 218h128v-33h-128v33zM531 324h92l-119 177l106 158h-90l-62 -93l-63 93h-87l106 -158l-120 -177h172v60h-41l33 49zM186 20v728q0 7 5 12
t11 5h596q6 0 11 -5t5 -12v-516h54v516q2 29 -19 50t-51 21h-596q-30 0 -50.5 -21t-20.5 -50v-726q0 -31 20.5 -52t50.5 -21h373v54h-373q-6 0 -11 5t-5 12zM893 90q-19 50 -63 82.5t-98 32.5t-97.5 -32.5t-62.5 -82.5v0v0q19 -50 62.5 -82t97.5 -32t98 32t63 82v0zM735 9
q-41 0 -75 22t-50 59q16 37 50 59.5t75 22.5t75 -22.5t50 -59.5q-16 -37 -50 -59t-75 -22z" />
    <glyph glyph-name="uniE645" unicode="&#xe645;" 
d="M512 281l-114 -332h228zM512 819q-116 0 -215 -57.5t-157 -156.5t-58 -216q0 -127 68 -232t180 -156l22 54q-96 46 -154.5 136t-58.5 198q0 102 50 188t135.5 135.5t187.5 49.5q101 0 187 -50.5t136 -136t50 -186.5q0 -109 -59.5 -200t-155.5 -137l21 -54
q113 52 182 157.5t69 233.5q0 117 -58 216t-157 156.5t-215 57.5zM512 653q-104 0 -177 -73t-73 -177q0 -72 36.5 -131t99.5 -92l22 54q-46 25 -73.5 70t-27.5 99q0 80 56.5 136.5t136.5 56.5t136.5 -56.5t56.5 -136.5q0 -56 -29 -101t-77 -70l22 -55q64 31 102.5 91.5
t38.5 134.5q0 102 -73 176t-177 74z" />
    <glyph glyph-name="uniE646" unicode="&#xe646;" 
d="M918 154l-179 147q-20 17 -49.5 16t-49.5 -20l-30 -31q-4 -4 -11.5 -4t-11.5 4l-183 183q-4 4 -4 11t4 12l30 30q22 21 22 52q0 30 -19 50l-154 185q-22 27 -57 27q-38 0 -60 -30l-3 -4q-83 -112 -83 -202q0 -78 69.5 -185t167.5 -205t205 -168t185 -70h13q63 5 117 36
q42 23 66 41l14 10q27 22 27 58q0 34 -26 57zM876 87l-5 -4l-6 -4q-21 -16 -58 -37q-42 -23 -90 -27h-10q-59 0 -157 65.5t-187 155t-154.5 187.5t-65.5 157q0 69 70 165l3 3q4 5 10 5q5 0 9 -4l154 -186q4 -4 4 -9t-3 -8l-30 -30q-23 -23 -23 -56t23 -56l182 -182
q22 -22 56.5 -22t55.5 22l29 30q8 7 16 0l179 -147q3 -3 3 -8q0 -6 -5 -10zM850 443h32q0 63 -24 121.5t-68.5 103t-103 68.5t-121.5 24v-33q116 0 200.5 -84t84.5 -200zM597 597q52 0 88.5 -36t36.5 -88h35q0 65 -46.5 112t-113.5 47v-35z" />
    <glyph glyph-name="uniE647" unicode="&#xe647;" 
d="M765 562q0 33 -22 54.5t-54.5 21.5t-54 -21.5t-21.5 -54.5q0 -32 22.5 -54t53.5 -22t53.5 22t22.5 54zM648 562q0 16 12 28.5t28.5 12.5t29 -12.5t12.5 -28.5t-12.5 -28.5t-29 -12.5t-28.5 12.5t-12 28.5zM346 437q23 0 40 16.5t17 40.5q0 25 -16 41t-40.5 16t-41 -16
t-16.5 -41q0 -24 17 -40.5t40 -16.5zM346 524q12 0 21 -9t9 -21t-9 -21t-21 -9t-21 9t-9 21t9 21t21 9zM796 417l50 85q14 37 14 68q0 72 -50 122t-121 50t-121.5 -51t-50.5 -121q0 -31 14 -68l41 -69l-55 -23l-76 32l11 20q11 27 11 46q0 48 -35 82.5t-82 34.5t-82 -34.5
t-35 -82.5q0 -28 11 -46l4 -6l-167 -430l81 36l172 79l182 -79h3l182 79l177 -79l73 -36zM550 570q0 57 41 98t98 41t97.5 -41t40.5 -98q0 -34 -19 -68l-119 -204l-120 204q-19 34 -19 68zM346 589q35 0 59.5 -24.5t24.5 -59.5q0 -19 -10 -41l-74 -122l-63 105l1 1l-13 19
q-9 15 -9 38q0 35 24.5 59.5t59.5 24.5zM697 203v-3l-185 -76l-182 76v3l-166 -84l106 291l76 -131l79 135l93 -40v1l70 30l101 -172l80 137l97 -251z" />
    <glyph glyph-name="uniE648" unicode="&#xe648;" 
d="M344 515l11 -11q2 -2 7 -2t7 2l70 72v-282h38v327q0 8 -5.5 13.5t-13.5 5.5h-1q-2 0 -4 -1q-10 -2 -13 -12l-96 -98q-4 -2 -4 -7t4 -7zM566 251q15 0 19 13l95 96q9 4 0 13l-11 11q-2 2 -7 2t-7 -2l-70 -70v279h-38v-323q0 -8 5.5 -13.5t13.5 -5.5zM724 819h-212h-212
q-37 0 -63.5 -26.5t-26.5 -63.5v-690q0 -37 26.5 -63.5t63.5 -26.5h212h212q37 0 63.5 26.5t26.5 63.5v690q0 37 -26.5 63.5t-63.5 26.5zM300 759h212h212q12 0 21 -8.5t9 -21.5v-579h-484v579q0 13 9 21.5t21 8.5zM724 9h-212h-212q-12 0 -21 8.5t-9 21.5v75h484v-75
q0 -13 -9 -21.5t-21 -8.5z" />
    <glyph glyph-name="uniE649" unicode="&#xe649;" 
d="M629 55zM604 55q0 10 7.5 17t17.5 7t17 -7t7 -17t-7 -17.5t-17 -7.5t-17.5 7.5t-7.5 17.5zM732 55zM708 55q0 10 7 17t17 7t17.5 -7t7.5 -17t-7.5 -17.5t-17.5 -7.5t-17 7.5t-7 17.5zM381 638h272v-36h-272v36zM342 477h351v-36h-351v36zM301 315h429v-35h-429v35z
M876 151l-54 657q0 4 -3.5 7.5t-7.5 3.5h-13h-572h-13q-4 0 -7.5 -3.5t-3.5 -7.5l-54 -655q-3 -5 -3 -11v-25v-127v-11v-14q0 -6 5 -11t11 -5h702q6 0 11 5t5 11v14v11v127v25q0 5 -3 9zM202 101h620v-95h-620v95zM842 158h-4h-652h-4l51 626h558z" />
    <glyph glyph-name="uniE64A" unicode="&#xe64a;" 
d="M539 297l-51 19l-133 -310h-2v-57h293v57h-231zM202 588l-49 41q-76 -117 -76 -245q0 -88 33.5 -167.5t94.5 -139.5l43 43q-109 109 -109 264q0 110 63 204zM697 566q-76 85 -185 85t-182 -82l43 -35q58 62 139 62t141 -65zM691 474q14 -37 14 -71q0 -79 -57 -136l41 -41
q73 74 73 174q0 60 -24 109zM322 406q-4 35 13 70l-43 39q-27 -55 -27 -112q0 -105 73 -174l41 41q-57 57 -57 136zM830 680q-61 65 -143 102t-175 37q-90 0 -172.5 -37t-142.5 -102l46 -40q52 54 121.5 84t147.5 30q80 2 150 -28t122 -86zM874 626l-49 -38q60 -90 60 -204
q0 -155 -109 -264l43 -43q61 60 94.5 139.5t33.5 167.5q0 134 -73 242z" />
    <glyph glyph-name="uniE64B" unicode="&#xe64b;" 
d="M512 224q-76 0 -130.5 62.5t-54.5 151.5v152q0 88 54 151t131 63t130.5 -62.5t53.5 -151.5v-152q0 -88 -53.5 -151t-130.5 -63zM512 744q-55 0 -95.5 -45.5t-40.5 -108.5v-152q0 -65 39.5 -110t96.5 -45q56 0 95.5 45.5t39.5 109.5v152q0 63 -40 108.5t-95 45.5zM742 603
v-198q0 -95 -67.5 -162.5t-163 -67.5t-163 67.5t-67.5 162.5v198h-35v-198q0 -107 79 -185t187 -78t187 79t79 187v195h-36zM77 522h35v-67h-35v67zM148 560h36v-138h-36v138zM912 531h35v-68h-35v68zM841 564h36v-138h-36v138zM493 92h35v-128h-35v128z" />
    <glyph glyph-name="uniE64C" unicode="&#xe64c;" 
d="M908 338h-1l-47 108q4 8 4 17q0 15 -10 25t-25 10t-25 -10t-10 -25q0 -17 13 -27l-83 -203l-37 127q12 11 12 27q0 15 -10.5 25t-25 10t-25 -10t-10.5 -25q0 -6 2 -12l-78 -65q-6 3 -14 3q-15 0 -25 -10t-10 -25t10 -25t25 -10t25 10t10 25v7l81 68l40 -133
q-12 -11 -12 -26t10.5 -25.5t25 -10.5t25 10.5t10.5 25.5q0 8 -4 16l87 216l44 -102q-7 -9 -7 -21q0 -15 10 -25.5t25 -10.5t25 10.5t10 25t-10 25t-25 10.5zM326 575l-63 62q-4 4 -8 0l-5 -5q-4 -4 0 -9l54 -54l-54 -54q-4 -4 0 -8l5 -6h8l63 63q3 2 2 5q1 3 -2 6zM454 55
h54v106h30l-22 52h-380q-4 0 -7.5 3.5t-3.5 7.5v495q0 4 3.5 7.5t7.5 3.5h685q4 0 7.5 -3.5t3.5 -7.5v-183l54 -19v202q0 26 -18 45.5t-44 19.5h-688q-27 0 -45 -19.5t-18 -45.5v-498q0 -27 18 -45t45 -18l318 3v-106zM344 54h274v-54h-274v54zM435 517h114v-19h-114v19z
" />
    <glyph glyph-name="uniE64D" unicode="&#xe64d;" 
d="M765 476l-3 -2v-28v-119v-30h30h122h22h11q0 73 -53.5 126t-128.5 53zM795 327v117q45 -9 77 -40.5t40 -76.5h-117zM868 264q0 -61 -44 -105t-105.5 -44t-105.5 44t-44 105t44 105.5t106 44.5q8 0 13 -3v30q-2 0 -6.5 1.5t-6.5 1.5q-76 0 -129.5 -53.5t-53.5 -129
t53.5 -129t129 -53.5t129 53.5t53.5 128.5v9h-33v-6zM251 495l5 -5q0 -6 6 0l60 62q4 4 0 9l-3 2l-1 1l-58 58q-4 4 -8 0l-5 -6q-4 -4 0 -8l55 -53l-51 -52q-4 -4 0 -8zM498 158h33l-22 52h-370q-4 0 -7 3.5t-3 7.5v481q0 4 3 7.5t7 3.5h667q4 0 7.5 -3.5t3.5 -7.5v-177
l51 -19v196q0 24 -19 43.5t-43 19.5h-667q-26 0 -44 -19t-18 -44v-484q0 -25 18 -44t44 -19l308 2v-102h-108v-52h266v52h-107v103zM428 506h111v-19h-111v19z" />
    <glyph glyph-name="uniE64E" unicode="&#xe64e;" 
d="M354 568l-62 63h-8l-6 -6q-4 -4 0 -8l52 -54l-52 -52q-4 -4 0 -8l6 -5q4 -4 8 0l62 62q2 2 2 4t-2 4zM857 780h-693q-27 0 -46 -18t-19 -44v-503q0 -27 19 -46t46 -19l321 2v-110h-116v-54h280v54h-110v110h33l-22 52h-386q-4 0 -7.5 3.5t-3.5 7.5v503q0 4 3.5 7.5
t7.5 3.5h696q4 0 7.5 -3.5t3.5 -7.5v-182l54 -19v201q-2 26 -21.5 44t-46.5 18zM466 511h117v-19h-117v19z" />
    <glyph glyph-name="uniE64F" unicode="&#xe64f;" 
d="M721 389q3 -4 7 -13.5t7 -13.5q37 25 59.5 66t22.5 89q0 78 -55.5 133t-132.5 55q-56 0 -102.5 -31t-68.5 -81q13 -6 30 -10q18 39 56.5 63t84.5 24q65 0 110 -46t45 -109q0 -39 -17 -72t-46 -54zM934 515q0 126 -89.5 215t-215.5 89q-103 0 -185 -63t-109 -160
q6 0 16.5 1.5t16.5 1.5q27 84 98.5 137t162.5 53q114 0 194.5 -80t80.5 -194q0 -76 -40 -141.5t-104 -100.5q-19 112 -96 196q22 18 22 46q0 22 -17.5 39.5t-39.5 17.5q-35 0 -52 -32q-114 70 -251.5 52t-232.5 -118l-3 -3l44 -35q61 65 146.5 90t172 5t152 -81.5t91.5 -145
t7.5 -168.5t-77.5 -152l41 -35q54 61 78.5 137t18.5 155q76 37 123 111.5t47 162.5zM598 526q7 21 31 21q14 0 23.5 -9t9.5 -23q0 -20 -16 -29l-3 4q-21 20 -45 36zM338 171.5q-16 15.5 -16 38t16 38.5t38.5 16t38.5 -16t16 -38.5t-16 -38t-38.5 -15.5t-38.5 15.5zM376 433
q-92 0 -157.5 -65.5t-65.5 -157.5h52q0 71 50 121t121 50t121 -50t50 -121t-50 -121t-121 -50v-52q92 0 157.5 65.5t65.5 157.5q0 94 -64.5 158.5t-158.5 64.5z" />
    <glyph glyph-name="uniE650" unicode="&#xe650;" 
d="M860 335h-239h-63v-62v-245v-44v-19q99 2 183 51t133 133t49 183v3h-6h-57zM621 36v237h234q-19 -90 -82.5 -154.5t-151.5 -82.5zM417 819h-264q-30 0 -50.5 -21t-20.5 -50v-263q0 -29 21 -50t50 -21h264q29 0 50 20t21 51v263q0 29 -21.5 50t-49.5 21zM425 485
q0 -9 -8 -9h-264q-8 0 -8 9v263q0 3 2 6t6 3h264q8 0 8 -9v-263zM417 354h-264q-29 0 -50 -21t-21 -50v-263q0 -29 21 -50t50 -21h264q28 0 49.5 21t21.5 50v263q0 29 -21.5 50t-49.5 21zM425 22q0 -8 -8 -8h-264q-8 0 -8 8v264q0 8 8 8h264q8 0 8 -8v-264zM871 819h-264
q-28 0 -49.5 -21t-21.5 -50v-263q0 -29 21.5 -50t49.5 -21h264q31 0 51 20t20 51v263q0 29 -21 50t-50 21zM879 485q0 -9 -8 -9h-264q-8 0 -8 9v263q0 9 8 9h264q8 0 8 -9v-263z" />
    <glyph glyph-name="uniE651" unicode="&#xe651;" 
d="M412.5 444.5q-33.5 17.5 -103 34t-88.5 31.5q-14 12 -14 29q0 18 15 29q24 17 66 17q40 0 60 -16t27 -52l95 4q-2 65 -47 104t-134 39q-55 0 -93.5 -16.5t-59 -47.5t-20.5 -68q0 -56 43 -95q31 -28 108 -47q60 -15 77 -20q24 -9 34 -21t10 -28q0 -27 -23.5 -46.5
t-69.5 -19.5q-44 0 -69.5 22t-33.5 69l-93 -9q9 -79 57 -120.5t138 -41.5q62 0 103 17t64 52.5t23 76.5q0 45 -19 75.5t-52.5 48zM899.5 603q-27.5 36 -68.5 46q-26 7 -114 7h-153v-473h96v179h62q65 0 99 6q25 6 49.5 23t40.5 46.5t16 73.5q0 56 -27.5 92zM817.5 472.5
q-10.5 -15.5 -30 -23t-75.5 -7.5h-52v134h46q51 0 69 -3q23 -4 38 -21t15 -43q0 -21 -10.5 -36.5z" />
  </font>
</defs>
</svg>
