<?xml version="1.0" standalone="no"?>
  <!DOCTYPE svg PUBLIC "-//W3C//DTD SVG 1.1//EN" "http://www.w3.org/Graphics/SVG/1.1/DTD/svg11.dtd" >
  <svg>
  <metadata>
  Created by font-carrier
  </metadata>
  <defs>
  <font id="iconfont" horiz-adv-x="1024" vert-adv-y="1024" >
    <font-face
      
      font-family="iconfont"
      
      font-weight="400"
      
      font-stretch="normal"
      
      units-per-em="1024"
      
      ascent="812"
      
      descent="-212"
      
    />
      <missing-glyph />

      
      <glyph glyph-name="x" unicode="&#x78;" horiz-adv-x="100"
        d="M20 20 L50 20 L50 -20 Z" />
      

      
      <glyph glyph-name="uniE8AE" unicode="&#xE8AE;" d="M909.0162 319.3792C909.0162 375.1262 897.6392 429.3562 877.54 477.8977 856.3031 528.7146 825.5854 574.9808 786.9038 612.9038 748.9808 651.2062 703.0938 682.6823 651.8977 703.54 602.5977 724.0185 549.1262 735.0162 492.6208 735.0162 436.4946 735.0162 383.7815 724.3977 334.4815 703.9192L333.7231 703.54C282.5269 682.6823 237.0192 651.5854 198.7169 612.9038 160.4146 574.9808 129.6969 528.7146 108.46 477.8977 87.9815 428.9769 76.9838 375.1262 76.9838 319.3792 76.9838 263.2531 87.9815 209.4023 108.46 160.1023 130.0762 109.2854 160.4146 63.3985 198.7169 25.0962 237.0192-13.2062 282.5269-44.3031 333.7231-65.1608 383.0231-85.6392 436.4946-96.6369 493-96.6369 539.2662-96.6369 584.0154-89.4315 626.11-75.0208 664.4123-62.5062 699.6808-43.5446 732.2946-21.17L736.8454-24.2038C752.7731-33.6846 772.1138-36.7185 791.0754-31.7885H791.8338C811.1746-26.4792 827.1023-13.9646 836.2038 2.3423 845.3054 18.6492 848.3392 37.99 843.7885 57.3308L843.4092 57.71C841.5131 66.0531 837.7208 73.2585 833.5492 80.0846 855.9238 111.94 874.1269 147.9669 887.0208 185.5108 901.4315 227.9846 909.0162 273.1131 909.0162 319.3792L909.0162 319.3792ZM849.8562 198.7838L849.8562 198.7838C838.4792 165.4115 822.5515 133.9354 802.8315 105.4931 788.4208 111.94 771.3554 114.2154 755.0485 109.6646L754.29 109.2854C734.9492 103.9762 719.78 91.8408 709.92 75.5338 700.8185 59.6062 697.7846 39.5069 703.0938 20.5454V19.7869C703.8523 15.6154 704.99 12.2023 706.8862 8.7892 678.4438-11.31 647.3469-26.4792 613.9746-37.8562 576.0515-51.1292 535.8531-57.5762 493.3792-57.5762 442.1831-57.5762 393.6415-47.3369 349.6508-29.5131 303.3846-9.4138 261.6692 18.6492 226.78 53.1592 192.27 87.6692 164.2069 129.0054 144.8662 175.2715 126.6631 219.2623 116.8031 268.1831 116.8031 319.3792 116.8031 370.1962 126.6631 419.1169 144.8662 463.1077 164.2069 509.3738 192.27 550.71 226.78 584.8408 261.6692 620.1092 303.3846 648.1723 349.2715 667.1338L349.6508 667.5131C393.6415 685.7162 442.1831 695.5762 493 695.5762 544.1962 695.5762 592.7377 685.3369 637.1077 667.1338 682.9946 648.1723 724.71 620.1092 759.5992 584.8408 794.1092 550.71 822.5515 508.9946 841.5131 463.1077 859.7162 419.1169 869.5762 370.1962 869.5762 319.3792 869.1969 277.2846 862.3708 236.3277 849.8562 198.7838L849.8562 198.7838ZM565.4331 559.0531L565.4331 559.0531C563.5369 575.7392 555.9523 590.15 544.9546 601.5269 531.6815 615.1792 513.4785 623.1431 493 623.1431 472.9008 623.1431 454.3185 615.1792 441.0454 601.5269 430.0477 590.15 422.8423 575.7392 420.5669 559.0531 371.2669 543.8838 328.0346 513.9246 296.1792 474.8638 262.8069 432.0108 242.7077 377.7808 242.7077 319.3792 242.7077 250.3592 270.0123 188.5446 314.7615 143.0369L315.52 142.2785C361.0277 96.7708 423.2215 68.7077 492.6208 68.7077S624.5931 96.7708 670.1008 142.2785H669.7215C715.2292 187.4069 743.2923 249.98 743.2923 319.3792 743.2923 377.7808 723.1931 432.0108 689.0623 474.4846 657.9654 513.9246 615.1123 543.8838 565.4331 559.0531L565.4331 559.0531ZM469.1085 573.0846L469.1085 573.0846C475.1762 579.1523 483.5192 583.3238 492.6208 583.3238 502.1015 583.3238 510.8238 579.5315 516.1331 573.0846 522.2008 567.0169 525.9931 558.6738 525.9931 549.5723 525.9931 540.0915 522.2008 532.1277 516.1331 526.06 510.4446 519.9923 501.7223 516.2 492.6208 516.2 483.5192 516.2 475.1762 519.9923 469.1085 526.06 463.0408 532.1277 459.6277 540.4708 459.6277 549.5723 460.0069 559.0531 463.0408 567.0169 469.1085 573.0846L469.1085 573.0846ZM642.0377 169.9623L642.0377 169.9623 642.0377 169.9623 642.0377 169.9623C603.7354 131.66 551.0223 108.5269 492.6208 108.5269 434.5985 108.5269 381.8854 131.66 343.9623 169.9623L342.4454 171.1C305.2808 209.4023 282.1477 261.3569 282.1477 319.3792 282.1477 368.6792 298.8338 414.1869 327.6554 449.8346 353.0638 482.0692 387.1946 505.9608 426.6346 519.2338 430.0477 511.27 434.9777 504.0646 441.0454 497.9969 454.3185 484.7238 472.9008 476.3808 493 476.3808 513.4785 476.3808 531.3023 484.7238 544.9546 497.9969 551.0223 503.6854 556.3315 511.27 559.7446 519.2338 599.1846 505.9608 633.6946 482.0692 658.7238 449.8346 687.1662 413.8077 704.2315 368.6792 704.2315 319.3792 704.2315 260.9777 679.9608 207.8854 642.0377 169.9623L642.0377 169.9623ZM493 417.6L493 417.6C439.1492 417.6 395.1585 373.23 395.1585 319.3792 395.1585 265.5285 439.1492 221.5377 493 221.5377 547.23 221.5377 591.2208 265.9077 591.2208 319.3792 591.2208 373.23 546.8508 417.6 493 417.6L493 417.6ZM493 287.1446L493 287.1446C484.2777 287.1446 476.3138 290.5577 470.6254 296.2462 464.1785 302.3138 461.5238 311.0362 461.5238 319.3792 461.5238 336.8238 475.5554 351.2346 493 351.2346 511.2031 351.2346 525.2346 336.4446 525.2346 319.3792 524.8554 301.5554 510.8238 287.1446 493 287.1446L493 287.1446Z"  horiz-adv-x="986" vert-adv-y="1024"  />

      
      <glyph glyph-name="uniE8AD" unicode="&#xE8AD;" d="M842.6508 351.9931V350.8554L842.2715 350.4762 841.8923 349.7177 710.6785 1.9631 766.4254-74.6415C772.8723-83.7431 770.5969-96.6369 762.2538-103.0838 753.1523-109.91 739.8792-107.6346 733.8115-98.9123L678.0646-21.9285H315.8992L260.1523-98.9123C253.3262-108.0138 240.8115-109.91 231.71-103.0838 222.9877-96.6369 220.7123-83.7431 227.5385-74.6415L283.2854 1.9631 282.9062 2.3423 153.9677 350.4762V350.8554L81.5346 374.7469C70.9162 378.5392 65.2277 389.9162 68.2615 400.1554 71.6746 411.1531 83.4308 416.4623 94.0492 413.8077L166.4823 389.9162 167.62 390.6746 475.9346 619.3508H476.3138V690.6462C476.3138 701.6438 485.4154 711.8831 496.7923 711.8831 507.79 711.8831 517.65 702.0231 517.65 690.6462V619.3508 618.9715L830.1362 390.2954 899.1562 413.0492C910.1538 416.0831 921.5308 410.7738 925.3231 399.3969 928.7362 389.1577 923.0477 377.7808 912.4292 373.9885L842.6508 351.9931 842.6508 351.9931ZM476.3138 289.0408L476.3138 289.0408V534.7823L246.1208 364.1285 476.3138 289.0408 476.3138 289.0408ZM517.2708 535.1615L517.2708 535.1615V289.0408L750.1185 364.5077 517.2708 535.1615 517.2708 535.1615ZM759.5992 324.6885L759.5992 324.6885 530.1646 250.3592 662.8954 67.57 759.5992 324.6885 759.5992 324.6885ZM628.0062 45.5746L628.0062 45.5746 496.4131 226.0885 365.1992 45.5746H628.0062L628.0062 45.5746ZM331.0685 67.57L331.0685 67.57 463.7992 250.3592 236.2608 323.93 331.0685 67.57 331.0685 67.57Z"  horiz-adv-x="986" vert-adv-y="1024"  />

      
      <glyph glyph-name="uniE8AC" unicode="&#xE8AC;" d="M388.7115 740.7046C519.5462 740.7046 626.4892 633.3823 626.4892 502.5477 626.4892 437.6992 599.9431 378.16 557.09 334.9277L557.09 334.9277H556.7108L555.1938 333.0315C569.6046 318.6208 583.6362 305.3477 598.0469 291.3162 604.8731 293.9708 611.6992 296.2462 618.9046 298.5215V322.0338C618.9046 333.79 628.0062 342.8915 639.7623 342.8915H640.1415 709.1615C720.5385 342.8915 729.64 333.79 729.64 322.0338V321.6546 298.1423C736.8454 295.8669 744.43 293.5915 751.2562 290.5577L752.3938 290.1785C759.22 287.5238 766.0462 283.7315 772.4931 280.6977L789.5585 297.7631C797.9015 305.7269 810.7954 305.7269 818.7592 297.7631L867.68 248.4631C876.0231 240.4992 876.0231 227.2262 867.68 218.8831L850.9938 202.1969C854.7862 195.3708 858.1992 188.5446 861.2331 181.3392 864.2669 174.5131 866.9215 166.9285 868.8177 159.3438H893.0885C904.4654 159.3438 913.5669 150.6215 913.5669 138.8654V138.4862 69.4662C913.5669 58.0892 904.0862 48.2292 893.0885 48.2292H892.7092 868.4385C866.5423 41.0238 863.8877 33.8185 860.8538 26.9923L860.4746 26.2338C857.4408 19.0285 854.4069 12.5815 850.6146 6.1346L867.3008-10.5515C875.6438-18.5154 875.6438-31.7885 867.3008-40.1315L818.38-89.0523C810.4162-97.0162 797.5223-97.0162 789.1792-89.0523L772.1138-72.3662C765.2877-76.1585 758.4615-79.1923 751.2562-82.6054 744.43-85.6392 736.8454-87.9146 729.64-90.19V-113.7023C729.64-125.4585 720.1592-134.9392 709.1615-134.9392H708.4031 639.7623C628.0062-134.9392 618.9046-125.4585 618.9046-113.7023V-113.3231-90.19C611.32-87.9146 603.7354-85.6392 596.9092-82.6054H595.7715C588.9454-79.5715 582.1192-76.1585 575.6723-72.3662L564.6746-83.3638V-100.4292C564.6746-119.3908 549.1262-135.3185 530.1646-135.3185H529.0269 246.5C227.5385-135.3185 211.99-119.3908 211.99-100.4292V-99.2915-69.3323H144.4869C141.4531-69.3323 139.1777-68.9531 137.2815-68.1946 119.0785-65.1608 104.6677-54.5423 94.8077-41.2692 84.5685-26.4792 79.2592-8.6554 79.2592 8.41V81.9808C79.2592 117.2492 85.7062 151.0008 98.6 181.7185 124.0085 243.1538 176.7215 287.1446 222.6085 333.0315L221.0915 334.9277 221.0915 334.9277C176.3423 378.9185 151.3131 439.9746 151.3131 502.5477 150.9338 633.3823 257.8769 740.7046 388.7115 740.7046L388.7115 740.7046ZM673.8931 193.0954L673.8931 193.0954C698.5431 193.0954 720.5385 182.8562 736.8454 166.9285L736.8454 166.9285C752.7731 151.0008 763.0123 128.6262 763.0123 104.3554 763.0123 80.0846 752.7731 57.71 736.8454 41.4031L735.7077 40.2654C719.78 24.7169 698.1638 15.2362 673.8931 15.2362 649.2431 15.2362 627.2477 25.4754 610.9408 41.4031 594.6338 57.71 584.7738 80.0846 584.7738 104.3554 584.7738 129.0054 594.6338 151.0008 610.9408 166.9285 627.2477 183.2354 649.2431 193.0954 673.8931 193.0954L673.8931 193.0954ZM707.6446 137.3485L707.6446 137.3485C698.9223 146.45 687.1662 151.38 673.8931 151.38 660.9992 151.38 648.8638 146.45 640.5208 137.3485 632.1777 129.3846 626.8685 117.2492 626.8685 103.9762 626.8685 91.0823 632.1777 78.9469 640.5208 70.6038 649.2431 61.8815 660.9992 56.9515 673.8931 56.9515 686.7869 56.9515 698.1638 61.5023 706.5069 69.8454L707.6446 70.9831C716.3669 79.7054 721.6762 91.4615 721.6762 104.3554 721.6762 117.2492 716.3669 129.0054 707.6446 137.3485L707.6446 137.3485ZM511.2031 279.1808L511.2031 279.1808 498.3092 292.4538C465.3162 275.0092 428.1515 265.1492 388.7115 265.1492 349.2715 265.1492 312.1069 275.0092 279.1138 292.4538 240.0531 253.0138 184.6854 208.2646 162.3108 156.31 153.2092 133.5562 148.6585 108.9062 148.6585 82.36V8.7892C148.6585 5.7554 149.0377 2.7215 150.1754 0.4462H240.0531V92.22C240.0531 103.5969 249.1546 112.6985 260.9108 112.6985 272.2877 112.6985 281.3892 103.9762 281.3892 92.22V-30.6508L281.7685-33.6846V-64.7815H495.6546V-54.5423L480.4854-39.3731C472.1423-31.4092 472.1423-18.1362 480.4854-9.7931L497.1715 6.8931C493.3792 13.34 490.3454 20.1662 486.9323 27.7508 484.2777 34.5769 481.2438 42.1615 479.3477 48.9877H455.8354C444.4585 48.9877 434.9777 58.4685 434.9777 70.2246V70.6038 139.6238C434.9777 151.38 444.4585 160.1023 455.8354 160.1023H456.2146 479.3477C481.2438 167.3077 484.2777 175.2715 486.9323 182.0977L487.3115 183.2354C490.3454 190.0615 493.3792 196.8877 496.7923 203.3346L480.1062 220.0208C471.7631 228.3638 471.7631 241.2577 480.1062 249.6008L511.2031 279.1808 511.2031 279.1808ZM735.3285 252.6346L735.3285 252.6346C726.2269 256.4269 716.3669 259.84 706.1277 261.3569 695.8885 263.2531 687.9246 271.5962 687.9246 282.2146V301.1762H660.2408V282.2146C660.2408 271.9754 653.4146 263.6323 643.1754 261.3569 632.5569 259.84 622.3177 256.8062 612.4577 252.6346L612.4577 252.6346C602.5977 248.8423 593.4962 243.1538 584.7738 237.4654 576.4308 232.1562 565.0538 232.9146 557.8485 240.12L544.1962 253.7723 524.0969 234.0523 538.1285 220.0208C544.5754 213.1946 546.0923 201.8177 540.4038 193.8538 534.3362 185.89 529.4062 176.03 525.9931 166.5492L525.6138 165.4115C521.8215 156.6892 518.4085 146.45 516.5123 135.8315 515.3746 125.9715 506.2731 118.0077 495.6546 118.0077H476.3138V90.3238H495.6546C505.8938 90.3238 514.2369 83.4977 516.1331 73.6377 518.0292 63.0192 521.4423 52.78 525.6138 42.5408L525.6138 42.5408 525.6138 42.5408C529.4062 33.06 534.3362 23.5792 540.4038 14.8569 546.0923 6.5138 545.3338-4.8631 538.5077-12.0685L524.4762-25.7208 544.5754-45.4408 558.2277-31.7885C565.0538-24.9623 576.0515-23.8246 584.3946-29.5131 593.1169-34.8223 602.2185-40.5108 611.32-43.9238L612.4577-44.3031C622.3177-48.0954 632.1777-51.1292 642.0377-53.4046 652.2769-54.9215 660.2408-63.6438 660.2408-73.8831V-93.6031H687.9246V-73.8831C687.9246-64.4023 695.13-55.3008 704.99-53.4046 715.2292-51.5085 725.4685-48.4746 735.3285-44.3031H735.7077C745.5677-40.5108 755.0485-35.5808 763.7708-29.5131 771.7346-23.4454 783.1115-24.2038 790.3169-31.7885L803.9692-45.4408 823.6892-25.7208 810.0369-12.0685C803.2108-5.6215 802.0731 5.7554 807.3823 14.8569 813.45 23.2 818.38 32.6808 822.5515 41.4031L822.9308 42.5408C826.7231 52.0215 829.7569 62.2608 831.6531 72.1208 833.17 82.7392 841.5131 90.3238 852.5108 90.3238H871.8515V118.0077H852.5108V118.0077C842.6508 118.0077 834.3077 124.4546 832.0323 135.0731 830.1362 145.3123 826.7231 155.9308 822.9308 165.4115 818.7592 175.2715 813.45 184.7523 807.7615 193.8538 802.0731 201.4385 803.2108 212.8154 810.4162 220.0208L824.0685 234.0523 804.3485 253.7723 790.6962 240.12C783.87 233.2938 772.8723 231.3977 764.5292 237.4654 755.8069 243.5331 746.3262 248.4631 736.8454 252.6346L735.3285 252.6346 735.3285 252.6346ZM388.7115 671.3054L388.7115 671.3054C296.1792 671.3054 220.3331 595.8385 220.3331 502.5477 220.3331 408.8777 296.5585 334.5485 388.7115 334.5485 480.8646 334.5485 557.09 409.2569 557.09 502.5477 557.09 595.8385 481.6231 671.3054 388.7115 671.3054L388.7115 671.3054Z"  horiz-adv-x="986" vert-adv-y="1024"  />

      
      <glyph glyph-name="uniE8AB" unicode="&#xE8AB;" d="M464.1785 90.3238H372.4046C361.7862 90.3238 353.4431 81.6015 353.4431 71.3623 353.4431 61.1231 361.7862 52.4008 372.4046 52.4008H464.1785C474.7969 52.4008 483.14 61.1231 483.14 71.3623 483.14 81.2223 474.4177 90.3238 464.1785 90.3238L464.1785 90.3238ZM297.3169 90.3238L297.3169 90.3238H205.5431C195.3038 90.3238 186.5815 81.6015 186.5815 71.3623 186.5815 61.1231 195.3038 52.4008 205.5431 52.4008H297.3169C307.9354 52.4008 316.6577 61.1231 316.6577 71.3623 316.2785 81.2223 307.5562 90.3238 297.3169 90.3238L297.3169 90.3238ZM631.04 90.3238L631.04 90.3238H539.2662C529.0269 90.3238 520.6838 81.6015 520.6838 71.3623 520.6838 61.1231 529.0269 52.4008 539.2662 52.4008H631.04C641.2792 52.4008 650.0015 61.1231 650.0015 71.3623 649.6223 81.2223 641.2792 90.3238 631.04 90.3238L631.04 90.3238ZM194.1662 136.2108L194.1662 136.2108H808.52C819.1385 136.2108 827.8608 144.5538 827.8608 155.1723V542.3669C827.8608 552.6062 819.1385 561.3285 808.52 561.3285H194.1662C183.5477 561.3285 175.2046 552.6062 175.2046 542.3669V155.1723C175.5838 144.5538 183.5477 136.2108 194.1662 136.2108L194.1662 136.2108ZM213.5069 523.0262L213.5069 523.0262H789.9377V174.1338H213.5069V523.0262L213.5069 523.0262ZM881.7115 654.24L881.7115 654.24H122.1123C104.6677 654.24 90.2569 639.8292 90.2569 622.7638V-22.6869C90.2569-40.1315 104.2885-54.1631 122.1123-54.1631H881.7115C898.7769-54.1631 913.1877-40.1315 913.1877-22.6869V622.7638C913.1877 639.8292 898.7769 654.24 881.7115 654.24L881.7115 654.24ZM849.8562 9.1685L849.8562 9.1685H153.2092V590.9085H849.4769V9.1685L849.8562 9.1685ZM797.9015 90.3238L797.9015 90.3238H706.1277C695.8885 90.3238 687.1662 81.6015 687.1662 71.3623 687.1662 61.1231 695.8885 52.4008 706.1277 52.4008H797.9015C808.52 52.4008 816.8631 61.1231 816.8631 71.3623 816.8631 81.2223 808.52 90.3238 797.9015 90.3238L797.9015 90.3238Z"  horiz-adv-x="986" vert-adv-y="1024"  />

      
      <glyph glyph-name="uniE8AA" unicode="&#xE8AA;" d="M411.0862-12.0685H411.4654 574.5346C585.9115-12.0685 594.6338-21.17 594.6338-32.1677V-32.5469-114.0815C594.6338-125.4585 585.9115-134.56 574.5346-134.56H574.1554 411.0862C399.7092-134.56 390.2285-125.4585 390.2285-114.0815V-113.3231-31.7885C390.6077-20.7908 399.7092-12.0685 411.0862-12.0685L411.0862-12.0685ZM493 734.6369L493 734.6369C577.5685 734.6369 654.5523 700.1269 709.92 644.38V644.0008 644.38C766.0462 588.2538 800.1769 511.6492 800.1769 426.3223 800.1769 382.7108 790.6962 340.2369 773.6308 301.9346 756.1862 262.8738 731.1569 227.9846 700.06 199.5423 692.4754 192.3369 679.9608 180.5808 668.2046 169.2038 623.4554 125.5923 596.9092 100.5631 591.2208 46.3331 589.3246 28.8885 574.5346 15.9946 557.4692 15.9946H428.5308C410.7069 15.9946 395.9169 30.4054 394.4 47.85 387.9531 100.9423 361.7862 125.9715 317.7954 169.2038 305.66 180.5808 293.1454 192.3369 285.94 199.5423V199.9215C254.8431 228.3638 229.4346 263.2531 211.99 302.3138 194.9246 340.6162 185.8231 383.09 185.8231 426.7015 185.8231 512.0285 219.9538 588.2538 275.7008 644.38L277.9762 645.8969C333.3438 700.5062 409.19 734.6369 493 734.6369L493 734.6369ZM662.1369 596.2177L662.1369 596.2177C618.9046 639.45 558.9862 666.3754 493 666.3754 427.3931 666.3754 368.2331 639.8292 325.0008 597.7346L323.4838 596.5969C280.2515 552.9854 253.3262 493.0669 253.3262 426.7015 253.3262 392.1915 260.9108 359.1985 274.1838 329.6185 287.4569 299.28 307.5562 272.7338 331.4477 250.3592L334.4815 247.7046C348.8923 233.2938 357.2354 224.9508 364.82 218.1246 413.3615 171.4792 444.0792 141.52 457.3523 84.2562H529.4062C542.6792 141.52 573.7762 171.4792 621.9385 218.1246 629.1438 224.9508 637.8662 233.2938 652.2769 247.7046L653.7938 249.2215C678.4438 271.2169 698.5431 298.9008 712.5746 329.6185 725.4685 359.5777 732.6738 392.1915 732.6738 426.7015 732.2946 493.0669 705.7485 552.9854 662.1369 596.2177L662.1369 596.2177ZM554.4354-52.2669L554.4354-52.2669H430.8062V-93.6031H554.4354V-52.2669L554.4354-52.2669Z"  horiz-adv-x="986" vert-adv-y="1024"  />

      
      <glyph glyph-name="uniE8A9" unicode="&#xE8A9;" d="M139.5569 312.1738H846.0638L826.3438 367.9208H159.6562L139.5569 312.1738 139.5569 312.1738ZM812.6915 408.1192L812.6915 408.1192 740.6377 610.6285H245.3623L173.6877 408.1192H812.6915L812.6915 408.1192ZM210.8523 182.4769L210.8523 182.4769C210.8523 193.4746 219.9538 202.1969 230.5723 202.1969 241.9492 202.1969 250.6715 193.0954 250.6715 182.4769V89.5654C250.6715 78.5677 241.9492 69.8454 230.5723 69.8454 219.9538 69.8454 210.8523 78.9469 210.8523 89.5654V182.4769L210.8523 182.4769ZM317.4162 182.4769L317.4162 182.4769C317.4162 193.4746 326.5177 202.1969 337.5154 202.1969 348.5131 202.1969 357.6146 193.0954 357.6146 182.4769V89.5654C357.6146 78.5677 348.5131 69.8454 337.5154 69.8454 326.5177 69.8454 317.4162 78.9469 317.4162 89.5654V182.4769L317.4162 182.4769ZM424.3592 182.4769L424.3592 182.4769C424.3592 193.4746 433.0815 202.1969 444.0792 202.1969 455.0769 202.1969 464.5577 193.0954 464.5577 182.4769V89.5654C464.5577 78.5677 455.0769 69.8454 444.0792 69.8454 433.0815 69.8454 424.3592 78.9469 424.3592 89.5654V182.4769L424.3592 182.4769ZM736.4662 202.1969L736.4662 202.1969C755.0485 202.1969 771.3554 194.6123 783.4908 182.8562 795.2469 171.1 802.8315 154.4138 802.8315 135.4523 802.8315 117.2492 795.6262 100.9423 783.4908 89.1862 771.7346 77.43 755.0485 69.8454 736.4662 69.8454 718.2631 69.8454 701.5769 77.43 689.8208 89.1862 677.6854 100.9423 670.48 117.6285 670.48 135.4523 670.48 154.4138 677.3062 171.1 689.8208 182.8562 701.1977 194.6123 718.2631 202.1969 736.4662 202.1969L736.4662 202.1969ZM754.6692 154.4138L754.6692 154.4138C750.1185 159.3438 743.6715 162.3777 736.0869 162.3777 728.8815 162.3777 722.0554 159.3438 717.5046 154.4138 712.9538 149.8631 710.2992 143.0369 710.2992 135.4523 710.2992 128.6262 712.9538 122.1792 717.5046 117.2492 722.0554 112.6985 728.8815 109.6646 736.0869 109.6646 743.2923 109.6646 749.7392 112.6985 754.6692 117.2492 759.22 122.1792 762.6331 128.6262 762.6331 135.4523 762.6331 143.0369 759.5992 149.8631 754.6692 154.4138L754.6692 154.4138ZM926.84 277.6638L926.84 277.6638V-6.7592C926.84-25.3415 911.6708-40.5108 893.0885-40.5108H892.33 92.1531C73.5708-40.5108 58.7808-25.3415 58.7808-6.7592V-6.38 279.1808C58.7808 283.3523 59.5392 288.2823 61.4354 292.0746L189.6154 653.1023C193.7869 667.5131 206.3015 677.3731 221.85 677.3731H764.15C778.1815 677.3731 790.6962 668.6508 795.6262 654.9985L924.5646 292.0746V291.6954 291.3162L924.9438 290.9369V290.5577 290.1785L924.9438 290.1785 925.3231 289.42V289.0408L925.3231 289.0408H925.7023V288.6615 288.2823 287.9031 287.5238L926.0815 287.1446V286.7654 286.3862 286.0069 285.6277 285.2485L926.4608 284.8692V284.49 284.1108 283.7315 283.3523 282.9731 282.2146 281.4562L926.84 280.6977V279.9392 277.6638L926.84 277.6638ZM125.9046 245.4292L125.9046 245.4292V26.2338H860.0954V245.4292H125.9046L125.9046 245.4292Z"  horiz-adv-x="986" vert-adv-y="1024"  />

      
      <glyph glyph-name="uniE8A8" unicode="&#xE8A8;" d="M800.1769 273.8715L839.2377 296.6254 878.2985 273.8715 868.4385 317.8623 902.19 347.8215 857.4408 352.3723 839.2377 393.7085 821.0346 352.3723 776.2854 347.8215 810.0369 317.8623ZM629.1438 436.9408L668.2046 459.6946 706.8862 436.9408 697.4054 481.3108 731.1569 511.27 686.0285 515.4415 668.2046 556.7777 650.0015 515.4415 604.8731 511.27 638.6246 481.3108ZM907.12 221.9169H771.3554V-62.1269H907.12V221.9169ZM873.3685 123.3169H804.7277V191.9577H873.3685V123.3169ZM735.7077 382.7108H600.3223V-62.1269H735.7077V382.7108ZM701.9562 123.3169H633.3154V191.9577H701.9562V123.3169ZM701.9562 282.2146H633.3154V350.8554H701.9562V282.2146ZM453.9392 592.8046L493 615.5585 532.0608 592.8046 522.2008 636.7954 555.9523 667.1338 511.2031 671.3054 493 712.6415 474.7969 671.3054 430.0477 667.1338 463.7992 636.7954ZM214.6446 221.9169H79.2592V-62.1269H215.0238V221.9169ZM181.2723 123.3169H112.6315V191.9577H181.2723V123.3169ZM458.8692 9.1685C458.8692 28.8885 474.4177 44.8162 493 44.8162 511.9615 44.8162 527.1308 28.8885 527.1308 9.1685V-61.7477H563.9162V545.78H421.7046V-61.7477H458.49V9.1685ZM458.8692 510.8908H527.1308V442.25H458.8692V510.8908ZM458.8692 350.8554H527.1308V282.2146H458.8692V350.8554ZM458.8692 191.5785H527.1308V122.9377H458.8692V191.5785ZM108.0808 273.8715L146.7623 296.6254 185.8231 273.8715 176.3423 317.8623 210.0938 347.8215 164.9654 352.3723 146.7623 393.7085 128.9385 352.3723 83.81 347.8215 117.5615 317.8623ZM47.7831-61.7477L938.2169-61.7477 938.2169-112.5646 47.7831-112.5646 47.7831-61.7477ZM279.1138 436.9408L318.1746 459.6946 356.8562 436.9408 347.3754 481.3108 381.1269 511.27 335.9985 515.4415 318.1746 557.1569 299.9715 515.4415 254.8431 511.27 288.5946 481.3108ZM385.6777 382.7108H250.2923V-62.1269H385.6777V382.7108ZM352.3054 123.3169H284.0438V191.9577H352.6846V123.3169ZM352.3054 282.2146H284.0438V350.8554H352.6846V282.2146Z"  horiz-adv-x="986" vert-adv-y="1024"  />

      
      <glyph glyph-name="uniE8A6" unicode="&#xE8A6;" d="M162.69 261.7362L177.1008 261.7362 177.1008 255.2892 162.69 255.2892 162.69 261.7362ZM389.0908 250.7385H426.6346C427.0138 255.6685 427.3931 260.9777 427.3931 267.0454H391.7454C390.9869 262.1154 390.2285 256.4269 389.0908 250.7385ZM402.3638 264.3908C407.6731 262.1154 414.12 258.7023 417.1538 256.0477L414.12 253.0138C411.0862 255.6685 404.6392 259.4608 399.33 261.7362L402.3638 264.3908ZM483.5192 253.7723L498.3092 253.7723 498.3092 237.0862 483.5192 237.0862 483.5192 253.7723ZM240.0531 252.2554L277.5969 252.2554 277.5969 241.2577 240.0531 241.2577 240.0531 252.2554ZM385.2985 229.8808H424.7385C425.4969 234.0523 425.8762 239.7408 426.6346 246.9462H388.7115C387.5738 240.4992 386.0569 234.8108 385.2985 229.8808ZM399.7092 243.9123C405.3977 241.2577 412.6031 237.4654 416.0162 234.4315L412.6031 231.3977C409.19 234.4315 402.3638 238.6031 396.6754 241.2577L399.7092 243.9123ZM557.8485 268.5623L575.6723 268.5623 575.6723 261.3569 557.8485 261.3569 557.8485 268.5623ZM309.0731 246.1877H321.9669V263.2531H309.0731V246.1877ZM314.3823 259.4608C316.2785 256.4269 318.1746 252.6346 318.9331 250.3592L315.52 249.2215C314.7615 251.8762 312.8654 255.6685 310.9692 258.7023L314.3823 259.4608ZM116.0446 267.4246L136.5231 267.4246 136.5231 255.6685 116.0446 255.6685 116.0446 267.4246ZM84.5685 266.2869L97.4623 266.2869 97.4623 253.3931 84.5685 253.3931 84.5685 266.2869ZM84.5685 249.6008L97.4623 249.6008 97.4623 236.3277 84.5685 236.3277 84.5685 249.6008ZM136.5231 251.8762H116.0446V248.4631C116.0446 245.8085 116.0446 242.7746 115.6654 239.7408H136.5231V251.8762ZM162.69 251.8762L177.1008 251.8762 177.1008 245.4292 162.69 245.4292 162.69 251.8762ZM162.69 242.0162L177.1008 242.0162 177.1008 234.8108 162.69 234.8108 162.69 242.0162ZM557.8485 257.5646L575.6723 257.5646 575.6723 249.98 557.8485 249.98 557.8485 257.5646ZM535.0946 268.5623L552.5392 268.5623 552.5392 261.3569 535.0946 261.3569 535.0946 268.5623ZM473.6592 299.28C463.42 312.9323 449.7677 330.3769 427.0138 357.6815 422.4631 357.3023 416.7746 357.3023 410.3277 356.9231L410.3277 356.9231C409.9485 360.7154 407.2938 364.1285 403.5015 363.7492L341.6869 361.4738C340.9285 361.4738 340.5492 361.0946 340.5492 360.3362L340.9285 353.51C312.1069 352.3723 324.2423 352.7515 301.4885 351.6138L298.4546 375.8846C298.4546 377.0223 297.3169 377.7808 296.5585 377.4015L279.4931 375.1262C278.7346 375.1262 278.3554 374.3677 277.9762 373.6092L271.15 349.7177C266.5992 349.3385 263.1862 349.3385 260.1523 348.9592 256.36 348.58 252.9469 346.6838 250.6715 343.2708L214.6446 286.0069 17.8238 277.2846 26.5462 244.2915C36.0269 218.1246 43.2323 207.1269 77.7423 204.0931L827.4815 203.7138C835.4454 282.2146 935.5623 304.5892 960.2123 314.07L962.4877 319.3792 473.6592 299.28ZM722.0554 273.4923C721.6762 270.8377 720.9177 268.1831 719.78 265.5285H737.6038V261.3569H718.2631C716.7462 257.9438 714.85 254.91 712.9538 252.2554 712.1954 253.0138 709.92 254.1515 708.7823 254.5308 712.9538 259.4608 715.6085 266.6662 717.1254 274.2508L722.0554 273.4923ZM697.0262 274.2508C699.6808 271.5962 702.3354 268.1831 703.4731 265.9077L698.9223 264.0115C697.7846 266.2869 695.13 270.0792 692.4754 272.7338L697.0262 274.2508ZM675.7892 273.4923C679.5815 271.5962 684.8908 268.5623 687.5454 266.6662L684.5115 263.2531C681.8569 265.1492 676.9269 268.1831 673.1346 270.4585L675.7892 273.4923ZM611.32 274.2508C613.2162 271.2169 614.7331 267.8038 615.4915 265.5285L610.9408 264.0115C610.1823 266.2869 608.2862 270.0792 606.7692 273.1131L611.32 274.2508ZM267.3577 330.7562L410.7069 336.4446 415.2577 331.8938 264.3238 325.8262 267.3577 330.7562ZM252.9469 309.8985L427.0138 316.7246 431.5646 312.1738 249.5338 304.9685 252.9469 309.8985ZM365.9577 263.6323V259.84H328.4138V263.6323H365.9577ZM340.17 273.8715L344.7208 275.0092C346.6169 271.9754 349.2715 267.8038 350.03 265.1492L345.4792 263.6323C344.3415 266.2869 342.0662 270.4585 340.17 273.8715ZM84.5685 225.7092H80.0177V270.0792H102.0131V231.7769H84.5685V225.7092ZM141.4531 221.1585C141.4531 218.1246 140.6946 216.9869 138.4192 216.2285 136.1438 215.47 131.9723 215.47 125.5254 215.47 125.1462 216.6077 124.3877 218.5038 123.6292 219.6415 128.5592 219.6415 133.11 219.6415 134.6269 219.6415 136.1438 219.6415 136.5231 220.0208 136.5231 221.1585V235.9485H114.9069C113.39 228.3638 109.5977 220.7792 101.6338 214.7115 100.8754 215.47 98.9792 216.9869 97.8415 217.7454 109.5977 226.0885 111.1146 238.6031 111.1146 248.8423V271.9754H141.4531V221.1585ZM150.9338 234.8108H158.1392V261.7362H152.0715V265.5285H158.1392V273.4923H162.69V265.5285H177.1008V273.4923H181.6515V265.5285H186.9608V261.7362H181.6515V234.8108H187.7192V231.0185H151.3131V234.8108ZM155.8638 215.8492C155.1054 216.6077 153.2092 217.7454 152.0715 218.5038 155.8638 221.5377 159.2769 225.7092 161.5523 229.5015L166.1031 228.3638C163.8277 223.4338 159.6562 218.8831 155.8638 215.8492ZM171.4123 227.6054L175.2046 229.1223C177.8592 226.4677 180.5138 223.4338 182.0308 221.1585L177.8592 219.2623C176.7215 221.5377 174.0669 225.33 171.4123 227.6054ZM218.4369 248.4631H210.4731V215.0908H205.9223V248.4631H194.1662V245.4292C194.1662 233.6731 192.6492 223.0546 183.1685 214.3323 182.41 215.0908 180.8931 216.2285 179.7554 216.9869 188.4777 224.9508 189.6154 235.19 189.6154 245.4292V267.4246C198.3377 268.9415 208.1977 271.5962 213.8862 273.8715L218.0577 270.8377C211.99 268.5623 202.5092 266.2869 194.5454 264.77V252.2554H218.8162V248.4631ZM284.4231 215.8492H272.2877C265.8408 215.8492 263.9446 217.3662 263.9446 222.2962V237.4654H252.5677C250.6715 226.0885 246.1208 218.8831 228.2969 215.0908 227.9177 216.2285 226.4008 218.1246 225.2631 218.8831 241.57 221.9169 245.7415 227.9846 246.8792 237.0862H235.1231V256.0477H255.9808V263.6323H226.78V267.4246H255.9808V274.2508H260.9108V267.4246H290.4908V263.6323H260.9108V256.0477H282.5269V237.0862H268.8746V221.9169C268.8746 220.0208 269.6331 219.6415 272.6669 219.6415H284.0438C287.0777 219.6415 287.8362 220.7792 287.8362 229.5015 288.9738 228.7431 290.87 227.9846 292.3869 227.6054 292.0077 218.1246 290.4908 215.8492 284.4231 215.8492ZM326.1385 220.4C326.1385 218.1246 325.38 216.9869 323.8631 216.2285 322.3462 215.47 319.3123 215.47 314.7615 215.47 314.7615 216.6077 314.0031 218.1246 313.2446 219.2623 316.6577 219.2623 319.3123 219.2623 320.0708 219.2623 321.2085 219.2623 321.5877 219.6415 321.5877 220.4V242.3954H308.6938V242.3954C308.6938 233.6731 307.9354 222.2962 302.6262 214.7115 301.8677 215.47 299.9715 216.6077 298.8338 216.9869 303.7638 224.1923 304.5223 234.4315 304.5223 242.3954V242.3954H299.2131V246.1877H304.5223V266.6662H310.9692C312.1069 269.3208 312.8654 272.3546 313.6238 275.0092L318.5538 274.2508C317.4162 271.5962 316.2785 268.9415 315.52 267.0454H326.1385V220.4ZM310.9692 238.6031L314.0031 239.7408C316.2785 236.7069 318.5538 232.5354 319.6915 229.8808L316.2785 228.3638C315.1408 231.0185 312.8654 235.5692 310.9692 238.6031ZM366.7162 219.2623C366.3369 217.7454 365.5785 217.3662 365.1992 216.6077 364.4408 216.2285 362.9238 215.8492 361.7862 215.8492H358.3731C356.8562 215.8492 355.7185 216.2285 354.5808 216.9869 353.4431 217.7454 353.0638 218.8831 353.0638 223.0546V248.8423H339.7908V238.6031C339.7908 231.0185 338.2738 221.1585 330.6892 214.7115 329.9308 215.47 328.0346 216.6077 326.8969 217.3662 334.1023 223.4338 335.24 232.1562 335.24 238.9823V253.3931H357.6146V223.0546C357.6146 221.5377 357.6146 220.4 357.9938 220.0208S358.7523 219.6415 359.1315 219.6415H361.0277C361.7862 219.6415 362.5446 219.6415 362.5446 220.0208 362.9238 220.4 363.3031 220.7792 363.3031 221.9169 363.3031 223.0546 363.6823 225.7092 363.6823 228.7431 364.4408 227.9846 365.9577 227.6054 367.0954 227.2262 367.0954 224.1923 367.0954 220.4 366.7162 219.2623ZM439.5285 246.5669H431.1854C430.8062 239.3615 430.0477 233.6731 429.6685 229.5015H437.6323V225.7092H429.2892C428.5308 221.5377 427.3931 219.2623 426.2554 218.1246 424.7385 216.2285 422.8423 215.47 420.1877 215.0908 417.5331 215.0908 413.3615 215.0908 409.19 215.0908 409.19 216.2285 408.4315 218.1246 407.6731 218.8831 412.2238 218.5038 416.3954 218.5038 418.2915 218.5038 419.8085 218.5038 420.5669 218.8831 421.3254 219.6415 422.0838 220.4 422.8423 222.2962 423.6008 225.33H379.2308C380.7477 231.0185 382.2646 238.2238 383.4023 246.1877H374.68V250.7385H384.1608C385.2985 257.9438 386.4362 265.1492 387.1946 271.2169H432.7023C432.7023 271.2169 432.7023 269.3208 432.7023 268.5623 432.3231 261.7362 431.9438 256.0477 431.5646 250.7385H439.5285V246.5669ZM514.6162 253.7723H503.2392V232.9146H478.5892V253.7723H464.5577V223.4338H512.3408V219.2623H459.2485V253.7723H448.2508V257.9438H459.2485V272.3546H464.5577V257.9438H478.5892V273.8715H483.5192V257.9438H498.3092V273.1131H503.2392V257.9438H514.6162V253.7723ZM546.8508 233.6731C546.8508 227.6054 545.3338 219.6415 530.9231 214.7115 530.1646 215.8492 528.6477 217.3662 527.51 218.1246 540.7831 222.6754 541.9208 229.1223 541.9208 234.0523V237.8446H546.8508V233.6731ZM570.3631 215.0908H565.4331V237.4654H570.3631V215.0908ZM585.9115 231.3977C576.0515 234.0523 565.8123 239.7408 559.7446 246.5669H551.4015C545.3338 239.7408 535.0946 234.0523 525.2346 231.0185 524.4762 232.1562 522.9592 233.6731 521.8215 234.4315 530.5438 236.7069 539.6454 241.2577 545.3338 246.5669H530.1646V272.3546H580.6023V246.5669H565.4331C571.1215 241.2577 580.2231 237.0862 589.3246 235.19 588.1869 234.0523 586.67 232.5354 585.9115 231.3977ZM623.0762 248.4631C622.3177 226.8469 621.9385 220.0208 620.0423 217.7454 618.9046 216.6077 617.7669 215.8492 615.8708 215.8492 614.3538 215.8492 611.6992 215.8492 609.0446 215.8492 609.0446 216.9869 608.6654 218.5038 607.9069 219.6415 610.5615 219.2623 612.8369 219.2623 613.9746 219.2623 615.1123 219.2623 615.4915 219.2623 615.8708 220.0208 617.0085 221.5377 617.7669 227.9846 618.1462 246.1877H609.0446C608.6654 235.9485 607.1485 224.5715 598.8054 215.0908 598.0469 215.8492 596.1508 216.9869 595.0131 217.3662 603.3562 227.2262 604.4938 239.3615 604.4938 248.8423V259.0815H596.53V263.2531H624.9723V259.0815H609.0446V250.3592H622.6969C623.0762 250.7385 623.0762 249.2215 623.0762 248.4631ZM623.4554 254.5308C628.7646 259.4608 632.5569 266.6662 634.8323 274.2508L639.7623 273.4923C639.0038 270.8377 637.8662 268.1831 636.7285 265.5285H662.8954V261.7362H634.8323C632.9362 257.9438 630.2815 254.5308 627.6269 252.2554 626.4892 252.6346 624.5931 253.7723 623.4554 254.5308ZM660.2408 216.2285C650.3808 222.6754 645.0715 235.9485 642.4169 251.4969 640.1415 251.1177 637.8662 250.3592 635.2115 249.98V222.6754L646.5885 227.2262C646.5885 226.0885 646.9677 224.1923 647.3469 223.4338 633.6946 217.7454 631.7985 216.9869 630.6608 215.8492 630.2815 216.9869 628.7646 218.5038 628.0062 219.2623 629.1438 220.0208 630.2815 221.5377 630.2815 224.5715V253.0138C639.7623 254.91 650.76 257.5646 656.4485 260.2192L660.62 257.1854C656.4485 255.6685 651.5185 254.1515 646.2092 253.0138 646.9677 248.8423 647.7262 245.05 648.8638 241.6369 652.2769 243.9123 656.0692 246.9462 658.3446 249.2215L661.7577 246.5669C658.3446 243.5331 653.7938 240.4992 650.0015 237.8446 653.0354 230.26 657.2069 223.8131 662.8954 220.4 662.5162 218.8831 660.9992 217.3662 660.2408 216.2285ZM672.7554 256.0477C676.9269 254.5308 682.2362 251.8762 684.8908 249.98L682.2362 246.5669C679.5815 248.4631 673.8931 251.1177 670.1008 253.0138L672.7554 256.0477ZM671.2385 218.1246C673.8931 223.0546 677.6854 231.7769 680.7192 238.9823L684.5115 236.7069C681.8569 229.8808 678.4438 221.9169 675.7892 215.8492L671.2385 218.1246ZM709.5408 248.0838C708.7823 227.2262 708.4031 220.0208 706.5069 217.7454 705.3692 216.6077 704.2315 215.8492 702.3354 215.8492 700.4392 215.8492 697.4054 215.8492 694.7508 215.8492 694.7508 216.9869 694.3715 218.8831 693.6131 219.6415 696.6469 219.2623 699.6808 219.2623 700.4392 219.2623S701.9562 219.2623 702.7146 220.0208C703.8523 221.5377 704.6108 227.6054 704.99 245.4292H697.0262C695.8885 232.9146 693.2338 221.9169 685.6492 214.7115 684.8908 215.47 683.3738 216.9869 682.2362 217.3662 692.0962 226.4677 693.2338 243.1538 693.6131 259.0815H686.4077V263.2531H712.1954V259.0815H697.7846C697.7846 255.6685 697.4054 252.6346 697.4054 249.6008H709.5408V248.0838ZM737.6038 234.8108H726.9854V220.0208C726.9854 217.7454 726.6062 216.6077 724.71 215.8492 722.8138 215.0908 719.4008 215.0908 714.4708 215.0908 714.0915 216.2285 713.7123 217.7454 712.9538 219.2623 716.7462 219.2623 720.1592 219.2623 721.2969 219.2623 722.4346 219.2623 722.4346 219.6415 722.4346 220.4V235.19H710.6785V238.9823H722.4346V245.4292C724.71 246.5669 727.3646 248.8423 729.2608 250.3592H714.4708V254.1515H733.0531L733.8115 254.5308 736.8454 252.6346C734.1908 249.6008 730.3985 246.1877 726.6062 243.9123V238.9823H737.2246V234.8108ZM811.1746 216.9869H748.6015V270.4585H809.6577V266.2869H753.5315V221.1585H811.1746V216.9869ZM759.9785 258.3231L763.3915 260.9777C769.08 256.8062 775.5269 251.8762 781.5946 247.3254 786.5246 252.2554 791.0754 257.9438 794.8677 263.6323L799.4185 262.1154C795.2469 256.0477 790.3169 249.98 785.0077 244.6708 791.8338 239.3615 797.9015 233.6731 801.6938 229.5015L797.5223 226.4677C793.73 230.6392 788.0415 235.9485 781.5946 241.6369 775.1477 235.9485 768.3215 230.6392 761.4954 226.4677 760.7369 227.2262 758.8408 229.1223 757.7031 229.8808 764.9085 233.6731 772.1138 238.6031 778.5608 244.6708 772.4931 248.8423 766.0462 254.1515 759.9785 258.3231ZM535.0946 257.5646L552.5392 257.5646 552.5392 249.98 535.0946 249.98 535.0946 257.5646Z"  horiz-adv-x="986" vert-adv-y="1024"  />

      
      <glyph glyph-name="uniE8A7" unicode="&#xE8A7;" d="M153.9677 265.9077C157.3808 383.09 183.5477 402.0515 202.5092 428.2185 203.6469 369.4377 207.4392 237.4654 348.5131 233.6731 308.6938 279.9392 270.3915 383.4692 297.3169 491.1708 442.9415 376.2638 452.8015 227.2262 461.1446 18.6492H494.8962C499.8262 141.8992 485.0362 397.5008 332.5854 509.3738 406.9146 516.2 466.0746 517.3377 527.1308 395.9838 536.2323 462.3492 536.6115 604.94 381.1269 590.5292 398.1923 623.9015 396.2962 647.4138 527.1308 639.0708 442.1831 763.8377 256.36 692.5423 251.43 574.2223 251.43 574.2223 56.1262 614.4208 56.8846 412.2908 108.46 463.1077 133.11 484.7238 153.9677 493.0669 126.6631 454.7646 58.0223 353.51 153.9677 265.9077ZM768.7008 183.9938C767.1838 184.7523 765.6669 185.5108 764.15 185.89 756.1862 188.5446 747.4638 188.1654 738.3623 185.5108L730.3985 182.8562 727.3646 190.4408C724.3308 198.0254 719.4008 204.8515 709.92 210.1608L635.2115 57.71 618.1462 63.3985 693.2338 216.6077C687.5454 217.7454 682.6154 216.9869 676.9269 215.0908L668.5838 212.0569 665.1708 220.4C660.9992 231.0185 654.1731 238.9823 645.0715 243.5331 643.5546 244.2915 642.0377 245.05 640.1415 245.4292 632.1777 248.0838 623.4554 247.7046 614.3538 245.05L606.39 242.7746 603.3562 250.3592C599.1846 260.9777 592.3585 268.9415 583.2569 273.4923 581.74 274.2508 580.2231 275.0092 578.3269 275.3885 568.8462 278.4223 557.8485 277.6638 547.23 273.1131L537.7492 287.9031C597.2885 341.7538 673.1346 364.8869 740.6377 343.65 740.6377 343.65 771.3554 330.7562 780.0777 325.0677 841.8923 283.3523 868.4385 215.47 865.4046 137.3485L848.3392 133.9354C844.1677 143.0369 837.7208 150.2423 829.3777 154.4138 827.8608 155.1723 826.3438 155.9308 824.8269 156.31 816.8631 158.9646 808.1408 158.5854 799.0392 155.9308L791.0754 153.6554 788.0415 161.24C784.6285 171.8585 777.8023 179.4431 768.7008 183.9938ZM703.0938 568.9131M648.4846 568.9131A54.6092 54.6092 0 1 1 757.7031 568.9131 54.6092 54.6092 0 1 1 648.4846 568.9131ZM173.3085-3.7254A378.4723 98.6 0 1 1 930.2531-3.7254 378.4723 98.6 0 1 1 173.3085-3.7254Z"  horiz-adv-x="986" vert-adv-y="1024"  />

      
      <glyph glyph-name="uniE8A3" unicode="&#xE8A3;" d="M409.5692 455.1438C427.3931 457.7985 434.5985 445.6631 424.3592 435.8031 395.9169 408.8777 359.5108 372.8508 331.0685 344.7877 320.0708 333.79 328.0346 314.8285 343.5831 314.8285 343.9623 314.8285 343.9623 314.8285 344.3415 314.8285 397.4338 314.8285 425.4969 304.21 445.9754 282.5938 463.7992 263.2531 473.28 251.4969 493.3792 251.4969 513.4785 251.4969 521.8215 263.2531 539.6454 282.5938 558.6069 303.0723 598.4262 330.7562 651.5185 314.07 659.4823 311.4154 668.2046 315.2077 672.3762 322.4131 686.0285 347.8215 671.2385 371.3338 652.2769 395.9838L633.6946 420.2546C596.53 468.7962 564.2954 510.5115 549.8846 528.3354 511.5823 575.7392 472.9008 568.1546 380.7477 549.9515 379.9892 549.9515 378.8515 549.5723 378.0931 549.1931 364.4408 544.2631 240.8115 499.1346 202.13 485.1031 195.3038 482.4485 190.3738 476.0015 190.7531 468.4169L190.7531 447.9385C190.7531 437.6992 199.8546 429.3562 210.0938 430.4938 250.6715 434.6654 346.9962 444.9046 409.5692 455.1438L409.5692 455.1438ZM756.5654 426.3223C819.1385 426.3223 869.9554 478.2769 869.9554 542.3669S819.1385 658.7908 756.5654 658.7908C693.9923 658.7908 643.1754 606.8362 643.1754 542.7462 643.1754 478.2769 693.9923 426.3223 756.5654 426.3223L756.5654 426.3223ZM789.5585 19.0285C769.4592 19.0285 760.7369 27.7508 742.5338 46.7123 722.0554 68.7077 694.3715 98.6669 640.9 98.6669 587.8077 98.6669 559.7446 68.7077 539.2662 47.0915 521.4423 27.7508 512.72 19.0285 492.6208 19.0285 472.5215 19.0285 463.7992 27.7508 445.5962 46.7123 425.1177 68.7077 397.4338 98.6669 343.9623 98.6669S262.8069 68.7077 242.3285 46.7123C224.5046 27.3715 215.7823 19.0285 195.6831 19.0285 175.5838 19.0285 166.8615 27.7508 149.0377 46.7123 131.5931 65.6738 102.0131 90.7031 59.5392 97.15 48.9208 98.6669 39.44 90.7031 39.44 79.7054V36.8523C39.44 28.5092 45.1285 21.6831 53.4715 19.7869 67.8823 16.7531 80.7762 8.0308 94.4285-6.38 114.9069-28.3754 142.5908-58.3346 196.0623-58.3346 249.1546-58.3346 277.2177-28.3754 297.6962-6.38 315.52 12.9608 324.6215 21.3038 344.7208 21.3038 364.82 21.3038 373.5423 12.9608 391.3662-6.38 411.8446-28.3754 439.5285-58.3346 493-58.3346 546.0923-58.3346 574.1554-28.3754 594.6338-6.38 612.4577 12.9608 621.5592 21.3038 641.2792 21.3038 661.3785 21.3038 670.1008 12.9608 688.3038-6.38 708.7823-28.3754 736.4662-58.3346 789.9377-58.3346 843.03-58.3346 871.0931-28.3754 891.5715-6.38 905.2238 8.41 918.4969 16.7531 932.9077 19.7869 940.8715 21.6831 946.9392 28.5092 946.9392 36.8523V79.7054C946.9392 90.3238 937.4585 98.6669 926.84 97.15 884.3662 90.7031 854.7862 65.6738 837.3415 46.7123 818.38 27.3715 809.6577 19.0285 789.5585 19.0285L789.5585 19.0285ZM789.5585 179.4431C769.4592 179.4431 760.7369 188.1654 742.5338 207.1269 722.0554 229.1223 694.3715 259.0815 640.9 259.0815 587.8077 259.0815 559.7446 229.1223 539.2662 207.5062 521.4423 188.1654 512.72 179.4431 492.6208 179.4431 472.5215 179.4431 463.7992 188.1654 445.5962 207.1269 425.1177 229.1223 397.4338 259.0815 343.9623 259.0815S262.8069 229.1223 242.3285 207.1269C224.5046 187.7862 215.7823 179.4431 195.6831 179.4431 175.5838 179.4431 166.8615 188.1654 149.0377 207.1269 131.5931 226.0885 102.0131 251.1177 59.5392 257.5646 48.9208 259.0815 39.44 251.1177 39.44 240.12V197.2669C39.44 188.9238 45.1285 182.0977 53.4715 180.2015 67.8823 177.1677 80.7762 168.4454 94.4285 154.0346 114.9069 132.0392 142.5908 102.08 196.0623 102.08 249.1546 102.08 277.2177 132.0392 297.6962 154.0346 315.52 173.3754 324.6215 181.7185 344.7208 181.7185 364.82 181.7185 373.5423 173.3754 391.3662 154.0346 411.8446 132.0392 439.5285 102.08 493 102.08 546.0923 102.08 574.1554 132.0392 594.6338 154.0346 612.4577 173.3754 621.5592 181.7185 641.2792 181.7185 661.3785 181.7185 670.1008 173.3754 688.3038 154.0346 708.7823 132.0392 736.4662 102.08 789.9377 102.08 843.03 102.08 871.0931 132.0392 891.5715 154.0346 905.2238 168.8246 918.4969 177.1677 932.9077 180.2015 940.8715 182.0977 946.9392 188.9238 946.9392 197.2669V240.12C946.9392 250.7385 937.4585 259.0815 926.84 257.5646 884.3662 251.1177 854.7862 226.0885 837.3415 207.1269 818.38 188.1654 809.6577 179.4431 789.5585 179.4431L789.5585 179.4431Z"  horiz-adv-x="986" vert-adv-y="1024"  />

      
      <glyph glyph-name="uniE8A5" unicode="&#xE8A5;" d="M653.0354 581.0485C680.34 570.0508 708.7823 562.8454 743.6715 568.1546 684.1323 678.5108 590.8415 697.4723 474.7969 676.2354 517.2708 713.4 544.9546 760.0454 607.5277 766.4923 592.3585 772.56 582.8777 776.3523 573.7762 780.1446 561.2615 780.1446 549.1262 780.1446 536.6115 780.1446 489.5869 764.5962 446.7338 744.1177 430.4269 691.0254 378.0931 748.2892 292.3869 759.6662 257.1185 720.6054 296.9377 706.1946 339.0323 690.6462 380.7477 675.4769 379.9892 673.96 379.61 672.0638 378.8515 670.5469 222.6085 695.5762 156.6223 639.45 131.5931 584.0823 216.1615 611.7662 307.9354 585.5992 391.3662 623.5223 337.1362 578.7731 294.2831 529.4731 289.7323 457.04 285.5608 392.95 321.9669 312.1738 366.7162 282.5938 353.4431 319.3792 354.5808 356.1646 365.9577 392.1915 385.2985 454.3854 406.9146 515.8208 427.7723 577.2562 433.4608 593.9423 440.2869 609.87 447.8715 629.9692 473.6592 567.7754 510.0654 518.0962 559.3654 477.8977 596.1508 447.9385 632.9362 417.9792 669.7215 387.6408 645.4508 501.0308 579.8438 585.9785 480.4854 647.7931 504.7562 641.7254 528.2685 634.52 551.0223 625.4185 585.5323 611.0077 618.9046 594.7008 653.0354 581.0485L653.0354 581.0485ZM929.1154 290.1785C924.9438 317.1038 912.05 338.72 892.7092 356.5438 870.3346 377.4015 843.4092 389.1577 814.9669 398.6385 801.6938 403.1892 788.0415 406.9815 774.7685 411.1531 795.2469 414.9454 815.3462 416.4623 835.4454 417.2208 855.1654 417.9792 875.2646 417.2208 895.3638 417.2208 880.1946 439.2162 858.1992 452.4892 832.0323 459.3154 805.8654 466.1415 780.4569 464.2454 756.5654 443.3877 766.0462 476.3808 762.6331 502.9269 737.2246 523.4054 720.9177 536.2992 698.9223 538.9538 681.8569 530.99 711.0577 515.4415 722.8138 489.2746 728.8815 458.9362 706.8862 493.0669 678.4438 507.8569 640.1415 502.9269 637.8662 502.5477 641.6585 502.1685 639.7623 501.7892 648.8638 486.62 656.4485 470.6923 663.6538 454.0062 664.0331 454.0062 664.4123 454.0062 664.7915 453.6269 683.3738 449.8346 691.7169 446.8008 706.1277 432.39 689.8208 437.32 682.2362 441.4915 665.9292 443.0085 671.6177 427.46 676.5477 411.5323 680.7192 394.8462 689.8208 396.7423 690.2 397.88 699.3015 399.7762 653.7938 369.0585 606.7692 339.0992 620.0423 270.4585 649.2431 320.1377 701.1977 345.1669 734.1908 388.7785 726.2269 343.2708 737.6038 304.5892 767.1838 270.4585 788.0415 246.5669 811.9331 224.5715 822.1723 193.0954 828.6192 263.6323 809.2785 327.7223 773.6308 389.9162 826.3438 356.5438 877.1608 323.93 929.1154 290.1785ZM533.1985 427.46C503.2392 499.8931 474.7969 533.6446 457.7315 559.8115 466.8331 546.1592 444.8377 537.4369 452.0431 524.1638 472.5215 484.3446 489.9662 452.8685 506.2731 408.1192 513.4785 414.9454 522.58 421.3923 533.1985 427.46ZM549.8846 377.0223C538.1285 377.4015 526.7515 377.4015 515.3746 375.1262 533.5777 322.7923 545.3338 276.1469 554.4354 223.0546 571.1215 127.4885 578.3269 29.2677 576.4308-73.5038 602.5977-73.5038 597.2885-73.5038 626.8685-73.5038 625.7308-55.3008 626.11-41.2692 625.3515-27.2377 614.7331 157.4477 584.7738 282.9731 549.8846 377.0223ZM649.6223 390.6746C629.9023 406.6023 610.5615 422.53 590.8415 438.4577 585.5323 437.6992 591.6 438.0785 586.67 436.9408 541.5415 425.1846 500.9638 400.1554 489.5869 375.1262 513.0992 386.8823 537.37 384.6069 561.2615 383.4692 579.8438 382.7108 599.1846 381.5731 617.3877 384.2277 632.1777 386.5031 635.2115 387.6408 649.6223 390.6746ZM712.5746 315.9662C686.7869 310.2777 635.2115 136.2108 647.3469-77.6754 655.3108-77.6754 682.6154-60.9892 690.2-51.5085 670.1008 58.8477 688.6831 192.7162 698.5431 236.7069L712.5746 315.9662ZM147.1415 295.8669M83.0515 295.8669A64.09 64.09 0 1 1 211.2315 295.8669 64.09 64.09 0 1 1 83.0515 295.8669ZM242.3285-73.5038C343.2038-73.5038 270.0123-73.5038 418.6708-73.5038 519.5462-73.5038 446.3546-73.5038 595.0131-73.5038 595.0131-73.5038 595.3923-38.6146 595.3923 12.2023 580.6023 12.2023 565.8123 7.2723 551.0223-2.2085 521.8215-21.5492 492.2415-21.5492 462.6615-2.2085 447.8715 7.6515 433.4608 12.5815 418.6708 12.5815V12.5815C403.8808 12.5815 389.0908 7.6515 374.68-1.8292 345.4792-21.17 315.8992-21.17 286.3192-1.8292 271.5292 8.0308 257.1185 12.9608 242.3285 12.9608V12.9608C227.5385 12.9608 212.7485 8.0308 198.3377-1.45 169.1369-20.7908 139.5569-20.7908 109.9769-1.45 95.1869 8.41 80.7762 13.34 65.9862 13.34 65.9862-16.9985 65.9862-72.7454 65.9862-72.7454 166.8615-73.5038 93.2908-73.5038 242.3285-73.5038L242.3285-73.5038ZM551.0223 82.7392C521.8215 63.3985 492.2415 63.3985 462.6615 82.7392 447.8715 92.5992 433.4608 97.5292 418.6708 97.5292V97.5292C403.8808 97.5292 389.0908 92.5992 374.68 83.1185 345.4792 63.7777 315.8992 63.7777 286.3192 83.1185 271.5292 92.9785 257.1185 97.9085 242.3285 97.9085V97.9085C227.5385 97.9085 212.7485 92.9785 198.3377 83.4977 168.7577 64.1569 139.5569 64.1569 109.9769 83.4977 95.1869 93.3577 80.7762 98.2877 65.9862 98.2877 65.9862 86.1523 65.9862 50.8838 65.9862 36.0938 80.7762 36.0938 95.1869 31.1638 109.9769 21.3038 139.5569 1.9631 168.7577 1.9631 198.3377 21.3038 213.1277 31.1638 227.9177 35.7146 242.3285 35.7146V35.7146C257.1185 35.7146 271.5292 30.7846 286.3192 20.9246 315.8992 1.5838 345.1 1.5838 374.68 20.9246 389.47 30.7846 404.26 35.3354 418.6708 35.3354V35.3354C433.4608 35.3354 447.8715 30.4054 462.6615 20.5454 492.2415 1.2046 521.4423 1.2046 551.0223 20.5454 565.8123 30.4054 580.6023 35.3354 595.3923 34.9562 595.3923 47.0915 595.3923 81.2223 595.3923 97.15 580.6023 97.5292 565.8123 92.5992 551.0223 82.7392ZM551.0223 167.3077C521.8215 147.9669 492.2415 147.9669 462.6615 167.3077 447.8715 177.1677 433.4608 182.0977 418.6708 182.0977V182.0977C403.8808 182.0977 389.0908 177.1677 374.68 167.6869 345.4792 148.3462 315.8992 148.3462 286.3192 167.6869 271.5292 177.5469 257.1185 182.4769 242.3285 182.4769V182.4769C227.5385 182.4769 212.7485 177.5469 198.3377 168.0662 168.7577 148.7254 139.5569 148.7254 109.9769 168.0662 95.1869 177.9262 80.7762 182.8562 65.9862 182.8562 65.9862 170.7208 65.9862 135.4523 65.9862 120.6623 80.7762 120.6623 95.1869 115.7323 109.9769 105.8723 139.5569 86.5315 168.7577 86.5315 198.3377 105.8723 213.1277 115.7323 227.9177 120.2831 242.3285 120.2831V120.2831C257.1185 120.2831 271.5292 115.3531 286.3192 105.4931 315.8992 86.1523 345.1 86.1523 374.68 105.4931 389.47 115.3531 404.26 119.9038 418.6708 119.9038V119.9038C433.4608 119.9038 447.8715 114.9738 462.6615 105.1138 492.2415 85.7731 521.4423 85.7731 551.0223 105.1138 565.8123 114.9738 580.6023 119.9038 595.3923 119.5246 595.3923 131.66 595.3923 165.7908 595.3923 181.7185 580.6023 182.0977 565.8123 177.1677 551.0223 167.3077ZM741.0169-53.4046C737.2246-48.0954 729.64-46.9577 724.71-50.75 709.1615-62.5062 678.4438-85.26 663.2746-92.0862 616.25-114.0815 424.7385-90.5692 377.3346-111.8062 362.5446-118.2531 328.0346-145.1785 311.3485-158.8308 306.0392-163.0023 305.66-170.9662 310.2108-175.8962H310.2108C314.3823-180.4469 321.2085-180.8262 325.7592-177.0338 341.3077-165.2777 373.5423-140.6277 385.6777-135.6977 434.2192-114.84 623.4554-139.49 671.2385-116.7362 687.9246-108.7723 722.8138-82.2262 739.1208-69.7115 744.0508-65.9192 745.1885-59.0931 741.0169-53.4046L741.0169-53.4046ZM719.0215-176.6546H658.3446C658.3446-176.6546 654.5523-158.8308 653.0354-134.9392 667.0669-136.0769 694.7508-123.1831 705.3692-108.0138 706.1277-127.3546 719.0215-176.6546 719.0215-176.6546Z"  horiz-adv-x="986" vert-adv-y="1024"  />

      
      <glyph glyph-name="uniE8A4" unicode="&#xE8A4;" d="M698.9223 317.8623C694.3715 329.9977 659.1031 416.8415 603.3562 423.2885 596.9092 422.9092 588.9454 422.1508 579.8438 421.7715L579.8438 422.1508C579.4646 427.46 575.2931 431.6315 569.9838 431.2523L408.8108 422.1508C408.0523 422.1508 407.2938 421.3923 407.2938 420.6338L407.6731 411.9115C366.3369 409.6362 326.1385 407.3608 294.2831 405.4646L290.1115 444.1462C290.1115 445.6631 288.5946 446.4215 287.4569 446.4215L263.1862 443.3877C262.0485 443.3877 261.29 442.6292 260.9108 441.4915L251.43 403.1892C244.9831 402.81 240.0531 402.4308 235.8815 402.4308 230.1931 402.0515 225.2631 399.0177 222.6085 394.4669L164.9654 294.7292 14.79 287.5238 28.4423 241.6369C42.0946 204.0931 51.9546 188.5446 101.2546 184.7523L779.3192 184.3731C810.4162 184.3731 840.3754 196.8877 862.3708 219.2623L971.21 331.5146 698.9223 317.8623ZM245.7415 376.6431L602.9769 397.5008 606.39 391.0538 242.3285 370.1962 245.7415 376.6431ZM234.3646 351.2346L617.7669 372.4715 621.18 366.0246 230.9515 344.0292 234.3646 351.2346ZM222.9877 324.3092L630.2815 347.0631 633.6946 340.6162 219.1954 317.1038 222.9877 324.3092ZM248.0169 257.5646L246.8792 282.5938 307.1769 285.2485 308.3146 260.2192 248.0169 257.5646ZM331.0685 261.3569L329.9308 286.3862 390.2285 289.0408 391.3662 264.0115 331.0685 261.3569ZM413.7408 264.77L412.6031 289.7992 472.9008 292.4538 474.0385 267.4246 413.7408 264.77ZM496.7923 268.5623L495.6546 293.5915 555.9523 296.2462 557.09 271.2169 496.7923 268.5623ZM579.8438 271.9754L578.7062 297.0046 639.0038 299.6592 640.1415 274.63 579.8438 271.9754Z"  horiz-adv-x="986" vert-adv-y="1024"  />

      
      <glyph glyph-name="uniE8A2" unicode="&#xE8A2;" d="M335.6192 485.4823C319.3123 460.0738 290.4908 443.0085 257.8769 443.0085 237.0192 443.0085 217.6785 450.2138 202.13 461.97 158.5185 432.0108 129.6969 381.9523 129.6969 325.0677 129.6969 233.6731 203.6469 159.7231 295.0415 159.7231S460.3862 233.6731 460.3862 325.0677C461.1446 402.4308 407.6731 467.2792 335.6192 485.4823ZM303.0054 624.2808C303.0054 624.66 303.0054 624.66 303.0054 625.0392 289.3531 633.0031 273.8046 637.5538 257.1185 637.5538 206.3015 637.5538 164.9654 596.2177 164.9654 545.4008S206.3015 453.2477 257.1185 453.2477C300.3508 453.2477 336.7569 483.2069 346.6169 523.4054 319.6915 548.8138 303.0054 584.8408 303.0054 624.2808ZM588.9454 616.6962C589.3246 620.4885 589.3246 623.9015 589.3246 627.6938 589.3246 704.2985 527.1308 766.4923 450.5262 766.4923S311.7277 704.6777 311.7277 627.6938C311.7277 551.4685 373.1631 489.6538 449.0092 488.8954 472.5215 550.71 524.4762 598.8723 588.9454 616.6962ZM654.5523 404.3269M444.4585 404.3269A210.0938 210.0938 0 1 1 864.6462 404.3269 210.0938 210.0938 0 1 1 444.4585 404.3269ZM505.8938-171.7246L473.6592 490.0331 432.7023 490.0331 432.7023 490.0331 347.7546 545.4008 328.4138 507.0985 430.8062 436.9408 400.4677-171.7246Z"  horiz-adv-x="986" vert-adv-y="1024"  />

      
      <glyph glyph-name="uniE8A1" unicode="&#xE8A1;" d="M476.6931 670.5469C486.1738 678.5108 499.8262 678.5108 508.9277 670.5469L904.4654 337.5823C925.7023 320.5169 938.2169 294.7292 938.5962 267.4246L939.3546 217.7454H46.6454L47.4038 267.4246C47.7831 294.7292 60.2977 320.5169 81.5346 337.5823L476.6931 670.5469ZM101.6338 186.6485L138.7985 186.6485 138.7985 72.8792 101.6338 72.8792 101.6338 186.6485ZM185.4438 186.6485L222.6085 186.6485 222.6085 72.8792 185.4438 72.8792 185.4438 186.6485ZM185.4438 28.8885L207.8185 28.8885 207.8185-76.1585 185.4438-76.1585 185.4438 28.8885ZM261.6692 28.8885L284.0438 28.8885 284.0438-76.1585 261.6692-76.1585 261.6692 28.8885ZM203.6105-34.7032L203.6105-12.3286 272.6305-12.3286 272.6305-34.7032 203.6105-34.7032ZM203.893-68.5515L203.893-46.1769 272.913-46.1769 272.913-68.5515 203.893-68.5515ZM269.6331 186.6485L306.7977 186.6485 306.7977 72.8792 269.6331 72.8792 269.6331 186.6485ZM353.4431 186.6485L390.6077 186.6485 390.6077 72.8792 353.4431 72.8792 353.4431 186.6485ZM437.6323 186.6485L474.7969 186.6485 474.7969 72.8792 437.6323 72.8792 437.6323 186.6485ZM521.4423 186.6485L558.6069 186.6485 558.6069 72.8792 521.4423 72.8792 521.4423 186.6485ZM847.2015 186.6485L884.3662 186.6485 884.3662 72.8792 847.2015 72.8792 847.2015 186.6485ZM609.0446 186.6485V72.8792H799.0392V186.6485H609.0446ZM765.2877 103.2177H643.1754V153.2762H765.2877V103.2177ZM476.3138 41.7823L61.4354 41.7823 61.4354-76.1585 109.2185-76.1585 109.2185-0.3123 476.3138-0.3123 876.7815-0.3123 876.7815-76.1585 924.5646-76.1585 924.5646 41.7823Z"  horiz-adv-x="986" vert-adv-y="1024"  />

      
      <glyph glyph-name="uniE89B" unicode="&#xE89B;" d="M620.992 343.712C582.816 371.872 557.728 416.832 557.728 467.904 557.728 553.344 626.976 622.592 712.416 622.592 797.856 622.592 867.104 553.344 867.104 467.904 867.104 416.192 841.504 370.72 802.528 342.624 824.224 335.872 845.024 326.88 864.768 315.776 903.968 354.688 928.48 408.256 928.48 467.904 928.512 587.264 831.776 684 712.416 684 593.088 684 496.32 587.264 496.32 467.904 496.32 409.248 520 356.32 557.952 317.408 577.952 328.384 599.008 337.184 620.992 343.712ZM991.584-11.328C991.584-8.288 990.688-5.536 990.016-2.72 979.584 159.456 858.464 287.616 709.824 287.616 652.608 287.616 599.52 268.512 555.168 235.904 569.408 218.72 582.272 200.128 593.536 180.192 627.296 203.968 667.232 217.92 710.208 217.92 828.192 217.92 924.16 114.368 929.088-15.36H929.536C929.952-34.112 943.616-49.248 960.608-49.248 977.856-49.248 991.84-33.728 991.84-14.56L991.584-11.328ZM228.48 345.856C203.552 368.448 187.616 400.768 187.616 437.056 187.616 505.248 242.912 560.544 311.104 560.544 379.296 560.544 434.592 505.28 434.592 437.056 434.592 400.128 418.08 367.392 392.384 344.768 413.504 338.688 433.792 330.4 453.088 320.032 479.552 352 496.32 392.288 496.32 437.056 496.32 539.36 413.376 622.272 311.104 622.272 208.8 622.272 125.888 539.36 125.888 437.056 125.888 393.184 141.632 353.376 167.264 321.792 186.752 331.936 207.2 340 228.48 345.856ZM582.4 17.856C582.4 17.888 582.4 17.92 582.4 17.952L582.176 20.64C582.176 25.44 581.312 29.984 579.744 34.144 555.136 178.4 443.36 287.552 308.512 287.552 168.576 287.552 53.216 170.144 34.592 17.824H34.656C34.656-1.344 49.184-16.768 66.144-16.768 83.072-16.768 96.8-1.28 96.832 17.824H96.896C115.104 131.552 203.008 217.856 308.928 217.856S502.72 131.52 520.96 17.824H521.024L521.056 17.408C521.056-1.76 534.816-17.28 551.744-17.28 568.704-17.28 582.432-1.76 582.432 17.408L582.4 17.856 582.4 17.856Z"  horiz-adv-x="1024" vert-adv-y="1024"  />

      
      <glyph glyph-name="uniE89A" unicode="&#xE89A;" d="M163.2 405.6C112 405.6 67.2 364 67.2 309.6 67.2 258.4 108.8 213.6 163.2 213.6 214.4 213.6 259.2 255.2 259.2 309.6 256 364 214.4 405.6 163.2 405.6ZM515.2 405.6C464 405.6 419.2 364 419.2 309.6 419.2 258.4 460.8 213.6 515.2 213.6 566.4 213.6 611.2 255.2 611.2 309.6 608 364 566.4 405.6 515.2 405.6ZM867.2 405.6C816 405.6 771.2 364 771.2 309.6 771.2 258.4 812.8 213.6 867.2 213.6 918.4 213.6 963.2 255.2 963.2 309.6 960 364 918.4 405.6 867.2 405.6Z"  horiz-adv-x="1024" vert-adv-y="1024"  />

      
      <glyph glyph-name="uniE899" unicode="&#xE899;" d="M761.6 440.8C720 440.8 684.8 405.6 684.8 364S720 287.2 761.6 287.2 838.4 322.4 838.4 364C838.4 405.6 803.2 440.8 761.6 440.8ZM515.2 751.2C249.6 751.2 32 572 32 348 32 229.6 92.8 124 188.8 50.4 195.2 44 201.6 40.8 201.6 34.4L204.8-151.2 422.4-48.8C451.2-52 483.2-55.2 512-55.2 777.6-55.2 988.8 127.2 988.8 351.2 992 572 780.8 751.2 515.2 751.2ZM515.2 21.6C480 21.6 448 24.8 416 31.2L278.4-39.2 281.6 79.2C176 140 105.6 239.2 105.6 351.2 102.4 536.8 288 684 515.2 684S921.6 536.8 921.6 351.2C921.6 172 742.4 21.6 515.2 21.6ZM515.2 440.8C473.6 440.8 438.4 405.6 438.4 364S473.6 287.2 515.2 287.2 592 322.4 592 364C588.8 405.6 556.8 440.8 515.2 440.8ZM265.6 440.8C224 440.8 188.8 405.6 188.8 364S224 287.2 265.6 287.2 342.4 322.4 342.4 364C342.4 405.6 307.2 440.8 265.6 440.8Z"  horiz-adv-x="1024" vert-adv-y="1024"  />

      
      <glyph glyph-name="uniE898" unicode="&#xE898;" d="M467.2 162.4C473.6 146.4 492.8 133.6 512 133.6 531.2 133.6 544 143.2 553.6 159.2L739.2 341.6C758.4 360.8 758.4 389.6 739.2 408.8 720 428 691.2 428 672 408.8L560 296.8 560 629.6C560 655.2 537.6 677.6 512 677.6 486.4 677.6 464 655.2 464 629.6L464 300 355.2 408.8C336 428 304 428 288 408.8S268.8 360.8 288 341.6L467.2 162.4ZM992 197.6L988.8 204 988.8 204C979.2 220 963.2 232.8 944 232.8 924.8 232.8 908.8 223.2 899.2 207.2L899.2 207.2 896 191.2C896 188 896 184.8 896 181.6S896 175.2 896 172V-10.4H128V168.8C128 175.2 128 178.4 128 181.6S128 188 128 194.4L128 197.6 128 197.6C121.6 216.8 102.4 229.6 83.2 229.6 60.8 229.6 44.8 216.8 38.4 197.6L38.4 197.6 32 191.2C32 188 32 184.8 32 181.6S32 175.2 32 172V-58.4C32-77.6 44.8-87.2 64-87.2H960C979.2-87.2 992-74.4 992-55.2V168.8C992 172 995.2 178.4 995.2 181.6S992 191.2 992 197.6Z"  horiz-adv-x="1024" vert-adv-y="1024"  />

      
      <glyph glyph-name="uniE897" unicode="&#xE897;" d="M342.4 604C310.4 604 284.8 578.4 284.8 546.4S310.4 488.8 342.4 488.8 400 514.4 400 546.4 374.4 604 342.4 604ZM867.2 703.2H156.8C86.4 703.2 32 645.6 32 578.4V21.6C32-45.6 86.4-103.2 156.8-103.2H870.4C937.6-103.2 995.2-48.8 995.2 21.6V578.4C992 645.6 937.6 703.2 867.2 703.2ZM931.2 21.6C931.2-13.6 902.4-39.2 870.4-39.2H156.8C121.6-39.2 96-10.4 96 21.6V392.8H931.2V21.6ZM931.2 453.6H92.8V578.4C92.8 613.6 121.6 639.2 153.6 639.2H867.2C902.4 639.2 928 610.4 928 578.4V453.6H931.2ZM185.6 604C153.6 604 128 578.4 128 546.4S153.6 488.8 185.6 488.8 243.2 514.4 243.2 546.4C243.2 578.4 217.6 604 185.6 604ZM496 604C464 604 438.4 578.4 438.4 546.4S464 488.8 496 488.8 553.6 514.4 553.6 546.4 528 604 496 604Z"  horiz-adv-x="1024" vert-adv-y="1024"  />

      
      <glyph glyph-name="uniE896" unicode="&#xE896;" d="M876.8 706.4H147.2C83.2 706.4 32 655.2 32 591.2V127.2C32 63.2 83.2 12 147.2 12H409.6V-45.6H352C336-45.6 323.2-58.4 323.2-74.4S336-103.2 352-103.2H700.8C716.8-103.2 729.6-90.4 729.6-74.4S716.8-45.6 700.8-45.6H643.2V12H876.8C940.8 12 992 63.2 992 127.2V591.2C992 655.2 940.8 706.4 876.8 706.4ZM931.2 124C931.2 92 908.8 66.4 876.8 66.4H147.2C115.2 66.4 89.6 92 89.6 124V591.2C89.6 623.2 115.2 648.8 147.2 648.8H873.6C905.6 648.8 931.2 623.2 931.2 591.2V124L931.2 124ZM736 399.2L422.4 581.6C390.4 600.8 352 591.2 352 533.6V210.4C352 152.8 390.4 143.2 422.4 162.4L736 316C768 338.4 768 380 736 399.2ZM409.6 236V511.2L697.6 357.6 409.6 236Z"  horiz-adv-x="1024" vert-adv-y="1024"  />

      
      <glyph glyph-name="uniE895" unicode="&#xE895;" d="M540.8-148C320-148 131.2 15.2 99.2 229.6 96 252 112 271.2 134.4 274.4 156.8 277.6 176 261.6 179.2 239.2 204.8 63.2 361.6-71.2 544-71.2 748.8-71.2 915.2 95.2 915.2 296.8 915.2 501.6 748.8 664.8 544 664.8 444.8 664.8 352 626.4 284.8 559.2 265.6 546.4 240 546.4 224 562.4S208 604 224 620C307.2 703.2 419.2 748 540.8 748 787.2 748 992 546.4 992 300S787.2-148 540.8-148ZM547.2 162.4C515.2 162.4 486.4 175.2 460.8 197.6 425.6 229.6 323.2 428 291.2 485.6L230.4 600.8 345.6 540C403.2 508 598.4 402.4 633.6 370.4 681.6 322.4 681.6 245.6 633.6 197.6 608 175.2 579.2 162.4 547.2 162.4ZM425.6 405.6C467.2 332 505.6 268 515.2 255.2 531.2 239.2 556.8 239.2 572.8 255.2 588.8 271.2 588.8 296.8 572.8 312.8 566.4 325.6 502.4 364 425.6 405.6ZM137.6 194.4C80 194.4 32 242.4 32 300S80 405.6 137.6 405.6 243.2 357.6 243.2 300 195.2 194.4 137.6 194.4ZM137.6 322.4C124.8 322.4 112 312.8 112 296.8S121.6 271.2 137.6 271.2 160 287.2 160 300 150.4 322.4 137.6 322.4Z"  horiz-adv-x="1024" vert-adv-y="1024"  />

      
      <glyph glyph-name="uniE894" unicode="&#xE894;" d="M512-173.6C249.6-173.6 35.2 37.6 35.2 300S249.6 776.8 512 776.8 985.6 562.4 985.6 300 774.4-173.6 512-173.6ZM512 696.8C294.4 696.8 115.2 517.6 115.2 300 115.2 82.4 291.2-93.6 512-93.6 729.6-93.6 905.6 82.4 905.6 300 905.6 517.6 729.6 696.8 512 696.8ZM512 300L512 300C492.8 300 480 312.8 480 332V620C480 639.2 492.8 652 512 652L512 652C531.2 652 544 639.2 544 620V332C544 312.8 531.2 300 512 300ZM480 332L480 332C480 351.2 492.8 364 512 364H710.4C729.6 364 742.4 351.2 742.4 332L742.4 332C742.4 312.8 729.6 300 710.4 300H512C492.8 300 480 312.8 480 332Z"  horiz-adv-x="1024" vert-adv-y="1024"  />

      
      <glyph glyph-name="uniE893" unicode="&#xE893;" d="M512 780C246.4 780 32 565.6 32 300S246.4-180 512-180 992 34.4 992 300 777.6 780 512 780ZM460.8 300C460.8 328.8 483.2 351.2 512 351.2 540.8 351.2 563.2 328.8 563.2 300 563.2 271.2 540.8 248.8 512 248.8S460.8 271.2 460.8 300ZM563.2-109.6C563.2-103.2 560-100 560-96.8 560-45.6 540.8 92 524.8 184.8 582.4 191.2 624 239.2 624 300 624 364 572.8 415.2 508.8 415.2S396.8 364 396.8 300C396.8 242.4 441.6 194.4 496 184.8 480 88.8 460.8-45.6 460.8-96.8 460.8-100 460.8-103.2 457.6-109.6 256-84 99.2 88.8 99.2 300 99.2 527.2 284.8 712.8 512 712.8S924.8 527.2 924.8 300C924.8 88.8 768-84 563.2-109.6Z"  horiz-adv-x="1024" vert-adv-y="1024"  />

      
      <glyph glyph-name="uniE892" unicode="&#xE892;" d="M953.6 69.6L870.4-20 883.2-135.2 883.2-148C880-167.2 860.8-176.8 844.8-173.6L832-170.4 729.6-122.4 636.8-167.2 636.8-167.2 620.8-170.4C601.6-173.6 585.6-164 582.4-144.8L576-128.8 576-128.8 588.8-20 508.8 66.4 505.6 82.4C499.2 101.6 512 117.6 528 124L544 127.2 643.2 146.4 700.8 252 707.2 258.4C720 271.2 742.4 271.2 755.2 258.4L761.6 252 819.2 146.4 924.8 127.2 937.6 124C956.8 117.6 966.4 101.6 960 82.4L953.6 69.6ZM777.6 95.2L729.6 175.2V175.2L684.8 95.2 595.2 76 656 12 643.2-84 729.6-42.4 812.8-77.6 803.2 12 867.2 79.2 777.6 95.2ZM694.4 322.4C707.2 335.2 720 335.2 720 354.4 720 373.6 681.6 392.8 668.8 402.4L668.8 402.4 662.4 405.6C659.2 408.8 652.8 412 649.6 412L265.6 623.2C256 639.2 227.2 655.2 208 655.2 176 655.2 182.4 629.6 179.2 597.6L179.2 597.6V114.4L179.2 114.4C179.2 79.2 176 50.4 208 50.4 227.2 50.4 256 66.4 268.8 79.2L441.6 175.2 480 92 243.2-42.4C227.2-61.6 201.6-71.2 176-71.2 128-71.2 86.4-32.8 86.4 18.4L86.4 18.4V693.6L86.4 693.6C89.6 738.4 128 776.8 176 776.8 201.6 776.8 227.2 764 243.2 748L787.2 437.6C793.6 434.4 800 431.2 806.4 428L812.8 421.6 812.8 421.6C832 405.6 841.6 380 841.6 354.4 841.6 328.8 828.8 303.2 812.8 287.2H745.6L745.6 287.2 745.6 287.2 694.4 322.4"  horiz-adv-x="1024" vert-adv-y="1024"  />

      
      <glyph glyph-name="uniE891" unicode="&#xE891;" d="M896-180L128-180 128 652 307.2 652 307.2 572 208 572 208-100 816-100 816 572 729.6 572 729.6 652 896 652ZM752 536.8H272V684H755.2V536.8ZM320 584.8H704V636H320V584.8ZM617.6 658.4C604.8 658.4 592 668 592 684 592 709.6 569.6 732 544 732H473.6C448 732 428.8 709.6 428.8 684 428.8 671.2 419.2 658.4 403.2 658.4S384 671.2 384 684C384 735.2 425.6 780 476.8 780H547.2C598.4 780 643.2 738.4 643.2 684 640 671.2 630.4 658.4 617.6 658.4ZM358.4 239.2C358.4 319.2 422.4 383.2 502.4 383.2S646.4 319.2 646.4 239.2C646.4 232.8 646.4 229.6 646.4 223.2H710.4C710.4 229.6 710.4 232.8 710.4 239.2 710.4 354.4 617.6 447.2 502.4 447.2S294.4 354.4 294.4 239.2 387.2 31.2 502.4 31.2C518.4 31.2 534.4 34.4 550.4 37.6V104.8C534.4 98.4 518.4 95.2 502.4 95.2 422.4 95.2 358.4 159.2 358.4 239.2ZM777.6 146.4L755.2 168.8 688 101.6 620.8 168.8 598.4 146.4 665.6 79.2 598.4 12 620.8-10.4 688 56.8 755.2-10.4 777.6 12 710.4 79.2 777.6 146.4Z"  horiz-adv-x="1024" vert-adv-y="1024"  />

      
      <glyph glyph-name="uniE890" unicode="&#xE890;" d="M896-180L128-180 128 652 307.2 652 307.2 572 208 572 208-100 816-100 816 572 729.6 572 729.6 652 896 652ZM752 536.8H272V684H755.2V536.8ZM320 584.8H704V636H320V584.8ZM617.6 658.4C604.8 658.4 592 668 592 684 592 709.6 569.6 732 544 732H473.6C448 732 428.8 709.6 428.8 684 428.8 671.2 419.2 658.4 403.2 658.4S384 671.2 384 684C384 735.2 425.6 780 476.8 780H547.2C598.4 780 643.2 738.4 643.2 684 640 671.2 630.4 658.4 617.6 658.4ZM313.6 428L377.6 428 377.6 364 313.6 364 313.6 428ZM419.2 428L729.6 428 729.6 364 419.2 364 419.2 428ZM313.6 284L377.6 284 377.6 220 313.6 220 313.6 284ZM419.2 284L729.6 284 729.6 220 419.2 220 419.2 284ZM313.6 140L377.6 140 377.6 76 313.6 76 313.6 140ZM419.2 140L729.6 140 729.6 76 419.2 76 419.2 140Z"  horiz-adv-x="1024" vert-adv-y="1024"  />

      
      <glyph glyph-name="uniE88F" unicode="&#xE88F;" d="M713.6 322.4C726.4 335.2 739.2 335.2 739.2 354.4 739.2 373.6 700.8 392.8 688 402.4L688 402.4 681.6 405.6C678.4 408.8 672 412 668.8 412L288 626.4C275.2 639.2 246.4 655.2 227.2 655.2 195.2 655.2 201.6 629.6 198.4 597.6L198.4 597.6V114.4L198.4 114.4C198.4 79.2 195.2 50.4 227.2 50.4 246.4 50.4 275.2 66.4 288 79.2L409.6 146.4 435.2 53.6 262.4-42.4C246.4-61.6 220.8-71.2 195.2-71.2 147.2-71.2 105.6-32.8 105.6 18.4L105.6 18.4V693.6L105.6 693.6C108.8 738.4 147.2 776.8 195.2 776.8 224 776.8 246.4 767.2 265.6 748L809.6 437.6C816 434.4 822.4 431.2 828.8 428L835.2 421.6 835.2 421.6C854.4 405.6 864 380 864 354.4 864 328.8 851.2 303.2 835.2 287.2H768L768 287.2 768 287.2 713.6 322.4M924.8 108L924.8 226.4C924.8 239.2 915.2 248.8 902.4 248.8S880 239.2 880 226.4L880 156C841.6 223.2 768 268 688 268 563.2 268 464 168.8 464 44S563.2-180 688-180C787.2-180 873.6-116 902.4-26.4H819.2C793.6-71.2 745.6-103.2 691.2-103.2 611.2-103.2 544-36 544 44S611.2 191.2 691.2 191.2C745.6 191.2 793.6 162.4 819.2 117.6L745.6 108C732.8 108 726.4 95.2 726.4 82.4S739.2 60 748.8 63.2L905.6 82.4C918.4 82.4 924.8 95.2 924.8 108 924.8 108 924.8 108 924.8 108Z"  horiz-adv-x="1024" vert-adv-y="1024"  />

      
      <glyph glyph-name="uniE88E" unicode="&#xE88E;" d="M704 396C732.8 434.4 748.8 482.4 748.8 530.4 748.8 658.4 643.2 764 515.2 764 387.2 764 281.6 658.4 281.6 530.4 281.6 482.4 297.6 434.4 326.4 396 147.2 322.4 38.4 143.2 38.4-77.6V-125.6L86.4-125.6C86.4-125.6 262.4-125.6 518.4-125.6S950.4-125.6 950.4-125.6L998.4-125.6V-77.6C992 143.2 880 322.4 704 396ZM512-29.6C339.2-29.6 201.6-29.6 131.2-29.6 147.2 152.8 256 290.4 419.2 325.6L444.8 412 438.4 415.2C396.8 440.8 374.4 482.4 374.4 530.4 374.4 607.2 435.2 668 512 668S649.6 607.2 649.6 530.4C649.6 482.4 624 437.6 585.6 415.2L579.2 412 604.8 322.4C768 284 876.8 149.6 892.8-32.8 822.4-29.6 684.8-29.6 512-29.6Z"  horiz-adv-x="1024" vert-adv-y="1024"  />

      
      <glyph glyph-name="uniE88D" unicode="&#xE88D;" d="M617.6 82.4C636.8 63.2 665.6 63.2 681.6 82.4L857.6 258.4C867.2 264.8 873.6 271.2 876.8 280.8 876.8 280.8 876.8 280.8 876.8 280.8 880 287.2 880 290.4 880 296.8 880 296.8 880 296.8 880 296.8 880 296.8 880 296.8 880 296.8 880 296.8 880 296.8 880 296.8 880 296.8 880 300 880 300 880 303.2 880 306.4 876.8 309.6 873.6 316 870.4 325.6 864 332 860.8 335.2 860.8 335.2 857.6 335.2L678.4 514.4C659.2 533.6 630.4 533.6 614.4 514.4S595.2 466.4 614.4 450.4L720 341.6 396.8 341.6C371.2 341.6 352 322.4 352 296.8 352 271.2 371.2 252 396.8 252L720 252 614.4 146.4C598.4 130.4 598.4 101.6 617.6 82.4ZM857.6-84L857.6-84 857.6-84C854.4-84 851.2-84 848-84S841.6-84 838.4-84L233.6-84V687.2L835.2 687.2C838.4 684 841.6 684 848 684 873.6 684 896 706.4 896 732S873.6 780 848 780C844.8 780 841.6 780 838.4 780H166.4C150.4 780 140.8 767.2 140.8 748V-144.8C140.8-160.8 153.6-176.8 172.8-176.8H835.2C838.4-176.8 844.8-180 848-180 873.6-180 896-157.6 896-132 896-109.6 876.8-90.4 857.6-84Z"  horiz-adv-x="1024" vert-adv-y="1024"  />

      
      <glyph glyph-name="uniE88C" unicode="&#xE88C;" d="M620.8 5.6H403.2V-55.2H281.6V-148H745.6V-55.2H620.8V5.6ZM899.2 748H124.8C73.6 748 32 706.4 32 655.2V162.4C32 111.2 73.6 69.6 124.8 69.6H896C947.2 69.6 988.8 111.2 988.8 162.4V655.2C992 706.4 950.4 748 899.2 748ZM899.2 162.4H124.8V655.2H896L899.2 162.4 899.2 162.4ZM528 530.4H496V284H528V530.4Z"  horiz-adv-x="1024" vert-adv-y="1024"  />

      
      <glyph glyph-name="uniE88B" unicode="&#xE88B;" d="M547.2 655.2C540.8 661.6 534.4 664.8 524.8 668 521.6 668 518.4 668 518.4 668 518.4 668 515.2 668 515.2 668 515.2 668 515.2 668 515.2 668S515.2 668 515.2 668C515.2 668 512 668 512 668 508.8 668 505.6 668 505.6 668 496 664.8 489.6 661.6 483.2 655.2L297.6 469.6C278.4 450.4 278.4 421.6 297.6 405.6 316.8 386.4 345.6 386.4 361.6 405.6L470.4 514.4 470.4 188C470.4 162.4 489.6 143.2 515.2 143.2 540.8 143.2 560 162.4 560 188L560 514.4 668.8 405.6C688 386.4 716.8 386.4 732.8 405.6S752 453.6 732.8 469.6L547.2 655.2ZM944 255.2C918.4 255.2 896 232.8 896 207.2 896 207.2 896 204 896 204L896 24.8H124.8L124.8 197.6C124.8 200.8 124.8 204 124.8 207.2 124.8 232.8 102.4 255.2 76.8 255.2 51.2 255.2 32 236 28.8 210.4H28.8V-39.2C28.8-55.2 41.6-64.8 60.8-64.8H956.8C972.8-64.8 988.8-52 988.8-32.8V207.2C988.8 210.4 988.8 210.4 988.8 213.6 992 232.8 969.6 255.2 944 255.2Z"  horiz-adv-x="1024" vert-adv-y="1024"  />

      
      <glyph glyph-name="uniE88A" unicode="&#xE88A;" d="M880 392.8C886.4 364 892.8 332 892.8 300 892.8 82.4 716.8-96.8 496-96.8S99.2 82.4 99.2 300 275.2 696.8 496 696.8C598.4 696.8 691.2 658.4 761.6 594.4L828.8 629.6C745.6 716 627.2 767.2 499.2 767.2 236.8 767.2 28.8 556 28.8 300S236.8-167.2 496-167.2 960 44 960 300C960 344.8 953.6 386.4 940.8 428L880 392.8ZM982.4 604C969.6 616.8 944 616.8 931.2 600.8L844.8 514.4 796.8 562.4C787.2 572 768 572 752 556 739.2 543.2 736 524 745.6 511.2L816 440.8 816 440.8 816 440.8 822.4 434.4C832 424.8 851.2 424.8 867.2 440.8 867.2 440.8 867.2 440.8 867.2 444L867.2 444 976 552.8C995.2 565.6 995.2 588 982.4 604ZM128 149.6C112 149.6 89.6 149.6 73.6 152.8L83.2 200.8C96 197.6 115.2 197.6 131.2 197.6 400 197.6 617.6 415.2 617.6 684V709.6H665.6V684C662.4 389.6 422.4 149.6 128 149.6ZM291.2-93.6L249.6-71.2C342.4 95.2 518.4 197.6 713.6 197.6 784 197.6 851.2 184.8 915.2 156L896 111.2C838.4 136.8 777.6 146.4 713.6 146.4 534.4 149.6 374.4 56.8 291.2-93.6ZM560-135.2H512V-96.8C512 149.6 320 360.8 76.8 386.4L80 434.4C348.8 408.8 560 175.2 560-93.6V-135.2Z"  horiz-adv-x="1024" vert-adv-y="1024"  />

      
      <glyph glyph-name="uniE889" unicode="&#xE889;" d="M32 412H137.6V101.6H211.2V412H316.8V476H32V412ZM918.4 354.4L988.8 373.6C979.2 402.4 969.6 424.8 953.6 440.8 931.2 463.2 902.4 476 870.4 479.2V412C876.8 408.8 886.4 405.6 892.8 399.2 905.6 389.6 915.2 373.6 918.4 354.4ZM563.2 469.6C550.4 472.8 521.6 476 476.8 476H361.6V104.8H435.2V245.6H480C512 245.6 537.6 248.8 553.6 252 566.4 255.2 579.2 261.6 592 271.2 604.8 280.8 614.4 293.6 620.8 306.4S633.6 341.6 633.6 364C633.6 392.8 627.2 418.4 614.4 437.6 601.6 450.4 582.4 463.2 563.2 469.6ZM553.6 328.8C547.2 319.2 540.8 316 531.2 309.6 521.6 306.4 502.4 303.2 473.6 303.2H435.2V408.8H470.4C496 408.8 515.2 408.8 521.6 405.6 534.4 402.4 544 399.2 550.4 389.6 556.8 380 563.2 370.4 563.2 357.6 560 348 556.8 338.4 553.6 328.8ZM921.6 239.2C915.2 210.4 905.6 191.2 892.8 178.4 886.4 172 880 168.8 873.6 165.6V98.4C899.2 101.6 921.6 111.2 940.8 127.2 966.4 146.4 982.4 178.4 995.2 216.8L921.6 239.2ZM681.6 284C681.6 226.4 697.6 178.4 726.4 146.4 752 117.6 784 101.6 822.4 98.4V162.4C806.4 165.6 790.4 175.2 777.6 191.2 761.6 210.4 752 245.6 752 290.4 752 335.2 761.6 367.2 777.6 386.4 790.4 399.2 803.2 408.8 822.4 415.2V479.2C784 476 752 460 726.4 431.2 697.6 396 681.6 348 681.6 284Z"  horiz-adv-x="1024" vert-adv-y="1024"  />

      
      <glyph glyph-name="uniE888" unicode="&#xE888;" d="M876.8 306.4C883.2 325.6 886.4 344.8 886.4 367.2 886.4 469.6 803.2 552.8 700.8 552.8 684.8 552.8 672 549.6 656 546.4 620.8 626.4 540.8 684 448 684 326.4 684 227.2 588 220.8 466.4 115.2 440.8 35.2 348 35.2 232.8 35.2 101.6 144-7.2 275.2-7.2H304C304 2.4 304 8.8 304 18.4 304 37.6 304 56.8 307.2 72.8H275.2C185.6 72.8 115.2 143.2 115.2 232.8S185.6 392.8 275.2 392.8C275.2 392.8 278.4 392.8 278.4 392.8 288 402.4 297.6 412 307.2 421.6 304 434.4 300.8 447.2 300.8 460 300.8 540 364.8 607.2 448 607.2 521.6 607.2 582.4 552.8 592 479.2 608 472.8 624 463.2 636.8 453.6 652.8 466.4 675.2 472.8 697.6 472.8 755.2 472.8 803.2 424.8 803.2 367.2 803.2 335.2 790.4 309.6 768 290.4 771.2 284 774.4 280.8 774.4 274.4 780.8 261.6 784 245.6 787.2 236H832C876.8 236 912 200.8 912 156S876.8 76 832 76H540.8C544 60 540.8 40.8 540.8 21.6 540.8 12 540.8 2.4 540.8-4H832C921.6-4 992 66.4 992 156 992 226.4 944 287.2 876.8 306.4ZM633.6 255.2C633.6 332 588.8 370.4 499.2 370.4H374.4V-71.2H451.2V133.6H489.6C531.2 133.6 563.2 143.2 592 165.6 617.6 188 633.6 216.8 633.6 255.2ZM483.2 191.2H451.2V309.6H486.4C531.2 309.6 553.6 290.4 553.6 252 550.4 213.6 528 191.2 483.2 191.2Z"  horiz-adv-x="1024" vert-adv-y="1024"  />

      
      <glyph glyph-name="uniE886" unicode="&#xE886;" d="M124.8 149.6L124.8 92C176 92 227.2 72.8 268.8 34.4 307.2-4 326.4-52 326.4-100H384C380.8-36 358.4 28 307.2 76 259.2 124 192 149.6 124.8 149.6ZM83.2-96.8C64-116 64-141.6 83.2-157.6 99.2-173.6 128-173.6 144-157.6 160-141.6 160-116 144-96.8 124.8-80.8 99.2-80.8 83.2-96.8ZM124.8 34.4L124.8-23.2C147.2-23.2 169.6-32.8 185.6-48.8 201.6-64.8 208-84 211.2-103.2H268.8C265.6-68 252.8-36 227.2-7.2 198.4 18.4 163.2 34.4 124.8 34.4ZM860.8 648.8C684.8 824.8 403.2 824.8 230.4 648.8 105.6 524 70.4 341.6 124.8 181.6L214.4 191.2C160 322.4 185.6 479.2 291.2 588 432 728.8 659.2 728.8 800 588 940.8 447.2 940.8 220 800 79.2 697.6-23.2 550.4-52 422.4-4L432-96.8C579.2-135.2 742.4-96.8 860.8 18.4 1033.6 191.2 1033.6 472.8 860.8 648.8ZM387.2 405.6H569.6L617.6 549.6 387.2 405.6ZM732.8 405.6H569.6L473.6 117.6 732.8 405.6Z"  horiz-adv-x="1024" vert-adv-y="1024"  />

      
      <glyph glyph-name="uniE885" unicode="&#xE885;" d="M105.6 15.2L105.6-42.4C128-42.4 150.4-52 169.6-68 182.4-84 192-103.2 192-125.6H249.6C246.4-90.4 233.6-55.2 208-29.6 182.4 2.4 144 15.2 105.6 15.2ZM105.6 133.6L105.6 76C160 76 211.2 56.8 252.8 15.2 291.2-23.2 310.4-74.4 313.6-122.4H371.2C368-58.4 342.4 8.8 294.4 56.8 243.2 108 172.8 133.6 105.6 133.6ZM70.4-103.2C54.4-119.2 54.4-148 70.4-167.2 86.4-183.2 115.2-183.2 134.4-167.2 150.4-151.2 150.4-122.4 134.4-103.2 115.2-87.2 89.6-87.2 70.4-103.2ZM857.6 645.6C678.4 824.8 390.4 824.8 211.2 645.6 83.2 517.6 48 328.8 105.6 168.8L198.4 178.4C140.8 312.8 169.6 472.8 278.4 581.6 422.4 725.6 656 725.6 800 581.6S944 204 800 60C694.4-45.6 544-74.4 412.8-26.4L422.4-122.4C572.8-160.8 742.4-122.4 860.8-4 1036.8 178.4 1036.8 466.4 857.6 645.6ZM374.4 396H560L608 543.2 374.4 396ZM726.4 396H560L460.8 101.6 726.4 396Z"  horiz-adv-x="1024" vert-adv-y="1024"  />

      
      <glyph glyph-name="uniE884" unicode="&#xE884;" d="M908.8 236V-55.2H112V130.4H32V-135.2H985.6V236H908.8ZM73.6 159.2C96 159.2 112 178.4 112 197.6S96 236 73.6 236 32 220 32 197.6C32 175.2 51.2 159.2 73.6 159.2ZM748.8 316H588.8V767.2H457.6V316H304L528 24.8 748.8 316Z"  horiz-adv-x="1024" vert-adv-y="1024"  />

      
      <glyph glyph-name="uniE883" unicode="&#xE883;" d="M476.8 156C483.2 149.6 489.6 146.4 499.2 143.2 502.4 143.2 505.6 143.2 505.6 143.2 505.6 143.2 508.8 143.2 508.8 143.2 508.8 143.2 508.8 143.2 508.8 143.2S508.8 143.2 508.8 143.2C508.8 143.2 512 143.2 512 143.2 515.2 143.2 518.4 143.2 518.4 143.2 528 146.4 534.4 149.6 540.8 156L726.4 341.6C745.6 360.8 745.6 389.6 726.4 405.6 707.2 424.8 678.4 424.8 662.4 405.6L553.6 296.8 553.6 623.2C553.6 648.8 534.4 668 508.8 668 483.2 668 464 648.8 464 623.2L464 296.8 355.2 405.6C336 424.8 307.2 424.8 291.2 405.6S272 357.6 291.2 341.6L476.8 156ZM944 255.2C918.4 255.2 896 232.8 896 207.2 896 207.2 896 204 896 204L896 24.8H124.8L124.8 197.6C124.8 200.8 124.8 204 124.8 207.2 124.8 232.8 102.4 255.2 76.8 255.2 51.2 255.2 32 236 28.8 210.4H28.8V-39.2C28.8-55.2 41.6-64.8 60.8-64.8H956.8C972.8-64.8 988.8-52 988.8-32.8V207.2C988.8 210.4 988.8 210.4 988.8 213.6 992 232.8 969.6 255.2 944 255.2Z"  horiz-adv-x="1024" vert-adv-y="1024"  />

      
      <glyph glyph-name="uniE882" unicode="&#xE882;" d="M220.8 495.2C240 495.2 252.8 508 252.8 527.2 252.8 546.4 236.8 559.2 220.8 559.2S188.8 546.4 188.8 527.2C188.8 511.2 201.6 495.2 220.8 495.2ZM982.4 754.4C931.2 808.8 793.6 773.6 630.4 671.2 592 684 553.6 690.4 512 690.4 416 690.4 329.6 655.2 262.4 597.6 284.8 591.2 300.8 575.2 310.4 552.8 364.8 597.6 435.2 623.2 512 623.2 649.6 623.2 768 536.8 812.8 415.2 774.4 367.2 729.6 319.2 681.6 268L726.4 437.6H656L608 216.8C608 213.6 608 207.2 608 197.6 608 197.6 604.8 194.4 604.8 194.4 604.8 204 601.6 213.6 601.6 220L544 444H470.4L409.6 226.4C406.4 213.6 403.2 200.8 403.2 188H403.2C403.2 204 400 213.6 400 223.2L352 444H272L358.4 120.8H438.4L496 332C499.2 341.6 499.2 354.4 502.4 367.2H502.4C502.4 354.4 505.6 341.6 508.8 332L556.8 152.8C492.8 98.4 435.2 50.4 377.6 12 268.8 63.2 192 175.2 192 303.2 192 348 201.6 392.8 220.8 434.4 198.4 437.6 179.2 450.4 166.4 469.6 144 418.4 128 364 128 306.4 124.8 268 128 236 137.6 204L134.4 204C32 56.8-9.6-71.2 41.6-125.6 92.8-176.8 220.8-148 371.2-55.2 416-71.2 460.8-80.8 512-80.8 726.4-80.8 899.2 92 899.2 306.4 899.2 344.8 892.8 383.2 883.2 418.4 992 568.8 1033.6 700 982.4 754.4ZM92.8-74.4C57.6-39.2 89.6 44 160 143.2 192 72.8 246.4 12 313.6-26.4 208-87.2 128-109.6 92.8-74.4ZM512-16.8C489.6-16.8 464-13.6 441.6-10.4 496 28 550.4 69.6 608 117.6H640L649.6 156C652.8 159.2 652.8 159.2 656 162.4 723.2 223.2 780.8 287.2 832 348 835.2 332 835.2 319.2 835.2 303.2 835.2 127.2 691.2-16.8 512-16.8ZM691.2 645.6C803.2 716 892.8 741.6 931.2 703.2 966.4 668 934.4 581.6 857.6 479.2 822.4 546.4 764.8 607.2 691.2 645.6Z"  horiz-adv-x="1024" vert-adv-y="1024"  />

      
      <glyph glyph-name="uniE881" unicode="&#xE881;" d="M451.2 501.6C476.8 501.6 499.2 520.8 499.2 549.6 499.2 575.2 480 597.6 451.2 597.6 425.6 597.6 403.2 575.2 403.2 549.6 403.2 520.8 425.6 501.6 451.2 501.6ZM620.8 5.6H403.2V-55.2H278.4V-148H742.4V-55.2H617.6L620.8 5.6 620.8 5.6ZM201.6 501.6C227.2 501.6 249.6 520.8 249.6 549.6 249.6 575.2 227.2 597.6 201.6 597.6 176 597.6 153.6 575.2 153.6 549.6 156.8 520.8 176 501.6 201.6 501.6ZM899.2 748H124.8C73.6 748 32 706.4 32 655.2V159.2C32 108 73.6 66.4 124.8 66.4H899.2C950.4 66.4 992 108 992 159.2V655.2C992 706.4 950.4 748 899.2 748ZM899.2 159.2H124.8V405.6H899.2C899.2 408.8 899.2 159.2 899.2 159.2ZM899.2 440.8H124.8V655.2H899.2C899.2 655.2 899.2 440.8 899.2 440.8ZM326.4 501.6C352 501.6 374.4 520.8 374.4 549.6 374.4 575.2 355.2 597.6 326.4 597.6 300.8 597.6 278.4 575.2 278.4 549.6 278.4 520.8 300.8 501.6 326.4 501.6Z"  horiz-adv-x="1024" vert-adv-y="1024"  />

      
      <glyph glyph-name="uniE880" unicode="&#xE880;" d="M620.8 5.6H403.2V-55.2H278.4V-148H742.4V-55.2H617.6C620.8-55.2 620.8 5.6 620.8 5.6ZM451.2 501.6C476.8 501.6 499.2 520.8 499.2 549.6S480 597.6 451.2 597.6C425.6 597.6 403.2 575.2 403.2 549.6 403.2 520.8 425.6 501.6 451.2 501.6ZM899.2 748H124.8C73.6 748 32 706.4 32 655.2V159.2C32 108 73.6 66.4 124.8 66.4H899.2C950.4 66.4 992 108 992 159.2V655.2C992 706.4 950.4 748 899.2 748ZM899.2 159.2H124.8V405.6H899.2C899.2 408.8 899.2 159.2 899.2 159.2ZM899.2 440.8H124.8V655.2H899.2C899.2 655.2 899.2 440.8 899.2 440.8ZM201.6 501.6C227.2 501.6 249.6 520.8 249.6 549.6S227.2 594.4 201.6 594.4C176 594.4 153.6 572 153.6 546.4 156.8 520.8 176 501.6 201.6 501.6ZM326.4 501.6C352 501.6 374.4 520.8 374.4 549.6S352 594.4 326.4 594.4C300.8 594.4 278.4 572 278.4 546.4 278.4 520.8 300.8 501.6 326.4 501.6Z"  horiz-adv-x="1024" vert-adv-y="1024"  />

      
      <glyph glyph-name="uniE87F" unicode="&#xE87F;" d="M470.4 165.6C476.8 156 483.2 149.6 492.8 146.4 492.8 146.4 492.8 146.4 492.8 146.4 499.2 143.2 502.4 143.2 508.8 143.2 508.8 143.2 508.8 143.2 508.8 143.2 508.8 143.2 508.8 143.2 508.8 143.2 508.8 143.2 508.8 143.2 508.8 143.2 508.8 143.2 512 143.2 512 143.2 515.2 143.2 518.4 143.2 521.6 146.4 528 149.6 537.6 152.8 544 159.2 547.2 162.4 547.2 162.4 547.2 165.6L726.4 344.8C745.6 364 745.6 392.8 726.4 408.8 707.2 428 678.4 428 662.4 408.8L556.8 300 556.8 626.4C556.8 652 537.6 671.2 512 671.2 486.4 671.2 467.2 652 467.2 626.4L467.2 303.2 361.6 408.8C342.4 428 313.6 428 297.6 408.8S278.4 360.8 297.6 344.8L470.4 165.6ZM947.2 271.2C921.6 271.2 899.2 248.8 899.2 223.2 899.2 220 899.2 216.8 899.2 213.6L899.2 21.6H121.6L121.6 210.4C121.6 213.6 124.8 220 124.8 223.2 124.8 248.8 102.4 271.2 76.8 271.2 51.2 271.2 28.8 248.8 28.8 223.2 28.8 220 28.8 216.8 28.8 213.6V-42.4C28.8-58.4 41.6-68 60.8-68H960C976-68 992-55.2 992-36V213.6C992 216.8 995.2 223.2 995.2 226.4 995.2 248.8 972.8 271.2 947.2 271.2Z"  horiz-adv-x="1024" vert-adv-y="1024"  />

      
      <glyph glyph-name="uniE89D" unicode="&#xE89D;" d="M326.4 642.4M592 124C521.6 124 464 66.4 464-4H528C528 31.2 556.8 60 592 60S656 31.2 656-4H720C720 31.2 748.8 60 784 60 819.2 60 848 31.2 848-4H912C918.4 66.4 860.8 124 787.2 124 748.8 124 713.6 104.8 691.2 79.2 665.6 104.8 630.4 124 592 124ZM528 319.2C656 319.2 758.4 421.6 758.4 549.6S656 780 528 780 297.6 677.6 297.6 549.6C297.6 469.6 336 402.4 396.8 357.6 224 287.2 96 76 70.4-180H857.6V-112.8H147.2C192 140 342.4 319.2 528 319.2ZM368 549.6C368 639.2 441.6 712.8 531.2 712.8S694.4 639.2 694.4 549.6 620.8 386.4 531.2 386.4 368 456.8 368 549.6Z"  horiz-adv-x="1024" vert-adv-y="1024"  />

      
      <glyph glyph-name="uniE87E" unicode="&#xE87E;" d="M553.6 277.6C547.2 248.8 499.2 159.2 464 117.6 435.2 82.4 374.4 37.6 374.4 37.6S483.2 8.8 486.4 8.8C518.4 60 576 229.6 585.6 252 585.6 255.2 592 277.6 614.4 268 646.4 252 627.2 226.4 624 213.6 598.4 136.8 512-52 512-52S390.4-36 297.6 2.4C147.2 66.4 32 245.6 32 245.6S195.2 245.6 243.2 264.8C284.8 284 300.8 293.6 332.8 332 342.4 341.6 361.6 367.2 361.6 367.2S377.6 386.4 390.4 370.4C419.2 341.6 323.2 258.4 288 242.4 236.8 213.6 121.6 210.4 121.6 210.4L201.6 124C201.6 124 268.8 143.2 307.2 165.6 355.2 191.2 396.8 248.8 406.4 264.8 390.4 226.4 355.2 172 320 143.2 291.2 120.8 233.6 95.2 233.6 95.2L323.2 53.6C323.2 53.6 412.8 108 444.8 133.6 476.8 159.2 553.6 277.6 553.6 277.6ZM528 386.4C444.8 421.6 380.8 412 380.8 412S400 440.8 416 453.6C444.8 469.6 470.4 472.8 499.2 460 534.4 444 572.8 428 608 412 649.6 392.8 672 348 659.2 303.2 659.2 300 656 296.8 652.8 293.6 656 290.4 611.2 351.2 528 386.4ZM614.4 447.2C585.6 460 556.8 472.8 528 485.6 528 485.6 528 485.6 524.8 488.8 524.8 492 528 495.2 528 495.2 563.2 562.4 598.4 629.6 633.6 693.6 640 703.2 646.4 709.6 659.2 706.4S681.6 700 688 690.4C694.4 684 694.4 677.6 691.2 671.2 662.4 597.6 636.8 524 614.4 450.4 614.4 450.4 614.4 450.4 614.4 447.2L614.4 447.2ZM838.4 245.6L873.6 175.2C876.8 168.8 880 165.6 886.4 165.6L966.4 152.8C979.2 149.6 985.6 133.6 976 124L918.4 66.4C915.2 63.2 912 56.8 912 50.4L924.8-29.6C928-42.4 912-55.2 899.2-48.8L828.8-10.4C822.4-7.2 819.2-7.2 812.8-10.4L745.6-45.6C732.8-52 716.8-42.4 720-26.4L732.8 53.6C732.8 60 732.8 66.4 726.4 69.6L668.8 127.2C659.2 136.8 665.6 156 678.4 156L758.4 168.8C764.8 168.8 768 172 771.2 178.4L806.4 248.8C812.8 258.4 832 258.4 838.4 245.6Z"  horiz-adv-x="1024" vert-adv-y="1024"  />

      
      <glyph glyph-name="uniE87D" unicode="&#xE87D;" d="M806.4 655.2C729.6 732 627.2 776.8 512 776.8S291.2 728.8 214.4 655.2C73.6 511.2 54.4 287.2 166.4 120.8 211.2 53.6 275.2 2.4 352-29.6L486.4-167.2 486.4-167.2 486.4-167.2C499.2-180 524.8-180 537.6-167.2L672-29.6C748.8 2.4 812.8 53.6 857.6 120.8 969.6 287.2 950.4 511.2 806.4 655.2L806.4 655.2ZM796.8 162.4L796.8 162.4C758.4 104.8 700.8 60 636.8 34.4 630.4 31.2 627.2 31.2 624 24.8L512-87.2 400 28C396.8 31.2 390.4 34.4 387.2 37.6 323.2 63.2 268.8 108 227.2 165.6 134.4 300 150.4 485.6 268.8 600.8 332.8 664.8 419.2 703.2 512 703.2 608 703.2 694.4 664.8 755.2 600.8 873.6 485.6 889.6 300 796.8 162.4L796.8 162.4ZM736 469.6L736 469.6H582.4L534.4 616.8C531.2 623.2 528 629.6 518.4 629.6 505.6 632.8 496 626.4 492.8 616.8L444.8 469.6H291.2C284.8 469.6 275.2 466.4 272 460 265.6 450.4 268.8 437.6 278.4 431.2L403.2 341.6 352 191.2C348.8 184.8 352 178.4 355.2 172 361.6 162.4 377.6 159.2 387.2 168.8L512 258.4 636.8 168.8C643.2 165.6 649.6 162.4 656 165.6 668.8 168.8 675.2 181.6 668.8 194.4L620.8 341.6 745.6 431.2C752 434.4 755.2 440.8 755.2 450.4 755.2 460 745.6 469.6 736 469.6L736 469.6ZM585.6 364L585.6 364C576 357.6 576 348 576 338.4L608 239.2 524.8 300C518.4 306.4 505.6 306.4 499.2 300L499.2 300 416 242.4 448 341.6C451.2 351.2 448 360.8 438.4 367.2L438.4 367.2 438.4 367.2 355.2 428H457.6C467.2 428 476.8 434.4 476.8 444L508.8 543.2 540.8 444C544 434.4 553.6 428 563.2 428H665.6L585.6 364 585.6 364Z"  horiz-adv-x="1024" vert-adv-y="1024"  />

      
      <glyph glyph-name="uniE87C" unicode="&#xE87C;" d="M329.6 642.4M857.6 578.4V639.2C857.6 674.4 828.8 700 796.8 700H92.8C60.8 700 32 671.2 32 639.2V149.6C32 114.4 60.8 88.8 92.8 88.8H793.6C828.8 88.8 854.4 117.6 854.4 149.6V303.2H793.6V242.4H704V210.4H796.8V178.4C796.8 162.4 784 146.4 764.8 146.4H124.8C108.8 146.4 92.8 159.2 92.8 178.4V210.4H643.2V242.4H92.8V607.2C92.8 623.2 105.6 639.2 124.8 639.2H764.8C780.8 639.2 796.8 626.4 796.8 607.2V575.2L857.6 578.4 857.6 578.4ZM611.2-64.8H489.6V28C489.6 44 476.8 60 457.6 60 441.6 60 425.6 47.2 425.6 28V-64.8H307.2C291.2-64.8 275.2-77.6 275.2-96.8S288-128.8 307.2-128.8H611.2C627.2-128.8 643.2-116 643.2-96.8S630.4-64.8 611.2-64.8ZM924.8 258.4H915.2V293.6H924.8C960 293.6 988.8 322.4 988.8 357.6S960 421.6 924.8 421.6H700.8V460H924.8C982.4 460 1027.2 415.2 1027.2 357.6S982.4 258.4 924.8 258.4ZM646.4 440.8L684.8 460 832 376.8 812.8 344.8 646.4 440.8ZM684.8 418.4L646.4 437.6 812.8 533.6 832 501.6 684.8 418.4Z"  horiz-adv-x="1024" vert-adv-y="1024"  />

      
      <glyph glyph-name="uniE87B" unicode="&#xE87B;" d="M707.2-109.6H566.4V-4C566.4 15.2 550.4 31.2 531.2 31.2S496 15.2 496-4V-109.6H352C332.8-109.6 316.8-125.6 316.8-144.8S332.8-180 352-180H707.2C726.4-180 742.4-164 742.4-144.8S726.4-109.6 707.2-109.6ZM921.6 780H102.4C64 780 32 748 32 709.6V140C32 101.6 64 69.6 102.4 69.6H921.6C960 69.6 992 101.6 992 140V709.6C992 748 960 780 921.6 780ZM921.6 245.6H816V210.4H921.6V175.2C921.6 156 905.6 140 886.4 140H137.6C118.4 140 102.4 156 102.4 175.2V210.4H742.4V245.6H102.4V674.4C102.4 693.6 118.4 709.6 137.6 709.6H883.2C902.4 709.6 918.4 693.6 918.4 674.4L921.6 245.6 921.6 245.6Z"  horiz-adv-x="1024" vert-adv-y="1024"  />

      
      <glyph glyph-name="uniE87A" unicode="&#xE87A;" d="M585.6 389.6C643.2 389.6 691.2 437.6 691.2 495.2S643.2 600.8 585.6 600.8 480 552.8 480 495.2 531.2 389.6 585.6 389.6ZM585.6 568.8C627.2 568.8 659.2 536.8 659.2 495.2S627.2 421.6 585.6 421.6 512 453.6 512 495.2 544 568.8 585.6 568.8ZM585.6 300C694.4 300 780.8 386.4 780.8 495.2S694.4 690.4 585.6 690.4 390.4 604 390.4 495.2 480 300 585.6 300ZM585.6 658.4C675.2 658.4 752 584.8 752 492S678.4 325.6 585.6 325.6 419.2 399.2 419.2 492 496 658.4 585.6 658.4ZM812.8 780H211.2C179.2 780 150.4 754.4 150.4 719.2V-122.4C150.4-154.4 176-183.2 211.2-183.2H812.8C844.8-183.2 873.6-157.6 873.6-122.4V719.2C873.6 754.4 844.8 780 812.8 780ZM512-151.2C480-151.2 451.2-125.6 451.2-90.4S476.8-29.6 512-29.6 572.8-55.2 572.8-90.4 544-151.2 512-151.2ZM812.8-0.8H211.2V719.2H812.8V-0.8Z"  horiz-adv-x="1024" vert-adv-y="1024"  />

      
      <glyph glyph-name="uniE879" unicode="&#xE879;" d="M435.2 300C412.8 325.6 384 348 358.4 370.4 275.2 440.8 198.4 508 188.8 706.4H160C140.8 706.4 121.6 722.4 121.6 741.6 124.8 764 140.8 780 160 780H224L224 780 224 780H800L800 780H864C883.2 780 902.4 764 902.4 741.6 902.4 722.4 886.4 706.4 864 706.4H835.2C825.6 504.8 748.8 440.8 665.6 370.4 640 348 614.4 328.8 588.8 300 614.4 274.4 640 252 665.6 229.6 748.8 159.2 825.6 95.2 835.2-106.4H864C883.2-106.4 902.4-122.4 902.4-141.6S886.4-180 864-180H800L800-180 800-180H224L224-180H160C140.8-180 121.6-164 121.6-141.6 121.6-122.4 137.6-106.4 160-106.4H188.8C198.4 95.2 275.2 159.2 358.4 229.6 384 252 409.6 274.4 435.2 300L435.2 300ZM262.4-106.4L262.4-106.4H294.4L496 95.2C505.6 104.8 518.4 104.8 528 95.2L729.6-106.4H758.4C752 60 684.8 114.4 614.4 175.2 579.2 204 544 232.8 508.8 277.6L508.8 277.6 508.8 277.6 508.8 277.6 508.8 277.6C473.6 232.8 438.4 204 403.2 175.2 336 114.4 272 60 262.4-106.4L262.4-106.4ZM355.2-106.4L355.2-106.4H665.6L512 50.4 355.2-106.4 355.2-106.4ZM323.2 511.2L323.2 511.2H704C736 556 758.4 613.6 761.6 706.4H262.4C268.8 613.6 291.2 552.8 323.2 511.2L323.2 511.2ZM662.4 466.4L662.4 466.4H361.6C377.6 453.6 390.4 440.8 406.4 428 441.6 399.2 476.8 367.2 512 325.6L512 325.6 512 325.6 512 325.6 512 325.6C544 370.4 582.4 399.2 617.6 431.2 633.6 440.8 649.6 453.6 662.4 466.4L662.4 466.4Z"  horiz-adv-x="1024" vert-adv-y="1024"  />

      
      <glyph glyph-name="uniE878" unicode="&#xE878;" d="M803.2 332H547.2C512 332 483.2 303.2 483.2 268V12C483.2-23.2 512-52 547.2-52H803.2C838.4-52 867.2-23.2 867.2 12V268C864 303.2 838.4 332 803.2 332ZM803.2 44C803.2 24.8 787.2 12 771.2 12H579.2C560 12 547.2 28 547.2 44V236C547.2 255.2 563.2 268 579.2 268H771.2C790.4 268 803.2 252 803.2 236V44ZM931.2 780H96C64 780 32 751.2 32 716V-116C32-151.2 60.8-180 96-180H928C963.2-180 992-151.2 992-116V719.2C995.2 751.2 963.2 780 931.2 780ZM931.2-84C931.2-103.2 915.2-116 899.2-116H128C108.8-116 96-100 96-84V684C96 703.2 112 716 128 716H899.2C918.4 716 931.2 700 931.2 684V-84Z"  horiz-adv-x="1024" vert-adv-y="1024"  />

      
      <glyph glyph-name="uniE877" unicode="&#xE877;" d="M518.4-45.6L380.8 21.6C371.2 24.8 361.6 24.8 355.2 21.6L224-52C204.8-64.8 179.2-45.6 182.4-23.2L204.8 127.2C204.8 136.8 201.6 146.4 195.2 152.8L83.2 255.2C67.2 271.2 73.6 300 96 303.2L246.4 328.8C256 328.8 262.4 335.2 265.6 344.8L329.6 482.4C339.2 504.8 368 504.8 380.8 482.4L451.2 348C454.4 338.4 464 335.2 473.6 332L624 312.8C646.4 309.6 656 280.8 640 264.8L534.4 156C528 149.6 524.8 140 528 130.4L556.8-20C563.2-36 540.8-55.2 518.4-45.6ZM876.8 341.6L800 376.8C796.8 380 790.4 380 787.2 376.8L713.6 335.2C704 328.8 688 338.4 691.2 351.2L704 434.4C704 440.8 704 444 700.8 447.2L640 504.8C630.4 514.4 636.8 530.4 646.4 530.4L729.6 543.2C729.6 549.6 736 552.8 736 556L771.2 632.8C777.6 645.6 793.6 645.6 800 632.8L838.4 559.2C841.6 556 844.8 552.8 851.2 549.6L934.4 540C947.2 540 953.6 524 944 514.4L886.4 453.6C883.2 450.4 880 444 883.2 440.8L899.2 357.6C899.2 344.8 886.4 335.2 876.8 341.6Z"  horiz-adv-x="1024" vert-adv-y="1024"  />

      
      <glyph glyph-name="uniE876" unicode="&#xE876;" d="M876.8 600.8H729.6C732.8 613.6 732.8 626.4 732.8 639.2 732.8 677.6 716.8 712.8 691.2 738.4 665.6 764 630.4 780 592 780 512 780 448 716 448 636 448 623.2 451.2 610.4 454.4 597.6H307.2C294.4 597.6 284.8 588 284.8 575.2V431.2L128 88.8 128 88.8C121.6 76 128 63.2 140.8 60L659.2-173.6 659.2-173.6C672-180 684.8-173.6 688-160.8L784 50.4H876.8C889.6 50.4 899.2 60 899.2 72.8V578.4C899.2 591.2 889.6 600.8 876.8 600.8L876.8 600.8ZM592 732L592 732C617.6 732 643.2 722.4 659.2 703.2 675.2 687.2 688 661.6 688 636S678.4 584.8 659.2 568.8C643.2 552.8 617.6 540 592 540 566.4 540 540.8 549.6 524.8 568.8 518.4 575.2 512 581.6 508.8 588L508.8 588 508.8 588 508.8 588 508.8 588 508.8 588 508.8 588C499.2 600.8 496 620 496 636 496 690.4 537.6 732 592 732L592 732ZM656-125.6L656-125.6 179.2 88.8 284.8 322.4V69.6C284.8 56.8 294.4 47.2 307.2 47.2H736L656-125.6 656-125.6ZM854.4 92L854.4 92H329.6V552.8H476.8C480 546.4 486.4 540 489.6 536.8 515.2 511.2 550.4 495.2 588.8 495.2S662.4 511.2 688 536.8C694.4 543.2 697.6 546.4 704 552.8H851.2V92H854.4ZM451.2 325.6L451.2 325.6C435.2 341.6 412.8 341.6 396.8 325.6S380.8 287.2 396.8 271.2L508.8 159.2 512 156C528 143.2 550.4 143.2 566.4 156L796.8 386.4C812.8 402.4 812.8 424.8 796.8 440.8S758.4 456.8 742.4 440.8L540.8 239.2 451.2 325.6 451.2 325.6Z"  horiz-adv-x="1024" vert-adv-y="1024"  />

      
      <glyph glyph-name="uniE875" unicode="&#xE875;" d="M723.2-52C739.2-32.8 748.8-10.4 748.8 15.2 748.8 72.8 700.8 120.8 643.2 120.8S537.6 72.8 537.6 15.2C537.6-10.4 547.2-32.8 563.2-52 518.4-77.6 486.4-125.6 480-180H540.8C547.2-128.8 592-90.4 643.2-90.4 697.6-90.4 739.2-128.8 745.6-180H806.4C803.2-125.6 768-77.6 723.2-52ZM643.2-29.6C617.6-29.6 598.4-7.2 598.4 15.2 598.4 40.8 620.8 60 643.2 60 668.8 60 688 37.6 688 15.2 688-10.4 668.8-29.6 643.2-29.6ZM896 210.4L832 274.4C784 322.4 723.2 306.4 672 261.6L672 261.6C659.2 252 659.2 252 649.6 242.4 601.6 194.4 508.8 216.8 435.2 284 364.8 354.4 345.6 450.4 393.6 498.4 400 504.8 406.4 511.2 416 524L416 524C460.8 575.2 476.8 636 428.8 684L364.8 748C316.8 792.8 240 792.8 185.6 751.2 185.6 748 179.2 744.8 176 741.6 28.8 594.4 73.6 316 272 117.6 345.6 44 428.8-4 508.8-36V28C438.4 53.6 374.4 101.6 313.6 159.2 140.8 332 96 562.4 208 687.2 211.2 690.4 214.4 696.8 217.6 700 246.4 728.8 294.4 728.8 323.2 700L387.2 636C416 607.2 396.8 578.4 364.8 552.8 358.4 546.4 358.4 543.2 355.2 540 284.8 469.6 304 335.2 396.8 242.4S620.8 127.2 694.4 200.8C694.4 200.8 697.6 207.2 704 213.6 732.8 242.4 761.6 264.8 787.2 236L851.2 172C880 143.2 880 95.2 851.2 66.4 848 63.2 841.6 60 838.4 56.8 816 37.6 796.8 28 771.2 15.2V-48.8C816-32.8 857.6-13.6 892.8 24.8 896 28 899.2 34.4 902.4 37.6 950.4 85.6 947.2 162.4 896 210.4Z"  horiz-adv-x="1024" vert-adv-y="1024"  />

      
      <glyph glyph-name="uniE874" unicode="&#xE874;" d="M937.6 594.4C921.6 610.4 902.4 591.2 886.4 575.2L710.4 396 608 498.4 784 674.4C800 690.4 819.2 703.2 803.2 719.2 800 722.4 796.8 725.6 787.2 732 732.8 764 675.2 780 611.2 780 403.2 780 233.6 610.4 233.6 399.2 233.6 351.2 243.2 303.2 259.2 261.6L83.2 88.8 83.2 88.8C51.2 60 32 21.6 32-23.2 32-109.6 102.4-180 185.6-180 230.4-180 272-160.8 297.6-128.8L297.6-128.8 473.6 44C515.2 28 563.2 18.4 611.2 18.4 822.4 18.4 992 188 992 396 992 463.2 976 520.8 947.2 575.2M185.6-100C144-100 112-68 112-26.4S144 47.2 185.6 47.2 259.2 15.2 259.2-26.4 227.2-100 185.6-100ZM332.8 18.4C316.8 66.4 278.4 108 230.4 120.8L297.6 188C326.4 146.4 361.6 111.2 403.2 85.6L332.8 18.4ZM614.4 101.6C448 101.6 313.6 236 313.6 402.4S448 703.2 614.4 703.2C640 703.2 665.6 700 688 693.6L524.8 530.4C521.6 527.2 518.4 520.8 515.2 517.6 508.8 501.6 512 485.6 524.8 472.8L681.6 312.8C688 306.4 700.8 300 710.4 300S732.8 303.2 739.2 312.8L902.4 479.2C908.8 453.6 912 428 912 402.4 915.2 236 780.8 101.6 614.4 101.6Z"  horiz-adv-x="1024" vert-adv-y="1024"  />

      
      <glyph glyph-name="uniE873" unicode="&#xE873;" d="M793.6 575.2C780.8 588 764.8 572 748.8 556L601.6 405.6 515.2 492 662.4 639.2C675.2 652 694.4 661.6 681.6 677.6 675.2 684 675.2 680.8 665.6 687.2 620.8 712.8 572.8 728.8 518.4 728.8 342.4 728.8 201.6 584.8 201.6 408.8 201.6 367.2 211.2 328.8 224 293.6L76.8 149.6 76.8 149.6C48 124 32 92 32 53.6 32-20 89.6-77.6 160-77.6 198.4-77.6 233.6-61.6 252.8-36L252.8-36 400 108C435.2 95.2 476.8 85.6 515.2 85.6 691.2 85.6 835.2 229.6 835.2 402.4 838.4 463.2 828.8 511.2 803.2 556M160-10.4C124.8-10.4 99.2 15.2 99.2 50.4S124.8 111.2 160 111.2 224 85.6 224 50.4 195.2-10.4 160-10.4ZM284.8 88.8C272 130.4 240 165.6 198.4 175.2L256 232.8C281.6 197.6 310.4 168.8 345.6 146.4L284.8 88.8ZM521.6 159.2C380.8 159.2 268.8 271.2 268.8 412S380.8 664.8 521.6 664.8C544 664.8 563.2 661.6 582.4 655.2L444.8 517.6C441.6 514.4 438.4 508 435.2 508 428.8 495.2 432 482.4 444.8 469.6L576 335.2C582.4 328.8 592 325.6 601.6 325.6S620.8 328.8 627.2 335.2L764.8 476C771.2 453.6 774.4 434.4 774.4 412 774.4 271.2 662.4 159.2 521.6 159.2ZM982.4 117.6C969.6 130.4 950.4 130.4 937.6 117.6L752-68 681.6-0.8C668.8 12 649.6 12 636.8-0.8S624-32.8 636.8-45.6L726.4-132C726.4-132 726.4-135.2 729.6-135.2 736-141.6 745.6-144.8 752-144.8 761.6-144.8 768-141.6 774.4-135.2L777.6-132 982.4 72.8C995.2 85.6 995.2 104.8 982.4 117.6Z"  horiz-adv-x="1024" vert-adv-y="1024"  />

      
      <glyph glyph-name="uniE872" unicode="&#xE872;" d="M793.6 575.2C777.6 584.8 764.8 572 748.8 556L601.6 405.6 515.2 492 662.4 639.2C675.2 652 694.4 661.6 681.6 677.6 675.2 684 675.2 680.8 665.6 687.2 620.8 712.8 572.8 728.8 518.4 728.8 342.4 728.8 201.6 584.8 201.6 408.8 201.6 367.2 211.2 328.8 224 293.6L76.8 149.6 76.8 149.6C48 124 32 92 32 53.6 32-20 89.6-77.6 160-77.6 198.4-77.6 233.6-61.6 252.8-36L252.8-36 400 108C435.2 95.2 476.8 85.6 515.2 85.6 691.2 85.6 835.2 229.6 835.2 402.4 838.4 463.2 828.8 511.2 803.2 556M160-10.4C124.8-10.4 99.2 15.2 99.2 50.4S124.8 111.2 160 111.2 224 85.6 224 50.4 195.2-10.4 160-10.4ZM284.8 88.8C272 130.4 240 165.6 198.4 175.2L256 232.8C281.6 197.6 310.4 168.8 345.6 146.4L284.8 88.8ZM521.6 159.2C380.8 159.2 268.8 271.2 268.8 412S380.8 664.8 521.6 664.8C544 664.8 563.2 661.6 582.4 655.2L444.8 517.6C441.6 514.4 438.4 508 435.2 508 428.8 495.2 432 482.4 444.8 469.6L576 335.2C582.4 328.8 592 325.6 601.6 325.6S620.8 328.8 627.2 335.2L764.8 476C771.2 453.6 774.4 434.4 774.4 412 774.4 271.2 662.4 159.2 521.6 159.2ZM828.8 127.2L864 56.8C867.2 50.4 870.4 47.2 876.8 47.2L956.8 34.4C969.6 31.2 976 15.2 966.4 5.6L908.8-52C905.6-55.2 902.4-61.6 902.4-68L915.2-148C918.4-160.8 902.4-173.6 889.6-167.2L819.2-128.8C812.8-125.6 809.6-125.6 803.2-128.8L736-164C723.2-170.4 707.2-160.8 710.4-144.8L723.2-64.8C723.2-58.4 723.2-52 716.8-48.8L659.2 8.8C649.6 18.4 656 37.6 668.8 37.6L748.8 50.4C755.2 50.4 758.4 53.6 761.6 60L796.8 130.4C803.2 140 822.4 140 828.8 127.2Z"  horiz-adv-x="1024" vert-adv-y="1024"  />

      
      <glyph glyph-name="uniE870" unicode="&#xE870;" d="M499.2 386.4V520.8C422.4 514.4 361.6 453.6 352 376.8H486.4C492.8 376.8 499.2 380 499.2 386.4ZM531.2 520.8V386.4C531.2 360.8 512 341.6 486.4 341.6H352C358.4 258.4 428.8 191.2 515.2 191.2 604.8 191.2 678.4 264.8 678.4 354.4S614.4 511.2 531.2 520.8ZM768 780H256C220.8 780 192 751.2 192 716V-116C192-151.2 220.8-180 256-180H768C803.2-180 832-151.2 832-116V716C832 751.2 803.2 780 768 780ZM512-148C476.8-148 448-119.2 448-84S476.8-20 512-20 576-48.8 576-84 547.2-148 512-148ZM768 12H256V716H768V12Z"  horiz-adv-x="1024" vert-adv-y="1024"  />

      
      </font>
</defs>
</svg>
