<?xml version="1.0" encoding="utf-8"?>
<!-- Generator: Adobe Illustrator 15.0.0, SVG Export Plug-In . SVG Version: 6.00 Build 0)  -->
<!DOCTYPE svg PUBLIC "-//W3C//DTD SVG 1.1//EN" "http://www.w3.org/Graphics/SVG/1.1/DTD/svg11.dtd">
<svg version="1.1" id="图层_1" xmlns="http://www.w3.org/2000/svg" xmlns:xlink="http://www.w3.org/1999/xlink" x="0px" y="0px"
	 width="70px" height="70px" viewBox="0 0 70 70" enable-background="new 0 0 70 70" xml:space="preserve">
<g>
	<g>
		<g>
			<path d="M31.844,52.294h7.753c-0.293-0.879-0.512-1.792-0.643-2.733H5.197L5.5,43h33c0.035-0.903,0.443-1.517,1.035-2.369H5.197
				v-27.9h50.602v18.152c0.926,0.118,1.826,0.314,2.693,0.588V12.73c0-1.508-1.205-2.731-2.693-2.731H5.197
				c-1.488,0-2.693,1.223-2.693,2.731v36.83c0,1.51,1.206,2.733,2.693,2.733h23.954v3.886h-8.078v2.732h18.851V56.18h-8.08V52.294z
				 M42.773,29.13c-0.039,0.151-0.066,0.308-0.082,0.468c-0.01,0.106-0.016,0.216-0.016,0.324c0.002,0.109,0.006,0.218,0.018,0.324
				c0.016,0.159,0.043,0.316,0.082,0.469c0.027,0.102,0.057,0.2,0.092,0.297c0.035,0.098,0.076,0.192,0.119,0.284
				c0.023,0.047,0.045,0.092,0.07,0.138c0.049,0.089,0.1,0.177,0.156,0.261c0.086,0.126,0.178,0.246,0.279,0.358
				c0.033,0.037,0.068,0.073,0.104,0.109c0.07,0.071,0.145,0.141,0.223,0.204c0.154,0.13,0.322,0.244,0.498,0.341
				c0.133,0.074,0.271,0.137,0.416,0.19c0.047,0.018,0.096,0.033,0.145,0.049c0.098,0.03,0.197,0.057,0.301,0.078
				c0.203,0.041,0.412,0.063,0.629,0.063c0.215,0,0.426-0.023,0.629-0.066c0.102-0.021,0.203-0.047,0.301-0.078
				c0.049-0.016,0.098-0.031,0.145-0.05c0.143-0.054,0.281-0.117,0.414-0.191c0.178-0.098,0.344-0.213,0.498-0.343
				c0.076-0.064,0.152-0.133,0.223-0.205c0.033-0.035,0.068-0.072,0.102-0.109c0.102-0.113,0.195-0.234,0.279-0.359
				c0.055-0.086,0.107-0.172,0.154-0.262c0.025-0.046,0.047-0.091,0.068-0.137c0.045-0.094,0.084-0.188,0.119-0.285
				s0.064-0.196,0.09-0.298c0.039-0.151,0.066-0.31,0.082-0.469c0.01-0.106,0.016-0.215,0.016-0.325
				c0-0.108-0.006-0.217-0.016-0.323c-0.016-0.16-0.045-0.316-0.084-0.468c-0.025-0.102-0.057-0.2-0.092-0.299
				c-0.035-0.097-0.074-0.191-0.119-0.284c-0.021-0.045-0.045-0.091-0.068-0.136c-0.049-0.09-0.102-0.177-0.156-0.262
				c-0.086-0.126-0.178-0.246-0.279-0.358c-0.033-0.037-0.068-0.074-0.104-0.11c-0.072-0.071-0.145-0.14-0.223-0.204
				c-0.154-0.129-0.322-0.243-0.498-0.341c-0.135-0.072-0.273-0.137-0.416-0.189c-0.047-0.017-0.096-0.034-0.146-0.05
				c-0.098-0.03-0.197-0.056-0.299-0.077c-0.203-0.042-0.414-0.064-0.629-0.063c-0.217,0-0.428,0.022-0.631,0.065
				c-0.102,0.022-0.201,0.048-0.299,0.078c-0.049,0.016-0.098,0.033-0.145,0.051c-0.025,0.009-0.049,0.02-0.072,0.029l-5.949-6.05
				c0.152-0.375,0.236-0.785,0.236-1.216c0-0.109-0.006-0.218-0.018-0.324c-0.016-0.159-0.045-0.315-0.082-0.469
				c-0.027-0.101-0.057-0.2-0.092-0.297c-0.037-0.097-0.076-0.191-0.119-0.284c-0.023-0.047-0.045-0.092-0.07-0.136
				c-0.047-0.091-0.1-0.178-0.156-0.262c-0.084-0.126-0.178-0.246-0.279-0.359c-0.033-0.037-0.068-0.073-0.104-0.109
				c-0.07-0.071-0.145-0.14-0.223-0.204c-0.154-0.13-0.32-0.244-0.498-0.341c-0.133-0.073-0.271-0.137-0.416-0.19
				c-0.047-0.017-0.096-0.033-0.145-0.049c-0.098-0.03-0.199-0.057-0.301-0.077c-0.203-0.042-0.414-0.064-0.628-0.063
				c-0.108,0-0.215,0.005-0.32,0.018c-0.115,0.012-0.227,0.03-0.338,0.055c-0.092,0.02-0.184,0.044-0.271,0.071
				c-0.049,0.016-0.098,0.033-0.145,0.05c-0.144,0.055-0.282,0.118-0.414,0.192c-0.09,0.048-0.176,0.102-0.258,0.159
				c-0.104,0.069-0.2,0.146-0.293,0.229c-0.059,0.051-0.115,0.104-0.17,0.158c-0.054,0.055-0.105,0.113-0.155,0.172
				c-0.08,0.095-0.156,0.193-0.226,0.299c-0.055,0.084-0.107,0.171-0.156,0.262c-0.071,0.134-0.134,0.275-0.186,0.42
				c-0.018,0.049-0.035,0.099-0.05,0.148c-0.027,0.09-0.05,0.182-0.069,0.275c-0.023,0.112-0.041,0.227-0.053,0.344
				c-0.012,0.106-0.017,0.214-0.017,0.324c0.001,0.219,0.023,0.432,0.065,0.639c0.021,0.104,0.047,0.205,0.076,0.304
				c0.016,0.05,0.032,0.099,0.051,0.147c0.027,0.077,0.059,0.151,0.092,0.226l-7.769,7.911c-0.052-0.025-0.103-0.049-0.155-0.071
				c-0.188-0.08-0.383-0.143-0.586-0.184c-0.051-0.012-0.104-0.02-0.154-0.028c-0.155-0.023-0.314-0.035-0.477-0.035
				c-0.161,0.001-0.32,0.013-0.476,0.037c-0.052,0.009-0.103,0.018-0.153,0.028c-0.204,0.043-0.4,0.105-0.586,0.187
				c-0.045,0.019-0.09,0.038-0.133,0.061l-6.614-8.71c0.159-0.383,0.248-0.803,0.247-1.244c0-0.109-0.006-0.217-0.016-0.323
				c-0.018-0.161-0.045-0.316-0.084-0.469c-0.025-0.101-0.057-0.2-0.092-0.298c-0.035-0.097-0.075-0.192-0.119-0.284
				c-0.021-0.046-0.045-0.092-0.068-0.137c-0.049-0.089-0.102-0.177-0.158-0.261c-0.084-0.127-0.178-0.247-0.277-0.358
				c-0.035-0.038-0.069-0.074-0.104-0.11c-0.071-0.072-0.146-0.141-0.223-0.204c-0.154-0.129-0.321-0.243-0.499-0.341
				c-0.133-0.073-0.271-0.137-0.415-0.189c-0.048-0.018-0.097-0.034-0.146-0.051c-0.098-0.03-0.197-0.055-0.299-0.077
				c-0.204-0.041-0.415-0.063-0.631-0.063c-0.216,0-0.426,0.023-0.629,0.065c-0.103,0.021-0.202,0.047-0.301,0.079
				c-0.049,0.015-0.097,0.031-0.145,0.05c-0.144,0.054-0.282,0.117-0.414,0.191c-0.178,0.098-0.344,0.213-0.498,0.342
				c-0.077,0.064-0.15,0.133-0.221,0.205c-0.036,0.036-0.07,0.072-0.104,0.11c-0.101,0.112-0.193,0.232-0.277,0.359
				c-0.056,0.084-0.108,0.172-0.155,0.262c-0.024,0.046-0.048,0.091-0.07,0.137c-0.043,0.093-0.082,0.188-0.117,0.284
				c-0.035,0.098-0.065,0.197-0.091,0.299c-0.038,0.152-0.065,0.309-0.081,0.469c-0.011,0.106-0.016,0.214-0.016,0.323
				c0.003,1.752,1.404,3.169,3.131,3.166c0.41-0.001,0.805-0.084,1.164-0.231l6.725,8.823c-0.029,0.084-0.055,0.169-0.077,0.257
				c-0.032,0.127-0.056,0.257-0.073,0.389c-0.016,0.133-0.023,0.268-0.023,0.403c0,0.138,0.008,0.272,0.025,0.404
				c0.018,0.133,0.041,0.263,0.074,0.389c0.038,0.152,0.088,0.3,0.147,0.442c0.021,0.047,0.04,0.093,0.063,0.14
				c0.132,0.277,0.303,0.532,0.504,0.757c0.102,0.112,0.211,0.217,0.326,0.314c0.039,0.031,0.078,0.063,0.118,0.093
				c0.081,0.062,0.164,0.119,0.25,0.171c0.13,0.079,0.264,0.149,0.404,0.209c0.188,0.08,0.384,0.143,0.587,0.184
				c0.051,0.011,0.103,0.021,0.154,0.027c0.154,0.024,0.314,0.036,0.476,0.036c0.162,0,0.321-0.014,0.476-0.037
				c0.053-0.009,0.104-0.018,0.154-0.028c0.203-0.043,0.399-0.105,0.586-0.186c0.141-0.061,0.275-0.132,0.404-0.21
				c0.086-0.054,0.169-0.11,0.248-0.172c0.041-0.031,0.08-0.063,0.119-0.094c0.115-0.098,0.224-0.203,0.324-0.316
				c0.201-0.225,0.371-0.48,0.502-0.758c0.022-0.047,0.044-0.093,0.063-0.141c0.059-0.143,0.108-0.29,0.146-0.442
				c0.033-0.126,0.057-0.256,0.072-0.39c0.018-0.131,0.025-0.267,0.024-0.403c-0.001-0.136-0.009-0.271-0.024-0.403
				c-0.018-0.132-0.043-0.262-0.074-0.389c-0.021-0.079-0.045-0.156-0.07-0.231l7.936-8.082c0.006,0.002,0.011,0.005,0.016,0.007
				c0.096,0.035,0.193,0.065,0.294,0.092c0.149,0.039,0.304,0.067,0.461,0.083c0.105,0.01,0.212,0.017,0.319,0.016
				c0.423,0,0.826-0.087,1.193-0.242l5.922,6.022c-0.023,0.057-0.047,0.113-0.068,0.171C42.83,28.93,42.799,29.028,42.773,29.13z
				 M45.789,28.965c0.246,0,0.471,0.095,0.641,0.248c0.203,0.181,0.33,0.443,0.33,0.736c0,0.544-0.436,0.984-0.971,0.984
				c-0.289,0-0.547-0.13-0.725-0.333c-0.152-0.175-0.244-0.401-0.244-0.651C44.82,29.407,45.254,28.965,45.789,28.965z
				 M13.003,19.938c-0.28,0-0.532-0.121-0.71-0.313c-0.16-0.177-0.26-0.412-0.26-0.67c0-0.542,0.435-0.984,0.969-0.984h0.001
				c0.255,0,0.485,0.102,0.659,0.265c0.189,0.18,0.311,0.436,0.311,0.72C13.973,19.497,13.538,19.938,13.003,19.938z M23.826,32.768
				c-0.534,0-0.969-0.441-0.969-0.984s0.435-0.984,0.969-0.984c0.535,0,0.97,0.441,0.97,0.984S24.361,32.768,23.826,32.768z
				 M35.823,20.703c-0.534,0-0.969-0.44-0.969-0.983c0-0.544,0.435-0.984,0.969-0.984c0.535,0,0.97,0.442,0.97,0.984
				C36.793,20.263,36.357,20.703,35.823,20.703z M31.844,46.828v-2.732h-2.693v2.732H31.844z M54.371,33.749
				c-7.252,0-13.127,5.874-13.127,13.125s5.875,13.127,13.127,13.127c7.248,0,13.125-5.876,13.125-13.127
				S61.619,33.749,54.371,33.749z M54.365,53.436c-7.045,0-9.852-6.567-9.852-6.567s2.848-6.567,9.852-6.567
				c6.631,0,9.852,6.567,9.852,6.567S60.953,53.436,54.365,53.436z M54.365,41.949c-2.727,0-4.934,2.203-4.934,4.919
				c0,2.717,2.207,4.919,4.934,4.919c2.725,0,4.934-2.202,4.934-4.919C59.299,44.152,57.09,41.949,54.365,41.949z M54.365,50.163
				c-1.822,0-3.303-1.474-3.303-3.295c0-0.436,0.09-0.852,0.244-1.233l3.059,1.233l-0.908-3.165c0.289-0.084,0.592-0.13,0.908-0.13
				c1.822,0,3.299,1.475,3.299,3.295C57.664,48.689,56.188,50.163,54.365,50.163z"/>
		</g>
	</g>
</g>
</svg>
