<?xml version="1.0" encoding="utf-8"?>
<!-- Generator: Adobe Illustrator 15.0.0, SVG Export Plug-In . SVG Version: 6.00 Build 0)  -->
<!DOCTYPE svg PUBLIC "-//W3C//DTD SVG 1.1//EN" "http://www.w3.org/Graphics/SVG/1.1/DTD/svg11.dtd">
<svg version="1.1" id="图层_1" xmlns="http://www.w3.org/2000/svg" xmlns:xlink="http://www.w3.org/1999/xlink" x="0px" y="0px"
	 width="76px" height="24px" viewBox="0 0 76 24" enable-background="new 0 0 76 24" xml:space="preserve">
<g>
	<polygon fill="#6EB916" points="55.366,20.467 52.663,15.966 45.494,23.99 51.882,23.99 	"/>
	<polygon fill="#6EB916" points="51.923,0.127 45.494,0.127 59.826,23.99 66.375,23.99 	"/>
	<polygon fill="#0179B8" points="60.547,0.127 54.12,0.127 68.45,23.99 75,23.99 	"/>
	<polygon fill="#0179B8" points="75,0.127 68.615,0.127 65.142,3.638 67.857,8.123 	"/>
	<polygon fill="#6EB916" points="23.225,0.127 16.479,0.127 8.386,13.732 8.386,0.127 2.373,0.127 2.373,23.842 2.373,23.99 
		8.817,23.99 	"/>
	<polygon fill="#0179B8" points="25.951,10.145 25.951,23.313 25.951,23.99 31.725,23.99 39.543,10.145 39.543,23.99 45.16,23.99 
		45.16,0.201 45.16,0.127 39.158,0.127 31.568,13.453 31.583,0.164 31.583,0.091 25.399,0.091 11.208,23.99 17.583,23.99 	"/>
</g>
<path fill="none" stroke="#231815" stroke-miterlimit="10" d="M24.774,0.091"/>
</svg>
