<?xml version="1.0" encoding="utf-8"?>
<!-- Generator: Adobe Illustrator 15.0.0, SVG Export Plug-In . SVG Version: 6.00 Build 0)  -->
<!DOCTYPE svg PUBLIC "-//W3C//DTD SVG 1.1//EN" "http://www.w3.org/Graphics/SVG/1.1/DTD/svg11.dtd">
<svg version="1.1" id="图层_1" xmlns="http://www.w3.org/2000/svg" xmlns:xlink="http://www.w3.org/1999/xlink" x="0px" y="0px"
	 width="915.308px" height="915.309px" viewBox="0 0 915.308 915.309" enable-background="new 0 0 915.308 915.309"
	 xml:space="preserve">
<g>
	<g>
		<g>
			
				<rect x="87.257" y="584.013" transform="matrix(0.0598 0.9982 -0.9982 0.0598 685.7963 440.9341)" fill="#999899" width="43.155" height="1"/>
		</g>
	</g>
</g>
<g>
	<g>
		<g>
			<path fill="#999899" d="M108.642,607.654c-1.392-1.81-12.948-28.239-20.173-57.875c-7.595-31.154-10.968-66.18-11.001-66.53
				l0.995-0.094c0.033,0.35,3.399,35.305,10.978,66.388c7.052,28.926,18.672,55.783,19.995,57.502L108.642,607.654z"/>
		</g>
	</g>
</g>
<g>
	<g>
		<g>
			<path fill="#999899" d="M106.378,609.974c-35.48-0.496-48.219-8.112-48.744-8.436l0.525-0.852
				c0.127,0.078,13.088,7.796,48.232,8.287L106.378,609.974z"/>
		</g>
	</g>
</g>
<g>
	<g>
		<g>
			<path fill="#999899" d="M54.31,600.323c-0.224-0.525-22.397-53.453-26.155-129.825c-4.058-82.476,12.395-130.956,12.562-131.436
				l0.944,0.328c-0.166,0.479-16.555,48.794-12.507,131.059c3.749,76.183,25.854,128.959,26.076,129.483L54.31,600.323z"/>
		</g>
	</g>
</g>
<g>
	<g>
		<g>
			<path fill="none" stroke="#999899" stroke-miterlimit="10" d="M121.164,714.808"/>
		</g>
	</g>
</g>
<g>
	<g>
		<g>
			<path fill="#999899" d="M189.999,687.877c-25.989-19.059-77.06-74.756-77.573-75.315l0.737-0.676
				c0.512,0.56,51.517,56.185,77.427,75.185L189.999,687.877z"/>
		</g>
	</g>
</g>
<g>
	<g>
		<g>
			<path fill="#999899" d="M189.914,687.798c-30.755-36.167-82.232-123.071-82.749-123.944l0.861-0.51
				c0.516,0.873,51.949,87.704,82.649,123.806L189.914,687.798z"/>
		</g>
	</g>
</g>
<g>
	<g>
		<g>
			<path fill="#999899" d="M51.21,597.846c-28.113-25.302-36.647-58.292-36.73-58.622l0.97-0.244
				c0.083,0.328,8.551,33.032,36.429,58.122L51.21,597.846z"/>
		</g>
	</g>
</g>
<g>
	<g>
		<g>
			<path fill="#999899" d="M230.425,705.548l-0.762-0.648c26.903-31.593,74.586-120.893,75.064-121.791l0.883,0.471
				C305.132,584.479,257.398,673.873,230.425,705.548z"/>
		</g>
	</g>
</g>
<g>
	<g>
		<g>
			<path fill="#999899" d="M362.924,694.05l-0.759-0.652c0.538-0.625,54.563-63.291,126.541-129.791l0.678,0.734
				C417.449,630.803,363.46,693.425,362.924,694.05z"/>
		</g>
	</g>
</g>
<g>
	<g>
		<g>
			<path fill="none" stroke="#999899" stroke-miterlimit="10" d="M577.294,631.224"/>
		</g>
	</g>
</g>
<g>
	<g>
		<g>
			<path fill="none" stroke="#999899" stroke-miterlimit="10" d="M577.294,631.224"/>
		</g>
	</g>
</g>
<g>
	<g>
		<g>
			<path fill="#999899" d="M582.7,629.143l-0.811-0.588c0.316-0.436,31.879-44.032,56.726-83.794
				c31.495-50.401,45.751-83.428,45.891-83.755l0.92,0.394c-0.141,0.328-14.422,33.418-45.963,83.891
				C614.597,585.082,583.015,628.706,582.7,629.143z"/>
		</g>
	</g>
</g>
<g>
	<g>
		<g>
			<path fill="#999899" d="M584.471,631.691l-0.354-0.936c0.739-0.279,74.484-28.214,127.661-55.12
				c53.193-26.915,118.294-62.615,118.945-62.973l0.48,0.877c-0.651,0.357-65.766,36.065-118.975,62.988
				C659.005,603.459,585.21,631.412,584.471,631.691z"/>
		</g>
	</g>
</g>
<g>
	<g>
		<g>
			<path fill="#999899" d="M751.963,675.506c-99.292,0-167.794-39.817-168.499-40.234l0.51-0.861
				c0.728,0.431,73.98,43.005,178.773,39.938l0.029,1C759.14,675.455,755.523,675.506,751.963,675.506z"/>
		</g>
	</g>
</g>
<g>
	<g>
		<g>
			<path fill="#999899" d="M766.234,669.712l-0.879-0.477c33.964-62.526,64.827-156.249,65.135-157.188l0.951,0.311
				C831.132,513.298,800.241,607.105,766.234,669.712z"/>
		</g>
	</g>
</g>
<g>
	<g>
		<g>
			<path fill="#999899" d="M767.401,670.546l-0.486-0.875c2.232-1.239,31.78-34.303,61.271-106.137
				c17.909-43.625,42.053-139.59,42.294-140.554l0.971,0.243c-0.242,0.965-24.403,97-42.339,140.69
				C799.005,637.244,769.768,669.23,767.401,670.546z"/>
		</g>
	</g>
</g>
<g>
	<g>
		<g>
			<path fill="#999899" d="M767.74,672.685l-0.391-0.922c0.384-0.228,48.65-43.612,73.672-107.971
				c22.585-58.09,29.379-139.911,29.445-140.73l0.996,0.08c-0.065,0.821-6.871,82.784-29.51,141.014
				C816.665,629.199,768.123,672.521,767.74,672.685z"/>
		</g>
	</g>
</g>
<g>
	<g>
		<g>
			
				<rect x="795.554" y="498.327" transform="matrix(0.0042 1 -1 0.0042 1366.4728 -374.5234)" fill="#999899" width="151.452" height="1"/>
		</g>
	</g>
</g>
<g>
	<g>
		<g>
			<path fill="#999899" d="M768.877,672.702l-0.291-0.957c57.28-17.469,102.311-95.129,102.759-95.911l0.867,0.496
				C871.762,577.116,826.533,655.119,768.877,672.702z"/>
		</g>
	</g>
</g>
<g>
	<g>
		<g>
			<path fill="#999899" d="M790.905,721.07l-0.721-0.693c49.021-50.928,80.451-139.925,80.764-140.818l0.943,0.33
				C871.579,580.783,840.079,669.983,790.905,721.07z"/>
		</g>
	</g>
</g>
<g>
	<g>
		<g>
			<path fill="#999899" d="M875.357,615.311c-2.028-13.623-3.793-35.205-3.811-35.422l0.996-0.08
				c0.018,0.216,1.78,21.765,3.803,35.355L875.357,615.311z"/>
		</g>
	</g>
</g>
<g>
	<g>
		<g>
			<path fill="#999899" d="M878.52,614.879l-0.951-0.311c6.001-18.353,10.345-113.429,10.345-168.567
				c0-64.667-30.072-128.936-30.376-129.577l0.904-0.428c0.305,0.644,30.472,65.115,30.472,130.005
				C888.914,501.204,884.549,596.438,878.52,614.879z"/>
		</g>
	</g>
</g>
<g>
	<g>
		<g>
			<path fill="#999899" d="M542.499,786.146c-61.871,0-129.254-9.679-201.125-28.934l0.259-0.967
				c214.809,57.554,348.235,17.767,422.341-25.745c80.249-47.119,110.107-108.589,110.399-109.205l0.904,0.43
				c-0.294,0.618-30.286,62.365-110.798,109.639c-47.271,27.755-102.455,45.175-164.021,51.773
				C581.737,785.145,562.397,786.146,542.499,786.146z"/>
		</g>
	</g>
</g>
<g>
	<g>
		<g>
			<path fill="#999899" d="M357.607,693.966c-16.815-30.416-52.535-109.62-52.894-110.417l0.912-0.41
				c0.358,0.796,36.061,79.963,52.856,110.343L357.607,693.966z"/>
		</g>
	</g>
</g>
<g>
	<g>
		<g>
			<path fill="#999899" d="M516.378,797.445c-70.277-24.745-155.312-98.354-156.162-99.095l0.656-0.754
				c0.85,0.739,85.742,74.224,155.838,98.905L516.378,797.445z"/>
		</g>
	</g>
</g>
<g>
	<g>
		<g>
			
				<rect x="549.93" y="630.543" transform="matrix(0.9376 0.3477 -0.3477 0.9376 283.1175 -146.7406)" fill="#999899" width="1" height="169.904"/>
		</g>
	</g>
</g>
<g>
	<g>
		<g>
			<path fill="#999899" d="M575.544,815.488c-1.813-62.959,4.685-179.374,4.751-180.543l0.998,0.057
				c-0.065,1.168-6.561,117.541-4.749,180.457L575.544,815.488z"/>
		</g>
	</g>
</g>
<g>
	<g>
		<g>
			<path fill="#999899" d="M580.008,817.26l-0.428-0.904c0.987-0.466,99.663-47.751,185.841-144.465l0.746,0.666
				C679.848,769.429,580.997,816.793,580.008,817.26z"/>
		</g>
	</g>
</g>
<g>
	<g>
		<g>
			<path fill="#999899" d="M533.674,821.071c-45.729,0-96.932-6.126-152.918-18.328c-3.382-0.737-5.827-1.27-6.212-1.27v-1
				c0.474,0,2.206,0.373,6.425,1.293c77.582,16.907,145.972,22.137,203.268,15.544c68.741-7.91,119.724-32.197,150.389-51.179
				c33.211-20.558,50.378-39.47,50.547-39.658l0.744,0.668c-0.171,0.189-17.434,19.209-50.766,39.841
				c-30.751,19.035-81.875,43.391-150.799,51.322C568.315,820.149,551.401,821.071,533.674,821.071z"/>
		</g>
	</g>
</g>
<g>
	<g>
		<g>
			<path fill="#999899" d="M444.676,865.441c-54.254,0-107.104-7.521-154.908-22.404c-2.191-0.682-3.922-1.221-4.225-1.229l0.001-1
				c0.405,0,1.478,0.327,4.521,1.275c80.299,24.998,174.905,29.189,266.385,11.794c77.737-14.78,137.154-46.212,173.311-69.977
				c39.166-25.742,60.208-48.265,60.416-48.489l0.734,0.68c-0.209,0.226-21.335,22.837-60.602,48.646
				c-36.231,23.814-95.773,55.312-173.672,70.123C519.449,861.931,481.732,865.441,444.676,865.441z"/>
		</g>
	</g>
</g>
<g>
	<g>
		<g>
			<path fill="#999899" d="M367.476,800.469c-1.083-0.149-26.581-3.684-31.057-4.844l0.251-0.969
				c4.42,1.146,30.678,4.785,30.943,4.822L367.476,800.469z"/>
		</g>
	</g>
</g>
<g>
	<g>
		<g>
			<path fill="#999899" d="M286.81,839.063l-0.531-0.848c24.147-15.142,45.169-40.718,45.378-40.975l0.774,0.633
				C332.221,798.132,311.099,823.832,286.81,839.063z"/>
		</g>
	</g>
</g>
<g>
	<g>
		<g>
			<path fill="#999899" d="M334.529,793.265l-0.969-0.25c0.043-0.168,4.327-16.994,4.885-34.058l0.999,0.033
				C338.882,776.167,334.572,793.096,334.529,793.265z"/>
		</g>
	</g>
</g>
<g>
	<g>
		<g>
			<path fill="#999899" d="M463.377,863.105c-0.505-0.266-50.894-26.938-89.162-60.422l0.658-0.752
				c38.181,33.406,88.466,60.024,88.969,60.289L463.377,863.105z"/>
		</g>
	</g>
</g>
<g>
	<g>
		<g>
			<path fill="#999899" d="M283.336,838.38l-0.584-0.813c24.609-17.719,53.055-78.196,53.339-78.806l0.906,0.424
				C336.712,759.797,308.155,820.51,283.336,838.38z"/>
		</g>
	</g>
</g>
<g>
	<g>
		<g>
			<path fill="#999899" d="M327.87,755.603c-62.558,0-121.893-19.602-122.491-19.809l0.327-0.945
				c0.624,0.217,65.177,21.588,130.823,19.625l0.03,1C333.659,755.561,330.753,755.603,327.87,755.603z"/>
		</g>
	</g>
</g>
<g>
	<g>
		<g>
			<path fill="#999899" d="M515.68,798.057c-89.382-5.525-172.828-39.611-173.66-39.955l0.382-0.924
				c0.831,0.343,84.129,34.366,173.341,39.881L515.68,798.057z"/>
		</g>
	</g>
</g>
<g>
	<g>
		<g>
			<path fill="#999899" d="M511.096,798.76c-92.982,0-170.451-40.053-171.243-40.469l0.465-0.885
				c0.81,0.425,82.106,42.472,178.047,40.271l0.023,1C515.953,798.732,513.513,798.76,511.096,798.76z"/>
		</g>
	</g>
</g>
<g>
	<g>
		<g>
			<path fill="#999899" d="M576.204,802.627c-33.189,0-55.126-3.823-55.414-3.875l0.176-0.984
				c0.381,0.066,38.702,6.742,90.812,2.383c48.078-4.022,118.065-18.529,178.464-64.796l0.607,0.793
				c-60.599,46.422-130.798,60.972-179.018,65.002C599.004,802.222,587.006,802.627,576.204,802.627z"/>
		</g>
	</g>
</g>
<g>
	<g>
		<g>
			<path fill="#999899" d="M605.688,821.307c-17.776,0-28.335-2.2-28.499-2.234l0.21-0.979c0.254,0.056,25.879,5.385,64.745-0.692
				c35.869-5.609,90.677-22.361,148.08-70.312l0.641,0.768c-57.599,48.114-112.611,64.917-148.618,70.54
				C628.135,820.602,615.753,821.307,605.688,821.307z"/>
		</g>
	</g>
</g>
<g>
	<g>
		<g>
			<path fill="#999899" d="M530.982,869.892c-37.152,0-62.09-4.813-62.358-4.865l0.193-0.98c0.289,0.056,29.423,5.67,71.624,4.741
				c38.946-0.86,97.315-7.632,154.22-35.004l0.434,0.9c-57.075,27.456-115.607,34.244-154.659,35.104
				C537.207,869.858,534.05,869.892,530.982,869.892z"/>
		</g>
	</g>
</g>
<g>
	<g>
		<g>
			<path fill="#999899" d="M522.763,900.922l-0.104-0.994c0.789-0.083,80.046-8.944,171.954-66.119l0.527,0.85
				C603.027,891.962,523.555,900.839,522.763,900.922z"/>
		</g>
	</g>
</g>
<g>
	<g>
		<g>
			<path fill="#999899" d="M698.598,831.12l-0.607-0.793c0.502-0.385,50.681-39.094,92.156-93.407l0.795,0.607
				C749.382,791.95,699.101,830.735,698.598,831.12z"/>
		</g>
	</g>
</g>
<g>
	<g>
		<g>
			<path fill="#999899" d="M699.457,832.696l-0.324-0.945c0.411-0.142,41.538-14.529,76.044-52.115l0.736,0.676
				C741.228,818.094,699.87,832.555,699.457,832.696z"/>
		</g>
	</g>
</g>
<g>
	<g>
		<g>
			<path fill="#999899" d="M640.667,873.55l-0.314-0.949c0.224-0.074,22.726-7.779,53.438-37.424l0.695,0.719
				C663.59,865.718,640.893,873.475,640.667,873.55z"/>
		</g>
	</g>
</g>
<g>
	<g>
		<g>
			<path fill="#999899" d="M280.671,838.306c-60.346-67.766-77.903-102.268-78.074-102.608l0.895-0.447
				c0.17,0.34,17.688,34.747,77.926,102.392L280.671,838.306z"/>
		</g>
	</g>
</g>
<g>
	<g>
		<g>
			<path fill="none" stroke="#999899" stroke-miterlimit="10" d="M196.044,750.474"/>
		</g>
	</g>
</g>
<g>
	<g>
		<g>
			<path fill="#999899" d="M329.05,844.503c-28.268,0-44.989-3.521-45.195-3.566l-0.192-0.087
				c-51.471-38.107-89.65-92.545-90.029-93.09l0.82-0.572c0.379,0.544,38.423,54.789,89.716,92.794
				c1.829,0.374,27.209,5.355,67.533,2.79c38.397-2.443,98.574-12.43,167.311-46.095c-0.671-7.084-11.51-119.877-30.962-231.617
				l-0.243-1.396l1.065,0.934c40.008,35.069,88.206,65.897,88.688,66.204l-0.537,0.844c-0.479-0.306-47.896-30.635-87.747-65.366
				c19.847,114.431,30.656,229.494,30.764,230.648l0.032,0.343l-0.31,0.152c-69.036,33.871-129.487,43.9-168.043,46.35
				C343.528,844.293,335.943,844.503,329.05,844.503z"/>
		</g>
	</g>
</g>
<g>
	<g>
		<g>
			<path fill="#999899" d="M238.208,736.18c-9.906,0-22.877-0.434-33.722-1.71l0.117-0.992c33.552,3.945,70.346-0.199,70.693-0.24
				l0.121,0.992C275.181,734.259,259.057,736.18,238.208,736.18z"/>
		</g>
	</g>
</g>
<g>
	<g>
		<g>
			<path fill="#999899" d="M185.989,804.84l-0.969-0.246c6.084-23.923,8.607-56.069,8.632-56.391l0.997,0.076
				C194.625,748.603,192.096,780.833,185.989,804.84z"/>
		</g>
	</g>
</g>
<g>
	<g>
		<g>
			<path fill="#999899" d="M106.479,743.794l-0.542-0.84c10.559-6.812,16.832-22.139,16.894-22.293l0.928,0.375
				C123.695,721.192,117.301,736.813,106.479,743.794z"/>
		</g>
	</g>
</g>
<g>
	<g>
		<g>
			<path fill="#999899" d="M339.459,755.598c-36.654-6.31-108.923-44.299-109.648-44.682l0.467-0.885
				c0.724,0.383,72.853,38.298,109.352,44.58L339.459,755.598z"/>
		</g>
	</g>
</g>
<g>
	<g>
		<g>
			<path fill="#999899" d="M252.136,709.724c-7.974,0-16.198-0.229-24.623-0.751l0.062-0.998
				c71.833,4.439,129.751-12.312,130.328-12.48l0.282,0.959C357.675,696.604,312.314,709.724,252.136,709.724z"/>
		</g>
	</g>
</g>
<g>
	<g>
		<g>
			<path fill="#999899" d="M225.428,707.21c-6.247-1.499-29.638-14.782-30.63-15.347l0.494-0.869
				c0.242,0.138,24.259,13.777,30.37,15.243L225.428,707.21z"/>
		</g>
	</g>
</g>
<g>
	<g>
		<g>
			<path fill="#999899" d="M204.169,732.92l-0.622-0.783c0.146-0.116,17.805-12.709,22.698-21.884l0.883,0.471
				C222.136,720.082,204.772,732.44,204.169,732.92z"/>
		</g>
	</g>
</g>
<g>
	<g>
		<g>
			<path fill="#999899" d="M195.508,746.494l-0.928-0.372c0.052-0.13,1.324-3.254,5.809-9.481l0.812,0.584
				C196.802,743.333,195.521,746.463,195.508,746.494z"/>
		</g>
	</g>
</g>
<g>
	<g>
		<g>
			<path fill="#999899" d="M127.314,718.224l-0.04-1c30.724-1.229,60.402-25.928,60.698-26.178l0.644,0.766
				C188.318,692.063,158.376,716.98,127.314,718.224z"/>
		</g>
	</g>
</g>
<g>
	<g>
		<g>
			<path fill="#999899" d="M189.363,735.113c-13.457,0-36.544-2.569-63.116-16.446l0.463-0.887
				c41.677,21.766,74.623,15.53,74.95,15.463l0.196,0.98C201.735,734.248,197.169,735.113,189.363,735.113z"/>
		</g>
	</g>
</g>
<g>
	<g>
		<g>
			<path fill="#999899" d="M191.579,746.799c-0.319-0.06-32.335-6.21-66.563-27.626l0.53-0.848
				c34.07,21.316,65.899,27.432,66.216,27.491L191.579,746.799z"/>
		</g>
	</g>
</g>
<g>
	<g>
		<g>
			<path fill="#999899" d="M192.47,818.632l-0.955-0.297c10.852-34.815,11.255-83.364,11.258-83.851l1,0.006
				C203.77,734.978,203.366,783.673,192.47,818.632z"/>
		</g>
	</g>
</g>
<g>
	<g>
		<g>
			<path fill="none" stroke="#999899" stroke-miterlimit="10" d="M121.164,714.808"/>
		</g>
	</g>
</g>
<g>
	<g>
		<g>
			<path fill="#999899" d="M185.141,805.06c-0.352-0.373-35.461-37.838-60.302-85.019l0.885-0.467
				c24.775,47.057,59.794,84.428,60.145,84.8L185.141,805.06z"/>
		</g>
	</g>
</g>
<g>
	<g>
		<g>
			<path fill="#999899" d="M120.765,715.109c-0.203-0.268-20.46-27.109-36.889-58.803l0.888-0.461
				c16.388,31.615,36.596,58.394,36.798,58.66L120.765,715.109z"/>
		</g>
	</g>
</g>
<g>
	<g>
		<g>
			<path fill="#999899" d="M280.355,840.386c-0.483-0.076-48.866-7.85-93.148-33.099l0.495-0.869
				c44.118,25.156,92.326,32.904,92.808,32.979L280.355,840.386z"/>
		</g>
	</g>
</g>
<g>
	<g>
		<g>
			<path fill="#999899" d="M227.233,844.546c-0.2-0.159-20.235-16.198-40.143-37.351l0.729-0.686
				c19.858,21.102,39.838,37.096,40.037,37.255L227.233,844.546z"/>
		</g>
	</g>
</g>
<g>
	<g>
		<g>
			<path fill="#999899" d="M228.082,845.082c-0.177-0.083-17.879-8.451-36.327-21.534l0.578-0.816
				c18.372,13.03,35.998,21.363,36.173,21.446L228.082,845.082z"/>
		</g>
	</g>
</g>
<g>
	<g>
		<g>
			<path fill="#999899" d="M227.386,845.698c-0.198-0.066-20.001-6.736-35.631-17.816l0.578-0.816
				c15.506,10.993,35.172,17.618,35.369,17.684L227.386,845.698z"/>
		</g>
	</g>
</g>
<g>
	<g>
		<g>
			<path fill="#999899" d="M227.448,845.714c-0.158-0.031-16.059-3.256-34.797-15.193l0.537-0.844
				c18.581,11.838,34.296,15.025,34.453,15.057L227.448,845.714z"/>
		</g>
	</g>
</g>
<g>
	<g>
		<g>
			<path fill="#999899" d="M312.395,887.451c-0.489-0.153-49.254-15.59-80.693-39.328l0.603-0.799
				c31.302,23.636,79.902,39.02,80.39,39.172L312.395,887.451z"/>
		</g>
	</g>
</g>
<g>
	<g>
		<g>
			<path fill="#999899" d="M338.723,896.907c-0.114-0.029-11.56-3.015-22.02-8.317l0.452-0.893
				c10.361,5.253,21.705,8.212,21.818,8.241L338.723,896.907z"/>
		</g>
	</g>
</g>
<g>
	<g>
		<g>
			<path fill="#999899" d="M501.493,905.098l-0.068-0.998c15.697-1.063,21.042-3.231,21.095-3.253l0.385,0.922
				C522.685,901.86,517.353,904.024,501.493,905.098z"/>
		</g>
	</g>
</g>
<g>
	<g>
		<g>
			<path fill="#999899" d="M512.734,906.652c-2.757,0-7.072-0.136-11.354-0.819l0.158-0.988c6.973,1.113,14.033,0.753,14.105,0.75
				l0.053,0.998C515.667,906.595,514.533,906.652,512.734,906.652z"/>
		</g>
	</g>
</g>
<g>
	<g>
		<g>
			<path fill="#999899" d="M505.366,911.487l-0.227-0.975c7.065-1.64,10.182-4.149,10.212-4.175l0.637,0.771
				C515.857,907.218,512.688,909.787,505.366,911.487z"/>
		</g>
	</g>
</g>
<g>
	<g>
		<g>
			<path fill="#999899" d="M534.833,901.329c-2.987,0-5.885-0.13-8.671-0.407l0.1-0.994c41.355,4.116,108.247-24.622,108.917-24.913
				l0.398,0.918C634.948,876.205,576.458,901.329,534.833,901.329z"/>
		</g>
	</g>
</g>
<g>
	<g>
		<g>
			<path fill="#999899" d="M540.665,904.209c-4.256,0-9.328-0.213-14.52-0.914l0.133-0.99c13.116,1.769,25.461,0.403,25.585,0.389
				l0.113,0.994C551.9,903.696,547.263,904.209,540.665,904.209z"/>
		</g>
	</g>
</g>
<g>
	<g>
		<g>
			<path fill="#999899" d="M540.42,906.813c-0.082-0.006-8.31-0.602-15.09-3.087l0.344-0.939c6.645,2.437,14.735,3.022,14.816,3.028
				L540.42,906.813z"/>
		</g>
	</g>
</g>
<g>
	<g>
		<g>
			<path fill="#999899" d="M780.994,774.567l-0.898-0.438c4.917-10.08,7.602-22.143,7.628-22.264l0.977,0.215
				C788.673,752.203,785.962,764.382,780.994,774.567z"/>
		</g>
	</g>
</g>
<g>
	<g>
		<g>
			<path fill="#999899" d="M789.156,744.538l-1-0.023c0.26-11.258-0.095-17.193-0.099-17.252l0.998-0.063
				C789.059,727.26,789.417,733.231,789.156,744.538z"/>
		</g>
	</g>
</g>
<g>
	<g>
		<g>
			<path fill="#999899" d="M795.377,732.847l-0.666-0.746c50.585-45.156,79.919-109.994,80.21-110.644l0.912,0.408
				C875.542,622.517,846.121,687.55,795.377,732.847z"/>
		</g>
	</g>
</g>
<g>
	<g>
		<g>
			<path fill="#999899" d="M790.224,747.09l-0.666-0.746c0.562-0.501,1.12-1.004,1.675-1.509
				c49.429-44.972,75.592-107.117,75.824-107.715l0.932,0.363C867.752,638.09,840.976,701.784,790.224,747.09z"/>
		</g>
	</g>
</g>
<g>
	<g>
		<g>
			<path fill="#999899" d="M867.251,648.927l-0.914-0.406c4.917-11.09,8.934-26.026,8.974-26.176l0.967,0.258
				C876.237,622.753,872.201,637.766,867.251,648.927z"/>
		</g>
	</g>
</g>
<g>
	<g>
		<g>
			<path fill="#999899" d="M780.905,774.695l-0.721-0.693c8.728-9.091,7.543-21.85,7.53-21.978l0.994-0.102
				C788.722,752.055,789.96,765.262,780.905,774.695z"/>
		</g>
	</g>
</g>
<g>
	<g>
		<g>
			<path fill="#999899" d="M842.906,684.629l-0.742-0.67c9.385-10.416,22.822-31.786,22.957-32.001l0.848,0.531
				C865.833,652.705,852.349,674.147,842.906,684.629z"/>
		</g>
	</g>
</g>
<g>
	<g>
		<g>
			<path fill="#999899" d="M182.049,805.152c-0.483-0.271-48.653-27.529-77.186-59.529l0.746-0.666
				c28.421,31.875,76.448,59.053,76.93,59.324L182.049,805.152z"/>
		</g>
	</g>
</g>
<g>
	<g>
		<g>
			<path fill="#999899" d="M187.168,820.94c-0.526-0.367-52.938-37.168-82.328-75.346l0.792-0.609
				c29.297,38.057,81.584,74.769,82.108,75.135L187.168,820.94z"/>
		</g>
	</g>
</g>
<g>
	<g>
		<g>
			<path fill="none" stroke="#999899" stroke-miterlimit="10" d="M52.878,656.808"/>
		</g>
	</g>
</g>
<g>
	<g>
		<g>
			<path fill="#999899" d="M244.844,847.326c-3.946,0-8.154-0.176-12.595-0.589l0.093-0.996c28.795,2.687,47.718-4.711,47.905-4.786
				l0.371,0.928C280.457,841.947,266.695,847.326,244.844,847.326z"/>
		</g>
	</g>
</g>
<g>
	<g>
		<g>
			<path fill="#999899" d="M313.492,885.122c-0.182-0.139-18.364-14.156-29.413-41.964l0.93-0.369
				c10.94,27.534,28.907,41.399,29.087,41.536L313.492,885.122z"/>
		</g>
	</g>
</g>
<g>
	<g>
		<g>
			<path fill="#999899" d="M352.479,900.334c-0.43-0.233-43.294-23.698-66.346-57.076l0.823-0.568
				c22.917,33.184,65.571,56.533,66,56.766L352.479,900.334z"/>
		</g>
	</g>
</g>
<g>
	<g>
		<g>
			<path fill="#999899" d="M522.525,901.771c-0.349-0.141-35.042-14.284-54.396-36.091l0.748-0.664
				c19.199,21.633,53.675,35.688,54.021,35.827L522.525,901.771z"/>
		</g>
	</g>
</g>
<g>
	<g>
		<g>
			<path fill="#999899" d="M501.655,903.979l-0.393-0.92c29.27-12.504,72.922-81.407,73.359-82.102l0.846,0.533
				C575.029,822.188,531.209,891.353,501.655,903.979z"/>
		</g>
	</g>
</g>
<g>
	<g>
		<g>
			<path fill="#999899" d="M499.493,903.739l-0.896-0.441c9.601-19.478,19.188-102.128,19.284-102.96l0.994,0.113
				C518.778,801.286,509.169,884.108,499.493,903.739z"/>
		</g>
	</g>
</g>
<g>
	<g>
		<g>
			<path fill="#999899" d="M526.479,899.396l-0.535-0.844c22.439-14.25,48.875-76.727,49.14-77.355l0.922,0.387
				C575.74,822.216,549.182,884.979,526.479,899.396z"/>
		</g>
	</g>
</g>
<g>
	<g>
		<g>
			<path fill="#999899" d="M634.047,876.003c-32.928,0-56.968-53.445-57.21-53.993l0.914-0.404
				c0.24,0.541,24.021,53.397,56.291,53.397c0.437,0,0.872-0.009,1.313-0.028l0.045,0.998
				C634.949,875.993,634.496,876.003,634.047,876.003z"/>
		</g>
	</g>
</g>
<g>
	<g>
		<g>
			<path fill="#999899" d="M787.8,723.424c-16.203-23.479-21.525-47.314-21.577-47.553l0.977-0.213
				c0.052,0.236,5.338,23.888,21.423,47.197L787.8,723.424z"/>
		</g>
	</g>
</g>
<g>
	<g>
		<g>
			<path fill="#999899" d="M573.14,818.585c-29.718-7.223-51.572-18.807-51.789-18.922l0.471-0.883
				c0.217,0.116,21.967,11.642,51.555,18.832L573.14,818.585z"/>
		</g>
	</g>
</g>
<g>
	<g>
		<g>
			<path fill="#999899" d="M362.146,901.873c-1.368,0-2.739-0.021-4.117-0.065l0.032-1c56.658,1.846,104.765-34.665,105.245-35.034
				l0.609,0.793C463.444,866.928,417.357,901.873,362.146,901.873z"/>
		</g>
	</g>
</g>
<g>
	<g>
		<g>
			<path fill="#999899" d="M495.239,905.819c-5.982,0-29.586-0.456-62.8-6.926c-35.485-6.911-89.528-22.297-145.466-56.343
				l0.52-0.854c55.813,33.969,109.732,49.319,145.138,56.215c38.353,7.471,63.812,6.904,64.069,6.896l0.025,1
				C496.69,905.809,496.184,905.819,495.239,905.819z"/>
		</g>
	</g>
</g>
<g>
	<g>
		<g>
			<path fill="#999899" d="M456.062,907.774c-13.372,0-29.411-0.561-47.17-2.284c-46.854-4.548-115.572-18.343-176.869-58.238
				l0.546-0.838c61.119,39.779,129.658,53.539,176.393,58.078c50.654,4.919,87.322,0.366,87.686,0.319l0.127,0.992
				C496.538,905.834,480.912,907.774,456.062,907.774z"/>
		</g>
	</g>
</g>
<g>
	<g>
		<g>
			<path fill="#999899" d="M440.07,910.506c-23.166,0-51.928-2.106-83.416-9.138l0.218-0.977
				c77.955,17.409,139.125,4.559,139.734,4.428l0.211,0.977C496.453,905.875,474.412,910.506,440.07,910.506z"/>
		</g>
	</g>
</g>
<g>
	<g>
		<g>
			<path fill="#999899" d="M120.699,715.882c-0.49-0.241-49.354-24.69-78.478-77.97l0.878-0.48
				c28.972,53.005,77.553,77.313,78.04,77.552L120.699,715.882z"/>
		</g>
	</g>
</g>
<g>
	<g>
		<g>
			<path fill="#999899" d="M188.234,820.74c-0.866-0.687-87.14-69.8-134.97-165.377l0.895-0.447
				c47.728,95.374,133.833,164.355,134.697,165.041L188.234,820.74z"/>
		</g>
	</g>
</g>
<g>
	<g>
		<g>
			<path fill="#999899" d="M50.235,651.169c-0.303-0.53-30.333-53.708-35.769-112.021l0.996-0.094
				c5.415,58.093,35.339,111.09,35.641,111.618L50.235,651.169z"/>
		</g>
	</g>
</g>
<g>
	<g>
		<g>
			<path fill="#999899" d="M122.806,714.916c-0.124-0.562-12.401-56.6-12.557-102.69l1-0.004
				c0.155,45.985,12.409,101.918,12.533,102.478L122.806,714.916z"/>
		</g>
	</g>
</g>
<g>
	<g>
		<g>
			<path fill="#999899" d="M121.25,716.405c-0.188-0.109-19.053-11.299-41.525-38.629c-20.722-25.203-48.863-69.699-65.247-138.559
				l0.973-0.232c16.339,68.674,44.391,113.034,65.046,138.155c22.36,27.194,41.071,38.292,41.258,38.401L121.25,716.405z"/>
		</g>
	</g>
</g>
<g>
	<g>
		<g>
			<path fill="#999899" d="M107.3,672.41c-0.154-0.086-15.633-8.854-34.71-29.57c-17.592-19.103-41.953-52.581-58.102-103.587
				l0.953-0.303c30.792,97.257,91.735,132.245,92.347,132.587L107.3,672.41z"/>
		</g>
	</g>
</g>
<g>
	<g>
		<g>
			<path fill="#999899" d="M102.127,741.896c-0.687-1.04-68.896-105.159-87.653-202.699l0.982-0.189
				c18.719,97.347,86.82,201.299,87.506,202.338L102.127,741.896z"/>
		</g>
	</g>
</g>
<g>
	<g>
		<g>
			<path fill="#999899" d="M102.121,741.885c-0.702-1.122-70.329-113.239-87.646-202.688l0.981-0.189
				c17.283,89.269,86.813,201.228,87.513,202.349L102.121,741.885z"/>
		</g>
	</g>
</g>
<g>
	<g>
		<g>
			<path fill="#999899" d="M198.333,732.981c-0.353-0.165-35.68-16.82-75.791-48.877c-37.03-29.595-85.835-78.747-108.051-144.844
				l0.948-0.318C37.574,604.8,86.228,653.799,123.146,683.307c40.021,31.989,75.259,48.604,75.61,48.769L198.333,732.981z"/>
		</g>
	</g>
</g>
<g>
	<g>
		<g>
			
				<rect x="177.284" y="711.577" transform="matrix(0.2241 0.9746 -0.9746 0.2241 846.5435 360.897)" fill="#999899" width="38.69" height="1"/>
		</g>
	</g>
</g>
<g>
	<g>
		<g>
			<path fill="#999899" d="M194.544,744.952l-1-0.004c0.001-0.317,0.082-32.034-1.998-53.472l0.995-0.096
				C194.627,712.868,194.545,744.634,194.544,744.952z"/>
		</g>
	</g>
</g>
<g>
	<g>
		<g>
			<path fill="#999899" d="M580.52,632.333c-16.768-64.218-61.387-160.682-61.835-161.648l0.906-0.422
				c0.449,0.968,45.106,97.514,61.896,161.818L580.52,632.333z"/>
		</g>
	</g>
</g>
<g>
	<g>
		<g>
			<path fill="none" stroke="#999899" stroke-miterlimit="10" d="M579.794,628.849"/>
		</g>
	</g>
</g>
<g>
	<g>
		<g>
			<path fill="#999899" d="M458.044,914.183c-113.457,0-217.625-38.57-301.243-111.54c-37.045-32.328-68.756-70.24-94.25-112.684
				c-24.4-40.622-41.913-83.309-52.052-126.872l0.974-0.227c40.518,174.088,206.921,350.322,446.57,350.322
				c235.51,0,392.426-175.962,443.464-350.35l0.959,0.281c-12.296,42.016-31.296,84.784-54.944,123.683
				c-25.992,42.755-57.213,80.782-92.794,113.026c-39.185,35.51-82.936,63.248-130.039,82.446
				C572.733,903.445,516.666,914.183,458.044,914.183z"/>
		</g>
	</g>
</g>
<g>
	<g>
		<g>
			
				<rect x="782.556" y="330.296" transform="matrix(0.0598 0.9982 -0.9982 0.0598 1086.2808 -491.67)" fill="#999899" width="43.155" height="1"/>
		</g>
	</g>
</g>
<g>
	<g>
		<g>
			<path fill="#999899" d="M870.531,423.352c-0.645-1.119-64.547-111.901-66.998-115.088l0.793-0.609
				c2.491,3.239,64.437,110.627,67.072,115.197L870.531,423.352z"/>
		</g>
	</g>
</g>
<g>
	<g>
		<g>
			<path fill="#999899" d="M854.809,314.622c-0.127-0.078-13.088-7.795-48.232-8.287l0.014-1c35.48,0.496,48.218,8.112,48.743,8.436
				L854.809,314.622z"/>
		</g>
	</g>
</g>
<g>
	<g>
		<g>
			
				<rect x="813.508" y="369.159" transform="matrix(0.1212 0.9926 -0.9926 0.1212 1126.5577 -533.1256)" fill="#999899" width="101.706" height="1"/>
		</g>
	</g>
</g>
<g>
	<g>
		<g>
			<path fill="none" stroke="#999899" stroke-miterlimit="10" d="M791.804,200.501"/>
		</g>
	</g>
</g>
<g>
	<g>
		<g>
			<path fill="#999899" d="M799.804,303.422c-0.512-0.56-51.517-56.184-77.427-75.184l0.592-0.807
				c25.989,19.059,77.061,74.755,77.573,75.316L799.804,303.422z"/>
		</g>
	</g>
</g>
<g>
	<g>
		<g>
			<path fill="#999899" d="M804.942,351.964c-0.516-0.873-51.949-87.704-82.649-123.806l0.762-0.647
				c30.756,36.167,82.232,123.071,82.749,123.944L804.942,351.964z"/>
		</g>
	</g>
</g>
<g>
	<g>
		<g>
			<path fill="#999899" d="M896.2,352.497c-0.083-0.245-8.666-24.601-34.948-34.192l0.344-0.939
				c26.743,9.76,35.467,34.559,35.552,34.809L896.2,352.497z"/>
		</g>
	</g>
</g>
<g>
	<g>
		<g>
			<path fill="#999899" d="M610.706,328.484l-0.885-0.466c0.454-0.862,45.748-86.582,72.722-118.257l0.762,0.648
				C656.401,242.001,611.16,327.623,610.706,328.484z"/>
		</g>
	</g>
</g>
<g>
	<g>
		<g>
			<path fill="#999899" d="M684.521,461.431c-0.167-0.324-16.867-32.723-33.563-62.824c-13.312-24-41.654-62.837-41.938-63.227
				l0.807-0.59c0.285,0.39,28.665,39.277,42.007,63.332c16.703,30.115,33.409,62.528,33.576,62.852L684.521,461.431z"/>
		</g>
	</g>
</g>
<g>
	<g>
		<g>
			
				<rect x="563.531" y="322.396" transform="matrix(0.8389 0.5443 -0.5443 0.8389 309.2617 -242.3611)" fill="#999899" width="1.001" height="157.667"/>
		</g>
	</g>
</g>
<g>
	<g>
		<g>
			<path fill="#999899" d="M107.447,563.235l-0.964-0.268c1.981-7.144,49.655-48.944,118.458-93.062
				c61.477-39.419,154.647-90.197,249.388-108.247c111.608-21.263,196.13-22.592,247.374-19.961
				c55.553,2.851,85.102,10.841,85.394,10.921l-0.266,0.964c-0.291-0.08-29.766-8.047-85.226-10.889
				c-51.187-2.625-135.604-1.292-247.089,19.947c-94.584,18.02-187.633,68.734-249.036,108.106
				C155.567,515.578,109.178,556.992,107.447,563.235z"/>
		</g>
	</g>
</g>
<g>
	<g>
		<g>
			<path fill="#999899" d="M424.306,351.656l-0.766-0.643c60.821-72.442,125.904-129.241,126.555-129.806l0.656,0.755
				C550.102,222.527,485.076,279.277,424.306,351.656z"/>
		</g>
	</g>
</g>
<g>
	<g>
		<g>
			<path fill="none" stroke="#999899" stroke-miterlimit="10" d="M335.673,284.085"/>
		</g>
	</g>
</g>
<g>
	<g>
		<g>
			<path fill="none" stroke="#999899" stroke-miterlimit="10" d="M335.673,284.085"/>
		</g>
	</g>
</g>
<g>
	<g>
		<g>
			<path fill="#999899" d="M305.669,583.364l-0.999-0.041c0.03-0.747,3.132-75.733,11.71-164.371
				c8.464-87.461,14.24-132.116,14.297-132.557l0.991,0.129c-0.057,0.441-5.831,45.083-14.293,132.525
				C308.801,507.657,305.699,582.617,305.669,583.364z"/>
		</g>
	</g>
</g>
<g>
	<g>
		<g>
			<path fill="#999899" d="M329.015,280.91c-0.719-0.38-73.125-38.058-178.818-39.95l0.018-1
				c105.945,1.897,178.547,39.685,179.268,40.066L329.015,280.91z"/>
		</g>
	</g>
</g>
<g>
	<g>
		<g>
			<path fill="#999899" d="M123.465,465.127c-0.044-0.867-4.104-88.209,23.219-219.394l0.979,0.204
				c-27.296,131.06-23.243,218.273-23.198,219.139L123.465,465.127z"/>
		</g>
	</g>
</g>
<g>
	<g>
		<g>
			<path fill="#999899" d="M78.458,479.185l-0.986-0.166c0.092-0.546,9.33-55.207,24.591-109.495
				c16.846-59.924,40.859-123.292,43.504-124.761l0.485,0.874c-2.397,1.904-25.853,63.066-43.027,124.157
				C87.778,424.031,78.549,478.639,78.458,479.185z"/>
		</g>
	</g>
</g>
<g>
	<g>
		<g>
			<path fill="#999899" d="M54.484,599.174c-0.162-1.067-15.953-107.753,6.232-196.194c21.941-87.471,84.701-159.508,85.332-160.226
				l0.751,0.661c-0.63,0.715-63.232,72.578-85.113,159.808c-22.135,88.243-6.375,194.735-6.213,195.8L54.484,599.174z"/>
		</g>
	</g>
</g>
<g>
	<g>
		<g>
			<path fill="none" stroke="#999899" stroke-miterlimit="10" d="M39.986,340.446"/>
		</g>
	</g>
</g>
<g>
	<g>
		<g>
			<path fill="#999899" d="M41.624,339.473l-0.87-0.493c0.432-0.763,43.914-76.538,103.324-96.369l0.316,0.948
				C85.351,263.268,42.054,338.713,41.624,339.473z"/>
		</g>
	</g>
</g>
<g>
	<g>
		<g>
			<path fill="#999899" d="M42.021,335.75l-0.944-0.33c0.313-0.896,31.813-90.095,80.987-141.182l0.721,0.693
				C73.763,245.86,42.332,334.857,42.021,335.75z"/>
		</g>
	</g>
</g>
<g>
	<g>
		<g>
			<path fill="#999899" d="M40.425,335.5c-0.018-0.216-1.78-21.765-3.803-35.355l0.989-0.147
				c2.028,13.624,3.793,35.206,3.811,35.422L40.425,335.5z"/>
		</g>
	</g>
</g>
<g>
	<g>
		<g>
			<path fill="#999899" d="M38.595,294.012l-0.903-0.429c0.293-0.618,30.286-62.366,110.797-109.639
				c47.271-27.756,102.455-45.175,164.021-51.774c76.929-8.247,164.099,0.477,259.084,25.925l-0.259,0.966
				c-214.77-57.541-348.183-17.778-422.283,25.711C68.779,231.886,38.887,293.396,38.595,294.012z"/>
		</g>
	</g>
</g>
<g>
	<g>
		<g>
			<path fill="#999899" d="M606.47,327.796c-0.351-0.752-35.188-75.586-51.984-105.969l0.875-0.483
				c16.814,30.413,51.666,105.278,52.016,106.031L606.47,327.796z"/>
		</g>
	</g>
</g>
<g>
	<g>
		<g>
			<path fill="#999899" d="M552.095,217.712c-0.85-0.739-85.742-74.224-155.838-98.905l0.332-0.943
				c70.277,24.746,155.312,98.354,156.162,99.095L552.095,217.712z"/>
		</g>
	</g>
</g>
<g>
	<g>
		<g>
			
				<rect x="362.038" y="114.862" transform="matrix(0.9376 0.3477 -0.3477 0.9376 92.0943 -113.5861)" fill="#999899" width="1" height="169.904"/>
		</g>
	</g>
</g>
<g>
	<g>
		<g>
			<path fill="#999899" d="M332.672,280.363l-0.998-0.057c0.065-1.168,6.561-117.541,4.749-180.458l1-0.028
				C339.236,162.78,332.738,279.194,332.672,280.363z"/>
		</g>
	</g>
</g>
<g>
	<g>
		<g>
			<path fill="#999899" d="M147.547,243.417l-0.747-0.665c86.319-96.873,185.171-144.236,186.16-144.704l0.428,0.904
				C332.4,99.419,233.724,146.704,147.547,243.417z"/>
		</g>
	</g>
</g>
<g>
	<g>
		<g>
			<path fill="#999899" d="M127.795,188.835l-0.744-0.668c0.17-0.19,17.434-19.208,50.765-39.841
				c30.751-19.035,81.875-43.39,150.8-51.322c57.406-6.608,125.907-1.371,203.596,15.561c3.382,0.737,5.826,1.27,6.211,1.27v1
				c-0.474,0-2.205-0.373-6.424-1.292C454.417,96.634,386.025,91.404,328.73,97.998c-68.741,7.911-119.724,32.198-150.388,51.179
				C145.131,169.734,127.965,188.646,127.795,188.835z"/>
		</g>
	</g>
</g>
<g>
	<g>
		<g>
			<path fill="#999899" d="M122.79,179.897l-0.733-0.68c0.208-0.226,21.334-22.837,60.601-48.646
				c36.232-23.815,95.774-55.312,173.673-70.123c91.64-17.425,186.417-13.226,266.871,11.822c2.19,0.682,3.921,1.221,4.225,1.23
				l-0.002,1c-0.404,0-1.478-0.328-4.521-1.275c-80.299-25-174.903-29.188-266.386-11.794
				c-77.737,14.78-137.154,46.211-173.31,69.976C144.041,157.15,122.998,179.673,122.79,179.897z"/>
		</g>
	</g>
</g>
<g>
	<g>
		<g>
			<path fill="#999899" d="M576.297,120.652c-4.42-1.146-30.678-4.785-30.942-4.822l0.137-0.99c1.083,0.15,26.58,3.683,31.058,4.844
				L576.297,120.652z"/>
		</g>
	</g>
</g>
<g>
	<g>
		<g>
			<path fill="#999899" d="M581.311,118.067l-0.775-0.633c0.211-0.258,21.333-25.958,45.622-41.189l0.531,0.848
				C602.542,92.234,581.52,117.811,581.311,118.067z"/>
		</g>
	</g>
</g>
<g>
	<g>
		<g>
			<path fill="#999899" d="M574.523,156.351l-1-0.032c0.562-17.177,4.873-34.105,4.916-34.274l0.969,0.249
				C579.365,122.461,575.081,139.288,574.523,156.351z"/>
		</g>
	</g>
</g>
<g>
	<g>
		<g>
			<path fill="#999899" d="M538.094,113.377c-38.181-33.407-88.466-60.024-88.969-60.29l0.465-0.885
				c0.505,0.266,50.895,26.938,89.162,60.421L538.094,113.377z"/>
		</g>
	</g>
</g>
<g>
	<g>
		<g>
			<path fill="#999899" d="M576.876,156.546l-0.906-0.423c0.286-0.611,28.843-61.325,53.661-79.194l0.584,0.812
				C605.606,95.459,577.161,155.938,576.876,156.546z"/>
		</g>
	</g>
</g>
<g>
	<g>
		<g>
			<path fill="#999899" d="M705.261,180.46c-0.624-0.217-63.174-21.604-128.823-19.625l-0.029-1
				c65.819-1.975,128.555,19.463,129.181,19.68L705.261,180.46z"/>
		</g>
	</g>
</g>
<g>
	<g>
		<g>
			<path fill="#999899" d="M570.567,158.131c-0.831-0.343-84.13-34.367-173.341-39.881l0.062-0.998
				c89.382,5.525,172.829,39.611,173.661,39.955L570.567,158.131z"/>
		</g>
	</g>
</g>
<g>
	<g>
		<g>
			<path fill="#999899" d="M572.65,157.903c-0.81-0.425-82.132-42.469-178.048-40.271l-0.022-1
				c96.175-2.189,177.723,39.959,178.536,40.385L572.65,157.903z"/>
		</g>
	</g>
</g>
<g>
	<g>
		<g>
			<path fill="#999899" d="M122.728,179.955l-0.608-0.794c60.6-46.421,130.799-60.971,179.018-65.001
				c52.237-4.367,90.659,2.33,91.041,2.397l-0.176,0.984c-0.381-0.068-38.698-6.744-90.812-2.383
				C253.113,119.181,183.125,133.688,122.728,179.955z"/>
		</g>
	</g>
</g>
<g>
	<g>
		<g>
			<path fill="#999899" d="M122.744,168.219l-0.641-0.768c57.599-48.114,112.611-64.917,148.618-70.54
				c39.035-6.096,64.801-0.73,65.057-0.674l-0.21,0.978c-0.254-0.055-25.877-5.385-64.745,0.693
				C234.954,103.517,180.147,120.268,122.744,168.219z"/>
		</g>
	</g>
</g>
<g>
	<g>
		<g>
			<path fill="#999899" d="M218.307,81.526l-0.434-0.901c57.075-27.455,115.607-34.243,154.659-35.104
				c42.315-0.928,71.521,4.704,71.812,4.761l-0.193,0.981c-0.289-0.057-29.416-5.671-71.624-4.742
				C333.581,47.382,275.211,54.153,218.307,81.526z"/>
		</g>
	</g>
</g>
<g>
	<g>
		<g>
			<path fill="#999899" d="M218.354,81.5l-0.528-0.849c92.115-57.304,171.586-66.181,172.378-66.264l0.104,0.994
				C389.519,15.464,310.262,24.325,218.354,81.5z"/>
		</g>
	</g>
</g>
<g>
	<g>
		<g>
			<path fill="#999899" d="M122.821,178.388l-0.795-0.606c41.56-54.424,91.84-93.208,92.343-93.594l0.608,0.794
				C214.476,85.367,164.296,124.075,122.821,178.388z"/>
		</g>
	</g>
</g>
<g>
	<g>
		<g>
			<path fill="#999899" d="M137.792,135.673l-0.736-0.676c34.685-37.782,76.042-52.244,76.456-52.385l0.324,0.946
				C213.424,83.699,172.297,98.087,137.792,135.673z"/>
		</g>
	</g>
</g>
<g>
	<g>
		<g>
			<path fill="#999899" d="M219.177,80.132l-0.694-0.72c30.895-29.822,53.592-37.579,53.818-37.654l0.315,0.949
				C272.392,42.782,249.889,50.487,219.177,80.132z"/>
		</g>
	</g>
</g>
<g>
	<g>
		<g>
			<path fill="#999899" d="M709.476,180.059c-0.17-0.34-17.688-34.747-77.926-102.391l0.746-0.665
				c60.347,67.766,77.904,102.269,78.074,102.609L709.476,180.059z"/>
		</g>
	</g>
</g>
<g>
	<g>
		<g>
			<path fill="none" stroke="#999899" stroke-miterlimit="10" d="M716.923,164.835"/>
		</g>
	</g>
</g>
<g>
	<g>
		<g>
			<path fill="#999899" d="M423.926,350.39c-12.128-109.513-30.81-230.767-30.997-231.979l-0.056-0.363l0.33-0.162
				c69.036-33.872,129.487-43.901,168.043-46.35c41.799-2.654,67.61,2.78,67.866,2.835l0.192,0.087
				c51.471,38.108,89.648,92.545,90.028,93.091l-0.82,0.571c-0.379-0.544-38.423-54.789-89.715-92.793
				c-1.829-0.374-27.206-5.357-67.533-2.791c-38.395,2.443-98.56,12.424-167.292,46.085c1.144,7.443,19.146,125.105,30.947,231.658
				L423.926,350.39z"/>
		</g>
	</g>
</g>
<g>
	<g>
		<g>
			<path fill="#999899" d="M637.671,182.071l-0.121-0.992c0.349-0.042,35.263-4.201,68.932-0.241l-0.117,0.993
				C672.81,177.885,638.019,182.029,637.671,182.071z"/>
		</g>
	</g>
</g>
<g>
	<g>
		<g>
			<path fill="#999899" d="M719.315,167.106l-0.996-0.077c0.024-0.323,2.554-32.553,8.66-56.56l0.969,0.246
				C721.864,134.638,719.34,166.784,719.315,167.106z"/>
		</g>
	</g>
</g>
<g>
	<g>
		<g>
			<path fill="#999899" d="M790.137,194.647l-0.928-0.374c0.063-0.157,6.457-15.777,17.279-22.758l0.543,0.84
				C796.478,179.163,790.199,194.493,790.137,194.647z"/>
		</g>
	</g>
</g>
<g>
	<g>
		<g>
			<path fill="#999899" d="M682.69,205.277c-0.725-0.382-72.854-38.298-109.352-44.581l0.17-0.985
				c36.654,6.31,108.923,44.298,109.648,44.681L682.69,205.277z"/>
		</g>
	</g>
</g>
<g>
	<g>
		<g>
			<path fill="#999899" d="M717.676,224.314c-0.242-0.138-24.26-13.777-30.369-15.243l0.232-0.973
				c6.248,1.5,29.639,14.782,30.631,15.347L717.676,224.314z"/>
		</g>
	</g>
</g>
<g>
	<g>
		<g>
			<path fill="#999899" d="M687.865,204.07l-0.883-0.471c4.991-9.359,19.214-20.731,19.816-21.21l0.623,0.782
				C707.275,183.288,692.758,194.895,687.865,204.07z"/>
		</g>
	</g>
</g>
<g>
	<g>
		<g>
			<path fill="#999899" d="M712.58,178.668l-0.813-0.584c4.398-6.109,5.68-9.238,5.692-9.269l0.928,0.372
				C718.335,169.316,717.063,172.44,712.58,178.668z"/>
		</g>
	</g>
</g>
<g>
	<g>
		<g>
			<path fill="#999899" d="M724.996,224.262l-0.645-0.765c0.299-0.252,30.24-25.17,61.303-26.412l0.039,0.999
				C754.97,199.313,725.292,224.013,724.996,224.262z"/>
		</g>
	</g>
</g>
<g>
	<g>
		<g>
			<path fill="#999899" d="M786.257,197.528c-41.654-21.754-74.622-15.529-74.95-15.463l-0.195-0.98
				c0.33-0.067,33.622-6.37,75.608,15.557L786.257,197.528z"/>
		</g>
	</g>
</g>
<g>
	<g>
		<g>
			<path fill="#999899" d="M787.421,196.983c-34.069-21.316-65.898-27.432-66.216-27.491l0.184-0.983
				c0.319,0.06,32.335,6.21,66.563,27.626L787.421,196.983z"/>
		</g>
	</g>
</g>
<g>
	<g>
		<g>
			<path fill="#999899" d="M710.195,180.824l-1-0.006c0.003-0.488,0.407-49.183,11.303-84.142l0.955,0.298
				C710.601,131.789,710.198,180.338,710.195,180.824z"/>
		</g>
	</g>
</g>
<g>
	<g>
		<g>
			<path fill="none" stroke="#999899" stroke-miterlimit="10" d="M791.804,200.501"/>
		</g>
	</g>
</g>
<g>
	<g>
		<g>
			<path fill="#999899" d="M787.245,195.734c-24.775-47.056-59.794-84.427-60.145-84.799l0.727-0.687
				c0.353,0.373,35.462,37.839,60.303,85.02L787.245,195.734z"/>
		</g>
	</g>
</g>
<g>
	<g>
		<g>
			<path fill="#999899" d="M828.204,259.462c-16.39-31.619-36.596-58.393-36.798-58.659l0.797-0.604
				c0.203,0.268,20.46,27.11,36.89,58.804L828.204,259.462z"/>
		</g>
	</g>
</g>
<g>
	<g>
		<g>
			<path fill="#999899" d="M725.265,108.891c-44.117-25.156-92.325-32.904-92.807-32.979l0.154-0.988
				c0.483,0.076,48.865,7.849,93.148,33.099L725.265,108.891z"/>
		</g>
	</g>
</g>
<g>
	<g>
		<g>
			<path fill="#999899" d="M725.149,108.799c-19.855-21.098-39.838-37.096-40.037-37.254l0.623-0.782
				c0.2,0.16,20.236,16.199,40.143,37.351L725.149,108.799z"/>
		</g>
	</g>
</g>
<g>
	<g>
		<g>
			<path fill="#999899" d="M720.634,92.577c-18.372-13.029-35.998-21.363-36.174-21.445l0.426-0.905
				c0.177,0.083,17.879,8.452,36.326,21.535L720.634,92.577z"/>
		</g>
	</g>
</g>
<g>
	<g>
		<g>
			<path fill="#999899" d="M720.634,88.243c-15.506-10.993-35.172-17.618-35.369-17.684l0.316-0.948
				c0.198,0.066,20.001,6.735,35.631,17.816L720.634,88.243z"/>
		</g>
	</g>
</g>
<g>
	<g>
		<g>
			<path fill="#999899" d="M719.78,85.632c-18.581-11.838-34.297-15.025-34.453-15.056l0.193-0.981
				c0.158,0.031,16.06,3.256,34.797,15.194L719.78,85.632z"/>
		</g>
	</g>
</g>
<g>
	<g>
		<g>
			<path fill="#999899" d="M680.664,67.984c-31.302-23.635-79.902-39.019-80.39-39.172l0.299-0.954
				c0.489,0.153,49.255,15.589,80.694,39.328L680.664,67.984z"/>
		</g>
	</g>
</g>
<g>
	<g>
		<g>
			<path fill="#999899" d="M595.812,27.611c-10.36-5.252-21.704-8.212-21.817-8.241l0.25-0.968
				c0.114,0.029,11.56,3.014,22.021,8.317L595.812,27.611z"/>
		</g>
	</g>
</g>
<g>
	<g>
		<g>
			<path fill="#999899" d="M390.449,14.462l-0.386-0.923c0.219-0.091,5.551-2.255,21.412-3.329l0.067,0.998
				C395.846,12.271,390.501,14.44,390.449,14.462z"/>
		</g>
	</g>
</g>
<g>
	<g>
		<g>
			<path fill="#999899" d="M411.431,10.463c-6.973-1.114-14.035-0.754-14.105-0.749l-0.054-0.999
				c0.072-0.005,7.241-0.37,14.316,0.761L411.431,10.463z"/>
		</g>
	</g>
</g>
<g>
	<g>
		<g>
			<path fill="#999899" d="M397.616,8.971L396.979,8.2c0.131-0.109,3.3-2.679,10.623-4.378l0.226,0.974
				C400.763,6.436,397.647,8.946,397.616,8.971z"/>
		</g>
	</g>
</g>
<g>
	<g>
		<g>
			<path fill="#999899" d="M277.789,40.294l-0.397-0.918c0.673-0.292,67.807-29.132,109.414-24.99l-0.099,0.995
				C345.353,11.27,278.46,40.003,277.789,40.294z"/>
		</g>
	</g>
</g>
<g>
	<g>
		<g>
			<path fill="#999899" d="M386.689,13.004c-13.113-1.77-25.461-0.403-25.584-0.39l-0.113-0.993
				c0.124-0.015,12.589-1.395,25.832,0.392L386.689,13.004z"/>
		</g>
	</g>
</g>
<g>
	<g>
		<g>
			<path fill="#999899" d="M387.293,12.521c-6.645-2.436-14.735-3.022-14.816-3.028l0.069-0.998
				c0.083,0.006,8.311,0.601,15.09,3.087L387.293,12.521z"/>
		</g>
	</g>
</g>
<g>
	<g>
		<g>
			<path fill="#999899" d="M125.245,163.442l-0.977-0.215c0.027-0.122,2.737-12.301,7.706-22.487l0.898,0.438
				C127.956,151.259,125.271,163.322,125.245,163.442z"/>
		</g>
	</g>
</g>
<g>
	<g>
		<g>
			<path fill="#999899" d="M123.913,188.108c-0.004-0.059-0.362-6.031-0.101-17.337l1,0.023c-0.26,11.258,0.095,17.194,0.099,17.252
				L123.913,188.108z"/>
		</g>
	</g>
</g>
<g>
	<g>
		<g>
			<path fill="#999899" d="M119.584,179.505l-0.988-0.153c0.033-0.211,0.822-5.208,2.543-8.787l0.901,0.434
				C120.383,174.445,119.592,179.455,119.584,179.505z"/>
		</g>
	</g>
</g>
<g>
	<g>
		<g>
			<path fill="#999899" d="M38.047,293.852l-0.913-0.408c0.292-0.651,29.714-65.684,80.457-110.981l0.666,0.746
				C67.671,228.364,38.337,293.202,38.047,293.852z"/>
		</g>
	</g>
</g>
<g>
	<g>
		<g>
			<path fill="#999899" d="M45.911,278.188l-0.932-0.363c0.237-0.607,24.25-61.204,75.002-106.51l0.666,0.746
				C70.071,217.209,46.146,277.584,45.911,278.188z"/>
		</g>
	</g>
</g>
<g>
	<g>
		<g>
			<path fill="#999899" d="M37.656,292.964l-0.966-0.259c0.04-0.15,4.077-15.163,9.026-26.323l0.914,0.405
				C41.713,277.877,37.696,292.814,37.656,292.964z"/>
		</g>
	</g>
</g>
<g>
	<g>
		<g>
			<path fill="#999899" d="M124.259,163.386c-0.013-0.132-1.251-13.339,7.804-22.772l0.722,0.692
				c-8.728,9.092-7.543,21.85-7.53,21.978L124.259,163.386z"/>
		</g>
	</g>
</g>
<g>
	<g>
		<g>
			<path fill="#999899" d="M47.847,263.351L47,262.819c0.135-0.215,13.618-21.658,23.062-32.139l0.743,0.669
				C61.419,241.766,47.981,263.136,47.847,263.351z"/>
		</g>
	</g>
</g>
<g>
	<g>
		<g>
			<path fill="#999899" d="M807.359,170.352c-28.425-31.878-76.449-59.053-76.931-59.324l0.49-0.872
				c0.483,0.272,48.652,27.529,77.187,59.53L807.359,170.352z"/>
		</g>
	</g>
</g>
<g>
	<g>
		<g>
			<path fill="#999899" d="M807.335,170.324c-29.295-38.055-81.584-74.769-82.108-75.135l0.572-0.82
				c0.526,0.368,52.938,37.167,82.329,75.345L807.335,170.324z"/>
		</g>
	</g>
</g>
<g>
	<g>
		<g>
			<path fill="none" stroke="#999899" stroke-miterlimit="10" d="M860.09,258.501"/>
		</g>
	</g>
</g>
<g>
	<g>
		<g>
			<path fill="#999899" d="M632.721,74.354l-0.371-0.929c0.19-0.076,19.342-7.559,48.368-4.854l-0.092,0.996
				C651.826,66.883,632.91,74.279,632.721,74.354z"/>
		</g>
	</g>
</g>
<g>
	<g>
		<g>
			<path fill="#999899" d="M627.958,72.52c-10.939-27.535-28.907-41.399-29.088-41.536l0.604-0.797
				c0.183,0.139,18.364,14.156,29.413,41.964L627.958,72.52z"/>
		</g>
	</g>
</g>
<g>
	<g>
		<g>
			<path fill="#999899" d="M626.012,72.619c-22.917-33.184-65.571-56.534-66-56.766l0.477-0.879
				c0.431,0.233,43.295,23.698,66.346,57.076L626.012,72.619z"/>
		</g>
	</g>
</g>
<g>
	<g>
		<g>
			<path fill="#999899" d="M444.09,50.292c-19.199-21.633-53.675-35.688-54.021-35.827l0.374-0.928
				c0.348,0.141,35.042,14.285,54.395,36.091L444.09,50.292z"/>
		</g>
	</g>
</g>
<g>
	<g>
		<g>
			<path fill="#999899" d="M338.346,94.352l-0.846-0.533c0.439-0.697,44.258-69.862,73.813-82.488l0.393,0.92
				C382.437,24.754,338.784,93.657,338.346,94.352z"/>
		</g>
	</g>
</g>
<g>
	<g>
		<g>
			<path fill="#999899" d="M395.087,114.971l-0.993-0.114c0.096-0.834,9.705-83.657,19.381-103.288l0.896,0.442
				C404.771,31.488,395.183,114.139,395.087,114.971z"/>
		</g>
	</g>
</g>
<g>
	<g>
		<g>
			<path fill="#999899" d="M337.884,94.113l-0.922-0.388c0.266-0.632,26.823-63.395,49.526-77.812l0.536,0.844
				C364.585,31.007,338.149,93.483,337.884,94.113z"/>
		</g>
	</g>
</g>
<g>
	<g>
		<g>
			<path fill="#999899" d="M335.243,93.756c-0.174-0.294-17.909-29.626-57.884-50.478l0.463-0.887
				c40.242,20.991,58.106,50.558,58.282,50.854L335.243,93.756z"/>
		</g>
	</g>
</g>
<g>
	<g>
		<g>
			<path fill="#999899" d="M391.146,116.528c-0.216-0.116-21.966-11.641-51.554-18.832l0.236-0.972
				c29.718,7.223,51.572,18.806,51.79,18.922L391.146,116.528z"/>
		</g>
	</g>
</g>
<g>
	<g>
		<g>
			<path fill="#999899" d="M449.663,49.535l-0.609-0.793c0.482-0.371,48.862-37.06,105.886-35.241l-0.031,0.999
				C498.246,12.698,450.142,49.167,449.663,49.535z"/>
		</g>
	</g>
</g>
<g>
	<g>
		<g>
			<path fill="#999899" d="M625.476,73.612c-55.813-33.969-109.732-49.32-145.138-56.216c-38.351-7.47-63.816-6.903-64.069-6.895
				l-0.026-1c0.253-0.005,25.83-0.577,64.287,6.914c35.485,6.912,89.527,22.297,145.466,56.343L625.476,73.612z"/>
		</g>
	</g>
</g>
<g>
	<g>
		<g>
			<path fill="#999899" d="M680.4,68.895c-61.128-39.785-129.679-53.544-176.421-58.081c-50.65-4.915-87.294-0.364-87.659-0.317
				l-0.127-0.992c0.366-0.047,37.124-4.611,87.883,0.314c46.854,4.547,115.571,18.342,176.869,58.238L680.4,68.895z"/>
		</g>
	</g>
</g>
<g>
	<g>
		<g>
			<path fill="#999899" d="M556.095,14.917C478.144-2.49,416.971,10.358,416.362,10.49l-0.212-0.978
				c0.611-0.132,61.997-13.026,140.164,4.429L556.095,14.917z"/>
		</g>
	</g>
</g>
<g>
	<g>
		<g>
			<path fill="#999899" d="M869.869,277.876c-28.973-53.004-77.554-77.313-78.041-77.552l0.441-0.897
				c0.49,0.241,49.354,24.69,78.477,77.97L869.869,277.876z"/>
		</g>
	</g>
</g>
<g>
	<g>
		<g>
			<path fill="#999899" d="M858.81,260.393C811.078,165.011,724.977,96.037,724.113,95.352l0.621-0.783
				c0.866,0.687,87.141,69.799,134.971,165.377L858.81,260.393z"/>
		</g>
	</g>
</g>
<g>
	<g>
		<g>
			<path fill="#999899" d="M896.965,351.545l-1-0.03c0.202-6.756-33.783-86.129-34.127-86.931l0.92-0.394
				C864.164,267.469,897.174,344.57,896.965,351.545z"/>
		</g>
	</g>
</g>
<g>
	<g>
		<g>
			<path fill="#999899" d="M801.718,303.086c-0.154-45.984-12.409-101.918-12.533-102.478l0.977-0.216
				c0.124,0.561,12.402,56.599,12.557,102.69L801.718,303.086z"/>
		</g>
	</g>
</g>
<g>
	<g>
		<g>
			<path fill="#999899" d="M896.628,352.525c-36.038-87.38-104.813-152.181-105.504-152.825l0.682-0.731
				c0.692,0.646,69.623,65.587,105.746,153.175L896.628,352.525z"/>
		</g>
	</g>
</g>
<g>
	<g>
		<g>
			<path fill="#999899" d="M890.079,352.522c-30.864-76.211-84.372-108.44-84.909-108.757l0.508-0.861
				c0.54,0.318,54.339,32.721,85.329,109.243L890.079,352.522z"/>
		</g>
	</g>
</g>
<g>
	<g>
		<g>
			<path fill="#999899" d="M872.225,574.655l-0.893-0.451c27.9-55.212,33.171-112.568,32.681-150.961
				c-0.532-41.602-7.752-70.498-7.824-70.785c-24.566-96.782-85.551-177.661-86.163-178.467l0.795-0.605
				c0.615,0.807,61.722,81.849,86.337,178.826c0.073,0.288,7.322,29.299,7.855,71.018
				C905.505,461.735,900.216,519.263,872.225,574.655z"/>
		</g>
	</g>
</g>
<g>
	<g>
		<g>
			<path fill="#999899" d="M877.375,618.734l-0.925-0.378c0.125-0.335,12.652-34.059,20.541-83.475
				c7.278-45.593,11.985-114.25-6.93-182.413c-14.976-53.965-61.97-97.096-98.756-123.776
				c-39.893-28.932-76.716-45.293-77.083-45.455l0.402-0.915c0.368,0.162,37.274,16.558,77.252,45.549
				c36.922,26.775,84.094,70.08,99.147,124.33c18.966,68.346,14.248,137.165,6.95,182.863
				c-5.045,31.593-11.983,56.787-16.377,70.972c24.801-62.773,28.535-126.188,27.089-169.466
				c-1.67-49.959-10.409-84.572-10.497-84.916c-17.281-89.26-87.447-176.778-88.154-177.651l0.777-0.629
				c0.708,0.875,71.029,88.581,88.353,178.061c0.081,0.316,8.847,35.035,10.521,85.102
				C911.23,482.748,906.878,551.869,877.375,618.734z"/>
		</g>
	</g>
</g>
<g>
	<g>
		<g>
			
				<rect x="696.994" y="202.732" transform="matrix(0.2241 0.9746 -0.9746 0.2241 753.8984 -540.4305)" fill="#999899" width="38.69" height="1"/>
		</g>
	</g>
</g>
<g>
	<g>
		<g>
			<path fill="#999899" d="M720.425,223.928c-2.084-21.487-2.003-53.253-2.002-53.571l1,0.003
				c-0.001,0.318-0.082,32.035,1.998,53.472L720.425,223.928z"/>
		</g>
	</g>
</g>
<g>
	<g>
		<g>
			<path fill="#999899" d="M901.494,352.448C860.976,178.36,694.572,2.126,454.923,2.126c-219.108,0-376.44,161.352-429.899,311.269
				l-0.942-0.336c13.716-38.463,33.435-76.062,58.61-111.751c26.688-37.836,58.192-71.554,93.635-100.22
				C257.185,35.692,353.522,1.126,454.923,1.126c113.456,0,217.625,38.57,301.242,111.54c37.046,32.329,68.756,70.241,94.25,112.684
				c24.4,40.623,41.913,83.309,52.053,126.872L901.494,352.448z"/>
		</g>
	</g>
</g>
<g>
	<g>
		<g>
			<path fill="#999899" d="M456.654,915.309c-61.783,0-121.718-12.101-178.14-35.965c-54.497-23.051-103.44-56.049-145.471-98.079
				c-42.03-42.029-75.028-90.974-98.079-145.471C11.101,579.372-1,519.437-1,457.654c0-61.783,12.101-121.718,35.965-178.14
				c23.05-54.497,56.049-103.44,98.079-145.47c42.03-42.03,90.974-75.029,145.471-98.079C334.936,12.1,394.871,0,456.654,0
				c61.783,0,121.718,12.1,178.14,35.965c54.497,23.05,103.441,56.049,145.471,98.079c42.03,42.03,75.028,90.973,98.079,145.47
				c23.864,56.422,35.965,116.357,35.965,178.14c0,61.783-12.101,121.718-35.965,178.14
				c-23.051,54.497-56.049,103.441-98.079,145.471c-42.029,42.03-90.974,75.028-145.471,98.079
				C578.372,903.208,518.437,915.309,456.654,915.309z M456.654,1C204.854,1,0,205.854,0,457.654
				c0,251.8,204.854,456.654,456.654,456.654s456.654-204.854,456.654-456.654C913.308,205.854,708.454,1,456.654,1z"/>
		</g>
	</g>
</g>
<g>
	<g>
		<g>
			<path fill="none" stroke="#999899" stroke-miterlimit="10" d="M766.309,668.832"/>
		</g>
	</g>
</g>
<g>
	<g>
		<g>
			<path fill="#999899" d="M359.749,696.183l-0.042-1c0.376-0.016,38.167-1.691,87.2-12.498
				c45.234-9.971,109.56-29.974,159.121-68.646c76.464-59.664,126.896-127.479,155.739-173.86
				c31.255-50.261,44.596-86.881,44.727-87.246l0.941,0.339c-0.132,0.365-13.498,37.063-44.802,87.408
				c-28.888,46.458-79.399,114.384-155.99,174.148c-49.715,38.792-114.199,58.846-159.54,68.838
				C397.988,694.488,360.125,696.166,359.749,696.183z"/>
		</g>
	</g>
</g>
<g>
	<g>
		<g>
			<path fill="#999899" d="M293.878,587.786c-61.172,0-123.543-8.12-186.458-24.328l0.25-0.969
				c228.598,58.891,406.446-1.256,515.387-62.083c118.053-65.916,182.875-146.806,183.517-147.615l0.783,0.621
				c-0.642,0.811-65.563,81.833-183.776,147.848c-69.43,38.771-143.39,64.862-219.827,77.548
				C367.673,584.796,330.994,587.786,293.878,587.786z"/>
		</g>
	</g>
</g>
<g>
	<g>
		<g>
			<path fill="#999899" d="M489.52,563.256l-0.951-0.309l30.026-92.422c-38.622-69.725-87.334-116.833-121.412-144.081
				c-36.962-29.553-65.148-42.76-65.429-42.89l0.421-0.907c0.281,0.13,28.554,13.374,65.604,42.994
				c34.188,27.331,83.07,74.602,121.796,144.59l0.105,0.19l-0.067,0.206L489.52,563.256z"/>
		</g>
	</g>
</g>
<g>
	<g>
		<g>
			<path fill="#999899" d="M14.481,539.229c-25.493-96.97,9.236-224.854,9.59-226.135l0.964,0.267
				c-0.353,1.278-35.011,128.908-9.587,225.615L14.481,539.229z"/>
		</g>
	</g>
</g>
<g>
	<g>
		<g>
			<path fill="#999899" d="M52.528,597.219c-33.585-68.621-36.406-146.695-32.859-200.108
				c3.843-57.858,15.781-100.053,15.901-100.472l0.961,0.275c-0.12,0.418-12.032,42.529-15.865,100.287
				c-3.537,53.284-0.724,131.162,32.761,199.578L52.528,597.219z"/>
		</g>
	</g>
</g>
<g>
	<g>
		<g>
			<path fill="#999899" d="M307.903,584.002l-2.763-0.159c-79.875-4.611-137.488-32.752-171.754-55.547
				c-37.14-24.706-55.636-48.652-55.819-48.891C38.964,433.81,39.776,340.927,39.789,339.994l0.05-3.665l0.934,3.544
				c0.094,0.357,9.846,36.297,47.191,83.991c34.471,44.024,100.171,107.348,217.408,159.021L307.903,584.002z M40.808,343.37
				c0.255,17.092,3.327,94.999,37.539,135.408c0.197,0.258,18.617,24.095,55.632,48.711c33.759,22.45,90.254,50.105,168.444,55.186
				c-50.831-22.619-96.168-49.258-134.799-79.205c-31.425-24.362-58.506-50.956-80.49-79.042
				C56.132,384.82,44.089,353.266,40.808,343.37z"/>
		</g>
	</g>
</g>
<g>
	<g>
		<g>
			<path fill="none" stroke="#999899" stroke-miterlimit="10" d="M519.138,470.474"/>
		</g>
	</g>
</g>
<g>
	<g>
		<g>
			<path fill="#999899" d="M305.637,583.521l-0.935-0.355c44.216-116.578,119.336-232.475,120.09-233.632l0.838,0.546
				C424.877,351.236,349.814,467.045,305.637,583.521z"/>
		</g>
	</g>
</g>
<g>
	<g>
		<g>
			<path fill="none" stroke="#999899" stroke-miterlimit="10" d="M106.593,564.974"/>
		</g>
	</g>
</g>
<g>
	<g>
		<g>
			<path fill="#999899" d="M124.36,465.407l-0.791-0.611c0.28-0.362,28.483-36.704,70.417-78.162
				c38.714-38.274,97.384-88.863,157.041-112.514c85.148-33.758,171.269-50.345,228.521-58.315
				c62.033-8.636,104.487-9.298,104.909-9.304l0.014,1c-0.421,0.006-42.826,0.668-104.803,9.297
				c-57.193,7.963-143.223,24.534-228.273,58.252c-59.499,23.589-118.058,74.087-156.706,112.296
				C152.803,428.757,124.64,465.046,124.36,465.407z"/>
		</g>
	</g>
</g>
<g>
	<g>
		<g>
			<path fill="#999899" d="M110.203,609.283c-20.786-101.009-9.892-195.44,2.907-256.872
				c13.868-66.562,32.902-109.809,33.092-110.238l0.914,0.406c-0.19,0.428-19.188,43.599-33.033,110.064
				c-12.775,61.333-23.649,155.608-2.9,256.438L110.203,609.283z"/>
		</g>
	</g>
</g>
<g>
	<g>
		<g>
			<path fill="#999899" d="M305.377,583.799l-0.415-0.91c0.805-0.367,80.787-36.896,106.953-51.126
				c30.992-16.854,106.212-61.272,106.969-61.72l0.189-0.112l0.211,0.064c1.363,0.417,138.239,41.637,311.168,42.604
				c-0.089-3.173-0.842-21.977-6.937-77.643c-4.356-39.789-16.904-81.294-17.03-81.709l0.957-0.291
				c0.126,0.416,12.7,42.007,17.067,81.892c6.739,61.551,6.953,78.09,6.954,78.25l0.004,0.507l-0.507-0.003
				c-170.148-0.873-305.563-40.731-311.758-42.586c-4.233,2.499-76.564,45.178-106.811,61.626
				C386.196,546.888,306.182,583.431,305.377,583.799z"/>
		</g>
	</g>
</g>
<g>
	<g>
		<g>
			<circle fill="#393A3A" cx="581.003" cy="632.207" r="3.5"/>
		</g>
	</g>
</g>
<g>
	<g>
		<g>
			<circle fill="#393A3A" cx="305.169" cy="583.344" r="3.5"/>
		</g>
	</g>
</g>
<g>
	<g>
		<g>
			<circle fill="#393A3A" cx="766.308" cy="672.933" r="3.5"/>
		</g>
	</g>
</g>
<g>
	<g>
		<g>
			<circle fill="#393A3A" cx="695.085" cy="761.448" r="3.5"/>
		</g>
	</g>
</g>
<g>
	<g>
		<g>
			<circle fill="#393A3A" cx="696.152" cy="833.192" r="3.5"/>
		</g>
	</g>
</g>
<g>
	<g>
		<g>
			<circle fill="#393A3A" cx="638.152" cy="873.864" r="3.5"/>
		</g>
	</g>
</g>
<g>
	<g>
		<g>
			<circle fill="#393A3A" cx="466.273" cy="863.198" r="3.5"/>
		</g>
	</g>
</g>
<g>
	<g>
		<g>
			<circle fill="#393A3A" cx="371.853" cy="800.683" r="3.5"/>
		</g>
	</g>
</g>
<g>
	<g>
		<g>
			<circle fill="#393A3A" cx="359.728" cy="695.683" r="3.5"/>
		</g>
	</g>
</g>
<g>
	<g>
		<g>
			<circle fill="#393A3A" cx="339.153" cy="756.438" r="3.5"/>
		</g>
	</g>
</g>
<g>
	<g>
		<g>
			<circle fill="#393A3A" cx="355.778" cy="900.134" r="3.5"/>
		</g>
	</g>
</g>
<g>
	<g>
		<g>
			<circle fill="#393A3A" cx="339.994" cy="897.409" r="3.5"/>
		</g>
	</g>
</g>
<g>
	<g>
		<g>
			<circle fill="#393A3A" cx="316.012" cy="886.683" r="3.5"/>
		</g>
	</g>
</g>
<g>
	<g>
		<g>
			<circle fill="#393A3A" cx="283.7" cy="840.157" r="3.5"/>
		</g>
	</g>
</g>
<g>
	<g>
		<g>
			<circle fill="#393A3A" cx="230.877" cy="845.933" r="3.5"/>
		</g>
	</g>
</g>
<g>
	<g>
		<g>
			<circle fill="#393A3A" cx="185.713" cy="805.061" r="3.5"/>
		</g>
	</g>
</g>
<g>
	<g>
		<g>
			<circle fill="#393A3A" cx="190.336" cy="828.24" r="3.5"/>
		</g>
	</g>
</g>
<g>
	<g>
		<g>
			<circle fill="#393A3A" cx="190.502" cy="821.515" r="3.5"/>
		</g>
	</g>
</g>
<g>
	<g>
		<g>
			<circle fill="#393A3A" cx="228.502" cy="708.308" r="3.5"/>
		</g>
	</g>
</g>
<g>
	<g>
		<g>
			<circle fill="#393A3A" cx="191.879" cy="689.332" r="3.5"/>
		</g>
	</g>
</g>
<g>
	<g>
		<g>
			<circle fill="#393A3A" cx="83.693" cy="653.849" r="3.5"/>
		</g>
	</g>
</g>
<g>
	<g>
		<g>
			<circle fill="#393A3A" cx="124.086" cy="717.433" r="3.5"/>
		</g>
	</g>
</g>
<g>
	<g>
		<g>
			<circle fill="#393A3A" cx="104.208" cy="743.972" r="3.5"/>
		</g>
	</g>
</g>
<g>
	<g>
		<g>
			<circle fill="#393A3A" cx="53.086" cy="654.171" r="3.5"/>
		</g>
	</g>
</g>
<g>
	<g>
		<g>
			<circle fill="#393A3A" cx="54.978" cy="599.099" r="3.5"/>
		</g>
	</g>
</g>
<g>
	<g>
		<g>
			<circle fill="#393A3A" cx="110.693" cy="609.183" r="3.5"/>
		</g>
	</g>
</g>
<g>
	<g>
		<g>
			<circle fill="#393A3A" cx="201.967" cy="734.196" r="3.5"/>
		</g>
	</g>
</g>
<g>
	<g>
		<g>
			<circle fill="#393A3A" cx="194.252" cy="747.183" r="3.5"/>
		</g>
	</g>
</g>
<g>
	<g>
		<g>
			<circle fill="#393A3A" cx="333.419" cy="794.558" r="3.5"/>
		</g>
	</g>
</g>
<g>
	<g>
		<g>
			<circle fill="#393A3A" cx="577.187" cy="818.808" r="3.5"/>
		</g>
	</g>
</g>
<g>
	<g>
		<g>
			<circle fill="#393A3A" cx="519.138" cy="797.884" r="3.5"/>
		</g>
	</g>
</g>
<g>
	<g>
		<g>
			<circle fill="#393A3A" cx="499.253" cy="904.733" r="3.5"/>
		</g>
	</g>
</g>
<g>
	<g>
		<g>
			<circle fill="#393A3A" cx="518.585" cy="905.863" r="3.5"/>
		</g>
	</g>
</g>
<g>
	<g>
		<g>
			<circle fill="#393A3A" cx="524.835" cy="901.081" r="3.5"/>
		</g>
	</g>
</g>
<g>
	<g>
		<g>
			<circle fill="#393A3A" cx="842.48" cy="666.832" r="3.5"/>
		</g>
	</g>
</g>
<g>
	<g>
		<g>
			<circle fill="#393A3A" cx="862.23" cy="660.082" r="3.5"/>
		</g>
	</g>
</g>
<g>
	<g>
		<g>
			<circle fill="#393A3A" cx="866.605" cy="650.395" r="3.5"/>
		</g>
	</g>
</g>
<g>
	<g>
		<g>
			<circle fill="#393A3A" cx="876.917" cy="618.532" r="3.5"/>
		</g>
	</g>
</g>
<g>
	<g>
		<g>
			<circle fill="#393A3A" cx="871.779" cy="576.082" r="3.5"/>
		</g>
	</g>
</g>
<g>
	<g>
		<g>
			<circle fill="#393A3A" cx="788.765" cy="723.845" r="3.5"/>
		</g>
	</g>
</g>
<g>
	<g>
		<g>
			<circle fill="#393A3A" cx="793.419" cy="734.157" r="3.5"/>
		</g>
	</g>
</g>
<g>
	<g>
		<g>
			<circle fill="#393A3A" cx="789.482" cy="748.22" r="3.5"/>
		</g>
	</g>
</g>
<g>
	<g>
		<g>
			<circle fill="#393A3A" cx="777.669" cy="777.478" r="3.5"/>
		</g>
	</g>
</g>
<g>
	<g>
		<g>
			<circle fill="#393A3A" cx="331.965" cy="283.102" r="3.5"/>
		</g>
	</g>
</g>
<g>
	<g>
		<g>
			<circle fill="#393A3A" cx="607.798" cy="331.965" r="3.5"/>
		</g>
	</g>
</g>
<g>
	<g>
		<g>
			<circle fill="#393A3A" cx="146.659" cy="242.376" r="3.5"/>
		</g>
	</g>
</g>
<g>
	<g>
		<g>
			<circle fill="#393A3A" cx="216.815" cy="82.116" r="3.5"/>
		</g>
	</g>
</g>
<g>
	<g>
		<g>
			<circle fill="#393A3A" cx="274.815" cy="41.444" r="3.5"/>
		</g>
	</g>
</g>
<g>
	<g>
		<g>
			<circle fill="#393A3A" cx="404.195" cy="46.431" r="3.5"/>
		</g>
	</g>
</g>
<g>
	<g>
		<g>
			<circle fill="#393A3A" cx="446.695" cy="51.11" r="3.5"/>
		</g>
	</g>
</g>
<g>
	<g>
		<g>
			<circle fill="#393A3A" cx="541.115" cy="115.626" r="3.5"/>
		</g>
	</g>
</g>
<g>
	<g>
		<g>
			<circle fill="#393A3A" cx="553.24" cy="219.626" r="3.5"/>
		</g>
	</g>
</g>
<g>
	<g>
		<g>
			<circle fill="#393A3A" cx="573.815" cy="158.87" r="3.5"/>
		</g>
	</g>
</g>
<g>
	<g>
		<g>
			<circle fill="#393A3A" cx="557.19" cy="15.175" r="3.5"/>
		</g>
	</g>
</g>
<g>
	<g>
		<g>
			<circle fill="#393A3A" cx="572.974" cy="16.899" r="3.5"/>
		</g>
	</g>
</g>
<g>
	<g>
		<g>
			<circle fill="#393A3A" cx="596.956" cy="28.626" r="3.5"/>
		</g>
	</g>
</g>
<g>
	<g>
		<g>
			<circle fill="#393A3A" cx="629.267" cy="75.151" r="3.5"/>
		</g>
	</g>
</g>
<g>
	<g>
		<g>
			<circle fill="#393A3A" cx="682.09" cy="69.376" r="3.5"/>
		</g>
	</g>
</g>
<g>
	<g>
		<g>
			<circle fill="#393A3A" cx="727.255" cy="110.248" r="3.5"/>
		</g>
	</g>
</g>
<g>
	<g>
		<g>
			<circle fill="#393A3A" cx="722.632" cy="87.068" r="3.5"/>
		</g>
	</g>
</g>
<g>
	<g>
		<g>
			<circle fill="#393A3A" cx="722.465" cy="93.794" r="3.5"/>
		</g>
	</g>
</g>
<g>
	<g>
		<g>
			<circle fill="#393A3A" cx="684.464" cy="207.001" r="3.5"/>
		</g>
	</g>
</g>
<g>
	<g>
		<g>
			<circle fill="#393A3A" cx="721.089" cy="225.977" r="3.5"/>
		</g>
	</g>
</g>
<g>
	<g>
		<g>
			<circle fill="#393A3A" cx="802.275" cy="241.46" r="3.5"/>
		</g>
	</g>
</g>
<g>
	<g>
		<g>
			<circle fill="#393A3A" cx="788.882" cy="197.876" r="3.5"/>
		</g>
	</g>
</g>
<g>
	<g>
		<g>
			<circle fill="#393A3A" cx="808.76" cy="171.337" r="3.5"/>
		</g>
	</g>
</g>
<g>
	<g>
		<g>
			<circle fill="#393A3A" cx="859.882" cy="261.138" r="3.5"/>
		</g>
	</g>
</g>
<g>
	<g>
		<g>
			<circle fill="#393A3A" cx="857.99" cy="316.21" r="3.5"/>
		</g>
	</g>
</g>
<g>
	<g>
		<g>
			<circle fill="#393A3A" cx="802.275" cy="306.126" r="3.5"/>
		</g>
	</g>
</g>
<g>
	<g>
		<g>
			<ellipse fill="#393A3A" cx="633.815" cy="181.865" rx="3.5" ry="3.588"/>
		</g>
	</g>
</g>
<g>
	<g>
		<g>
			<circle fill="#393A3A" cx="710.316" cy="180.865" r="3.5"/>
		</g>
	</g>
</g>
<g>
	<g>
		<g>
			<circle fill="#393A3A" cx="718.715" cy="168.126" r="3.5"/>
		</g>
	</g>
</g>
<g>
	<g>
		<g>
			<circle fill="#393A3A" cx="579.548" cy="120.751" r="3.5"/>
		</g>
	</g>
</g>
<g>
	<g>
		<g>
			<circle fill="#393A3A" cx="336.781" cy="96.501" r="3.5"/>
		</g>
	</g>
</g>
<g>
	<g>
		<g>
			<circle fill="#393A3A" cx="393.83" cy="117.425" r="3.5"/>
		</g>
	</g>
</g>
<g>
	<g>
		<g>
			<circle fill="#393A3A" cx="413.715" cy="10.575" r="3.5"/>
		</g>
	</g>
</g>
<g>
	<g>
		<g>
			<circle fill="#393A3A" cx="409.615" cy="4.601" r="3.5"/>
		</g>
	</g>
</g>
<g>
	<g>
		<g>
			<circle fill="#393A3A" cx="394.382" cy="9.445" r="3.5"/>
		</g>
	</g>
</g>
<g>
	<g>
		<g>
			<circle fill="#393A3A" cx="388.132" cy="14.228" r="3.5"/>
		</g>
	</g>
</g>
<g>
	<g>
		<g>
			<circle fill="#393A3A" cx="46.363" cy="264.914" r="3.5"/>
		</g>
	</g>
</g>
<g>
	<g>
		<g>
			<circle fill="#393A3A" cx="36.051" cy="296.776" r="3.5"/>
		</g>
	</g>
</g>
<g>
	<g>
		<g>
			<circle fill="#393A3A" cx="41.188" cy="339.227" r="3.5"/>
		</g>
	</g>
</g>
<g>
	<g>
		<g>
			<circle fill="#393A3A" cx="125.203" cy="191.464" r="3.5"/>
		</g>
	</g>
</g>
<g>
	<g>
		<g>
			<circle fill="#393A3A" cx="119.548" cy="181.151" r="3.5"/>
		</g>
	</g>
</g>
<g>
	<g>
		<g>
			<circle fill="#393A3A" cx="123.486" cy="167.089" r="3.5"/>
		</g>
	</g>
</g>
<g>
	<g>
		<g>
			<circle fill="#393A3A" cx="135.298" cy="137.831" r="3.5"/>
		</g>
	</g>
</g>
<g>
	<g>
		<g>
			<circle fill="#393A3A" cx="123.965" cy="465.102" r="3.5"/>
		</g>
	</g>
</g>
<g>
	<g>
		<g>
			<circle fill="#393A3A" cx="519.138" cy="470.474" r="3.5"/>
		</g>
	</g>
</g>
<g>
	<g>
		<g>
			<circle fill="#393A3A" cx="830.964" cy="513.102" r="3.5"/>
		</g>
	</g>
</g>
<g>
	<g>
		<g>
			<circle fill="#393A3A" cx="684.964" cy="461.102" r="3.5"/>
		</g>
	</g>
</g>
<g>
	<g>
		<g>
			<circle fill="#393A3A" cx="870.964" cy="423.102" r="3.5"/>
		</g>
	</g>
</g>
<g>
	<g>
		<g>
			<circle fill="#393A3A" cx="806.964" cy="353.102" r="3.5"/>
		</g>
	</g>
</g>
<g>
	<g>
		<g>
			<circle fill="#393A3A" cx="424.965" cy="349.102" r="3.5"/>
		</g>
	</g>
</g>
<g>
	<g>
		<g>
			<circle fill="#393A3A" cx="895.964" cy="348.102" r="3.5"/>
		</g>
	</g>
</g>
<g>
	<g>
		<g>
			<circle fill="#393A3A" cx="77.965" cy="479.102" r="3.5"/>
		</g>
	</g>
</g>
<g>
	<g>
		<g>
			<circle fill="#393A3A" cx="106.965" cy="563.102" r="3.5"/>
		</g>
	</g>
</g>
<g>
	<g>
		<g>
			<circle fill="#393A3A" cx="14.965" cy="539.102" r="3.5"/>
		</g>
	</g>
</g>
<g>
	<g>
		<g>
			<circle fill="#393A3A" cx="488.138" cy="565.474" r="3.5"/>
		</g>
	</g>
</g>
<g>
	<g>
		<g>
			<circle fill="#393A3A" cx="54.965" cy="434.102" r="3.5"/>
		</g>
	</g>
</g>
<g>
	<g>
		<g>
			<circle fill="#393A3A" cx="87.965" cy="426.102" r="3.5"/>
		</g>
	</g>
</g>
<g>
	<g>
		<g>
			<circle fill="#393A3A" cx="20.1" cy="398.102" r="3.5"/>
		</g>
	</g>
</g>
<g>
	<g>
		<g>
			<circle fill="#393A3A" cx="6.1" cy="481.102" r="3.5"/>
		</g>
	</g>
</g>
<g>
	<g>
		<g>
			<circle fill="#393A3A" cx="25.965" cy="511.102" r="3.5"/>
		</g>
	</g>
</g>
<g>
	<g>
		<g>
			<circle fill="#393A3A" cx="885.208" cy="543.102" r="3.5"/>
		</g>
	</g>
</g>
<g>
	<g>
		<g>
			<circle fill="#393A3A" cx="888.208" cy="468.102" r="3.5"/>
		</g>
	</g>
</g>
<g>
	<g>
		<g>
			<circle fill="#393A3A" cx="908.208" cy="528.102" r="3.5"/>
		</g>
	</g>
</g>
<g>
	<g>
		<g>
			<circle fill="#393A3A" cx="881.208" cy="388.102" r="3.5"/>
		</g>
	</g>
</g>
<g>
	<g>
		<g>
			<circle fill="#393A3A" cx="319.965" cy="385.102" r="3.5"/>
		</g>
	</g>
</g>
<g>
	<g>
		<g>
			<circle fill="#393A3A" cx="643.138" cy="384.474" r="3.5"/>
		</g>
	</g>
</g>
<g>
	<g>
		<g>
			<circle fill="#393A3A" cx="359.139" cy="465.474" r="3.5"/>
		</g>
	</g>
</g>
</svg>
