<?xml version="1.0" encoding="utf-8"?>
<!-- Generator: Adobe Illustrator 19.2.1, SVG Export Plug-In . SVG Version: 6.00 Build 0)  -->
<svg version="1.1" id="图层_1" xmlns="http://www.w3.org/2000/svg" xmlns:xlink="http://www.w3.org/1999/xlink" x="0px" y="0px"
	 viewBox="0 0 926 926" style="enable-background:new 0 0 926 926;" xml:space="preserve">
<style type="text/css">
	.st0{fill:none;stroke:#C6D4E3;stroke-width:0.5;stroke-miterlimit:10;}
	.st1{fill:#C4D3E0;}
	.st2{fill:none;stroke:#6D8FB0;stroke-width:0.5;stroke-miterlimit:10;}
	.st3{fill:#56669B;}
	.st4{fill:#C7D8E2;}
	.st5{fill:#A2BDD0;}
	.st6{fill:#565A84;}
	.st7{fill:#595959;}
</style>
<g>
	<polygon id="triangle36_48_" class="st0" points="192.2,733.3 154.4,783 96.6,696.1 	"/>
	<polygon class="st0" points="134.4,582.7 134.4,582.7 192.2,733.3 96.6,696.1 32.4,589.7 	"/>
	<polygon id="triangle36_45_" class="st0" points="32.4,589.7 134.4,582.7 57.7,514.7 	"/>
	<polygon id="triangle36_44_" class="st0" points="57.7,514.7 32.4,589.7 16.7,455.3 	"/>
	<polygon id="triangle36_43_" class="st0" points="57.7,514.7 134.4,582.7 249.5,524.4 	"/>
	<polygon class="st0" points="134.4,582.7 249.5,524.4 248.9,704.7 192.2,733.3 	"/>
	<polygon id="triangle36_42_" class="st0" points="57.7,514.7 249.5,524.4 117.6,414.8 	"/>
	<polyline class="st0" points="16.7,455.3 64.1,296.1 117.6,414.8 117.6,414.8 57.7,514.7 16.7,455.3 	"/>
	<polygon id="triangle36_39_" class="st0" points="117.6,414.8 249.5,524.4 113.1,349.3 	"/>
	<polygon id="triangle36_37_" class="st0" points="249.5,524.4 283.3,381.7 343.6,591.4 	"/>
	<polygon id="triangle36_36_" class="st0" points="249.5,524.4 248.9,704.7 343.6,591.4 	"/>
	<polygon id="triangle36_35_" class="st0" points="248.9,704.7 192.2,733.3 346.1,820 	"/>
	<polygon class="st0" points="248.9,704.7 343.6,591.4 439.4,657.1 346.1,820 	"/>
	<polygon id="triangle36_34_" class="st0" points="192.2,733.3 154.4,783 246.2,801.4 	"/>
	<polygon class="st0" points="192.2,733.3 346.1,820 379.6,892.7 246.2,801.4 248.7,801.2 246.2,801.4 	"/>
	<polygon id="triangle36_32_" class="st0" points="439.4,657.1 346.1,820 444.9,804.2 	"/>
	<polygon class="st0" points="444.9,804.2 510.8,906.7 379.6,892.7 346.1,820 	"/>
	<polygon class="st0" points="439.4,657.1 343.6,591.4 546.8,544 613.8,719.5 	"/>
	<polygon id="triangle36_28_" class="st0" points="439.4,657.1 444.9,804.2 613.8,719.5 	"/>
	<polygon id="triangle36_27_" class="st0" points="444.9,804.2 613.8,719.5 648.4,796.7 	"/>
	<polygon class="st0" points="510.8,906.7 444.9,804.2 550.1,862.5 598.2,877.1 	"/>
	<polygon class="st0" points="550.1,862.5 444.9,804.2 648.4,796.7 598.2,877.1 	"/>
	<polygon class="st0" points="249.5,524.4 113.1,349.3 375,337.6 283.3,381.7 	"/>
	<polygon class="st0" points="283.3,381.7 375,337.6 472.2,387.5 343.6,591.4 	"/>
	<polygon class="st0" points="117.6,414.8 142,261 276.7,183.3 113.1,349.3 	"/>
	<polygon id="triangle36_25_" class="st0" points="113.1,349.3 375,337.6 276.7,183.3 	"/>
	<polygon class="st0" points="64.1,296.1 64.1,296.1 101.8,206 142,261 142,261 142,261 142,261 142,261 117.6,414.8 	"/>
	<polygon id="triangle36_24_" class="st0" points="276.7,183.3 375,337.6 438.6,138.1 	"/>
	<polygon id="triangle36_23_" class="st0" points="438.6,138.1 375,337.6 541.8,244.5 	"/>
	<polygon id="triangle36_22_" class="st0" points="375,337.6 472.2,387.5 541.8,244.5 	"/>
	<polygon id="triangle36_21_" class="st0" points="541.8,244.5 472.2,387.5 632.8,342 	"/>
	<polygon class="st0" points="343.6,591.4 472.2,387.5 632.8,342 546.8,544 	"/>
	<polygon id="triangle36_20_" class="st0" points="632.8,342 546.8,544 727.8,509.1 	"/>
	<polygon id="triangle36_19_" class="st0" points="546.8,544 613.8,719.5 727.8,509.1 	"/>
	<polygon id="triangle36_18_" class="st0" points="727.8,509.1 613.8,719.5 754.6,681.8 	"/>
	<polygon id="triangle36_17_" class="st0" points="613.8,719.5 754.6,681.8 718.6,757.9 	"/>
	<polygon class="st0" points="648.4,796.7 719.1,815.6 646.2,855 598.2,877.1 	"/>
	<polygon id="triangle36_15_" class="st0" points="727.8,509.1 754.6,681.8 842.1,642.9 	"/>
	<polygon class="st0" points="718.6,757.9 754.6,681.8 834.7,720.5 719.1,815.6 648.4,796.7 613.8,719.5 	"/>
	<polygon class="st0" points="727.8,509.1 632.8,342 778.8,407 826.9,542.5 	"/>
	<polygon id="triangle36_11_" class="st0" points="541.8,244.5 632.8,342 737.4,202.5 	"/>
	<polygon id="triangle36_10_" class="st0" points="632.8,342 778.8,407 737.4,202.5 	"/>
	<polygon class="st0" points="541.8,244.5 438.6,138.1 601.1,178.6 737.4,202.5 	"/>
	<polyline class="st0" points="292.3,52.7 276.7,183.3 142,261 	"/>
	<polyline class="st0" points="142,261 101.8,206 184.4,152.5 292.3,52.7 	"/>
	<polygon class="st0" points="350.1,86.2 418.1,51.7 438.6,138.1 276.7,183.3 	"/>
	<polygon class="st0" points="438.6,138.1 418.1,51.7 496.9,71.2 601.1,178.6 	"/>
	<polygon class="st0" points="350.1,86.2 276.7,183.3 292.3,52.7 418.1,51.7 	"/>
	<polygon class="st0" points="535.7,33.4 535.7,33.4 619.4,89.6 601.1,178.6 496.9,71.2 418.1,51.7 	"/>
	<polygon class="st0" points="601.1,178.6 619.4,89.6 729,139.3 	"/>
	<polygon id="triangle36_5_" class="st0" points="737.4,202.5 778.8,407 813.3,299.1 	"/>
	<polyline class="st0" points="819.8,246.2 813.3,299.1 737.4,202.5 737.4,202.5 601.1,178.6 729,139.3 819.8,246.2 	"/>
	<polygon id="triangle36_3_" class="st0" points="778.8,407 826.9,542.5 853.3,423.3 	"/>
	<polygon id="triangle36_2_" class="st0" points="819.8,246.2 813.3,299.1 862.4,327.7 	"/>
	<polygon class="st0" points="778.8,407 813.3,299.1 862.4,327.7 906.7,372.5 	"/>
	<polygon class="st0" points="853.3,423.3 778.8,407 906.7,372.5 891.6,454.1 	"/>
	<polygon class="st0" points="727.8,509.1 826.9,542.5 875,594.9 842.1,642.9 	"/>
	<polygon class="st0" points="842.1,642.9 875,594.9 834.7,720.5 754.6,681.8 	"/>
	<polygon class="st0" points="853.3,423.3 891.6,454.1 875,594.9 826.9,542.5 	"/>
</g>
<g>
	
		<ellipse transform="matrix(0.7071 -0.7071 0.7071 0.7071 -463.9454 272.1935)" class="st1" cx="96.6" cy="696.1" rx="3.6" ry="3.6"/>
	
		<ellipse transform="matrix(0.7071 -0.7071 0.7071 0.7071 -508.4572 338.5071)" class="st1" cx="154.4" cy="783" rx="3.6" ry="3.6"/>
	
		<ellipse transform="matrix(0.7071 -0.7071 0.7071 0.7071 -462.218 350.6593)" class="st1" cx="192.2" cy="733.3" rx="3.6" ry="3.6"/>
	
		<ellipse transform="matrix(0.7071 -0.7071 0.7071 0.7071 -494.5722 408.7943)" class="st1" cx="246.2" cy="801.4" rx="3.6" ry="3.6"/>
	
		<ellipse transform="matrix(0.7071 -0.7071 0.7071 0.7071 -478.4373 484.8972)" class="st1" cx="346.1" cy="820" rx="3.6" ry="3.6"/>
	
		<ellipse transform="matrix(0.7071 -0.7071 0.7071 0.7071 -520.0441 529.8936)" class="st1" cx="379.6" cy="892.7" rx="3.6" ry="3.6"/>
	
		<ellipse transform="matrix(0.7071 -0.7071 0.7071 0.7071 -491.5613 626.647)" class="st1" cx="510.6" cy="906.7" rx="3.6" ry="3.6"/>
	
		<ellipse transform="matrix(0.7071 -0.7071 0.7071 0.7071 -438.3615 550.1209)" class="st1" cx="444.9" cy="804.2" rx="3.6" ry="3.6"/>
	
		<ellipse transform="matrix(0.7071 -0.7071 0.7071 0.7071 -448.7696 641.577)" class="st1" cx="550.1" cy="862.5" rx="3.6" ry="3.6"/>
	
		<ellipse transform="matrix(0.7071 -0.7071 0.7071 0.7071 -444.985 679.8741)" class="st1" cx="598.2" cy="877.1" rx="3.6" ry="3.6"/>
	
		<ellipse transform="matrix(0.7071 -0.7071 0.7071 0.7071 -373.4188 691.8332)" class="st1" cx="648.4" cy="796.7" rx="3.6" ry="3.6"/>
	
		<ellipse transform="matrix(0.7071 -0.7071 0.7071 0.7071 -328.9738 644.7651)" class="st1" cx="613.8" cy="719.5" rx="3.6" ry="3.6"/>
	
		<ellipse transform="matrix(0.7071 -0.7071 0.7071 0.7071 -366.0799 747.346)" class="st1" cx="719.1" cy="815.6" rx="3.6" ry="3.6"/>
	
		<ellipse transform="matrix(0.7071 -0.7071 0.7071 0.7071 -325.4279 730.1009)" class="st1" cx="718.6" cy="757.9" rx="3.6" ry="3.6"/>
	
		<ellipse transform="matrix(0.7071 -0.7071 0.7071 0.7071 -261.1076 733.2673)" class="st1" cx="754.6" cy="681.8" rx="3.6" ry="3.6"/>
	
		<ellipse transform="matrix(0.7071 -0.7071 0.7071 0.7071 -264.9974 801.261)" class="st1" cx="834.7" cy="720.5" rx="3.6" ry="3.6"/>
	
		<ellipse transform="matrix(0.7071 -0.7071 0.7071 0.7071 -208.0015 783.7013)" class="st1" cx="842" cy="642.9" rx="3.6" ry="3.6"/>
	
		<ellipse transform="matrix(0.7071 -0.7071 0.7071 0.7071 -146.8416 663.7354)" class="st1" cx="727.8" cy="509.1" rx="3.6" ry="3.6"/>
	
		<ellipse transform="matrix(0.7071 -0.7071 0.7071 0.7071 -164.3627 792.9434)" class="st1" cx="875" cy="594.9" rx="3.6" ry="3.6"/>
	
		<ellipse transform="matrix(0.7071 -0.7071 0.7071 0.7071 -141.4081 743.5734)" class="st1" cx="826.9" cy="542.5" rx="3.6" ry="3.6"/>
	
		<ellipse transform="matrix(0.7071 -0.7071 0.7071 0.7071 -49.4037 727.3602)" class="st1" cx="853.3" cy="423.3" rx="3.6" ry="3.6"/>
	
		<ellipse transform="matrix(0.7071 -0.7071 0.7071 0.7071 -59.9827 763.4604)" class="st1" cx="891.6" cy="454.1" rx="3.6" ry="3.6"/>
	<ellipse transform="matrix(0.7071 -0.7071 0.7071 0.7071 2.1728 750.2101)" class="st1" cx="906.7" cy="372.5" rx="3.6" ry="3.6"/>
	<ellipse transform="matrix(0.7071 -0.7071 0.7071 0.7071 -59.685 669.8757)" class="st1" cx="778.8" cy="407" rx="3.6" ry="3.6"/>
	
		<ellipse transform="matrix(0.7071 -0.7071 0.7071 0.7071 20.8573 705.7684)" class="st1" cx="862.4" cy="327.7" rx="3.6" ry="3.6"/>
	
		<ellipse transform="matrix(0.7071 -0.7071 0.7071 0.7071 26.7122 662.6892)" class="st1" cx="813.3" cy="299.1" rx="3.6" ry="3.6"/>
	<ellipse transform="matrix(0.7071 -0.7071 0.7071 0.7071 66.04 651.7968)" class="st1" cx="819.8" cy="246.2" rx="3.6" ry="3.6"/>
	<ellipse transform="matrix(0.7071 -0.7071 0.7071 0.7071 72.79 580.7195)" class="st1" cx="737.4" cy="202.5" rx="3.6" ry="3.6"/>
	<ellipse transform="matrix(0.7071 -0.7071 0.7071 0.7071 115.0027 556.2778)" class="st1" cx="729" cy="139.3" rx="3.6" ry="3.6"/>
	<ellipse transform="matrix(0.7071 -0.7071 0.7071 0.7071 49.764 477.3602)" class="st1" cx="601.1" cy="178.6" rx="3.6" ry="3.6"/>
	<ellipse transform="matrix(0.7071 -0.7071 0.7071 0.7071 118.0449 464.232)" class="st1" cx="619.4" cy="89.6" rx="3.6" ry="3.6"/>
	
		<ellipse transform="matrix(0.7071 -0.7071 0.7071 0.7071 133.2704 388.5635)" class="st1" cx="535.7" cy="33.4" rx="3.6" ry="3.6"/>
	<ellipse transform="matrix(0.7071 -0.7071 0.7071 0.7071 95.1881 372.2287)" class="st1" cx="496.9" cy="71.2" rx="3.6" ry="3.6"/>
	<ellipse transform="matrix(0.7071 -0.7071 0.7071 0.7071 85.9113 310.7885)" class="st1" cx="418.1" cy="51.7" rx="3.6" ry="3.6"/>
	<ellipse transform="matrix(0.7071 -0.7071 0.7071 0.7071 30.7995 350.591)" class="st1" cx="438.6" cy="138.1" rx="3.6" ry="3.6"/>
	<ellipse transform="matrix(0.7071 -0.7071 0.7071 0.7071 41.6014 272.8024)" class="st1" cx="350.1" cy="86.2" rx="3.6" ry="3.6"/>
	<ellipse transform="matrix(0.7071 -0.7071 0.7071 0.7071 48.3491 222.1008)" class="st1" cx="292.3" cy="52.7" rx="3.6" ry="3.6"/>
	
		<ellipse transform="matrix(0.7071 -0.7071 0.7071 0.7071 -48.5634 249.3246)" class="st1" cx="276.7" cy="183.3" rx="3.6" ry="3.6"/>
	
		<ellipse transform="matrix(0.7071 -0.7071 0.7071 0.7071 -53.8144 175.0449)" class="st1" cx="184.4" cy="152.5" rx="3.6" ry="3.6"/>
	<ellipse transform="matrix(0.7071 -0.7071 0.7071 0.7071 -142.9764 176.8424)" class="st1" cx="142" cy="261" rx="3.6" ry="3.6"/>
	
		<ellipse transform="matrix(0.7071 -0.7071 0.7071 0.7071 -115.6791 132.1072)" class="st1" cx="101.6" cy="205.7" rx="3.6" ry="3.6"/>
	
		<ellipse transform="matrix(0.7071 -0.7071 0.7071 0.7071 -213.8728 182.2965)" class="st1" cx="113.1" cy="349.3" rx="3.6" ry="3.6"/>
	
		<ellipse transform="matrix(0.7071 -0.7071 0.7071 0.7071 -190.5984 132.0567)" class="st1" cx="64.1" cy="296.1" rx="3.6" ry="3.6"/>
	
		<ellipse transform="matrix(0.7071 -0.7071 0.7071 0.7071 -258.8435 204.6355)" class="st1" cx="117.6" cy="414.8" rx="3.6" ry="3.6"/>
	
		<ellipse transform="matrix(0.7071 -0.7071 0.7071 0.7071 -317.0372 145.173)" class="st1" cx="16.7" cy="455.3" rx="3.6" ry="3.6"/>
	
		<ellipse transform="matrix(0.7071 -0.7071 0.7071 0.7071 -347.0476 191.561)" class="st1" cx="57.7" cy="514.7" rx="3.6" ry="3.6"/>
	<ellipse transform="matrix(0.7071 -0.7071 0.7071 0.7071 -407.4796 195.63)" class="st1" cx="32.4" cy="589.7" rx="3.6" ry="3.6"/>
	
		<ellipse transform="matrix(0.7071 -0.7071 0.7071 0.7071 -372.6497 265.6954)" class="st1" cx="134.4" cy="582.7" rx="3.6" ry="3.6"/>
	
		<ellipse transform="matrix(0.7071 -0.7071 0.7071 0.7071 -297.7411 330.0045)" class="st1" cx="249.5" cy="524.4" rx="3.6" ry="3.6"/>
	
		<ellipse transform="matrix(0.7071 -0.7071 0.7071 0.7071 -317.5317 416.1896)" class="st1" cx="343.6" cy="591.4" rx="3.6" ry="3.6"/>
	
		<ellipse transform="matrix(0.7071 -0.7071 0.7071 0.7071 -425.3827 382.4063)" class="st1" cx="248.9" cy="704.7" rx="3.6" ry="3.6"/>
	
		<ellipse transform="matrix(0.7071 -0.7071 0.7071 0.7071 -335.9392 503.143)" class="st1" cx="439.4" cy="657.1" rx="3.6" ry="3.6"/>
	
		<ellipse transform="matrix(0.7071 -0.7071 0.7071 0.7071 -224.384 545.4972)" class="st1" cx="546.3" cy="543.6" rx="3.6" ry="3.6"/>
	
		<ellipse transform="matrix(0.7071 -0.7071 0.7071 0.7071 -186.9291 312.0922)" class="st1" cx="283.3" cy="381.7" rx="3.6" ry="3.6"/>
	
		<ellipse transform="matrix(0.7071 -0.7071 0.7071 0.7071 -135.7041 447.401)" class="st1" cx="472.2" cy="387.5" rx="3.6" ry="3.6"/>
	
		<ellipse transform="matrix(0.7071 -0.7071 0.7071 0.7071 -128.9717 364.0594)" class="st1" cx="375" cy="337.7" rx="3.6" ry="3.6"/>
	
		<ellipse transform="matrix(0.7071 -0.7071 0.7071 0.7071 -14.1953 454.7404)" class="st1" cx="541.8" cy="244.5" rx="3.6" ry="3.6"/>
	<ellipse transform="matrix(0.7071 -0.7071 0.7071 0.7071 -56.488 547.6194)" class="st1" cx="632.8" cy="342" rx="3.6" ry="3.6"/>
</g>
<g>
	<polygon id="triangle36_322_" class="st2" points="285,109.6 453.9,58.8 320.5,45.6 	"/>
	<polygon id="triangle36_321_" class="st2" points="320.5,45.6 453.9,58.8 352.6,14.3 	"/>
	<polygon id="triangle36_320_" class="st2" points="453.9,58.8 462.9,7.8 352.6,14.3 	"/>
	<polygon id="triangle36_319_" class="st2" points="285,109.6 320.5,45.6 238.1,62.1 	"/>
	<polygon id="triangle36_318_" class="st2" points="320.5,45.6 352.6,14.3 238.1,62.1 	"/>
	<polygon id="triangle36_317_" class="st2" points="238.1,62.1 285,109.6 184.6,122.9 	"/>
	<polygon id="triangle36_316_" class="st2" points="184.6,122.9 238.1,62.1 123.7,152.5 	"/>
	<polygon id="triangle36_315_" class="st2" points="184.6,122.9 285,109.6 285.1,189.6 	"/>
	<polygon class="st2" points="285,109.6 285.1,189.6 514.6,144.7 453.9,58.8 	"/>
	<polygon id="triangle36_312_" class="st2" points="184.6,122.9 285.1,189.6 154.2,294.5 	"/>
	<polygon class="st2" points="123.7,152.5 73.5,246.3 154.2,294.5 184.6,122.9 	"/>
	<polygon id="triangle36_310_" class="st2" points="73.5,246.3 123.7,152.5 46.3,271 	"/>
	<polygon id="triangle36_309_" class="st2" points="73.5,246.3 154.2,294.5 46.3,271 	"/>
	<polygon id="triangle36_308_" class="st2" points="154.2,294.5 285.1,189.6 211.4,397.7 	"/>
	<polygon id="triangle36_306_" class="st2" points="46.3,271 154.2,294.5 97.7,382.9 	"/>
	<polygon id="triangle36_303_" class="st2" points="285.1,189.6 324.2,429 519,400.7 	"/>
	<polygon id="triangle36_302_" class="st2" points="285.1,189.6 514.6,144.7 519,400.7 	"/>
	<polygon id="triangle36_300_" class="st2" points="514.6,144.7 453.9,58.8 604.4,172.7 	"/>
	<polygon class="st2" points="514.6,144.7 519,400.7 607,282.5 604.4,172.7 	"/>
	<polygon id="triangle36_297_" class="st2" points="453.9,58.8 462.9,7.8 578.2,16.8 	"/>
	<polygon class="st2" points="601.2,44 578.2,16.8 453.9,58.8 604.4,172.7 	"/>
	<polygon class="st2" points="578.2,16.8 601.2,44 604.4,172.7 718.2,80.2 	"/>
	<polygon id="triangle36_293_" class="st2" points="604.4,172.7 718.2,80.2 683.1,158.6 	"/>
	<polygon id="triangle36_292_" class="st2" points="607,282.5 604.4,172.7 766.1,263 	"/>
	<polygon id="triangle36_291_" class="st2" points="604.4,172.7 683.1,158.6 766.1,263 	"/>
	<polygon id="triangle36_290_" class="st2" points="718.2,80.2 683.1,158.6 821.1,177.2 	"/>
	<polygon id="triangle36_289_" class="st2" points="683.1,158.6 766.1,263 821.1,177.2 	"/>
	<polygon class="st2" points="607,282.5 519,400.7 579.8,503.3 789.3,415.9 	"/>
	<polygon id="triangle36_285_" class="st2" points="607,282.5 766.1,263 789.3,415.9 	"/>
	<polygon id="triangle36_283_" class="st2" points="766.1,263 789.3,415.9 849.9,358.2 	"/>
	<polygon class="st2" points="821.1,177.2 766.1,263 825.2,233.2 873,258.7 	"/>
	<polygon class="st2" points="825.2,233.2 766.1,263 849.9,358.2 873,258.7 	"/>
	<polygon id="triangle36_280_" class="st2" points="849.9,358.2 892.7,312.1 873,258.7 	"/>
	<polygon class="st2" points="285.1,189.6 211.4,397.7 250.7,530.7 324.2,429 	"/>
	<polygon class="st2" points="324.2,429 250.7,530.7 343.8,555.8 519,400.7 	"/>
	<polygon class="st2" points="154.2,294.5 97.7,382.9 99,542.5 211.4,397.7 	"/>
	<polygon id="triangle36_274_" class="st2" points="211.4,397.7 250.7,530.7 99,542.5 	"/>
	<polygon class="st2" points="46.3,271 14.2,376.3 97.7,382.9 	"/>
	<polygon class="st2" points="5.1,495.6 20.8,517 97.7,382.9 14.2,376.3 	"/>
	<polygon id="triangle36_270_" class="st2" points="99,542.5 250.7,530.7 227.8,710.4 	"/>
	<polygon id="triangle36_269_" class="st2" points="227.8,710.4 250.7,530.7 407.5,727.9 	"/>
	<polygon id="triangle36_268_" class="st2" points="250.7,530.7 343.8,555.8 407.5,727.9 	"/>
	<polygon id="triangle36_267_" class="st2" points="407.5,727.9 343.8,555.8 537,612.7 	"/>
	<polygon class="st2" points="519,400.7 343.8,555.8 537,612.7 579.8,503.3 	"/>
	<polygon id="triangle36_265_" class="st2" points="537,612.7 579.8,503.3 704.1,620 	"/>
	<polygon id="triangle36_264_" class="st2" points="579.8,503.3 789.3,415.9 704.1,620 	"/>
	<polygon id="triangle36_263_" class="st2" points="704.1,620 789.3,415.9 843.3,526.8 	"/>
	<polygon id="triangle36_262_" class="st2" points="789.3,415.9 843.3,526.8 910.8,453.6 	"/>
	<polygon id="triangle36_260_" class="st2" points="849.9,358.2 892.7,312.1 918.2,397.7 	"/>
	<polygon class="st2" points="849.9,358.2 789.3,415.9 910.8,453.6 918.2,397.7 	"/>
	<polygon id="triangle36_257_" class="st2" points="704.1,620 843.3,526.8 880.4,623.1 	"/>
	<polygon id="triangle36_256_" class="st2" points="843.3,526.8 880.4,623.1 917.4,548.2 	"/>
	<polygon id="triangle36_255_" class="st2" points="843.3,526.8 910.8,453.6 917.4,548.2 	"/>
	<polygon id="triangle36_254_" class="st2" points="910.8,453.6 918.2,397.7 917.4,548.2 	"/>
	<polygon class="st2" points="704.1,620 537,612.7 652.3,754.7 762.3,658.2 	"/>
	<polygon id="triangle36_251_" class="st2" points="407.5,727.9 537,612.7 407.8,830.6 	"/>
	<polygon id="triangle36_250_" class="st2" points="537,612.7 652.3,754.7 407.8,830.6 	"/>
	<polygon class="st2" points="407.5,727.9 227.8,710.4 252.4,783.9 407.8,830.6 	"/>
	<polygon id="triangle36_246_" class="st2" points="99,542.5 227.8,710.4 120.8,702.4 	"/>
	<polygon id="triangle36_244_" class="st2" points="5.1,495.6 20.8,517 34.8,630.5 	"/>
	<polygon class="st2" points="97.7,382.9 20.8,517 34.8,630.5 99,542.5 	"/>
	<polygon id="triangle36_242_" class="st2" points="120.8,702.4 227.8,710.4 106.4,750.6 	"/>
	<polygon class="st2" points="227.8,710.4 106.4,750.6 181.3,795.8 252.4,783.9 	"/>
	<polygon class="st2" points="120.8,702.4 99,542.5 34.8,630.5 106.4,750.6 	"/>
	<polygon id="triangle36_238_" class="st2" points="106.4,750.6 181.3,795.8 197.8,838.6 	"/>
	<polygon class="st2" points="181.3,795.8 197.8,838.6 280.9,883 252.4,783.9 	"/>
	<polygon class="st2" points="252.4,783.9 280.9,883 410.2,920.9 	"/>
	<polygon class="st2" points="252.4,783.9 410.2,920.9 441.5,896.2 407.8,830.6 	"/>
	<polygon id="triangle36_231_" class="st2" points="407.8,830.6 652.3,754.7 596.3,863.3 	"/>
	<polygon id="triangle36_230_" class="st2" points="410.2,920.9 441.5,896.2 560.9,908.5 	"/>
	<polygon class="st2" points="407.8,830.6 441.5,896.2 560.9,908.5 596.3,863.3 	"/>
	<polygon id="triangle36_227_" class="st2" points="652.3,754.7 762.3,658.2 721.5,799.1 	"/>
	<polygon id="triangle36_225_" class="st2" points="560.9,908.5 596.3,863.3 655.6,878.9 	"/>
	<polygon class="st2" points="652.3,754.7 596.3,863.3 655.6,878.9 700.1,855.1 	"/>
	<polygon class="st2" points="721.5,799.1 652.3,754.7 700.1,855.1 774.2,804.9 	"/>
	<polygon class="st2" points="762.3,658.2 721.5,799.1 774.2,804.9 803,753.1 	"/>
	<polygon class="st2" points="704.1,620 762.3,658.2 868.8,684.8 880.4,623.1 	"/>
	<polygon id="triangle36_217_" class="st2" points="880.4,623.1 917.4,548.2 868.8,684.8 	"/>
	<polygon class="st2" points="868.8,684.8 762.3,658.2 803,753.1 774.2,804.9 	"/>
</g>
<g>
	<circle class="st3" cx="352.6" cy="14.3" r="5.1"/>
	<circle class="st4" cx="462.9" cy="7.8" r="6"/>
	<circle class="st5" cx="453.9" cy="58.8" r="5.1"/>
	<circle class="st3" cx="601.2" cy="44" r="5.1"/>
	<circle class="st6" cx="578.2" cy="16.8" r="6"/>
	<circle class="st6" cx="604.4" cy="172.7" r="5.1"/>
	<circle class="st3" cx="718.2" cy="80.2" r="5.1"/>
	<circle class="st3" cx="683.1" cy="158.6" r="7"/>
	<circle class="st6" cx="821.1" cy="177.2" r="6"/>
	<circle class="st3" cx="766.1" cy="263" r="5.1"/>
	<circle class="st5" cx="825.2" cy="233.2" r="5.1"/>
	<circle class="st4" cx="873" cy="258.7" r="5.1"/>
	<circle class="st6" cx="892.7" cy="312.1" r="5.1"/>
	<circle class="st3" cx="849.9" cy="358.2" r="5.1"/>
	<circle class="st3" cx="789.3" cy="415.9" r="7"/>
	<circle class="st5" cx="918.2" cy="397.7" r="7"/>
	<circle class="st3" cx="910.8" cy="453.6" r="4"/>
	<circle class="st3" cx="843.3" cy="526.8" r="5.1"/>
	<circle class="st6" cx="917.4" cy="548.2" r="5.1"/>
	<circle class="st6" cx="880.4" cy="623.1" r="5.1"/>
	<circle class="st3" cx="704.1" cy="620" r="5.1"/>
	<circle class="st5" cx="868.8" cy="684.8" r="5.1"/>
	<circle class="st5" cx="762.3" cy="658.2" r="5.1"/>
	<circle class="st4" cx="803" cy="753.1" r="5.1"/>
	<circle class="st7" cx="721.5" cy="799.1" r="5.1"/>
	<circle class="st5" cx="774.2" cy="804.9" r="5.1"/>
	<circle class="st5" cx="700.1" cy="855.1" r="5.1"/>
	<circle class="st3" cx="652.3" cy="754.7" r="5.1"/>
	<circle class="st6" cx="655.6" cy="878.9" r="5.1"/>
	<circle class="st4" cx="596.3" cy="863.3" r="5.1"/>
	<circle class="st3" cx="560.9" cy="908.5" r="5.1"/>
	<circle class="st3" cx="407.8" cy="830.6" r="5.1"/>
	<circle class="st4" cx="441.5" cy="896.2" r="5.1"/>
	<circle class="st3" cx="410.2" cy="920.9" r="5.1"/>
	<circle class="st3" cx="252.4" cy="783.9" r="5.1"/>
	<circle class="st4" cx="280.9" cy="883" r="5.1"/>
	<circle class="st6" cx="197.8" cy="838.6" r="5.1"/>
	<circle class="st3" cx="181.3" cy="795.8" r="6"/>
	<circle class="st5" cx="106.4" cy="750.6" r="5.1"/>
	<circle class="st3" cx="227.8" cy="710.4" r="5.1"/>
	<circle class="st4" cx="120.8" cy="702.4" r="5.1"/>
	<circle class="st6" cx="34.8" cy="630.5" r="7"/>
	<circle class="st3" cx="99" cy="542.5" r="5.1"/>
	<circle class="st5" cx="20.8" cy="517" r="5.1"/>
	<circle class="st3" cx="5.1" cy="495.6" r="5.1"/>
	<circle class="st3" cx="97.7" cy="382.9" r="3"/>
	<circle class="st6" cx="13.7" cy="376.3" r="4"/>
	<circle class="st3" cx="211.4" cy="397.7" r="5.1"/>
	<circle class="st4" cx="46.3" cy="271" r="5.1"/>
	<circle class="st3" cx="154.2" cy="294.5" r="6"/>
	<circle class="st3" cx="73.5" cy="246.3" r="5.1"/>
	<circle class="st6" cx="123.7" cy="152.5" r="7"/>
	<circle class="st3" cx="184.6" cy="122.9" r="5.1"/>
	<circle class="st4" cx="238.1" cy="62.1" r="5.1"/>
	<circle class="st6" cx="320.5" cy="45.6" r="5.1"/>
	<circle class="st3" cx="285" cy="109.6" r="5.1"/>
	<circle class="st3" cx="285.1" cy="189.6" r="4"/>
	<circle class="st5" cx="519" cy="400.7" r="9"/>
	<circle class="st5" cx="514.6" cy="144.7" r="4"/>
	<circle class="st3" cx="607" cy="282.5" r="5.1"/>
	<circle class="st3" cx="579.2" cy="503.3" r="5.1"/>
	<circle class="st6" cx="324.2" cy="429" r="5.1"/>
	<circle class="st3" cx="343.8" cy="555.8" r="3"/>
	<circle class="st5" cx="250.8" cy="530.7" r="5.1"/>
	<circle class="st5" cx="407.5" cy="727.9" r="5.1"/>
	<circle class="st3" cx="537" cy="612.7" r="6"/>
</g>
</svg>
