<?xml version="1.0" encoding="utf-8"?>
<!-- Generator: Adobe Illustrator 15.0.0, SVG Export Plug-In . SVG Version: 6.00 Build 0)  -->
<!DOCTYPE svg PUBLIC "-//W3C//DTD SVG 1.1//EN" "http://www.w3.org/Graphics/SVG/1.1/DTD/svg11.dtd">
<svg version="1.1" id="图层_1" xmlns="http://www.w3.org/2000/svg" xmlns:xlink="http://www.w3.org/1999/xlink" x="0px" y="0px"
	 width="24px" height="24px" viewBox="0 0 24 24" enable-background="new 0 0 24 24" xml:space="preserve">
<g>
	<g>
		<path fill="#fff" d="M18.281,10.054h-0.129V8.26c0-0.887-0.164-1.744-0.484-2.553c-0.31-0.781-0.752-1.483-1.317-2.085
			c-0.564-0.603-1.223-1.073-1.954-1.404c-0.759-0.341-1.565-0.515-2.397-0.515c-0.83,0-1.637,0.174-2.396,0.515
			C8.869,2.549,8.213,3.02,7.648,3.623C7.082,4.224,6.641,4.926,6.33,5.708C6.01,6.516,5.848,7.374,5.848,8.26v1.794H5.717
			c-1.2,0-2.176,1.171-2.176,2.612v7.02c0,1.439,0.976,2.611,2.176,2.611h12.564c1.2,0,2.178-1.172,2.178-2.611v-7.02
			C20.459,11.225,19.481,10.054,18.281,10.054z M11.999,3.657c2.381,0,4.32,2.065,4.32,4.604v1.794H7.68V8.26
			C7.68,5.722,9.617,3.657,11.999,3.657z M18.633,12.857v6.635c0,0.393-0.264,0.711-0.59,0.711H5.957
			c-0.326,0-0.593-0.318-0.593-0.711v-6.635c0-0.391,0.267-0.71,0.593-0.71h12.086C18.369,12.147,18.633,12.466,18.633,12.857z"/>
	</g>
</g>
</svg>
