<?xml version="1.0" encoding="utf-8"?>
<!-- Generator: Adobe Illustrator 15.0.0, SVG Export Plug-In . SVG Version: 6.00 Build 0)  -->
<!DOCTYPE svg PUBLIC "-//W3C//DTD SVG 1.1//EN" "http://www.w3.org/Graphics/SVG/1.1/DTD/svg11.dtd">
<svg version="1.1" id="图层_1" xmlns="http://www.w3.org/2000/svg" xmlns:xlink="http://www.w3.org/1999/xlink" x="0px" y="0px"
	 width="120px" height="26px" viewBox="0 0 120 26" enable-background="new 0 0 120 26" xml:space="preserve">
<g>
	<polygon fill="none" points="76.558,11.779 69.392,23.712 76.558,23.712 76.558,23.128 	"/>
	<polygon fill="none" points="81.848,23.712 89.014,23.712 89.014,11.779 	"/>
	<polygon fill="#6DB02E" points="102.956,20.675 100.626,16.796 94.449,23.712 99.953,23.712 	"/>
	<polygon fill="none" points="70.347,3.146 63.373,3.146 63.373,14.871 	"/>
	<polygon fill="none" points="81.705,14.63 88.66,3.146 81.705,3.146 81.705,3.209 	"/>
	<polygon fill="#6DB02E" points="99.988,3.146 94.449,3.146 106.8,23.712 112.443,23.712 	"/>
	<polygon fill="#1473AC" points="107.421,3.146 101.882,3.146 114.232,23.712 119.876,23.712 	"/>
	<polygon fill="#1473AC" points="119.876,3.146 114.373,3.146 111.381,6.171 113.722,10.036 	"/>
	<polygon fill="#6DB02E" points="75.832,3.037 70.019,3.037 63.044,14.762 63.044,3.037 57.862,3.037 57.862,23.475 57.862,23.601 
		63.417,23.601 	"/>
	<polygon fill="#1473AC" points="77.607,11.779 77.607,23.128 77.607,23.712 82.581,23.712 89.32,11.779 89.32,23.712 94.16,23.712 
		94.16,3.209 94.16,3.146 88.988,3.146 82.447,14.63 82.447,3.209 82.447,3.146 77.274,3.146 65.561,23.712 70.867,23.712 	"/>
	<g>
		<g>
			<path fill="#1473AC" d="M13.72,3.146H2.705C1.926,3.152,1.296,3.785,1.296,4.565s0.63,1.414,1.409,1.419l0,0h6.241
				c0.541,0,0.978,0.448,0.978,0.991c0,0.202-0.06,0.39-0.163,0.546C9.755,7.531,0.877,21.47,0.877,21.47
				c-0.03,0.047-0.086,0.138-0.086,0.138c-0.088,0.146-0.19,0.418-0.19,0.701c0,0.773,0.621,1.404,1.392,1.418l0,0H13.72l0,0
				c0.774-0.011,1.398-0.643,1.398-1.418c0-0.777-0.624-1.408-1.398-1.42l-0.024-0.001h-6.89c-0.548,0-0.992-0.443-0.992-0.99
				c0-0.166,0.04-0.338,0.114-0.46L14.93,5.31h0c0.133-0.216,0.21-0.472,0.21-0.745C15.14,3.781,14.505,3.146,13.72,3.146"/>
			<path fill="#1473AC" d="M28.611,3.146c-0.003,0-10.983,0-10.983,0h-0.001c-0.784,0-1.42,0.635-1.42,1.42
				c0,0.784,0.636,1.419,1.42,1.419h0.001h2.482c0.783,0,1.418,0.635,1.418,1.417v14.723v0.003c0,0.883,0.714,1.598,1.595,1.598
				c0.882,0,1.596-0.715,1.596-1.598V7.402c0-0.782,0.634-1.417,1.417-1.417h2.475l0,0c0.785,0,1.42-0.636,1.42-1.42
				S29.396,3.146,28.611,3.146"/>
			<path fill="#1473AC" d="M41.769,20.889c-0.014,0-6.063,0.001-6.063,0.001c-0.78,0-1.412-0.628-1.419-1.406v-3.201v-0.018
				c0-0.783,0.636-1.42,1.42-1.42h0.002h5.014c0.784,0,1.42-0.636,1.42-1.419c0-0.785-0.636-1.42-1.42-1.42h-5.03
				c-0.777-0.008-1.406-0.64-1.406-1.419V7.383c0.012-0.774,0.643-1.398,1.419-1.398c0.001,0,0.001,0,0.002,0h6.079v0
				c0.777-0.008,1.404-0.641,1.404-1.419s-0.627-1.41-1.404-1.419l0,0h-9.274c-0.784,0-1.418,0.635-1.418,1.419
				c0,0.021,0,0.041,0,0.062c0,0-0.002,17.662-0.002,17.684c0,0.779,0.629,1.411,1.406,1.419l0,0h9.289
				c0.776-0.009,1.402-0.643,1.402-1.42C43.188,21.524,42.553,20.889,41.769,20.889"/>
		</g>
	</g>
</g>
</svg>
