<?xml version="1.0" encoding="utf-8"?>
<!-- Generator: Adobe Illustrator 15.0.0, SVG Export Plug-In . SVG Version: 6.00 Build 0)  -->
<!DOCTYPE svg PUBLIC "-//W3C//DTD SVG 1.1//EN" "http://www.w3.org/Graphics/SVG/1.1/DTD/svg11.dtd">
<svg version="1.1" id="图层_1" xmlns="http://www.w3.org/2000/svg" xmlns:xlink="http://www.w3.org/1999/xlink" x="0px" y="0px"
	 width="24px" height="24px" viewBox="0 0 24 24" enable-background="new 0 0 24 24" xml:space="preserve">
<g>
	<g>
		<path fill="#fff" d="M19.674,6.607l-0.46-0.469c-0.509-0.518-1.333-0.518-1.841,0L9.551,14.11l-2.923-2.979
			c-0.509-0.518-1.333-0.518-1.841,0L4.327,11.6c-0.509,0.519-0.509,1.359,0,1.876l3.841,3.913c0.001,0.001,0.001,0.002,0.002,0.003
			l0.461,0.469c0.508,0.518,1.332,0.518,1.84,0l0.461-0.469c0.001-0.001,0.001-0.002,0.002-0.003l8.74-8.907
			C20.182,7.965,20.182,7.125,19.674,6.607z"/>
	</g>
</g>
</svg>
