<?xml version="1.0" encoding="utf-8"?>
<!-- Generator: Adobe Illustrator 15.0.0, SVG Export Plug-In . SVG Version: 6.00 Build 0)  -->
<!DOCTYPE svg PUBLIC "-//W3C//DTD SVG 1.1//EN" "http://www.w3.org/Graphics/SVG/1.1/DTD/svg11.dtd">
<svg version="1.1" id="图层_1" xmlns="http://www.w3.org/2000/svg" xmlns:xlink="http://www.w3.org/1999/xlink" x="0px" y="0px"
	 width="24px" height="24px" viewBox="0 0 24 24" enable-background="new 0 0 24 24" xml:space="preserve">
<g>
	<path fill="#fff" d="M22.386,22.162c-0.073-1.24-0.532-2.238-1.403-3.047l0,0c-0.082-0.076-0.166-0.15-0.256-0.225
		c-0.041-0.031-0.082-0.064-0.125-0.097c-0.012-0.008-0.022-0.019-0.035-0.026c-0.01-0.009-0.021-0.017-0.033-0.023
		c-0.824-0.613-1.805-1-2.709-1.352c-1.182-0.463-2.201-0.861-2.506-1.58c-0.047-0.56-0.047-1.006-0.03-1.517c0-0.08,0-0.16,0-0.237
		c0.255-0.24,0.462-0.623,0.604-0.927c0.145-0.286,0.367-0.797,0.479-1.388c0.16-0.08,0.304-0.208,0.431-0.367
		c0.256-0.319,0.415-0.782,0.495-1.356c0.063-0.558-0.096-0.973-0.319-1.26c0.145-0.462,0.336-1.276,0.416-2.186
		c0.096-1.26-0.08-2.281-0.543-3.031c-0.432-0.702-1.084-1.132-1.947-1.308c-0.479-0.606-1.387-0.925-2.599-0.925
		c-1.851,0.032-3.207,0.606-4.02,1.675c-0.975,1.277-1.15,3.223-0.544,5.76c-0.223,0.287-0.399,0.718-0.319,1.276
		c0.063,0.574,0.223,1.037,0.479,1.356c0.127,0.16,0.271,0.287,0.447,0.367c0.159,0.878,0.638,1.851,1.101,2.313
		c0,0.077,0,0.157,0,0.237c0,0.511,0.016,0.94-0.032,1.517c-0.319,0.719-1.34,1.117-2.521,1.58
		c-0.958,0.383-2.042,0.797-2.919,1.498c-1.037,0.846-1.58,1.916-1.659,3.271c0,0.006,0.001,0.012,0.001,0.019
		c0,0.004-0.001,0.01-0.001,0.014l0,0c0,0.121,0.045,0.229,0.118,0.313c0.009,0.015,0.016,0.025,0.026,0.037
		c0.08,0.097,0.223,0.144,0.351,0.144h19.08c0.127,0,0.271-0.047,0.352-0.144c0.01-0.012,0.018-0.022,0.025-0.037
		c0.071-0.086,0.117-0.192,0.117-0.313l0,0c0-0.004-0.001-0.01-0.001-0.014C22.385,22.174,22.386,22.168,22.386,22.162z
		 M3.386,21.699c0.144-0.83,0.542-1.484,1.229-2.025c0.734-0.607,1.707-0.99,2.648-1.357c1.388-0.541,2.68-1.053,3.111-2.2
		c0.016-0.048,0.032-0.097,0.032-0.144c0.063-0.654,0.048-1.147,0.048-1.69c0-0.146,0-0.304,0-0.464c0-0.174-0.096-0.351-0.271-0.43
		c-0.191-0.145-0.797-1.133-0.893-2.074c-0.032-0.239-0.224-0.431-0.463-0.447c-0.064,0-0.319-0.191-0.415-0.973
		C8.363,9.496,8.555,9.352,8.57,9.352c0.176-0.127,0.271-0.351,0.224-0.559C8.491,7.661,8.363,6.64,8.395,5.778
		c0.048-0.909,0.271-1.643,0.686-2.186c0.622-0.813,1.707-1.244,3.238-1.276c0.926,0,1.626,0.239,1.851,0.622
		c0.08,0.144,0.208,0.239,0.367,0.255c0.67,0.096,1.148,0.383,1.451,0.877c0.766,1.244,0.318,3.525-0.063,4.69
		c-0.063,0.223,0.017,0.463,0.224,0.59c0,0,0.191,0.144,0.145,0.542c-0.096,0.782-0.352,0.973-0.415,0.973
		c-0.239,0.016-0.431,0.207-0.463,0.447c-0.097,0.957-0.687,1.93-0.877,2.074c-0.159,0.079-0.256,0.255-0.256,0.431
		c0,0.16,0,0.317,0,0.479c0,0.527-0.017,1.021,0.048,1.676c0,0.047,0.018,0.096,0.031,0.144c0.431,1.145,1.715,1.655,3.082,2.196
		l-0.002,0.004c0.94,0.367,1.914,0.75,2.646,1.357c0.688,0.541,1.085,1.195,1.229,2.025H3.386V21.699z"/>
	<path fill="#fff" d="M21.893,23.014H2.812c-0.24,0-0.465-0.098-0.601-0.262C2.2,22.74,2.188,22.723,2.176,22.705
		c-0.119-0.146-0.184-0.328-0.184-0.512c0-0.004,0-0.01,0-0.014c0-0.007,0-0.013,0-0.019c0-0.007,0-0.015,0-0.021
		c0.085-1.451,0.667-2.598,1.778-3.504c0.875-0.699,1.931-1.121,2.863-1.492l0.141-0.057c0.001,0,0.01-0.004,0.011-0.004
		c1.082-0.424,2.02-0.791,2.312-1.359c0.032-0.416,0.03-0.762,0.027-1.125c0-0.1-0.001-0.201-0.001-0.305v-0.111
		c-0.459-0.515-0.885-1.406-1.064-2.228c-0.148-0.092-0.284-0.217-0.412-0.377c-0.292-0.365-0.476-0.877-0.548-1.523
		c-0.07-0.495,0.033-0.981,0.292-1.381C6.799,6.098,7.012,4.118,8.025,2.79c0.885-1.163,2.323-1.77,4.273-1.803
		c1.271,0,2.228,0.33,2.783,0.957c0.903,0.21,1.592,0.691,2.046,1.432c0.493,0.799,0.691,1.884,0.59,3.226
		c-0.085,0.961-0.279,1.74-0.383,2.103C17.521,9,17.689,9.447,17.619,10.06c-0.092,0.659-0.28,1.168-0.563,1.522
		c-0.123,0.153-0.256,0.277-0.396,0.371c-0.121,0.547-0.322,1.018-0.477,1.326c-0.188,0.396-0.377,0.697-0.572,0.912v0.106
		c-0.016,0.484-0.016,0.912,0.025,1.435c0.276,0.563,1.215,0.932,2.297,1.354c0.857,0.334,1.918,0.748,2.791,1.396l0.074,0.056
		c0.047,0.035,0.09,0.067,0.131,0.103c0.088,0.069,0.172,0.145,0.271,0.235c0.002,0,0.003,0.002,0.004,0.002l0,0
		c0.937,0.871,1.428,1.938,1.506,3.267c0.001,0.006,0.001,0.014,0.001,0.02c0,0.004,0,0.01-0.001,0.014
		c0.001,0.006,0.001,0.012,0.001,0.018c0,0.187-0.064,0.367-0.186,0.515c-0.012,0.019-0.023,0.033-0.037,0.049
		C22.355,22.916,22.131,23.014,21.893,23.014z M2.71,22.336c0.015,0.012,0.056,0.027,0.102,0.027h19.081
		c0.045,0,0.086-0.016,0.101-0.027c0.006-0.008,0.011-0.016,0.016-0.021s0.009-0.01,0.013-0.014
		c0.018-0.021,0.037-0.055,0.041-0.096c-0.002-0.006-0.002-0.014-0.002-0.02c0-0.004,0-0.009,0-0.013s0-0.01,0.002-0.016
		c-0.072-1.142-0.498-2.06-1.297-2.804c-0.005-0.004-0.008-0.006-0.012-0.01c-0.081-0.074-0.156-0.143-0.23-0.203
		c-0.034-0.026-0.071-0.055-0.109-0.084l-0.07-0.053c-0.808-0.6-1.779-0.977-2.637-1.311c-1.255-0.492-2.33-0.914-2.686-1.756
		c-0.015-0.031-0.021-0.064-0.024-0.101c-0.05-0.578-0.049-1.039-0.033-1.553v-0.229c0-0.09,0.037-0.176,0.103-0.236
		c0.172-0.16,0.352-0.438,0.535-0.827c0.152-0.306,0.353-0.773,0.453-1.31c0.02-0.1,0.084-0.185,0.174-0.23
		c0.109-0.055,0.219-0.149,0.322-0.279c0.209-0.261,0.352-0.665,0.426-1.198c0.047-0.397-0.039-0.741-0.254-1.016
		c-0.063-0.084-0.084-0.194-0.054-0.296c0.071-0.227,0.31-1.051,0.401-2.118c0.092-1.198-0.075-2.152-0.495-2.832
		c-0.382-0.621-0.948-1-1.734-1.161c-0.075-0.015-0.143-0.057-0.19-0.117c-0.407-0.517-1.24-0.802-2.344-0.802
		c-1.735,0.03-3.003,0.55-3.761,1.547C7.634,4.374,7.471,6.22,8.057,8.67c0.023,0.096,0.001,0.197-0.06,0.275
		C7.843,9.144,7.673,9.484,7.743,9.976c0.059,0.524,0.2,0.936,0.411,1.199c0.107,0.134,0.211,0.221,0.327,0.274
		c0.097,0.044,0.166,0.133,0.185,0.238c0.144,0.788,0.578,1.708,1.011,2.141c0.061,0.063,0.095,0.145,0.095,0.23v0.237
		c0,0.104,0.001,0.203,0.001,0.302c0.002,0.396,0.005,0.77-0.034,1.241c-0.003,0.035-0.012,0.072-0.027,0.104
		c-0.373,0.839-1.447,1.259-2.69,1.746L6.875,17.75c-0.89,0.355-1.899,0.758-2.696,1.395c-0.954,0.779-1.458,1.767-1.536,3.015
		c0,0.004,0,0.008,0,0.012c0,0.006,0,0.013,0,0.021c0,0.004,0,0.01-0.001,0.016c0.003,0.041,0.024,0.074,0.041,0.096
		c0.004,0.004,0.008,0.008,0.011,0.014C2.7,22.32,2.705,22.328,2.71,22.336z M21.316,22.023H3.386c-0.096,0-0.187-0.041-0.249-0.115
		c-0.062-0.072-0.088-0.17-0.071-0.264c0.156-0.906,0.597-1.634,1.347-2.228c0.777-0.642,1.815-1.047,2.732-1.403
		c1.305-0.511,2.538-0.99,2.922-2.007c0.005-0.016,0.011-0.034,0.014-0.045c0-0.008,0-0.017,0.001-0.021
		c0.052-0.529,0.05-0.947,0.047-1.392c0-0.088-0.001-0.178-0.001-0.271v-0.463c0-0.045-0.021-0.106-0.081-0.135
		c-0.021-0.01-0.042-0.021-0.061-0.035c-0.299-0.225-0.922-1.325-1.021-2.3c-0.011-0.078-0.079-0.148-0.158-0.155
		c-0.278-0.014-0.608-0.35-0.719-1.258c-0.05-0.417,0.098-0.654,0.19-0.758c0.037-0.042,0.075-0.074,0.115-0.099
		C8.458,9.024,8.492,8.94,8.478,8.871C8.173,7.73,8.036,6.686,8.07,5.767c0.052-0.99,0.305-1.786,0.752-2.371
		c0.687-0.897,1.86-1.37,3.49-1.404l0,0c1.071,0,1.847,0.286,2.137,0.784c0.05,0.088,0.102,0.094,0.119,0.096
		c0.005,0,0.009,0.001,0.014,0.001c0.766,0.109,1.331,0.456,1.684,1.029c1.006,1.634,0.09,4.584-0.029,4.954
		c-0.021,0.071-0.008,0.165,0.082,0.22c0.009,0.005,0.017,0.011,0.023,0.017c0.035,0.026,0.34,0.272,0.271,0.841
		c-0.111,0.909-0.44,1.245-0.719,1.259c-0.08,0.007-0.147,0.078-0.16,0.166c-0.101,1.01-0.717,2.075-1.004,2.292
		c-0.016,0.012-0.031,0.021-0.049,0.029c-0.045,0.021-0.076,0.082-0.076,0.141v0.479c0,0.088,0,0.176-0.002,0.262
		C14.602,15,14.6,15.415,14.652,15.943c0,0.007,0,0.015,0,0.021c0.002,0.01,0.009,0.029,0.015,0.045
		c0.382,1.008,1.603,1.49,2.894,2.002c0.021,0.008,0.037,0.016,0.056,0.027c0.901,0.352,1.913,0.754,2.679,1.385
		c0.745,0.59,1.186,1.316,1.342,2.223c0.018,0.095-0.01,0.191-0.07,0.265C21.504,21.982,21.413,22.023,21.316,22.023z M3.795,21.375
		h17.112c-0.173-0.572-0.503-1.039-1.021-1.447c-0.706-0.584-1.651-0.951-2.563-1.309c-0.021-0.008-0.039-0.018-0.057-0.027
		c-1.353-0.535-2.734-1.098-3.209-2.361c-0.002-0.004-0.002-0.008-0.005-0.012c-0.019-0.059-0.045-0.137-0.048-0.227
		c-0.054-0.557-0.051-1.004-0.049-1.436c0-0.086,0.001-0.173,0.001-0.261v-0.479c0-0.289,0.153-0.56,0.396-0.698
		c0.135-0.138,0.652-0.974,0.738-1.837c0.051-0.374,0.326-0.663,0.674-0.727c0.055-0.075,0.153-0.283,0.204-0.7
		c0.019-0.154-0.015-0.228-0.028-0.251c-0.299-0.206-0.43-0.574-0.328-0.931c0.002-0.004,0.004-0.008,0.005-0.012
		c0.364-1.107,0.794-3.284,0.096-4.418c-0.249-0.405-0.646-0.643-1.215-0.725c-0.256-0.028-0.479-0.181-0.611-0.42
		c-0.126-0.216-0.673-0.455-1.566-0.455c-1.415,0.03-2.42,0.416-2.98,1.149C8.973,4.27,8.764,4.944,8.72,5.795
		C8.688,6.647,8.818,7.629,9.108,8.709C9.109,8.713,9.109,8.717,9.11,8.721c0.076,0.328-0.064,0.688-0.349,0.894
		c0,0.001-0.001,0.001-0.002,0.002C8.745,9.641,8.716,9.711,8.733,9.856c0.051,0.416,0.15,0.624,0.205,0.699
		c0.348,0.064,0.624,0.352,0.672,0.717c0.086,0.842,0.61,1.691,0.756,1.846c0.252,0.138,0.412,0.407,0.412,0.7v0.464
		c0,0.09,0,0.18,0.001,0.268c0.002,0.437,0.004,0.888-0.049,1.443c-0.003,0.09-0.029,0.168-0.048,0.225
		c-0.001,0.005-0.003,0.011-0.004,0.015c-0.484,1.291-1.914,1.85-3.296,2.389c-0.914,0.357-1.858,0.725-2.56,1.305
		C4.3,20.336,3.968,20.803,3.795,21.375z M8.65,9.667c-0.025,0.006-0.052,0.01-0.078,0.01C8.601,9.677,8.627,9.673,8.65,9.667z"/>
</g>
</svg>
